<svg width="1440" height="22" viewBox="0 0 1440 22" fill="none" xmlns="http://www.w3.org/2000/svg">
<path fill-rule="evenodd" clip-rule="evenodd" d="M1416.51 7.77454L1413.13 11.1533L1413.15 11.1708L1416.53 14.5496L1422.3 20.3242L1425.68 16.9454L1419.91 11.171L1425.7 5.37872L1422.32 1.99997L1416.53 7.79221L1416.51 7.77454Z" fill="#D8E022"/>
<path fill-rule="evenodd" clip-rule="evenodd" d="M1425.08 7.77454L1421.7 11.1533L1421.72 11.1708L1425.1 14.5496L1430.87 20.3242L1434.25 16.9454L1428.48 11.171L1434.27 5.37872L1430.89 1.99997L1425.1 7.79221L1425.08 7.77454Z" fill="#D8E022"/>
<path fill-rule="evenodd" clip-rule="evenodd" d="M1407.95 7.77454L1404.57 11.1533L1404.58 11.1708L1407.96 14.5496L1413.74 20.3242L1417.12 16.9454L1411.34 11.171L1417.13 5.37872L1413.76 1.99997L1407.96 7.79221L1407.95 7.77454Z" fill="#D8E022"/>
<path fill-rule="evenodd" clip-rule="evenodd" d="M1399.38 7.77454L1396 11.1533L1396.02 11.1708L1399.4 14.5496L1405.17 20.3242L1408.55 16.9454L1402.78 11.171L1408.57 5.37872L1405.19 1.99997L1399.4 7.79221L1399.38 7.77454Z" fill="#D8E022"/>
</svg>
