<svg width="1440" height="22" viewBox="0 0 1440 22" fill="none" xmlns="http://www.w3.org/2000/svg">
<path fill-rule="evenodd" clip-rule="evenodd" d="M1393.51 7.77454L1390.13 11.1533L1399.3 20.3242L1402.68 16.9454L1396.91 11.171L1402.7 5.37872L1399.32 1.99997L1393.53 7.79221L1393.51 7.77454Z" fill="#D8E022"/>
<path fill-rule="evenodd" clip-rule="evenodd" d="M1402.08 7.77454L1398.7 11.1533L1407.87 20.3242L1411.25 16.9454L1405.48 11.171L1411.27 5.37872L1407.89 1.99997L1402.1 7.79221L1402.08 7.77454Z" fill="#D8E022"/>
<path fill-rule="evenodd" clip-rule="evenodd" d="M1384.95 7.77454L1381.57 11.1533L1390.74 20.3242L1394.12 16.9454L1388.34 11.171L1394.13 5.37872L1390.76 1.99997L1384.96 7.79221L1384.95 7.77454Z" fill="#D8E022"/>
<path fill-rule="evenodd" clip-rule="evenodd" d="M1376.38 7.77454L1373 11.1533L1382.17 20.3242L1385.55 16.9454L1379.78 11.171L1385.57 5.37872L1382.19 1.99997L1376.4 7.79221L1376.38 7.77454Z" fill="#D8E022"/>
<rect x="1416.27" y="2" width="18" height="18" fill="#D8E022"/>
<path fill-rule="evenodd" clip-rule="evenodd" d="M440.317 2H433.686V7.68413L428 7.68413V14.3157H433.686V20H440.317V14.3157H446V7.68413L440.317 7.68413V2Z" fill="#D8E022"/>
</svg>
