<svg width="1440" height="22" viewBox="0 0 1440 22" fill="none" xmlns="http://www.w3.org/2000/svg">
<path fill-rule="evenodd" clip-rule="evenodd" d="M1348.51 7.77454L1345.13 11.1533L1354.3 20.3242L1357.68 16.9454L1351.91 11.171L1357.7 5.37872L1354.32 1.99997L1348.53 7.79221L1348.51 7.77454Z" fill="#D8E022"/>
<path fill-rule="evenodd" clip-rule="evenodd" d="M1357.08 7.77454L1353.7 11.1533L1362.87 20.3242L1366.25 16.9454L1360.48 11.171L1366.27 5.37872L1362.89 1.99997L1357.1 7.79221L1357.08 7.77454Z" fill="#D8E022"/>
<path fill-rule="evenodd" clip-rule="evenodd" d="M1339.95 7.77454L1336.57 11.1533L1345.74 20.3242L1349.12 16.9454L1343.34 11.171L1349.13 5.37872L1345.76 1.99997L1339.96 7.79221L1339.95 7.77454Z" fill="#D8E022"/>
<path fill-rule="evenodd" clip-rule="evenodd" d="M1331.38 7.77454L1328 11.1533L1337.17 20.3242L1340.55 16.9454L1334.78 11.171L1340.57 5.37872L1337.19 1.99997L1331.4 7.79221L1331.38 7.77454Z" fill="#D8E022"/>
<rect x="1371.27" y="2" width="18" height="18" fill="#D8E022"/>
<rect x="1394" y="2" width="18" height="18" fill="#D8E022"/>
<path d="M445.917 6.82368L441.093 2L436.958 6.13489L432.824 2.00023L428 6.82391L432.135 10.9586L428 15.0929L432.824 19.9165L436.958 15.7823L441.093 19.9168L445.917 15.0931L441.782 10.9586L445.917 6.82368Z" fill="#D8E022"/>
<path fill-rule="evenodd" clip-rule="evenodd" d="M1435 13.3682C1435 13.3682 1435 13.3682 1435 13.3682C1428.72 13.3682 1423.63 8.27852 1423.63 2H1417V20H1435V13.3682Z" fill="#D8E022"/>
</svg>
