<svg width="1440" height="22" viewBox="0 0 1440 22" fill="none" xmlns="http://www.w3.org/2000/svg">
<path fill-rule="evenodd" clip-rule="evenodd" d="M1233.51 7.77454L1230.13 11.1533L1239.3 20.3242L1242.68 16.9454L1236.91 11.171L1242.7 5.37872L1239.32 1.99997L1233.53 7.79221L1233.51 7.77454Z" fill="#D8E022"/>
<path fill-rule="evenodd" clip-rule="evenodd" d="M1242.08 7.77454L1238.7 11.1533L1247.87 20.3242L1251.25 16.9454L1245.48 11.171L1251.27 5.37872L1247.89 1.99997L1242.1 7.79221L1242.08 7.77454Z" fill="#D8E022"/>
<path fill-rule="evenodd" clip-rule="evenodd" d="M1224.95 7.77454L1221.57 11.1533L1230.74 20.3242L1234.12 16.9454L1228.34 11.171L1234.13 5.37872L1230.76 1.99997L1224.96 7.79221L1224.95 7.77454Z" fill="#D8E022"/>
<path fill-rule="evenodd" clip-rule="evenodd" d="M1216.38 7.77454L1213 11.1533L1222.17 20.3242L1225.55 16.9454L1219.78 11.171L1225.57 5.37872L1222.19 1.99997L1216.4 7.79221L1216.38 7.77454Z" fill="#D8E022"/>
<rect x="1256.27" y="2" width="18" height="18" fill="#D8E022"/>
<rect x="1279" y="2" width="18" height="18" fill="#D8E022"/>
<rect x="1371" y="2" width="18" height="18" fill="#D8E022"/>
<path d="M466.917 6.82368L462.093 2L457.958 6.13489L453.824 2.00023L449 6.82391L453.135 10.9586L449 15.0929L453.824 19.9165L457.958 15.7823L462.093 19.9168L466.917 15.0931L462.782 10.9586L466.917 6.82368Z" fill="#D8E022"/>
<path fill-rule="evenodd" clip-rule="evenodd" d="M1320 13.3682C1320 13.3682 1320 13.3682 1320 13.3682C1313.72 13.3682 1308.63 8.27852 1308.63 2H1302V20H1320V13.3682Z" fill="#D8E022"/>
<rect x="1394" y="10" width="18" height="10.4211" fill="#D8E022"/>
<path d="M1417 8.87273L1422.16 2L1435 10.0182L1433.23 16.9727L1429.02 20H1417V8.87273Z" fill="#D8E022"/>
</svg>
