<svg width="1440" height="22" viewBox="0 0 1440 22" fill="none" xmlns="http://www.w3.org/2000/svg">
<g clip-path="url(#clip0_600_5393)">
<rect x="1394" y="10" width="18" height="10.4211" fill="#D8E022"/>
<path d="M1417 8.87273L1422.16 2L1435 10.0182L1433.23 16.9727L1429.02 20H1417V8.87273Z" fill="#D8E022"/>
<circle cx="1380" cy="11" r="9" fill="#D8E022"/>
<circle cx="1357" cy="11" r="9" fill="#D8E022"/>
<circle cx="1334" cy="11" r="9" fill="#D8E022"/>
<path d="M17.9169 6.82368L13.0932 2L8.95833 6.13489L4.82368 2.00023L0 6.82391L4.13465 10.9586L0.000366509 15.0929L4.82405 19.9165L8.95834 15.7823L13.0929 19.9168L17.9165 15.0931L13.782 10.9586L17.9169 6.82368Z" fill="#D8E022"/>
<path d="M64.2163 14.3693L64.2163 7.54755H58.3687L58.3687 1.70027L51.547 1.70027L51.547 7.54755L45.7002 7.54755L45.7002 14.3693L51.547 14.3693L51.547 20.2164H58.3687L58.3687 14.3693L64.2163 14.3693Z" fill="#D8E022"/>
<path d="M40.8339 6.82368L36.0102 2L31.8753 6.13489L27.7407 2.00023L22.917 6.82391L27.0516 10.9586L22.9174 15.0929L27.741 19.9165L31.8753 15.7823L36.0098 19.9168L40.8335 15.0931L36.699 10.9586L40.8339 6.82368Z" fill="#D8E022"/>
<path d="M86.8339 6.82368L82.0102 2L77.8753 6.13489L73.7407 2.00023L68.917 6.82391L73.0516 10.9586L68.9174 15.0929L73.741 19.9165L77.8753 15.7823L82.0098 19.9168L86.8335 15.0931L82.699 10.9586L86.8339 6.82368Z" fill="#D8E022"/>
<path fill-rule="evenodd" clip-rule="evenodd" d="M898.755 14.5496L902.134 11.1709L892.963 2L889.584 5.37874L895.359 11.1532L889.566 16.9454L892.945 20.3242L898.737 14.5319L898.755 14.5496Z" fill="#D8E022"/>
<path fill-rule="evenodd" clip-rule="evenodd" d="M890.189 14.5496L893.567 11.1709L884.397 2L881.018 5.37874L886.792 11.1532L881 16.9454L884.379 20.3242L890.171 14.5319L890.189 14.5496Z" fill="#D8E022"/>
<path fill-rule="evenodd" clip-rule="evenodd" d="M907.322 14.5496L910.701 11.1709L901.53 2L898.152 5.37874L903.926 11.1532L898.134 16.9454L901.513 20.3242L907.305 14.5319L907.322 14.5496Z" fill="#D8E022"/>
<path fill-rule="evenodd" clip-rule="evenodd" d="M915.889 14.5496L919.268 11.1709L910.097 2L906.718 5.37874L912.492 11.1532L906.7 16.9454L910.079 20.3242L915.871 14.5319L915.889 14.5496Z" fill="#D8E022"/>
<rect x="924.268" y="2" width="18" height="18" fill="#D8E022"/>
<rect x="947" y="2" width="18" height="18" fill="#D8E022"/>
<path fill-rule="evenodd" clip-rule="evenodd" d="M987.996 13.3682C987.996 13.3682 987.996 13.3682 987.996 13.3682C981.719 13.3682 976.63 8.27852 976.63 2H970V20H987.996V13.3682Z" fill="#D8E022"/>
</g>
<defs>
<clipPath id="clip0_600_5393">
<rect width="1440" height="22" fill="white"/>
</clipPath>
</defs>
</svg>
