<svg width="1440" height="22" viewBox="0 0 1440 22" fill="none" xmlns="http://www.w3.org/2000/svg">
<g clip-path="url(#clip0_600_5450)">
<rect x="1394" y="10" width="18" height="10.4211" fill="#D8E022"/>
<rect x="1371" y="10" width="18" height="10.4211" fill="#D8E022"/>
<path d="M1302 8.87273L1307.16 2L1320 10.0182L1318.23 16.9727L1314.02 20H1302V8.87273Z" fill="#D8E022"/>
<circle cx="1357" cy="11" r="9" fill="#D8E022"/>
<circle cx="1288" cy="11" r="9" fill="#D8E022"/>
<path d="M64.2163 14.3693L64.2163 7.54761H58.3687L58.3687 1.70033L51.547 1.70033L51.547 7.54761L45.7002 7.54761L45.7002 14.3693L51.547 14.3693L51.547 20.2164H58.3687L58.3687 14.3693L64.2163 14.3693Z" fill="#D8E022"/>
<path d="M283.917 6.82368L279.093 2L274.958 6.13489L270.824 2.00023L266 6.82391L270.135 10.9586L266 15.0929L270.824 19.9165L274.958 15.7823L279.093 19.9168L283.917 15.0931L279.782 10.9586L283.917 6.82368Z" fill="#D8E022"/>
<path fill-rule="evenodd" clip-rule="evenodd" d="M534.755 14.5496L538.134 11.1709L528.963 2L525.584 5.37874L531.359 11.1532L525.566 16.9454L528.945 20.3242L534.737 14.5319L534.755 14.5496Z" fill="#D8E022"/>
<path fill-rule="evenodd" clip-rule="evenodd" d="M526.189 14.5496L529.567 11.1709L520.397 2L517.018 5.37874L522.792 11.1532L517 16.9454L520.379 20.3242L526.171 14.5319L526.189 14.5496Z" fill="#D8E022"/>
<path fill-rule="evenodd" clip-rule="evenodd" d="M543.322 14.5496L546.701 11.1709L537.53 2L534.152 5.37874L539.926 11.1532L534.134 16.9454L537.513 20.3242L543.305 14.5319L543.322 14.5496Z" fill="#D8E022"/>
<path fill-rule="evenodd" clip-rule="evenodd" d="M551.889 14.5496L555.268 11.1709L546.097 2L542.718 5.37874L548.492 11.1532L542.7 16.9454L546.079 20.3242L551.871 14.5319L551.889 14.5496Z" fill="#D8E022"/>
<path fill-rule="evenodd" clip-rule="evenodd" d="M576.513 7.77461L573.134 11.1533L582.305 20.3242L585.683 16.9455L579.909 11.171L585.701 5.37878L582.322 2.00004L576.53 7.79227L576.513 7.77461Z" fill="#D8E022"/>
<path fill-rule="evenodd" clip-rule="evenodd" d="M585.079 7.77461L581.7 11.1533L590.871 20.3242L594.25 16.9455L588.475 11.171L594.268 5.37878L590.889 2.00004L585.097 7.79227L585.079 7.77461Z" fill="#D8E022"/>
<path fill-rule="evenodd" clip-rule="evenodd" d="M567.945 7.77461L564.566 11.1533L573.737 20.3242L577.116 16.9455L571.342 11.171L577.134 5.37878L573.755 2.00004L567.963 7.79227L567.945 7.77461Z" fill="#D8E022"/>
<path fill-rule="evenodd" clip-rule="evenodd" d="M559.379 7.77461L556 11.1533L565.171 20.3242L568.55 16.9455L562.775 11.171L568.567 5.37878L565.189 2.00004L559.396 7.79227L559.379 7.77461Z" fill="#D8E022"/>
<path fill-rule="evenodd" clip-rule="evenodd" d="M500.755 14.5496L504.134 11.1709L494.963 2L491.584 5.37874L497.359 11.1532L491.566 16.9454L494.945 20.3242L500.737 14.5319L500.755 14.5496Z" fill="#D8E022"/>
<path fill-rule="evenodd" clip-rule="evenodd" d="M492.189 14.5496L495.567 11.1709L486.397 2L483.018 5.37874L488.792 11.1532L483 16.9454L486.379 20.3242L492.171 14.5319L492.189 14.5496Z" fill="#D8E022"/>
<path fill-rule="evenodd" clip-rule="evenodd" d="M509.322 14.5496L512.701 11.1709L503.53 2L500.152 5.37874L505.926 11.1532L500.134 16.9454L503.513 20.3242L509.305 14.5319L509.322 14.5496Z" fill="#D8E022"/>
<path fill-rule="evenodd" clip-rule="evenodd" d="M517.889 14.5496L521.268 11.1709L512.097 2L508.718 5.37874L514.492 11.1532L508.7 16.9454L512.079 20.3242L517.871 14.5319L517.889 14.5496Z" fill="#D8E022"/>
<rect x="924.268" y="2" width="18" height="18" fill="#D8E022"/>
<rect x="1187" y="2" width="18" height="18" fill="#D8E022"/>
<rect x="901" y="2" width="18" height="18" fill="#D8E022"/>
<rect x="878" y="2" width="18" height="18" fill="#D8E022"/>
<path fill-rule="evenodd" clip-rule="evenodd" d="M987.996 13.3682C987.996 13.3682 987.996 13.3682 987.996 13.3682C981.719 13.3682 976.63 8.27852 976.63 2H970V20H987.996V13.3682Z" fill="#D8E022"/>
<path fill-rule="evenodd" clip-rule="evenodd" d="M855 8.63175C855 8.63175 855 8.63175 855 8.63175C861.278 8.63175 866.366 13.7215 866.366 20L872.996 20L872.996 2L855 2L855 8.63175Z" fill="#D8E022"/>
<rect x="1" y="2" width="40" height="18" fill="#D8E022"/>
</g>
<defs>
<clipPath id="clip0_600_5450">
<rect width="1440" height="22" fill="white"/>
</clipPath>
</defs>
</svg>
