<svg width="1440" height="22" viewBox="0 0 1440 22" fill="none" xmlns="http://www.w3.org/2000/svg">
<rect x="1279" y="10" width="18" height="10.4211" fill="#D8E022"/>
<path d="M1302 8.87273L1307.16 2L1320 10.0182L1318.23 16.9727L1314.02 20H1302V8.87273Z" fill="#D8E022"/>
<circle cx="1334" cy="11" r="9" fill="#D8E022"/>
<path d="M59.0923 19.9169L63.916 15.0932L59.7811 10.9583L63.9158 6.82368L59.0921 2L54.9574 6.13465L50.8232 2.00037L45.9995 6.82405L50.1338 10.9583L45.9992 15.0929L50.8229 19.9165L54.9574 15.782L59.0923 19.9169Z" fill="#D8E022"/>
<path d="M223.917 6.82368L219.093 2L214.958 6.13489L210.824 2.00023L206 6.82391L210.135 10.9586L206 15.0929L210.824 19.9165L214.958 15.7823L219.093 19.9168L223.917 15.0931L219.782 10.9586L223.917 6.82368Z" fill="#D8E022"/>
<path fill-rule="evenodd" clip-rule="evenodd" d="M498.513 7.77461L495.134 11.1533L504.305 20.3242L507.683 16.9455L501.909 11.171L507.701 5.37878L504.322 2.00004L498.53 7.79227L498.513 7.77461Z" fill="#D8E022"/>
<path fill-rule="evenodd" clip-rule="evenodd" d="M507.079 7.77461L503.7 11.1533L512.871 20.3242L516.25 16.9455L510.475 11.171L516.268 5.37878L512.889 2.00004L507.097 7.79227L507.079 7.77461Z" fill="#D8E022"/>
<path fill-rule="evenodd" clip-rule="evenodd" d="M489.945 7.77461L486.566 11.1533L495.737 20.3242L499.116 16.9455L493.342 11.171L499.134 5.37878L495.755 2.00004L489.963 7.79227L489.945 7.77461Z" fill="#D8E022"/>
<path fill-rule="evenodd" clip-rule="evenodd" d="M481.379 7.77461L478 11.1533L487.171 20.3242L490.55 16.9455L484.775 11.171L490.567 5.37878L487.189 2.00004L481.396 7.79227L481.379 7.77461Z" fill="#D8E022"/>
<path fill-rule="evenodd" clip-rule="evenodd" d="M533.513 7.77461L530.134 11.1533L539.305 20.3242L542.683 16.9455L536.909 11.171L542.701 5.37878L539.322 2.00004L533.53 7.79227L533.513 7.77461Z" fill="#D8E022"/>
<path fill-rule="evenodd" clip-rule="evenodd" d="M542.079 7.77461L538.7 11.1533L547.871 20.3242L551.25 16.9455L545.475 11.171L551.268 5.37878L547.889 2.00004L542.097 7.79227L542.079 7.77461Z" fill="#D8E022"/>
<path fill-rule="evenodd" clip-rule="evenodd" d="M524.945 7.77461L521.566 11.1533L530.737 20.3242L534.116 16.9455L528.342 11.171L534.134 5.37878L530.755 2.00004L524.963 7.79227L524.945 7.77461Z" fill="#D8E022"/>
<path fill-rule="evenodd" clip-rule="evenodd" d="M516.379 7.77461L513 11.1533L522.171 20.3242L525.55 16.9455L519.775 11.171L525.567 5.37878L522.189 2.00004L516.396 7.79227L516.379 7.77461Z" fill="#D8E022"/>
<path fill-rule="evenodd" clip-rule="evenodd" d="M457.755 14.5496L461.134 11.1709L451.963 2L448.584 5.37874L454.359 11.1532L448.566 16.9454L451.945 20.3242L457.737 14.5319L457.755 14.5496Z" fill="#D8E022"/>
<path fill-rule="evenodd" clip-rule="evenodd" d="M449.189 14.5496L452.567 11.1709L443.397 2L440.018 5.37874L445.792 11.1532L440 16.9454L443.379 20.3242L449.171 14.5319L449.189 14.5496Z" fill="#D8E022"/>
<path fill-rule="evenodd" clip-rule="evenodd" d="M466.322 14.5496L469.701 11.1709L460.53 2L457.152 5.37874L462.926 11.1532L457.134 16.9454L460.513 20.3242L466.305 14.5319L466.322 14.5496Z" fill="#D8E022"/>
<path fill-rule="evenodd" clip-rule="evenodd" d="M474.889 14.5496L478.268 11.1709L469.097 2L465.718 5.37874L471.492 11.1532L465.7 16.9454L469.079 20.3242L474.871 14.5319L474.889 14.5496Z" fill="#D8E022"/>
<path fill-rule="evenodd" clip-rule="evenodd" d="M420.513 7.77461L417.134 11.1533L426.305 20.3242L429.683 16.9455L423.909 11.171L429.701 5.37878L426.322 2.00004L420.53 7.79227L420.513 7.77461Z" fill="#D8E022"/>
<path fill-rule="evenodd" clip-rule="evenodd" d="M429.079 7.77461L425.7 11.1533L434.871 20.3242L438.25 16.9455L432.475 11.171L438.268 5.37878L434.889 2.00004L429.097 7.79227L429.079 7.77461Z" fill="#D8E022"/>
<path fill-rule="evenodd" clip-rule="evenodd" d="M411.945 7.77461L408.566 11.1533L417.737 20.3242L421.116 16.9455L415.342 11.171L421.134 5.37878L417.755 2.00004L411.963 7.79227L411.945 7.77461Z" fill="#D8E022"/>
<path fill-rule="evenodd" clip-rule="evenodd" d="M403.379 7.77461L400 11.1533L409.171 20.3242L412.55 16.9455L406.775 11.171L412.567 5.37878L409.189 2.00004L403.396 7.79227L403.379 7.77461Z" fill="#D8E022"/>
<rect x="924.268" y="2" width="18" height="18" fill="#D8E022"/>
<rect x="832" y="2" width="18" height="18" fill="#D8E022"/>
<path fill-rule="evenodd" clip-rule="evenodd" d="M855 8.63175C855 8.63175 855 8.63175 855 8.63175C861.278 8.63175 866.366 13.7215 866.366 20L872.996 20L872.996 2L855 2L855 8.63175Z" fill="#D8E022"/>
<rect x="68" y="2" width="40" height="18" fill="#D8E022"/>
</svg>
