<svg width="1440" height="22" viewBox="0 0 1440 22" fill="none" xmlns="http://www.w3.org/2000/svg">
<rect x="970" y="10" width="18" height="10.4211" fill="#D8E022"/>
<rect x="993" y="10" width="18" height="10.4211" fill="#D8E022"/>
<rect x="1016" y="10" width="18" height="10.4211" fill="#D8E022"/>
<path d="M924 8.87273L929.164 2L942 10.0182L940.23 16.9727L936.025 20H924V8.87273Z" fill="#D8E022"/>
<circle cx="956" cy="11" r="9" fill="#D8E022"/>
<path fill-rule="evenodd" clip-rule="evenodd" d="M330.513 7.77461L327.134 11.1533L336.305 20.3242L339.683 16.9455L333.909 11.171L339.701 5.37878L336.322 2.00004L330.53 7.79227L330.513 7.77461Z" fill="#D8E022"/>
<path fill-rule="evenodd" clip-rule="evenodd" d="M339.079 7.77461L335.7 11.1533L344.871 20.3242L348.25 16.9455L342.475 11.171L348.268 5.37878L344.889 2.00004L339.097 7.79227L339.079 7.77461Z" fill="#D8E022"/>
<path fill-rule="evenodd" clip-rule="evenodd" d="M321.945 7.77461L318.566 11.1533L327.737 20.3242L331.116 16.9455L325.342 11.171L331.134 5.37878L327.755 2.00004L321.963 7.79227L321.945 7.77461Z" fill="#D8E022"/>
<path fill-rule="evenodd" clip-rule="evenodd" d="M313.379 7.77461L310 11.1533L319.171 20.3242L322.55 16.9455L316.775 11.171L322.567 5.37878L319.189 2.00004L313.396 7.79227L313.379 7.77461Z" fill="#D8E022"/>
<path fill-rule="evenodd" clip-rule="evenodd" d="M289.755 14.5496L293.134 11.1709L283.963 2L280.584 5.37874L286.359 11.1532L280.566 16.9454L283.945 20.3242L289.737 14.5319L289.755 14.5496Z" fill="#D8E022"/>
<path fill-rule="evenodd" clip-rule="evenodd" d="M281.189 14.5496L284.567 11.1709L275.397 2L272.018 5.37874L277.792 11.1532L272 16.9454L275.379 20.3242L281.171 14.5319L281.189 14.5496Z" fill="#D8E022"/>
<path fill-rule="evenodd" clip-rule="evenodd" d="M298.322 14.5496L301.701 11.1709L292.53 2L289.152 5.37874L294.926 11.1532L289.134 16.9454L292.513 20.3242L298.305 14.5319L298.322 14.5496Z" fill="#D8E022"/>
<path fill-rule="evenodd" clip-rule="evenodd" d="M306.889 14.5496L310.268 11.1709L301.097 2L297.718 5.37874L303.492 11.1532L297.7 16.9454L301.079 20.3242L306.871 14.5319L306.889 14.5496Z" fill="#D8E022"/>
<path fill-rule="evenodd" clip-rule="evenodd" d="M206.513 7.77461L203.134 11.1533L212.305 20.3242L215.683 16.9455L209.909 11.171L215.701 5.37878L212.322 2.00004L206.53 7.79227L206.513 7.77461Z" fill="#D8E022"/>
<path fill-rule="evenodd" clip-rule="evenodd" d="M215.079 7.77461L211.7 11.1533L220.871 20.3242L224.25 16.9455L218.475 11.171L224.268 5.37878L220.889 2.00004L215.097 7.79227L215.079 7.77461Z" fill="#D8E022"/>
<path fill-rule="evenodd" clip-rule="evenodd" d="M197.945 7.77461L194.566 11.1533L203.737 20.3242L207.116 16.9455L201.342 11.171L207.134 5.37878L203.755 2.00004L197.963 7.79227L197.945 7.77461Z" fill="#D8E022"/>
<path fill-rule="evenodd" clip-rule="evenodd" d="M189.379 7.77461L186 11.1533L195.171 20.3242L198.55 16.9455L192.775 11.171L198.567 5.37878L195.189 2.00004L189.396 7.79227L189.379 7.77461Z" fill="#D8E022"/>
<rect x="554.996" y="2" width="18" height="18" fill="#D8E022"/>
<rect x="113" y="2" width="18" height="18" fill="#D8E022"/>
<path fill-rule="evenodd" clip-rule="evenodd" d="M532 8.63175C532 8.63175 532 8.63175 532 8.63175C538.278 8.63175 543.366 13.7215 543.366 20L549.996 20L549.996 2L532 2L532 8.63175Z" fill="#D8E022"/>
<rect x="228" y="2" width="40" height="18" fill="#D8E022"/>
</svg>
