<svg width="1440" height="22" viewBox="0 0 1440 22" fill="none" xmlns="http://www.w3.org/2000/svg">
<rect x="1016" y="10" width="18" height="10.4211" fill="#D8E022"/>
<path d="M924 8.87273L929.164 2L942 10.0182L940.23 16.9727L936.025 20H924V8.87273Z" fill="#D8E022"/>
<path fill-rule="evenodd" clip-rule="evenodd" d="M695.755 14.5496L699.134 11.1709L689.963 2L686.584 5.37874L692.359 11.1532L686.566 16.9454L689.945 20.3242L695.737 14.5319L695.755 14.5496Z" fill="#D8E022"/>
<path fill-rule="evenodd" clip-rule="evenodd" d="M687.189 14.5496L690.567 11.1709L681.397 2L678.018 5.37874L683.792 11.1532L678 16.9454L681.379 20.3242L687.171 14.5319L687.189 14.5496Z" fill="#D8E022"/>
<path fill-rule="evenodd" clip-rule="evenodd" d="M704.322 14.5496L707.701 11.1709L698.53 2L695.152 5.37874L700.926 11.1532L695.134 16.9454L698.513 20.3242L704.305 14.5319L704.322 14.5496Z" fill="#D8E022"/>
<path fill-rule="evenodd" clip-rule="evenodd" d="M712.889 14.5496L716.268 11.1709L707.097 2L703.718 5.37874L709.492 11.1532L703.7 16.9454L707.079 20.3242L712.871 14.5319L712.889 14.5496Z" fill="#D8E022"/>
<path fill-rule="evenodd" clip-rule="evenodd" d="M20.5125 7.77461L17.1338 11.1533L26.3047 20.3242L29.6834 16.9455L23.9089 11.171L29.7012 5.37878L26.3224 2.00004L20.5302 7.79227L20.5125 7.77461Z" fill="#D8E022"/>
<path fill-rule="evenodd" clip-rule="evenodd" d="M29.0789 7.77461L25.7002 11.1533L34.8711 20.3242L38.2498 16.9455L32.4753 11.171L38.2676 5.37878L34.8888 2.00004L29.0966 7.79227L29.0789 7.77461Z" fill="#D8E022"/>
<path fill-rule="evenodd" clip-rule="evenodd" d="M11.9451 7.77461L8.56641 11.1533L17.7373 20.3242L21.116 16.9455L15.3416 11.171L21.1338 5.37878L17.755 2.00004L11.9628 7.79227L11.9451 7.77461Z" fill="#D8E022"/>
<path fill-rule="evenodd" clip-rule="evenodd" d="M3.37874 7.77461L-1.10561e-06 11.1533L9.17087 20.3242L12.5496 16.9455L6.77515 11.171L12.5674 5.37878L9.18864 2.00004L3.39641 7.79227L3.37874 7.77461Z" fill="#D8E022"/>
<rect x="43.2676" y="2" width="18" height="18" fill="#D8E022"/>
<rect x="721.268" y="2" width="40" height="18" fill="#D8E022"/>
</svg>
