<svg width="116" height="20" viewBox="0 0 116 20" fill="none" xmlns="http://www.w3.org/2000/svg">
<g opacity="0.7">
<path d="M9.03613 2.75391V4.11621H4.50977V2.75391H9.03613ZM9.60742 4.77539V6.18164H3.74805V4.77539H9.60742ZM7.5127 12.3926H5.91602V14.1211H7.5127V12.3926ZM9.05078 10.9863V15.5127H5.91602V16.0986H4.40723V10.9863H9.05078ZM4.45117 10.2393V8.90625H9.06543V10.2393H4.45117ZM4.45117 8.21777V6.85547H9.06543V8.21777H4.45117ZM17.7812 11.25V12.876H14.5146V16.3037H12.7568V12.876H9.41699V11.25H12.7568V9.74121H10.1934V8.15918H12.7568V6.73828H9.90039V5.1123H11.2627C11.0674 4.38965 10.7598 3.65234 10.3398 2.90039L11.79 2.3584C12.3076 3.19824 12.6641 4.02344 12.8594 4.83398L12.1416 5.1123H15.0713L14.3975 4.89258C14.8271 4.04297 15.1689 3.16895 15.4229 2.27051L17.166 2.75391C16.5898 3.90625 16.1748 4.69238 15.9209 5.1123H17.5469V6.73828H14.5146V8.15918H17.2246V9.74121H14.5146V11.25H17.7812ZM20.8193 11.0449L22.2988 11.2939C22.123 12.9443 21.8252 14.2383 21.4053 15.1758C21.0537 14.9316 20.5996 14.7119 20.043 14.5166C20.4141 13.7549 20.6729 12.5977 20.8193 11.0449ZM30.8535 13.667H32.1572V10.1367H30.8535V13.667ZM28.041 10.1367V13.667H29.2861V10.1367H28.041ZM29.2861 5.06836H28.041V8.52539H29.2861V5.06836ZM32.1572 8.52539V5.06836H30.8535V8.52539H32.1572ZM26.4736 3.41309H33.7979V15.9521H32.1572V15.2637H28.041V16.084H26.4736V13.8721L25.0527 14.3555C24.9355 13.5645 24.6426 12.583 24.1738 11.4111L25.5068 10.9863C25.8975 11.8359 26.2197 12.7539 26.4736 13.7402V10.3271L25.2871 10.8691C25.2578 10.752 25.1602 10.4297 24.9941 9.90234L24.1299 9.99023V16.2891H22.5332V10.166C22.25 10.1953 21.542 10.2734 20.4092 10.4004L20.1602 8.81836C20.3652 8.80859 20.7705 8.78418 21.376 8.74512C21.708 8.31543 21.9229 8.03223 22.0205 7.89551C21.6006 7.25098 20.9902 6.54785 20.1895 5.78613L21.0244 4.57031C21.1807 4.70703 21.3027 4.81934 21.3906 4.90723C21.8594 3.97949 22.2256 3.11035 22.4893 2.2998L24.0713 2.87109C23.4561 4.08203 22.8945 5.08301 22.3867 5.87402C22.6602 6.19629 22.8408 6.41113 22.9287 6.51855C23.4463 5.69824 23.9053 4.8877 24.3057 4.08691L25.7705 4.79004C24.9893 6.01074 24.0762 7.29004 23.0312 8.62793L24.4229 8.52539C24.1396 7.96875 23.9883 7.6709 23.9688 7.63184L25.2578 7.06055C25.7852 7.92969 26.1904 8.75 26.4736 9.52148V3.41309ZM41.9043 2.75391V4.11621H37.4951V2.75391H41.9043ZM42.4463 4.77539V6.18164H36.748V4.77539H42.4463ZM41.9482 8.90625V10.2393H37.4512V8.90625H41.9482ZM47.4414 4.32129H44.6582L45.2441 4.46777C44.9609 5.1709 44.6533 5.80566 44.3213 6.37207H48.4961C48.0664 5.69824 47.7148 5.01465 47.4414 4.32129ZM48.042 9.49219V7.91016H44.8047V9.49219H48.042ZM40.4541 14.1211V12.3926H38.9014V14.1211H40.4541ZM48.5693 14.6191H49.1113C49.2383 14.6191 49.3213 14.5166 49.3604 14.3115C49.4092 14.0869 49.4434 13.5596 49.4629 12.7295C49.7852 13.0029 50.249 13.2178 50.8545 13.374C50.8936 13.3838 50.9277 13.3936 50.957 13.4033C50.8691 14.7314 50.6396 15.5615 50.2686 15.8936C50.0439 16.0889 49.7217 16.1865 49.3018 16.1865H48.2764C47.5439 16.1865 47.0752 16.001 46.8701 15.6299C46.7139 15.3369 46.6357 14.8535 46.6357 14.1797V11.0156H45.8594C45.7422 12.5879 45.4102 13.7646 44.8633 14.5459C44.3359 15.2979 43.54 15.8936 42.4756 16.333C42.3584 16.0791 42.1875 15.7959 41.9629 15.4834V15.5127H38.9014V16.0986H37.4072V10.9863H41.9629V14.7363C42.9297 14.2871 43.5596 13.5986 43.8525 12.6709C43.9795 12.251 44.0723 11.6992 44.1309 11.0156H43.1641V7.9248C42.7637 7.57324 42.3584 7.28027 41.9482 7.0459V8.21777H37.4512V6.85547H41.9043C42.5684 6.19141 43.0811 5.32227 43.4424 4.24805C43.4717 4.16992 43.4961 4.0918 43.5156 4.01367L44.5557 4.29199V2.69531H48.6572C49.0381 3.93555 49.6484 5.04395 50.4883 6.02051C50.6543 6.21582 50.8154 6.38672 50.9717 6.5332C50.6006 6.71875 50.2002 7.00195 49.7705 7.38281V11.0156H48.3057V14.165C48.3057 14.4385 48.3545 14.585 48.4521 14.6045C48.4814 14.6143 48.5205 14.6191 48.5693 14.6191ZM57.3936 4.73145H55.46V6.84082H57.3936V4.73145ZM55.46 10.6494H57.3936V8.42285H55.46V10.6494ZM59.0488 12.2754H55.46V13.5645H53.8193V3.10547H59.0488V12.2754ZM61.7588 9.99023H65.0693V8.07129H61.8467V8.29102C61.8467 8.84766 61.8174 9.41406 61.7588 9.99023ZM65.0693 4.54102H61.8467V6.45996H65.0693V4.54102ZM66.8418 2.90039V14.2529C66.8418 15.0342 66.6562 15.5615 66.2852 15.835C66.207 15.8838 66.1289 15.9277 66.0508 15.9668C65.5723 16.1816 64.6738 16.2891 63.3555 16.2891C63.2773 15.7617 63.0674 15.1855 62.7256 14.5605C63.4873 14.5996 64.1465 14.6045 64.7031 14.5752C64.9375 14.5361 65.0596 14.4238 65.0693 14.2383V11.6016H61.5391C61.0801 13.7402 60.123 15.3418 58.668 16.4062C58.4043 16.0547 58.0283 15.7031 57.54 15.3516C57.4619 15.3027 57.3936 15.2588 57.335 15.2197C58.8975 14.0674 59.791 12.334 60.0156 10.0195C60.0645 9.52148 60.0889 8.94531 60.0889 8.29102V2.90039H66.8418Z" fill="#43473E"/>
<path fill-rule="evenodd" clip-rule="evenodd" d="M92.0934 12.2184L94.3061 10.0058L94.2948 9.99444L94.2951 9.99414L92.0824 7.78149L92.0821 7.78179L88.3003 4L86.0877 6.21265L89.8695 9.99444L86.0767 13.7872L88.2893 15.9999L92.0821 12.2071L92.0934 12.2184Z" fill="#43473E"/>
<path fill-rule="evenodd" clip-rule="evenodd" d="M83.2093 12.2184L85.4219 10.0058L85.4103 9.99414L83.1977 7.78149L79.4162 4L77.2035 6.21265L80.985 9.99414L77.1919 13.7872L79.4045 15.9999L83.1976 12.2068L83.2093 12.2184Z" fill="#43473E"/>
<path fill-rule="evenodd" clip-rule="evenodd" d="M100.978 12.2184L103.191 10.0058L103.179 9.99414L100.967 7.78149L97.1852 4L94.9726 6.21265L98.754 9.99414L94.9609 13.7872L97.1736 15.9999L100.967 12.2068L100.978 12.2184Z" fill="#43473E"/>
<path fill-rule="evenodd" clip-rule="evenodd" d="M109.863 12.2184L112.076 10.0058L112.064 9.99444L112.065 9.99414L109.852 7.78149L109.852 7.78179L106.07 4L103.857 6.21265L107.639 9.99444L103.846 13.7872L106.059 15.9999L109.852 12.2071L109.863 12.2184Z" fill="#43473E"/>
</g>
</svg>
