<svg width="694" height="155" viewBox="0 0 694 155" fill="none" xmlns="http://www.w3.org/2000/svg">
<path d="M348.25 2L347 153.5M348.25 2H378.312M348.25 2H318.188M347 153.5H432.5M347 153.5H261.5M288.125 2L176 153.5M288.125 2H318.188M288.125 2H258.062M176 153.5H261.5M176 153.5H90.5M408.375 2L518 153.5M408.375 2H378.312M408.375 2H438.438M518 153.5H432.5M518 153.5H603.5M378.312 2L432.5 153.5M318.188 2L261.5 153.5M258.062 2H228L214.062 11.4688M258.062 2L90.5 153.5M90.5 153.5H5L60.75 115.625M438.438 2H468.5L482.281 11.4688M438.438 2L603.5 153.5M603.5 153.5H689L633.875 115.625M591.5 86H103.5M591.5 86L633.875 115.625M591.5 86L551.188 58.8125M103.5 86L60.75 115.625M103.5 86L144.375 58.8125M172.25 39.875H523.625M172.25 39.875L200.125 20.9375M172.25 39.875L144.375 58.8125M523.625 39.875L496.062 20.9375M523.625 39.875L551.188 58.8125M200.125 20.9375H496.062M200.125 20.9375L214.062 11.4688M496.062 20.9375L482.281 11.4688M60.75 115.625H633.875M144.375 58.8125H551.188M214.062 11.4688H482.281" stroke="#43473E" stroke-width="3"/>
</svg>
