<svg width="181" height="17" viewBox="0 0 181 17" fill="none" xmlns="http://www.w3.org/2000/svg">
<path d="M0.816406 16.3018V1.49707H4.09766L6.61719 8.43066C6.78646 8.93848 7.08594 9.889 7.51562 11.2822H7.61328C7.70443 10.9958 7.83464 10.5726 8.00391 10.0127C8.22526 9.29655 8.39453 8.76921 8.51172 8.43066L10.9727 1.49707H14.2539V16.3018H11.5586V10.1299C11.5586 9.41374 11.6823 7.79264 11.9297 5.2666H11.832L10.6406 8.74316L8.35547 14.9541H6.65625L4.35156 8.74316L3.17969 5.2666H3.10156C3.34896 7.80566 3.47266 9.42676 3.47266 10.1299V16.3018H0.816406ZM22.5156 16.5752C20.7578 16.5752 19.3581 15.9697 18.3164 14.7588C17.4049 13.6911 16.9492 12.3434 16.9492 10.7158C16.9492 8.80176 17.5742 7.27181 18.8242 6.12598C19.8008 5.25358 20.9141 4.81738 22.1641 4.81738C24.026 4.81738 25.3607 5.5791 26.168 7.10254C26.6237 7.97493 26.8516 9.00358 26.8516 10.1885C26.8516 10.7744 26.806 11.2171 26.7148 11.5166H19.8008C19.9701 12.8838 20.6211 13.7627 21.7539 14.1533C22.1055 14.2705 22.4896 14.3291 22.9062 14.3291C23.7656 14.3161 24.6055 14.0557 25.4258 13.5479L26.4219 15.3447C25.237 16.165 23.9349 16.5752 22.5156 16.5752ZM19.7617 9.58301H24.332C24.332 8.1377 23.7721 7.32389 22.6523 7.1416C22.5091 7.11556 22.3594 7.10254 22.2031 7.10254C21.3047 7.10254 20.6211 7.5127 20.1523 8.33301C19.957 8.69759 19.8268 9.11426 19.7617 9.58301ZM29.2539 16.3018V5.11035H32.1641V16.3018H29.2539ZM30.7383 3.29395C29.9961 3.29395 29.4753 3.00749 29.1758 2.43457C29.0456 2.2002 28.9805 1.9528 28.9805 1.69238C28.9805 1.00228 29.2995 0.527018 29.9375 0.266602C30.1849 0.162435 30.4518 0.110352 30.7383 0.110352C31.4935 0.110352 32.0208 0.39681 32.3203 0.969727C32.4245 1.19108 32.4766 1.43197 32.4766 1.69238C32.4766 2.34342 32.1771 2.81217 31.5781 3.09863C31.3177 3.22884 31.0378 3.29395 30.7383 3.29395ZM40.0938 16.5752C38.3099 16.5752 36.9102 15.9502 35.8945 14.7002C35.0482 13.6455 34.625 12.3174 34.625 10.7158C34.625 8.72363 35.3151 7.17415 36.6953 6.06738C37.737 5.23405 38.9544 4.81738 40.3477 4.81738C41.5586 4.8304 42.6458 5.24707 43.6094 6.06738L42.2031 7.96191C41.6172 7.46712 41.0443 7.21973 40.4844 7.21973C39.3906 7.21973 38.5898 7.71452 38.082 8.7041C37.7826 9.27702 37.6328 9.94759 37.6328 10.7158C37.6328 12.1221 38.069 13.1247 38.9414 13.7236C39.3841 14.0231 39.8724 14.1729 40.4062 14.1729C41.1615 14.1598 41.8906 13.8604 42.5938 13.2744L43.7461 15.2275C42.7305 16.126 41.513 16.5752 40.0938 16.5752ZM45.8555 16.3018V0.344727H48.7656V4.36816L48.6484 6.45801C49.8594 5.3903 51.0312 4.84342 52.1641 4.81738C54.4688 4.84342 55.6276 6.34733 55.6406 9.3291V16.3018H52.6914V9.68066C52.6914 8.3916 52.3659 7.63639 51.7148 7.41504C51.5326 7.36296 51.3307 7.33691 51.1094 7.33691C50.4844 7.33691 49.8464 7.62988 49.1953 8.21582C49.0651 8.33301 48.9219 8.46322 48.7656 8.60645V16.3018H45.8555ZM61.9688 16.5752C59.6901 16.5492 58.5443 15.0583 58.5312 12.1025V5.11035H61.4609V11.7314C61.4609 12.9945 61.7669 13.7367 62.3789 13.958C62.5742 14.0231 62.7891 14.0557 63.0234 14.0557C63.7396 14.0557 64.3841 13.7367 64.957 13.0986C65.0742 12.9684 65.1914 12.8252 65.3086 12.6689V5.11035H68.2383V16.3018H65.8555L65.6211 14.7002H65.543C64.4492 15.9242 63.2578 16.5492 61.9688 16.5752ZM76.1484 16.3018V1.49707H79.1172V7.31738H84.7031V1.49707H87.6523V16.3018H84.7031V9.89551H79.1172V16.3018H76.1484ZM93.8047 16.5752C92.5677 16.5752 91.6432 16.1064 91.0312 15.1689C90.6667 14.609 90.4844 13.971 90.4844 13.2549C90.4844 11.6924 91.3763 10.5791 93.1602 9.91504C94.1237 9.55046 95.3802 9.28353 96.9297 9.11426C96.8516 7.83822 96.2201 7.19368 95.0352 7.18066C94.1758 7.19368 93.1471 7.54525 91.9492 8.23535L90.8945 6.30176C92.5091 5.31217 94.0651 4.81738 95.5625 4.81738C98.0625 4.81738 99.4753 6.09342 99.8008 8.64551C99.8398 8.99707 99.8594 9.36816 99.8594 9.75879V16.3018H97.4766L97.2422 15.1104H97.1836C96.0378 16.0869 94.9115 16.5752 93.8047 16.5752ZM94.7617 14.29C95.4779 14.277 96.2005 13.9059 96.9297 13.1768V10.9307C94.5859 11.3083 93.375 12.0049 93.2969 13.0205C93.2969 13.7887 93.707 14.2054 94.5273 14.2705C94.6055 14.2835 94.6836 14.29 94.7617 14.29ZM107.633 16.5752C105.849 16.5752 104.449 15.9502 103.434 14.7002C102.587 13.6455 102.164 12.3174 102.164 10.7158C102.164 8.72363 102.854 7.17415 104.234 6.06738C105.276 5.23405 106.493 4.81738 107.887 4.81738C109.098 4.8304 110.185 5.24707 111.148 6.06738L109.742 7.96191C109.156 7.46712 108.583 7.21973 108.023 7.21973C106.93 7.21973 106.129 7.71452 105.621 8.7041C105.322 9.27702 105.172 9.94759 105.172 10.7158C105.172 12.1221 105.608 13.1247 106.48 13.7236C106.923 14.0231 107.411 14.1729 107.945 14.1729C108.701 14.1598 109.43 13.8604 110.133 13.2744L111.285 15.2275C110.27 16.126 109.052 16.5752 107.633 16.5752ZM113.395 16.3018V0.344727H116.246V9.93457H116.324L120.211 5.11035H123.414L119.527 9.68066L123.766 16.3018H120.602L117.867 11.6533L116.246 13.5088V16.3018H113.395ZM128.238 16.5752C127.001 16.5752 126.077 16.1064 125.465 15.1689C125.1 14.609 124.918 13.971 124.918 13.2549C124.918 11.6924 125.81 10.5791 127.594 9.91504C128.557 9.55046 129.814 9.28353 131.363 9.11426C131.285 7.83822 130.654 7.19368 129.469 7.18066C128.609 7.19368 127.581 7.54525 126.383 8.23535L125.328 6.30176C126.943 5.31217 128.499 4.81738 129.996 4.81738C132.496 4.81738 133.909 6.09342 134.234 8.64551C134.273 8.99707 134.293 9.36816 134.293 9.75879V16.3018H131.91L131.676 15.1104H131.617C130.471 16.0869 129.345 16.5752 128.238 16.5752ZM129.195 14.29C129.911 14.277 130.634 13.9059 131.363 13.1768V10.9307C129.02 11.3083 127.809 12.0049 127.73 13.0205C127.73 13.7887 128.141 14.2054 128.961 14.2705C129.039 14.2835 129.117 14.29 129.195 14.29ZM141.402 16.5752C138.954 16.5492 137.724 15.1494 137.711 12.376V7.41504H136.148V5.24707L137.867 5.11035L138.199 2.10254H140.66V5.11035H143.414V7.41504H140.66V12.376C140.686 13.626 141.194 14.2575 142.184 14.2705C142.496 14.2705 142.861 14.1859 143.277 14.0166L143.766 16.165C142.906 16.4385 142.118 16.5752 141.402 16.5752ZM145.699 16.3018V0.344727H148.609V4.36816L148.492 6.45801C149.703 5.3903 150.875 4.84342 152.008 4.81738C154.312 4.84342 155.471 6.34733 155.484 9.3291V16.3018H152.535V9.68066C152.535 8.3916 152.21 7.63639 151.559 7.41504C151.376 7.36296 151.174 7.33691 150.953 7.33691C150.328 7.33691 149.69 7.62988 149.039 8.21582C148.909 8.33301 148.766 8.46322 148.609 8.60645V16.3018H145.699ZM163.18 16.5752C161.669 16.5752 160.393 16.0348 159.352 14.9541C158.31 13.8473 157.789 12.4346 157.789 10.7158C157.789 8.73665 158.447 7.18717 159.762 6.06738C160.751 5.23405 161.891 4.81738 163.18 4.81738C164.69 4.81738 165.96 5.36426 166.988 6.45801C168.03 7.56478 168.551 8.98405 168.551 10.7158C168.551 12.682 167.893 14.2249 166.578 15.3447C165.602 16.165 164.469 16.5752 163.18 16.5752ZM163.18 14.1729C164.247 14.1729 164.964 13.5674 165.328 12.3564C165.471 11.8747 165.543 11.3278 165.543 10.7158C165.543 9.03613 165.087 7.94889 164.176 7.4541C163.876 7.29785 163.544 7.21973 163.18 7.21973C162.125 7.21973 161.409 7.80566 161.031 8.97754C160.875 9.48535 160.797 10.0648 160.797 10.7158C160.797 12.3564 161.246 13.4242 162.145 13.9189C162.457 14.0882 162.802 14.1729 163.18 14.1729ZM171.012 16.3018V5.11035H173.414L173.609 6.5752H173.688C174.898 5.41634 176.109 4.8304 177.32 4.81738C179.625 4.84342 180.784 6.34733 180.797 9.3291V16.3018H177.848V9.68066C177.848 8.3916 177.522 7.63639 176.871 7.41504C176.689 7.36296 176.487 7.33691 176.266 7.33691C175.641 7.33691 175.003 7.62988 174.352 8.21582C174.221 8.33301 174.078 8.46322 173.922 8.60645V16.3018H171.012Z" fill="white"/>
</svg>
