<svg width="44" height="30" viewBox="0 0 44 30" fill="none" xmlns="http://www.w3.org/2000/svg">
<path d="M0 10.4762L12.0698 0L44 14.4048L27.6509 30L2.96259 24.2857L0 10.4762Z" fill="#A1A8AD"/>
<path fill-rule="evenodd" clip-rule="evenodd" d="M25 23.623C25.8254 23.623 26.5758 22.9404 26.5758 22C26.5758 21.0596 25.8254 20.377 25 20.377C24.1746 20.377 23.4242 21.0596 23.4242 22C23.4242 22.9404 24.1746 23.623 25 23.623ZM25 25C26.6569 25 28 23.6569 28 22C28 20.3431 26.6569 19 25 19C23.3431 19 22 20.3431 22 22C22 23.6569 23.3431 25 25 25Z" fill="white"/>
<path fill-rule="evenodd" clip-rule="evenodd" d="M32 20.623C32.8254 20.623 33.5758 19.9404 33.5758 19C33.5758 18.0596 32.8254 17.377 32 17.377C31.1746 17.377 30.4242 18.0596 30.4242 19C30.4242 19.9404 31.1746 20.623 32 20.623ZM32 22C33.6569 22 35 20.6569 35 19C35 17.3431 33.6569 16 32 16C30.3431 16 29 17.3431 29 19C29 20.6569 30.3431 22 32 22Z" fill="white"/>
</svg>
