<svg xmlns="http://www.w3.org/2000/svg" width="172" height="76" viewBox="0 0 172 76" fill="none">
  <path fill-rule="evenodd" clip-rule="evenodd" d="M85.1476 37.3929L68.4726 47.0424L70.3604 50.3059L90.2975 38.7688L90.2974 38.7687L88.4097 35.5053L78.762 18.8269L75.4999 20.7146L85.1476 37.3929Z" fill="#D8E022"/>
  <path fill-rule="evenodd" clip-rule="evenodd" d="M162.588 58.0717L145.913 67.7211L147.801 70.9846L167.738 59.4475L167.738 59.4474L165.85 56.184L156.202 39.5056L152.94 41.3933L162.588 58.0717Z" fill="#D8E022"/>
  <path fill-rule="evenodd" clip-rule="evenodd" d="M46.4015 27.1659L29.7265 36.8153L31.6143 40.0789L51.5514 28.5417L51.5513 28.5416L49.6636 25.2782L40.0159 8.59987L36.7538 10.4876L46.4015 27.1659Z" fill="#D8E022"/>
  <path fill-rule="evenodd" clip-rule="evenodd" d="M123.841 47.8446L107.166 57.494L109.054 60.7576L128.991 49.2205L128.991 49.2203L127.103 45.9569L117.455 29.2786L114.193 31.1663L123.841 47.8446Z" fill="#D8E022"/>
  <path fill-rule="evenodd" clip-rule="evenodd" d="M75.4747 34.7848L58.7998 44.4342L60.6876 47.6977L80.6247 36.1606L80.6246 36.1605L78.7368 32.8971L69.0891 16.2188L65.827 18.1065L75.4747 34.7848Z" fill="#D8E022"/>
  <path fill-rule="evenodd" clip-rule="evenodd" d="M152.915 55.4635L136.24 65.1129L138.128 68.3765L158.065 56.8394L158.065 56.8392L156.177 53.5758L146.53 36.8975L143.267 38.7852L152.915 55.4635Z" fill="#D8E022"/>
  <path fill-rule="evenodd" clip-rule="evenodd" d="M36.7277 24.558L20.0527 34.2074L21.9405 37.4709L41.8776 25.9338L41.8775 25.9337L39.9898 22.6703L30.342 5.99196L27.0799 7.87965L36.7277 24.558Z" fill="#D8E022"/>
  <path fill-rule="evenodd" clip-rule="evenodd" d="M114.168 45.2366L97.4931 54.8861L99.3809 58.1497L116.056 48.5001L119.318 46.6125L119.318 46.6124L107.783 26.6707L104.521 28.5584L114.168 45.2366Z" fill="#D8E022"/>
  <path fill-rule="evenodd" clip-rule="evenodd" d="M65.796 32.2001L49.121 41.8495L51.0089 45.113L70.946 33.5759L70.9459 33.5758L69.0581 30.3124L59.4104 13.6341L56.1483 15.5217L65.796 32.2001Z" fill="#D8E022"/>
  <path fill-rule="evenodd" clip-rule="evenodd" d="M143.235 52.8788L126.561 62.5282L128.448 65.7917L148.385 54.2546L148.385 54.2545L146.498 50.9911L136.85 34.3128L133.588 36.2005L143.235 52.8788Z" fill="#D8E022"/>
  <path fill-rule="evenodd" clip-rule="evenodd" d="M27.049 21.9735L10.374 31.6229L12.2618 34.8865L32.1989 23.3494L32.1988 23.3493L30.3111 20.0858L20.6633 3.4075L17.4012 5.29519L27.049 21.9735Z" fill="#D8E022"/>
  <path fill-rule="evenodd" clip-rule="evenodd" d="M104.489 42.6522L87.8144 52.3016L89.7022 55.5652L109.639 44.0281L109.639 44.028L107.751 40.7645L98.1038 24.0862L94.8417 25.9739L104.489 42.6522Z" fill="#D8E022"/>
  <path fill-rule="evenodd" clip-rule="evenodd" d="M56.1222 29.5924L39.4472 39.2418L41.335 42.5054L61.2721 30.9683L61.2721 30.9681L59.3843 27.7047L49.7366 11.0264L46.4745 12.9141L56.1222 29.5924Z" fill="#D8E022"/>
  <path fill-rule="evenodd" clip-rule="evenodd" d="M133.563 50.2711L116.888 59.9205L118.775 63.1841L138.713 51.647L138.712 51.6469L136.825 48.3834L127.177 31.7051L123.915 33.5928L133.563 50.2711Z" fill="#D8E022"/>
  <path fill-rule="evenodd" clip-rule="evenodd" d="M17.3761 19.3656L0.701128 29.015L2.58895 32.2786L22.526 20.7415L22.526 20.7413L20.6382 17.4779L10.9905 0.79957L7.72838 2.68726L17.3761 19.3656Z" fill="#D8E022"/>
  <path fill-rule="evenodd" clip-rule="evenodd" d="M94.8165 40.0443L78.1416 49.6937L80.0294 52.9573L99.9665 41.4202L99.9664 41.42L98.0786 38.1566L88.4309 21.4783L85.1688 23.366L94.8165 40.0443Z" fill="#D8E022"/>
</svg>