<svg width="238" height="238" viewBox="0 0 238 238" fill="none" xmlns="http://www.w3.org/2000/svg">
<g id="Property 1=Variant3">
<rect id="Rectangle 125" x="120" y="100" width="18" height="18" fill="#D9D9D9"/>
<rect id="Rectangle 145" x="120" y="140" width="18" height="18" fill="#D9D9D9"/>
<rect id="Rectangle 135" x="120" y="80" width="18" height="18" fill="#D9D9D9"/>
<rect id="Rectangle 173" x="120" y="60" width="18" height="18" fill="#D9D9D9"/>
<rect id="Rectangle 183" x="120" y="40" width="18" height="18" fill="#D9D9D9"/>
<rect id="Rectangle 213" x="120" y="20" width="18" height="18" fill="#D9D9D9"/>
<rect id="Rectangle 229" x="120" width="18" height="18" fill="#D9D9D9"/>
<rect id="Rectangle 233" x="120" y="220" width="18" height="18" fill="#D9D9D9"/>
<rect id="Rectangle 221" x="120" y="200" width="18" height="18" fill="#D9D9D9"/>
<rect id="Rectangle 193" x="120" y="160" width="18" height="18" fill="#D9D9D9"/>
<rect id="Rectangle 203" x="120" y="180" width="18" height="18" fill="#D9D9D9"/>
<rect id="Rectangle 146" x="120" y="120" width="18" height="18" fill="#D9D9D9"/>
<rect id="Rectangle 126" x="140" y="100" width="18" height="18" fill="#D9D9D9"/>
<rect id="Rectangle 147" x="140" y="140" width="18" height="18" fill="#D9D9D9"/>
<rect id="Rectangle 174" x="140" y="60" width="18" height="18" fill="#D9D9D9"/>
<rect id="Rectangle 184" x="140" y="40" width="18" height="18" fill="#D9D9D9"/>
<rect id="Rectangle 214" x="140" y="20" width="18" height="18" fill="#D9D9D9"/>
<rect id="Rectangle 230" x="140" width="18" height="18" fill="#D9D9D9"/>
<rect id="Rectangle 234" x="140" y="220" width="18" height="18" fill="#D9D9D9"/>
<rect id="Rectangle 222" x="140" y="200" width="18" height="18" fill="#D9D9D9"/>
<rect id="Rectangle 194" x="140" y="160" width="18" height="18" fill="#D9D9D9"/>
<rect id="Rectangle 204" x="140" y="180" width="18" height="18" fill="#D9D9D9"/>
<rect id="Rectangle 148" x="140" y="120" width="18" height="18" fill="#D9D9D9"/>
<rect id="Rectangle 132" x="160" y="100" width="18" height="18" fill="#D9D9D9"/>
<rect id="Rectangle 149" x="160" y="140" width="18" height="18" fill="#D9D9D9"/>
<rect id="Rectangle 175" x="160" y="60" width="18" height="18" fill="#D9D9D9"/>
<rect id="Rectangle 185" x="160" y="40" width="18" height="18" fill="#D9D9D9"/>
<rect id="Rectangle 215" x="160" y="20" width="18" height="18" fill="#D9D9D9"/>
<rect id="Rectangle 223" x="160" y="200" width="18" height="18" fill="#D9D9D9"/>
<rect id="Rectangle 195" x="160" y="160" width="18" height="18" fill="#D9D9D9"/>
<rect id="Rectangle 205" x="160" y="180" width="18" height="18" fill="#D9D9D9"/>
<rect id="Rectangle 150" x="160" y="120" width="18" height="18" fill="#D9D9D9"/>
<rect id="Rectangle 133" x="180" y="100" width="18" height="18" fill="#D9D9D9"/>
<rect id="Rectangle 151" x="180" y="140" width="18" height="18" fill="#D9D9D9"/>
<rect id="Rectangle 176" x="180" y="60" width="18" height="18" fill="#D9D9D9"/>
<rect id="Rectangle 186" x="180" y="40" width="18" height="18" fill="#D9D9D9"/>
<rect id="Rectangle 216" x="180" y="20" width="18" height="18" fill="#D9D9D9"/>
<rect id="Rectangle 224" x="180" y="200" width="18" height="18" fill="#D9D9D9"/>
<rect id="Rectangle 196" x="180" y="160" width="18" height="18" fill="#D9D9D9"/>
<rect id="Rectangle 206" x="180" y="180" width="18" height="18" fill="#D9D9D9"/>
<rect id="Rectangle 152" x="180" y="120" width="18" height="18" fill="#D9D9D9"/>
<rect id="Rectangle 134" x="200" y="100" width="18" height="18" fill="#D9D9D9"/>
<rect id="Rectangle 165" x="220" y="100" width="18" height="18" fill="#D9D9D9"/>
<rect id="Rectangle 169" y="100" width="18" height="18" fill="#D9D9D9"/>
<rect id="Rectangle 153" x="200" y="140" width="18" height="18" fill="#D9D9D9"/>
<rect id="Rectangle 166" x="220" y="140" width="18" height="18" fill="#D9D9D9"/>
<rect id="Rectangle 170" y="140" width="18" height="18" fill="#D9D9D9"/>
<rect id="Rectangle 139" x="200" y="80" width="18" height="18" fill="#D9D9D9"/>
<rect id="Rectangle 177" x="200" y="60" width="18" height="18" fill="#D9D9D9"/>
<rect id="Rectangle 187" x="200" y="40" width="18" height="18" fill="#D9D9D9"/>
<rect id="Rectangle 197" x="200" y="160" width="18" height="18" fill="#D9D9D9"/>
<rect id="Rectangle 207" x="200" y="180" width="18" height="18" fill="#D9D9D9"/>
<rect id="Rectangle 167" x="220" y="80" width="18" height="18" fill="#D9D9D9"/>
<rect id="Rectangle 171" y="80" width="18" height="18" fill="#D9D9D9"/>
<rect id="Rectangle 154" x="200" y="120" width="18" height="18" fill="#D9D9D9"/>
<rect id="Rectangle 168" x="220" y="120" width="18" height="18" fill="#D9D9D9"/>
<rect id="Rectangle 172" y="120" width="18" height="18" fill="#D9D9D9"/>
<rect id="Rectangle 127" x="100" y="100" width="18" height="18" fill="#D9D9D9"/>
<rect id="Rectangle 155" x="100" y="140" width="18" height="18" fill="#D9D9D9"/>
<rect id="Rectangle 140" x="100" y="80" width="18" height="18" fill="#D9D9D9"/>
<rect id="Rectangle 178" x="100" y="60" width="18" height="18" fill="#D9D9D9"/>
<rect id="Rectangle 217" x="100" y="20" width="18" height="18" fill="#D9D9D9"/>
<rect id="Rectangle 231" x="100" width="18" height="18" fill="#D9D9D9"/>
<rect id="Rectangle 225" x="100" y="200" width="18" height="18" fill="#D9D9D9"/>
<rect id="Rectangle 198" x="100" y="160" width="18" height="18" fill="#D9D9D9"/>
<rect id="Rectangle 208" x="100" y="180" width="18" height="18" fill="#D9D9D9"/>
<rect id="Rectangle 156" x="100" y="120" width="18" height="18" fill="#D9D9D9"/>
<rect id="Rectangle 128" x="80" y="100" width="18" height="18" fill="#D9D9D9"/>
<rect id="Rectangle 157" x="80" y="140" width="18" height="18" fill="#D9D9D9"/>
<rect id="Rectangle 141" x="80" y="80" width="18" height="18" fill="#D9D9D9"/>
<rect id="Rectangle 179" x="80" y="60" width="18" height="18" fill="#D9D9D9"/>
<rect id="Rectangle 189" x="80" y="40" width="18" height="18" fill="#D9D9D9"/>
<rect id="Rectangle 218" x="80" y="20" width="18" height="18" fill="#D9D9D9"/>
<rect id="Rectangle 232" x="80" width="18" height="18" fill="#D9D9D9"/>
<rect id="Rectangle 236" x="80" y="220" width="18" height="18" fill="#D9D9D9"/>
<rect id="Rectangle 226" x="80" y="200" width="18" height="18" fill="#D9D9D9"/>
<rect id="Rectangle 199" x="80" y="160" width="18" height="18" fill="#D9D9D9"/>
<rect id="Rectangle 209" x="80" y="180" width="18" height="18" fill="#D9D9D9"/>
<rect id="Rectangle 158" x="80" y="120" width="18" height="18" fill="#D9D9D9"/>
<rect id="Rectangle 129" x="60" y="100" width="18" height="18" fill="#D9D9D9"/>
<rect id="Rectangle 142" x="60" y="80" width="18" height="18" fill="#D9D9D9"/>
<rect id="Rectangle 180" x="60" y="60" width="18" height="18" fill="#D9D9D9"/>
<rect id="Rectangle 190" x="60" y="40" width="18" height="18" fill="#D9D9D9"/>
<rect id="Rectangle 219" x="60" y="20" width="18" height="18" fill="#D9D9D9"/>
<rect id="Rectangle 227" x="60" y="200" width="18" height="18" fill="#D9D9D9"/>
<rect id="Rectangle 200" x="60" y="160" width="18" height="18" fill="#D9D9D9"/>
<rect id="Rectangle 210" x="60" y="180" width="18" height="18" fill="#D9D9D9"/>
<rect id="Rectangle 160" x="60" y="120" width="18" height="18" fill="#D9D9D9"/>
<rect id="Rectangle 130" x="40" y="100" width="18" height="18" fill="#D9D9D9"/>
<rect id="Rectangle 161" x="40" y="140" width="18" height="18" fill="#D9D9D9"/>
<rect id="Rectangle 181" x="40" y="60" width="18" height="18" fill="#D9D9D9"/>
<rect id="Rectangle 191" x="40" y="40" width="18" height="18" fill="#D9D9D9"/>
<rect id="Rectangle 220" x="40" y="20" width="18" height="18" fill="#D9D9D9"/>
<rect id="Rectangle 228" x="40" y="200" width="18" height="18" fill="#D9D9D9"/>
<rect id="Rectangle 201" x="40" y="160" width="18" height="18" fill="#D9D9D9"/>
<rect id="Rectangle 211" x="40" y="180" width="18" height="18" fill="#D9D9D9"/>
<rect id="Rectangle 162" x="40" y="120" width="18" height="18" fill="#D9D9D9"/>
<rect id="Rectangle 131" x="20" y="100" width="18" height="18" fill="#D9D9D9"/>
<rect id="Rectangle 163" x="20" y="140" width="18" height="18" fill="#D9D9D9"/>
<rect id="Rectangle 144" x="20" y="80" width="18" height="18" fill="#D9D9D9"/>
<rect id="Rectangle 182" x="20" y="60" width="18" height="18" fill="#D9D9D9"/>
<rect id="Rectangle 192" x="20" y="40" width="18" height="18" fill="#D9D9D9"/>
<rect id="Rectangle 202" x="20" y="160" width="18" height="18" fill="#D9D9D9"/>
<rect id="Rectangle 212" x="20" y="180" width="18" height="18" fill="#D9D9D9"/>
<rect id="Rectangle 164" x="20" y="120" width="18" height="18" fill="#D9D9D9"/>
</g>
</svg>
