<svg width="238" height="238" viewBox="0 0 238 238" fill="none" xmlns="http://www.w3.org/2000/svg">
<rect x="120" y="100" width="18" height="18" fill="#D9D9D9"/>
<rect x="120" y="140" width="18" height="18" fill="#D9D9D9"/>
<rect x="120" y="80" width="18" height="18" fill="#D9D9D9"/>
<rect x="120" y="60" width="18" height="18" fill="#D9D9D9"/>
<rect x="120" y="40" width="18" height="18" fill="#D9D9D9"/>
<rect x="120" y="20" width="18" height="18" fill="#D9D9D9"/>
<rect x="120" width="18" height="18" fill="#D9D9D9"/>
<rect x="120" y="220" width="18" height="18" fill="#D9D9D9"/>
<rect x="120" y="200" width="18" height="18" fill="#D9D9D9"/>
<rect x="120" y="160" width="18" height="18" fill="#D9D9D9"/>
<rect x="120" y="180" width="18" height="18" fill="#D9D9D9"/>
<rect x="120" y="120" width="18" height="18" fill="#D9D9D9"/>
<rect x="140" y="100" width="18" height="18" fill="#D9D9D9"/>
<rect x="140" y="140" width="18" height="18" fill="#D9D9D9"/>
<rect x="140" y="60" width="18" height="18" fill="#D9D9D9"/>
<rect x="140" y="40" width="18" height="18" fill="#D9D9D9"/>
<rect x="140" y="20" width="18" height="18" fill="#D9D9D9"/>
<rect x="140" width="18" height="18" fill="#D9D9D9"/>
<rect x="140" y="220" width="18" height="18" fill="#D9D9D9"/>
<rect x="140" y="200" width="18" height="18" fill="#D9D9D9"/>
<rect x="140" y="160" width="18" height="18" fill="#D9D9D9"/>
<rect x="140" y="180" width="18" height="18" fill="#D9D9D9"/>
<rect x="140" y="120" width="18" height="18" fill="#D9D9D9"/>
<rect x="160" y="100" width="18" height="18" fill="#D9D9D9"/>
<rect x="160" y="140" width="18" height="18" fill="#D9D9D9"/>
<rect x="160" y="60" width="18" height="18" fill="#D9D9D9"/>
<rect x="160" y="40" width="18" height="18" fill="#D9D9D9"/>
<rect x="160" y="20" width="18" height="18" fill="#D9D9D9"/>
<rect x="160" y="200" width="18" height="18" fill="#D9D9D9"/>
<rect x="160" y="160" width="18" height="18" fill="#D9D9D9"/>
<rect x="160" y="180" width="18" height="18" fill="#D9D9D9"/>
<rect x="160" y="120" width="18" height="18" fill="#D9D9D9"/>
<rect x="180" y="100" width="18" height="18" fill="#D9D9D9"/>
<rect x="180" y="140" width="18" height="18" fill="#D9D9D9"/>
<rect x="180" y="60" width="18" height="18" fill="#D9D9D9"/>
<rect x="180" y="40" width="18" height="18" fill="#D9D9D9"/>
<rect x="180" y="20" width="18" height="18" fill="#D9D9D9"/>
<rect x="180" y="200" width="18" height="18" fill="#D9D9D9"/>
<rect x="180" y="160" width="18" height="18" fill="#D9D9D9"/>
<rect x="180" y="180" width="18" height="18" fill="#D9D9D9"/>
<rect x="180" y="120" width="18" height="18" fill="#D9D9D9"/>
<rect x="200" y="100" width="18" height="18" fill="#D9D9D9"/>
<rect x="220" y="100" width="18" height="18" fill="#D9D9D9"/>
<rect y="100" width="18" height="18" fill="#D9D9D9"/>
<rect x="200" y="140" width="18" height="18" fill="#D9D9D9"/>
<rect x="220" y="140" width="18" height="18" fill="#D9D9D9"/>
<rect y="140" width="18" height="18" fill="#D9D9D9"/>
<rect x="200" y="80" width="18" height="18" fill="#D9D9D9"/>
<rect x="200" y="60" width="18" height="18" fill="#D9D9D9"/>
<rect x="200" y="40" width="18" height="18" fill="#D9D9D9"/>
<rect x="200" y="160" width="18" height="18" fill="#D9D9D9"/>
<rect x="200" y="180" width="18" height="18" fill="#D9D9D9"/>
<rect x="220" y="80" width="18" height="18" fill="#D9D9D9"/>
<rect y="80" width="18" height="18" fill="#D9D9D9"/>
<rect x="200" y="120" width="18" height="18" fill="#D9D9D9"/>
<rect x="220" y="120" width="18" height="18" fill="#D9D9D9"/>
<rect y="120" width="18" height="18" fill="#D9D9D9"/>
<rect x="100" y="100" width="18" height="18" fill="#D9D9D9"/>
<rect x="100" y="140" width="18" height="18" fill="#D9D9D9"/>
<rect x="100" y="80" width="18" height="18" fill="#D9D9D9"/>
<rect x="100" y="60" width="18" height="18" fill="#D9D9D9"/>
<rect x="100" y="20" width="18" height="18" fill="#D9D9D9"/>
<rect x="100" width="18" height="18" fill="#D9D9D9"/>
<rect x="100" y="200" width="18" height="18" fill="#D9D9D9"/>
<rect x="100" y="160" width="18" height="18" fill="#D9D9D9"/>
<rect x="100" y="180" width="18" height="18" fill="#D9D9D9"/>
<rect x="100" y="120" width="18" height="18" fill="#D9D9D9"/>
<rect x="80" y="100" width="18" height="18" fill="#D9D9D9"/>
<rect x="80" y="140" width="18" height="18" fill="#D9D9D9"/>
<rect x="80" y="80" width="18" height="18" fill="#D9D9D9"/>
<rect x="80" y="60" width="18" height="18" fill="#D9D9D9"/>
<rect x="80" y="40" width="18" height="18" fill="#D9D9D9"/>
<rect x="80" y="20" width="18" height="18" fill="#D9D9D9"/>
<rect x="80" width="18" height="18" fill="#D9D9D9"/>
<rect x="80" y="220" width="18" height="18" fill="#D9D9D9"/>
<rect x="80" y="200" width="18" height="18" fill="#D9D9D9"/>
<rect x="80" y="160" width="18" height="18" fill="#D9D9D9"/>
<rect x="80" y="180" width="18" height="18" fill="#D9D9D9"/>
<rect x="80" y="120" width="18" height="18" fill="#D9D9D9"/>
<rect x="60" y="100" width="18" height="18" fill="#D9D9D9"/>
<rect x="60" y="80" width="18" height="18" fill="#D9D9D9"/>
<rect x="60" y="60" width="18" height="18" fill="#D9D9D9"/>
<rect x="60" y="40" width="18" height="18" fill="#D9D9D9"/>
<rect x="60" y="20" width="18" height="18" fill="#D9D9D9"/>
<rect x="60" y="200" width="18" height="18" fill="#D9D9D9"/>
<rect x="60" y="160" width="18" height="18" fill="#D9D9D9"/>
<rect x="60" y="180" width="18" height="18" fill="#D9D9D9"/>
<rect x="60" y="120" width="18" height="18" fill="#D9D9D9"/>
<rect x="40" y="100" width="18" height="18" fill="#D9D9D9"/>
<rect x="40" y="140" width="18" height="18" fill="#D9D9D9"/>
<rect x="40" y="60" width="18" height="18" fill="#D9D9D9"/>
<rect x="40" y="40" width="18" height="18" fill="#D9D9D9"/>
<rect x="40" y="20" width="18" height="18" fill="#D9D9D9"/>
<rect x="40" y="200" width="18" height="18" fill="#D9D9D9"/>
<rect x="40" y="160" width="18" height="18" fill="#D9D9D9"/>
<rect x="40" y="180" width="18" height="18" fill="#D9D9D9"/>
<rect x="40" y="120" width="18" height="18" fill="#D9D9D9"/>
<rect x="20" y="100" width="18" height="18" fill="#D9D9D9"/>
<rect x="20" y="140" width="18" height="18" fill="#D9D9D9"/>
<rect x="20" y="80" width="18" height="18" fill="#D9D9D9"/>
<rect x="20" y="60" width="18" height="18" fill="#D9D9D9"/>
<rect x="20" y="40" width="18" height="18" fill="#D9D9D9"/>
<rect x="20" y="160" width="18" height="18" fill="#D9D9D9"/>
<rect x="20" y="180" width="18" height="18" fill="#D9D9D9"/>
<rect x="20" y="120" width="18" height="18" fill="#D9D9D9"/>
<rect x="100" y="40" width="18" height="18" fill="#D9D9D9"/>
<rect x="40" y="80" width="18" height="18" fill="#D9D9D9"/>
<rect x="100" y="220" width="18" height="18" fill="#D9D9D9"/>
</svg>
