<svg width="733" height="163" viewBox="0 0 733 163" fill="none" xmlns="http://www.w3.org/2000/svg">
<rect y="37" width="234" height="90" fill="#D9D9D9"/>
<rect x="1.5" y="1.5" width="730" height="160" rx="8.5" stroke="#43473E" stroke-width="3"/>
<path d="M56 3V160.5" stroke="#43473E" stroke-width="3"/>
<path d="M116 3V160.5" stroke="#43473E" stroke-width="3"/>
<path d="M196 3V160.5" stroke="#43473E" stroke-width="3"/>
<path d="M296 3V160.5" stroke="#43473E" stroke-width="3"/>
<path d="M406 3V160.5" stroke="#43473E" stroke-width="3"/>
<path d="M526 3V160.5" stroke="#43473E" stroke-width="3"/>
<path d="M64.0156 153.453C64.651 153.453 65.1094 153.13 65.3906 152.484C65.5365 152.13 65.6094 151.724 65.6094 151.266C65.6094 150.047 65.1615 149.37 64.2656 149.234C64.151 149.214 64.0365 149.203 63.9219 149.203C63.1719 149.214 62.526 149.63 61.9844 150.453C62.1615 152.214 62.724 153.203 63.6719 153.422C63.7865 153.443 63.901 153.453 64.0156 153.453ZM67.5938 144.281L66.3438 145.688C65.9271 145.208 65.401 144.927 64.7656 144.844C64.6719 144.833 64.5885 144.828 64.5156 144.828C63.276 144.828 62.4792 145.615 62.125 147.188C62.0208 147.667 61.9583 148.208 61.9375 148.812C62.4479 148.198 63.0833 147.797 63.8438 147.609C64.0312 147.568 64.2083 147.547 64.375 147.547C65.8333 147.547 66.8333 148.12 67.375 149.266C67.6354 149.828 67.7656 150.495 67.7656 151.266C67.7656 152.63 67.2969 153.688 66.3594 154.438C65.6927 154.958 64.9271 155.219 64.0625 155.219C62.7292 155.219 61.6771 154.661 60.9062 153.547C60.1667 152.474 59.7969 151.036 59.7969 149.234C59.7969 146.693 60.4688 144.885 61.8125 143.812C62.5521 143.229 63.4062 142.938 64.375 142.938C65.6458 142.948 66.7188 143.396 67.5938 144.281ZM73.1406 155.219C71.6406 155.219 70.5417 154.474 69.8438 152.984C69.3646 151.943 69.125 150.625 69.125 149.031C69.125 146.229 69.8177 144.38 71.2031 143.484C71.7656 143.12 72.4115 142.938 73.1406 142.938C74.6927 142.938 75.8073 143.708 76.4844 145.25C76.9219 146.26 77.1406 147.521 77.1406 149.031C77.1406 151.708 76.5104 153.536 75.25 154.516C74.6458 154.984 73.9427 155.219 73.1406 155.219ZM73.1406 153.391C74.3281 153.37 74.9219 151.917 74.9219 149.031C74.8594 146.25 74.2656 144.828 73.1406 144.766C72.1198 144.766 71.5365 145.781 71.3906 147.812C71.3594 148.188 71.3438 148.594 71.3438 149.031C71.3542 151.927 71.9531 153.38 73.1406 153.391Z" fill="#43473E"/>
<path d="M203.703 155.219C202.38 155.219 201.339 154.833 200.578 154.062C200.026 153.5 199.75 152.833 199.75 152.062C199.76 150.729 200.438 149.698 201.781 148.969V148.891C200.74 148.141 200.219 147.203 200.219 146.078C200.219 144.953 200.682 144.104 201.609 143.531C202.224 143.146 202.948 142.953 203.781 142.953C205.094 142.953 206.057 143.391 206.672 144.266C207.036 144.797 207.219 145.411 207.219 146.109C207.219 147.057 206.802 147.885 205.969 148.594C205.875 148.677 205.786 148.75 205.703 148.812V148.891C207.016 149.62 207.677 150.677 207.688 152.062C207.688 153.083 207.24 153.896 206.344 154.5C205.625 154.979 204.745 155.219 203.703 155.219ZM204.453 148.234C205.016 147.63 205.297 146.969 205.297 146.25C205.297 145.521 205.021 145.021 204.469 144.75C204.25 144.646 204.005 144.594 203.734 144.594C203.141 144.594 202.719 144.839 202.469 145.328C202.354 145.557 202.297 145.807 202.297 146.078C202.297 146.786 202.708 147.365 203.531 147.812C203.781 147.948 204.089 148.089 204.453 148.234ZM203.766 153.562C204.536 153.562 205.057 153.281 205.328 152.719C205.443 152.49 205.5 152.24 205.5 151.969C205.5 151.292 205.12 150.734 204.359 150.297C204.047 150.109 203.552 149.88 202.875 149.609C202.198 150.255 201.833 150.984 201.781 151.797C201.781 152.495 202.094 153.005 202.719 153.328C203.042 153.484 203.391 153.562 203.766 153.562ZM213.141 155.219C211.641 155.219 210.542 154.474 209.844 152.984C209.365 151.943 209.125 150.625 209.125 149.031C209.125 146.229 209.818 144.38 211.203 143.484C211.766 143.12 212.411 142.938 213.141 142.938C214.693 142.938 215.807 143.708 216.484 145.25C216.922 146.26 217.141 147.521 217.141 149.031C217.141 151.708 216.51 153.536 215.25 154.516C214.646 154.984 213.943 155.219 213.141 155.219ZM213.141 153.391C214.328 153.37 214.922 151.917 214.922 149.031C214.859 146.25 214.266 144.828 213.141 144.766C212.12 144.766 211.536 145.781 211.391 147.812C211.359 148.188 211.344 148.594 211.344 149.031C211.354 151.927 211.953 153.38 213.141 153.391Z" fill="#43473E"/>
<path d="M410.312 155V153.094H412.859V145.609H410.719V144.156C411.812 143.948 412.729 143.615 413.469 143.156H415.203V153.094H417.438V155H410.312ZM423.141 155.219C421.641 155.219 420.542 154.474 419.844 152.984C419.365 151.943 419.125 150.625 419.125 149.031C419.125 146.229 419.818 144.38 421.203 143.484C421.766 143.12 422.411 142.938 423.141 142.938C424.693 142.938 425.807 143.708 426.484 145.25C426.922 146.26 427.141 147.521 427.141 149.031C427.141 151.708 426.51 153.536 425.25 154.516C424.646 154.984 423.943 155.219 423.141 155.219ZM423.141 153.391C424.328 153.37 424.922 151.917 424.922 149.031C424.859 146.25 424.266 144.828 423.141 144.766C422.12 144.766 421.536 145.781 421.391 147.812C421.359 148.188 421.344 148.594 421.344 149.031C421.354 151.927 421.953 153.38 423.141 153.391ZM432.562 155.219C431.062 155.219 429.964 154.474 429.266 152.984C428.786 151.943 428.547 150.625 428.547 149.031C428.547 146.229 429.24 144.38 430.625 143.484C431.188 143.12 431.833 142.938 432.562 142.938C434.115 142.938 435.229 143.708 435.906 145.25C436.344 146.26 436.562 147.521 436.562 149.031C436.562 151.708 435.932 153.536 434.672 154.516C434.068 154.984 433.365 155.219 432.562 155.219ZM432.562 153.391C433.75 153.37 434.344 151.917 434.344 149.031C434.281 146.25 433.688 144.828 432.562 144.766C431.542 144.766 430.958 145.781 430.812 147.812C430.781 148.188 430.766 148.594 430.766 149.031C430.776 151.927 431.375 153.38 432.562 153.391Z" fill="#43473E"/>
</svg>
