<svg width="138" height="96" viewBox="0 0 138 96" fill="none" xmlns="http://www.w3.org/2000/svg">
<path d="M131.195 28.0411L92.726 4.27181L4.69817 54.1292L57.2642 90.0858L127.096 66.0529L131.195 28.0411Z" fill="#D8E022"/>
<path d="M57.7193 69.011C58.0856 72.0168 60.9632 74.3248 64.3491 73.9121C67.735 73.4995 69.974 70.5679 69.6077 67.5622C69.2414 64.5564 66.3638 62.2484 62.9779 62.661C59.592 63.0737 57.353 66.0053 57.7193 69.011Z" stroke="white" stroke-width="6"/>
<path d="M34.3267 62.8069C34.693 65.8127 37.5706 68.1207 40.9565 67.708C44.3424 67.2954 46.5814 64.3638 46.2151 61.3581C45.8488 58.3523 42.9712 56.0443 39.5853 56.4569C36.1994 56.8696 33.9604 59.8012 34.3267 62.8069Z" stroke="white" stroke-width="6"/>
</svg>
