<svg width="1440" height="149" viewBox="0 0 1440 149" fill="none" xmlns="http://www.w3.org/2000/svg">
<g clip-path="url(#clip0_643_12346)">
<path fill-rule="evenodd" clip-rule="evenodd" d="M1329.75 143.55L1333.13 140.171L1333.12 140.153L1333.12 140.153L1329.74 136.775L1329.74 136.775L1323.96 131L1320.58 134.379L1326.36 140.153L1320.57 145.945L1323.95 149.324L1329.74 143.532L1329.75 143.55Z" fill="#D8E022"/>
<path fill-rule="evenodd" clip-rule="evenodd" d="M1321.19 143.55L1324.57 140.171L1324.55 140.153L1324.55 140.153L1321.17 136.775L1321.17 136.775L1315.4 131L1312.02 134.379L1317.79 140.153L1312 145.945L1315.38 149.324L1321.17 143.532L1321.19 143.55Z" fill="#D8E022"/>
<path fill-rule="evenodd" clip-rule="evenodd" d="M1338.32 143.55L1341.7 140.171L1341.68 140.153L1341.68 140.153L1338.31 136.775L1338.31 136.775L1332.53 131L1329.15 134.379L1334.93 140.153L1329.13 145.945L1332.51 149.324L1338.31 143.532L1338.32 143.55Z" fill="#D8E022"/>
<path fill-rule="evenodd" clip-rule="evenodd" d="M1346.89 143.55L1350.27 140.171L1350.25 140.153L1350.25 140.153L1346.87 136.775L1346.87 136.775L1341.1 131L1337.72 134.379L1343.49 140.153L1337.7 145.945L1341.08 149.324L1346.87 143.532L1346.89 143.55Z" fill="#D8E022"/>
<rect x="407.5" y="51.5" width="625" height="43" rx="21.5" stroke="#43473E" stroke-width="3" stroke-dasharray="6 6"/>
<path fill-rule="evenodd" clip-rule="evenodd" d="M1119.52 65.6942C1113.06 65.6942 1107.82 60.4585 1107.82 54H1101V72.5161H1119.52V65.6942Z" fill="#D8E022"/>
<rect x="1101" y="41" width="19" height="11" fill="#D8E022"/>
<rect x="1143" y="41" width="19" height="11" fill="#D8E022"/>
<rect x="1143" y="74" width="19" height="18" fill="#D8E022"/>
<rect x="1185" y="74" width="19" height="18" fill="#D8E022"/>
<rect x="1248" y="34" width="19" height="18" fill="#D8E022"/>
<rect x="1164" y="74" width="19" height="18" fill="#D8E022"/>
<rect x="1206" y="34" width="40" height="18" fill="#D8E022"/>
<rect x="1206" y="74" width="19" height="18" fill="#D8E022"/>
<rect x="1122" y="34" width="19" height="18" fill="#D8E022"/>
<rect x="1130" y="74" width="11" height="18" fill="#D8E022"/>
<circle cx="1090" cy="81" r="9" fill="#D8E022"/>
<path fill-rule="evenodd" clip-rule="evenodd" d="M1281.67 93H1274.85V98.8471L1269 98.8471V105.669H1274.85V111.516H1281.67V105.669H1287.52V98.8471L1281.67 98.8471V93Z" fill="#D8E022"/>
<path fill-rule="evenodd" clip-rule="evenodd" d="M1071.67 72H1064.85V77.8471L1059 77.8471V84.6688H1064.85V90.5161H1071.67V84.6688H1077.52V77.8471L1071.67 77.8471V72Z" fill="#D8E022"/>
<path fill-rule="evenodd" clip-rule="evenodd" d="M1266.05 98.9582L1261.23 94.1345L1257.09 98.2692L1252.96 94.1347L1248.14 98.9584L1252.27 103.093L1248.14 107.227L1252.96 112.051L1257.09 107.917L1261.23 112.051L1266.05 107.228L1261.92 103.093L1266.05 98.9582Z" fill="#D8E022"/>
<path fill-rule="evenodd" clip-rule="evenodd" d="M1308.05 98.9582L1303.23 94.1345L1299.09 98.2692L1294.96 94.1347L1290.14 98.9584L1294.27 103.093L1290.14 107.227L1294.96 112.051L1299.09 107.917L1303.23 112.051L1308.05 107.228L1303.92 103.093L1308.05 98.9582Z" fill="#D8E022"/>
<path fill-rule="evenodd" clip-rule="evenodd" d="M1207.51 99.7746L1204.13 103.153L1204.15 103.171L1204.15 103.171L1207.53 106.55L1207.53 106.55L1213.31 112.324L1216.68 108.945L1210.91 103.171L1216.7 97.3788L1213.32 94L1207.53 99.7921L1207.51 99.7746Z" fill="#D8E022"/>
<path fill-rule="evenodd" clip-rule="evenodd" d="M1216.08 99.7746L1212.7 103.153L1212.72 103.171L1212.72 103.171L1216.1 106.55L1216.1 106.55L1221.87 112.324L1225.25 108.945L1219.48 103.171L1225.27 97.3788L1221.89 94L1216.1 99.7921L1216.08 99.7746Z" fill="#D8E022"/>
<path fill-rule="evenodd" clip-rule="evenodd" d="M1198.95 99.7746L1195.57 103.153L1195.59 103.171L1195.59 103.171L1198.96 106.55L1198.96 106.55L1204.74 112.324L1208.12 108.945L1202.34 103.171L1208.13 97.3788L1204.76 94L1198.96 99.7921L1198.95 99.7746Z" fill="#D8E022"/>
<path fill-rule="evenodd" clip-rule="evenodd" d="M1190.38 99.7746L1187 103.153L1187.02 103.171L1187.02 103.171L1190.4 106.55L1190.4 106.55L1196.17 112.324L1199.55 108.945L1193.77 103.171L1199.57 97.3788L1196.19 94L1190.4 99.7921L1190.38 99.7746Z" fill="#D8E022"/>
<rect x="1185" y="54" width="19" height="18" fill="#D8E022"/>
<path d="M1227 80.8727L1232.45 74L1246 82.0182L1244.13 88.9727L1239.69 92H1227V80.8727Z" fill="#D8E022"/>
<path d="M1183 105.127L1177.55 112L1164 103.982L1165.87 97.0273L1170.31 94L1183 94L1183 105.127Z" fill="#D8E022"/>
<rect x="1164" y="54" width="19" height="18" fill="#D8E022"/>
<rect x="1206" y="54" width="19" height="18" fill="#D8E022"/>
<rect x="1143" y="54" width="19" height="18" fill="#D8E022"/>
<rect x="1248" y="54" width="19" height="18" fill="#D8E022"/>
<rect x="1122" y="94" width="40" height="18" fill="#D8E022"/>
<rect x="1227" y="54" width="19" height="18" fill="#D8E022"/>
<rect x="1269" y="54" width="19" height="18" fill="#D8E022"/>
<path fill-rule="evenodd" clip-rule="evenodd" d="M119.669 74H112.847V79.8471L107 79.8471V86.6688H112.847V92.5161H119.669V86.6688H125.516V79.8471L119.669 79.8471V74Z" fill="#D8E022"/>
<path fill-rule="evenodd" clip-rule="evenodd" d="M62.2161 83.1233L57.3924 78.2996L53.2579 82.4342L49.1233 78.2996L44.2996 83.1232L48.4342 87.2578L44.2995 91.3925L49.1232 96.2162L53.2579 92.0815L57.3925 96.2161L62.2161 91.3924L58.0816 87.2578L62.2161 83.1233Z" fill="#D8E022"/>
<mask id="path-38-inside-1_643_12346" fill="white">
<path fill-rule="evenodd" clip-rule="evenodd" d="M377.516 109.694C371.058 109.694 365.822 104.459 365.822 98H359V116.516H377.516V109.694Z"/>
</mask>
<path d="M377.516 109.694H380.516V106.694L377.516 106.694L377.516 109.694ZM365.822 98L368.822 98L368.822 95H365.822V98ZM359 98V95H356V98H359ZM359 116.516H356V119.516H359V116.516ZM377.516 116.516V119.516H380.516V116.516H377.516ZM377.516 106.694C372.714 106.694 368.822 102.802 368.822 98L362.822 98C362.822 106.115 369.401 112.694 377.516 112.694L377.516 106.694ZM359 101H365.822V95H359V101ZM362 116.516V98H356V116.516H362ZM377.516 113.516H359V119.516H377.516V113.516ZM374.516 109.694V116.516H380.516V109.694H374.516Z" fill="#D8E022" mask="url(#path-38-inside-1_643_12346)"/>
<rect x="170" y="45" width="19" height="11" fill="#D8E022"/>
<rect x="212" y="45" width="19" height="11" fill="#D8E022"/>
<rect x="149" y="78" width="19" height="18" fill="#D8E022"/>
<rect x="254" y="78" width="19" height="18" fill="#D8E022"/>
<rect x="317" y="38" width="19" height="18" fill="#D8E022"/>
<rect x="170" y="78" width="19" height="18" fill="#D8E022"/>
<rect x="191" y="38" width="19" height="18" fill="#D8E022"/>
<circle cx="158" cy="107" r="9" fill="#D8E022"/>
<path fill-rule="evenodd" clip-rule="evenodd" d="M350.669 98H343.847V103.847L338 103.847V110.669H343.847V116.516H350.669V110.669H356.516V103.847L350.669 103.847V98Z" fill="#D8E022"/>
<path fill-rule="evenodd" clip-rule="evenodd" d="M356.052 82.9582L351.228 78.1345L347.094 82.2692L342.959 78.1347L338.135 82.9584L342.27 87.0928L338.135 91.2273L342.959 96.051L347.094 91.9165L351.228 96.0512L356.052 91.2275L351.917 87.0928L356.052 82.9582Z" fill="#D8E022"/>
<path fill-rule="evenodd" clip-rule="evenodd" d="M273.755 103.775L277.133 107.153L277.116 107.171L277.116 107.171L273.737 110.55L273.737 110.55L267.963 116.324L264.584 112.945L270.358 107.171L264.566 101.379L267.945 98L273.737 103.792L273.755 103.775Z" fill="#D8E022"/>
<path fill-rule="evenodd" clip-rule="evenodd" d="M265.188 103.775L268.567 107.153L268.55 107.171L268.55 107.171L265.171 110.55L265.171 110.55L259.396 116.324L256.017 112.945L261.792 107.171L256 101.379L259.379 98L265.171 103.792L265.188 103.775Z" fill="#D8E022"/>
<path fill-rule="evenodd" clip-rule="evenodd" d="M299.188 103.775L302.567 107.153L302.55 107.171L302.55 107.171L299.171 110.55L299.171 110.55L293.396 116.324L290.017 112.945L295.792 107.171L290 101.379L293.379 98L299.171 103.792L299.188 103.775Z" fill="#D8E022"/>
<path fill-rule="evenodd" clip-rule="evenodd" d="M282.321 103.775L285.7 107.153L285.682 107.171L285.682 107.171L282.304 110.55L282.304 110.55L276.529 116.324L273.15 112.945L278.925 107.171L273.133 101.379L276.512 98L282.304 103.792L282.321 103.775Z" fill="#D8E022"/>
<path fill-rule="evenodd" clip-rule="evenodd" d="M290.889 103.775L294.268 107.153L294.251 107.171L294.251 107.171L290.872 110.55L290.872 110.55L285.097 116.324L281.719 112.945L287.493 107.171L281.701 101.379L285.08 98L290.872 103.792L290.889 103.775Z" fill="#D8E022"/>
<rect x="254" y="58" width="19" height="18" fill="#D8E022"/>
<path d="M128 64.8727L133.451 58L147 66.0182L145.131 72.9727L140.693 76H128V64.8727Z" fill="#D8E022"/>
<path d="M252 109.127L246.549 116L233 107.982L234.869 101.027L239.307 98L252 98L252 109.127Z" fill="#D8E022"/>
<rect x="233" y="58" width="19" height="18" fill="#D8E022"/>
<rect x="275" y="58" width="19" height="18" fill="#D8E022"/>
<rect x="212" y="58" width="19" height="18" fill="#D8E022"/>
<rect x="149" y="58" width="19" height="18" fill="#D8E022"/>
<rect x="149" y="38" width="19" height="18" fill="#D8E022"/>
<rect x="191" y="58" width="19" height="18" fill="#D8E022"/>
<rect x="128" y="45" width="19" height="11" fill="#D8E022"/>
<rect x="191" y="78" width="40" height="18" fill="#D8E022"/>
<rect x="128" y="78" width="19" height="18" fill="#D8E022"/>
<rect x="128" y="98" width="19" height="18" fill="#D8E022"/>
</g>
<defs>
<clipPath id="clip0_643_12346">
<rect width="1440" height="149" fill="white"/>
</clipPath>
</defs>
</svg>
