<svg width="250" height="79" viewBox="0 0 250 79" fill="none" xmlns="http://www.w3.org/2000/svg">
<g id="Group 43">
<g id="Subtract">
<mask id="path-1-inside-1_643_12416" fill="white">
<path fill-rule="evenodd" clip-rule="evenodd" d="M249.516 71.6942C243.058 71.6942 237.822 66.4585 237.822 60H231V78.5161H249.516V71.6942Z"/>
</mask>
<path d="M249.516 71.6942H252.516V68.6942L249.516 68.6942L249.516 71.6942ZM237.822 60L240.822 60L240.822 57H237.822V60ZM231 60V57H228V60H231ZM231 78.5161H228V81.5161H231V78.5161ZM249.516 78.5161V81.5161H252.516V78.5161H249.516ZM249.516 68.6942C244.714 68.6942 240.822 64.8017 240.822 60L234.822 60C234.822 68.1154 241.401 74.6942 249.516 74.6942L249.516 68.6942ZM231 63H237.822V57H231V63ZM234 78.5161V60H228V78.5161H234ZM249.516 75.5161H231V81.5161H249.516V75.5161ZM246.516 71.6942V78.5161H252.516V71.6942H246.516Z" fill="#D8E022" mask="url(#path-1-inside-1_643_12416)"/>
</g>
<rect id="Rectangle 73" x="42" y="7" width="19" height="11" fill="#D8E022"/>
<rect id="Rectangle 75" x="84" y="7" width="19" height="11" fill="#D8E022"/>
<rect id="Rectangle 112" x="21" y="40" width="19" height="18" fill="#D8E022"/>
<rect id="Rectangle 84" x="126" y="40" width="19" height="18" fill="#D8E022"/>
<rect id="Rectangle 97" x="189" width="19" height="18" fill="#D8E022"/>
<rect id="Rectangle 113" x="42" y="40" width="19" height="18" fill="#D8E022"/>
<rect id="Rectangle 74" x="63" width="19" height="18" fill="#D8E022"/>
<circle id="Ellipse 3" cx="30" cy="69" r="9" fill="#D8E022"/>
<path id="Union" fill-rule="evenodd" clip-rule="evenodd" d="M222.669 60H215.847V65.8471L210 65.8471V72.6688H215.847V78.5161H222.669V72.6688H228.516V65.8471L222.669 65.8471V60Z" fill="#D8E022"/>
<path id="Union_2" fill-rule="evenodd" clip-rule="evenodd" d="M228.052 44.9582L223.228 40.1345L219.094 44.2692L214.959 40.1347L210.135 44.9584L214.27 49.0928L210.135 53.2273L214.959 58.051L219.094 53.9165L223.228 58.0512L228.052 53.2275L223.917 49.0928L228.052 44.9582Z" fill="#D8E022"/>
<path id="Union_3" fill-rule="evenodd" clip-rule="evenodd" d="M145.755 65.7746L149.133 69.1533L149.116 69.1708L149.116 69.1709L145.737 72.5496L145.737 72.5496L139.963 78.3242L136.584 74.9455L142.358 69.1708L136.566 63.3788L139.945 60L145.737 65.7921L145.755 65.7746Z" fill="#D8E022"/>
<path id="Union_4" fill-rule="evenodd" clip-rule="evenodd" d="M137.188 65.7746L140.567 69.1533L140.55 69.1708L140.55 69.1709L137.171 72.5496L137.171 72.5496L131.396 78.3242L128.017 74.9455L133.792 69.1708L128 63.3788L131.379 60L137.171 65.7921L137.188 65.7746Z" fill="#D8E022"/>
<path id="Union_5" fill-rule="evenodd" clip-rule="evenodd" d="M171.188 65.7746L174.567 69.1533L174.55 69.1708L174.55 69.1709L171.171 72.5496L171.171 72.5496L165.396 78.3242L162.017 74.9455L167.792 69.1708L162 63.3788L165.379 60L171.171 65.7921L171.188 65.7746Z" fill="#D8E022"/>
<path id="Union_6" fill-rule="evenodd" clip-rule="evenodd" d="M154.321 65.7746L157.7 69.1533L157.682 69.1708L157.682 69.1709L154.304 72.5496L154.304 72.5496L148.529 78.3242L145.15 74.9455L150.925 69.1708L145.133 63.3788L148.512 60L154.304 65.7921L154.321 65.7746Z" fill="#D8E022"/>
<path id="Union_7" fill-rule="evenodd" clip-rule="evenodd" d="M162.889 65.7746L166.268 69.1533L166.251 69.1708L166.251 69.1709L162.872 72.5496L162.872 72.5496L157.097 78.3242L153.719 74.9455L159.493 69.1708L153.701 63.3788L157.08 60L162.872 65.7921L162.889 65.7746Z" fill="#D8E022"/>
<rect id="Rectangle 77" x="126" y="20" width="19" height="18" fill="#D8E022"/>
<path id="Vector 6" d="M0 26.8727L5.45082 20L19 28.0182L17.1311 34.9727L12.6926 38H0V26.8727Z" fill="#D8E022"/>
<path id="Vector 8" d="M124 71.1273L118.549 78L105 69.9818L106.869 63.0273L111.307 60L124 60L124 71.1273Z" fill="#D8E022"/>
<rect id="Rectangle 76" x="105" y="20" width="19" height="18" fill="#D8E022"/>
<rect id="Rectangle 78" x="147" y="20" width="19" height="18" fill="#D8E022"/>
<rect id="Rectangle 75_2" x="84" y="20" width="19" height="18" fill="#D8E022"/>
<rect id="Rectangle 115" x="21" y="20" width="19" height="18" fill="#D8E022"/>
<rect id="Rectangle 118" x="21" width="19" height="18" fill="#D8E022"/>
<rect id="Rectangle 108" x="63" y="20" width="19" height="18" fill="#D8E022"/>
<rect id="Rectangle 119" y="7" width="19" height="11" fill="#D8E022"/>
<rect id="Rectangle 109" x="63" y="40" width="40" height="18" fill="#D8E022"/>
<rect id="Rectangle 117" y="40" width="19" height="18" fill="#D8E022"/>
<rect id="Rectangle 121" y="60" width="19" height="18" fill="#D8E022"/>
</g>
</svg>
