<svg width="254" height="83" viewBox="0 0 254 83" fill="none" xmlns="http://www.w3.org/2000/svg">
<g id="Group 44">
<path id="Subtract" fill-rule="evenodd" clip-rule="evenodd" d="M60.5161 31.6942C54.0575 31.6942 48.8218 26.4585 48.8218 20H42V38.5161H60.5161V31.6942Z" fill="#D8E022"/>
<rect id="Rectangle 73" x="42" y="7" width="19" height="11" fill="#D8E022"/>
<rect id="Rectangle 75" x="84" y="7" width="19" height="11" fill="#D8E022"/>
<rect id="Rectangle 83" x="84" y="40" width="19" height="18" fill="#D8E022"/>
<rect id="Rectangle 84" x="126" y="40" width="19" height="18" fill="#D8E022"/>
<rect id="Rectangle 97" x="189" width="19" height="18" fill="#D8E022"/>
<rect id="Rectangle 76" x="105" y="40" width="19" height="18" fill="#D8E022"/>
<rect id="Rectangle 78" x="147" width="40" height="18" fill="#D8E022"/>
<rect id="Rectangle 89" x="147" y="40" width="19" height="18" fill="#D8E022"/>
<rect id="Rectangle 74" x="63" width="19" height="18" fill="#D8E022"/>
<rect id="Rectangle 87" x="71" y="40" width="11" height="18" fill="#D8E022"/>
<circle id="Ellipse 3" cx="31" cy="47" r="9" fill="#D8E022"/>
<path id="Union" fill-rule="evenodd" clip-rule="evenodd" d="M222.669 59H215.847V64.8471L210 64.8471V71.6688H215.847V77.5161H222.669V71.6688H228.516V64.8471L222.669 64.8471V59Z" fill="#D8E022"/>
<path id="Union_2" fill-rule="evenodd" clip-rule="evenodd" d="M12.6689 38H5.84719V43.8471L0 43.8471V50.6688H5.84719V56.5161H12.6689V50.6688H18.5161V43.8471L12.6689 43.8471V38Z" fill="#D8E022"/>
<path id="Union_3" fill-rule="evenodd" clip-rule="evenodd" d="M207.052 64.9582L202.228 60.1345L198.094 64.2692L193.959 60.1347L189.135 64.9584L193.27 69.0928L189.135 73.2273L193.959 78.051L198.094 73.9165L202.228 78.0512L207.052 73.2275L202.917 69.0928L207.052 64.9582Z" fill="#D8E022"/>
<path id="Union_4" fill-rule="evenodd" clip-rule="evenodd" d="M249.052 64.9582L244.228 60.1345L240.094 64.2692L235.959 60.1347L231.135 64.9584L235.27 69.0928L231.135 73.2273L235.959 78.051L240.094 73.9165L244.228 78.0512L249.052 73.2275L244.917 69.0928L249.052 64.9582Z" fill="#D8E022"/>
<path id="Union_5" fill-rule="evenodd" clip-rule="evenodd" d="M148.513 65.7746L145.134 69.1533L145.152 69.1708L145.152 69.1709L148.53 72.5496L148.53 72.5496L154.305 78.3242L157.684 74.9455L151.909 69.1708L157.701 63.3788L154.322 60L148.53 65.7921L148.513 65.7746Z" fill="#D8E022"/>
<path id="Union_6" fill-rule="evenodd" clip-rule="evenodd" d="M157.079 65.7746L153.701 69.1533L153.718 69.1708L153.718 69.1709L157.097 72.5496L157.097 72.5496L162.871 78.3242L166.25 74.9455L160.476 69.1708L166.268 63.3788L162.889 60L157.097 65.7921L157.079 65.7746Z" fill="#D8E022"/>
<path id="Union_7" fill-rule="evenodd" clip-rule="evenodd" d="M139.946 65.7746L136.568 69.1533L136.585 69.1708L136.585 69.1709L139.964 72.5496L139.964 72.5496L145.739 78.3242L149.117 74.9455L143.343 69.1708L149.135 63.3788L145.756 60L139.964 65.7921L139.946 65.7746Z" fill="#D8E022"/>
<path id="Union_8" fill-rule="evenodd" clip-rule="evenodd" d="M131.378 65.7746L127.999 69.1533L128.017 69.1708L128.017 69.1709L131.396 72.5496L131.396 72.5496L137.17 78.3242L140.549 74.9455L134.774 69.1708L140.566 63.3788L137.188 60L131.396 65.7921L131.378 65.7746Z" fill="#D8E022"/>
<rect id="Rectangle 77" x="126" y="20" width="19" height="18" fill="#D8E022"/>
<path id="Vector 6" d="M168 46.8727L173.451 40L187 48.0182L185.131 54.9727L180.693 58H168V46.8727Z" fill="#D8E022"/>
<path id="Vector 8" d="M124 71.1273L118.549 78L105 69.9818L106.869 63.0273L111.307 60L124 60L124 71.1273Z" fill="#D8E022"/>
<rect id="Rectangle 76_2" x="105" y="20" width="19" height="18" fill="#D8E022"/>
<rect id="Rectangle 78_2" x="147" y="20" width="19" height="18" fill="#D8E022"/>
<rect id="Rectangle 75_2" x="84" y="20" width="19" height="18" fill="#D8E022"/>
<rect id="Rectangle 103" x="189" y="20" width="19" height="18" fill="#D8E022"/>
<rect id="Rectangle 94" x="63" y="60" width="40" height="18" fill="#D8E022"/>
<rect id="Rectangle 105" x="168" y="20" width="19" height="18" fill="#D8E022"/>
<rect id="Rectangle 107" x="210" y="20" width="19" height="18" fill="#D8E022"/>
</g>
</svg>
