<svg width="100%" height="100%" viewBox="0 0 560 149" fill="none" xmlns="http://www.w3.org/2000/svg">
<path d="M288.428 62.08L301.868 80H285.996C285.186 78.3787 283.692 76.0107 281.516 72.896L280.044 70.784C279.788 71.168 279.49 71.5733 279.148 72C278.85 72.4267 278.551 72.896 278.252 73.408C277.399 74.6027 276.588 75.776 275.82 76.928C275.095 78.08 274.498 79.104 274.028 80H258.156L271.596 62.08L258.668 45.056H274.476C275.074 46.2507 276.226 48.1067 277.932 50.624L280.044 53.824L281.836 51.072C283.628 48.384 284.866 46.3787 285.548 45.056H301.356L288.428 62.08Z" fill="#D8E022"/>
<path d="M183.576 35.7C191.376 35.268 197.424 34.788 201.72 34.26C201.312 35.508 201 36.828 200.784 38.22C200.568 39.612 200.46 40.872 200.46 42H174.72L174.684 41.244C174.684 38.892 175.368 36.852 176.736 35.124C178.128 33.396 180.06 31.8 182.532 30.336C183.252 29.904 184.38 29.352 185.916 28.68C187.908 27.816 189.444 27.06 190.524 26.412C191.604 25.74 192.144 25.08 192.144 24.432C192.144 23.616 191.808 22.968 191.136 22.488C190.464 22.008 189.42 21.768 188.004 21.768C186.444 21.768 185.256 22.164 184.44 22.956C183.648 23.748 183.252 24.756 183.252 25.98C183.252 26.364 183.288 26.76 183.36 27.168C180.336 26.784 177.396 26.52 174.54 26.376C174.54 24.336 175.068 22.5 176.124 20.868C177.204 19.212 178.812 17.904 180.948 16.944C183.108 15.984 185.748 15.504 188.868 15.504C191.724 15.504 194.1 15.9 195.996 16.692C197.916 17.46 199.32 18.444 200.208 19.644C201.12 20.82 201.576 22.032 201.576 23.28C201.576 24.72 201.252 25.956 200.604 26.988C199.98 28.02 199.068 28.944 197.868 29.76C196.692 30.552 195.108 31.416 193.116 32.352C192.828 32.496 192.36 32.664 191.712 32.856C191.064 33.024 190.656 33.132 190.488 33.18C188.784 33.684 187.428 34.104 186.42 34.44C185.412 34.776 184.464 35.196 183.576 35.7ZM219.682 42.36C214.522 42.36 210.718 41.172 208.27 38.796C205.822 36.42 204.598 33.12 204.598 28.896C204.598 24.696 205.822 21.42 208.27 19.068C210.742 16.692 214.546 15.504 219.682 15.504C224.818 15.504 228.61 16.692 231.058 19.068C233.506 21.42 234.73 24.696 234.73 28.896C234.73 33.12 233.506 36.42 231.058 38.796C228.61 41.172 224.818 42.36 219.682 42.36ZM219.718 36.06C221.926 36.06 223.534 35.388 224.542 34.044C225.55 32.676 226.054 30.96 226.054 28.896C226.054 26.856 225.55 25.164 224.542 23.82C223.534 22.452 221.926 21.768 219.718 21.768C217.438 21.768 215.782 22.452 214.75 23.82C213.742 25.164 213.238 26.856 213.238 28.896C213.238 30.936 213.742 32.64 214.75 34.008C215.782 35.376 217.438 36.06 219.718 36.06ZM246.646 35.7C254.446 35.268 260.494 34.788 264.79 34.26C264.382 35.508 264.07 36.828 263.854 38.22C263.638 39.612 263.53 40.872 263.53 42H237.79L237.754 41.244C237.754 38.892 238.438 36.852 239.806 35.124C241.198 33.396 243.13 31.8 245.602 30.336C246.322 29.904 247.45 29.352 248.986 28.68C250.978 27.816 252.514 27.06 253.594 26.412C254.674 25.74 255.214 25.08 255.214 24.432C255.214 23.616 254.878 22.968 254.206 22.488C253.534 22.008 252.49 21.768 251.074 21.768C249.514 21.768 248.326 22.164 247.51 22.956C246.718 23.748 246.322 24.756 246.322 25.98C246.322 26.364 246.358 26.76 246.43 27.168C243.406 26.784 240.466 26.52 237.61 26.376C237.61 24.336 238.138 22.5 239.194 20.868C240.274 19.212 241.882 17.904 244.018 16.944C246.178 15.984 248.818 15.504 251.938 15.504C254.794 15.504 257.17 15.9 259.066 16.692C260.986 17.46 262.39 18.444 263.278 19.644C264.19 20.82 264.646 22.032 264.646 23.28C264.646 24.72 264.322 25.956 263.674 26.988C263.05 28.02 262.138 28.944 260.938 29.76C259.762 30.552 258.178 31.416 256.186 32.352C255.898 32.496 255.43 32.664 254.782 32.856C254.134 33.024 253.726 33.132 253.558 33.18C251.854 33.684 250.498 34.104 249.49 34.44C248.482 34.776 247.534 35.196 246.646 35.7ZM298.053 30.66V37.428H293.157V42H284.553C284.649 40.992 284.721 39.468 284.769 37.428H267.669V30.156C273.261 25.86 278.253 21.096 282.645 15.864H293.157V30.66H298.053ZM284.949 22.992C283.293 24.696 281.865 26.124 280.665 27.276C279.465 28.404 278.109 29.532 276.597 30.66H284.841L284.949 22.992ZM349.144 23.136V29.652H348.172V41.784H341.512V29.652H340.108C340.036 32.076 339.844 34.332 339.532 36.42C339.22 38.508 338.728 40.44 338.056 42.216C336.856 41.736 335.608 41.328 334.312 40.992C333.04 40.632 331.852 40.38 330.748 40.236C331.612 38.868 332.236 37.524 332.62 36.204C333.028 34.884 333.28 33.468 333.376 31.956C333.496 30.42 333.556 28.308 333.556 25.62C333.556 21.54 333.496 18.036 333.376 15.108H334.708C338.116 15.084 340.816 15.036 342.808 14.964C344.824 14.868 346.924 14.664 349.108 14.352C348.916 15.912 348.82 18.456 348.82 21.984C346.852 22.104 345.124 22.164 343.636 22.164C343.036 22.164 341.872 22.14 340.144 22.092V23.136H349.144ZM330.1 39.12C329.86 38.856 329.524 38.46 329.092 37.932L327.796 36.384V42H320.308V37.608C320.02 38.376 319.612 39.252 319.084 40.236C318.556 41.196 318.232 41.784 318.112 42C317.656 40.728 317.188 39.672 316.708 38.832C316.228 37.992 315.484 36.876 314.476 35.484C315.916 34.692 317.296 33.612 318.616 32.244H314.908V27.636H320.308V26.844H315.556V21.876H317.392C317.32 21.564 317.236 21.288 317.14 21.048H315.556V15.684H320.596V14.424H328.192V15.684H332.692V21.048H331.864C331.768 21.288 331.684 21.564 331.612 21.876H332.692V26.844H327.796V27.636H332.548V32.244H329.596C330.196 32.46 331.3 32.832 332.908 33.36L330.1 39.12ZM323.26 21.048L323.368 21.876H325.6L325.744 21.048H323.26ZM385.18 16.188V24.036H384.316V35.448C384.316 37.344 383.932 38.724 383.164 39.588C382.42 40.428 381.22 40.98 379.564 41.244C377.932 41.484 375.4 41.604 371.968 41.604H366.352C366.28 39.876 366.052 38.328 365.668 36.96C365.308 35.592 364.588 34.452 363.508 33.54C367.948 33.78 370.828 33.9 372.148 33.9C373.276 33.9 374.128 33.864 374.704 33.792C375.304 33.696 375.7 33.564 375.892 33.396C376.108 33.204 376.216 32.964 376.216 32.676V24.036H374.992C374.32 25.572 373.552 26.976 372.688 28.248C371.824 29.496 370.804 30.78 369.628 32.1C368.26 31.116 367.084 30.324 366.1 29.724C365.14 29.124 364.012 28.572 362.716 28.068V41.82H354.364V31.92C353.644 32.496 352.948 32.94 352.276 33.252C352.132 31.308 351.94 29.7 351.7 28.428C351.46 27.156 351.04 25.824 350.44 24.432C353.488 22.392 355.492 19.008 356.452 14.28H364.012C363.94 14.712 363.748 15.456 363.436 16.512H366.892V22.632C367.924 20.568 368.692 17.784 369.196 14.28H377.584L377.26 16.188H385.18ZM362.716 27.564C364.012 26.532 365.044 25.464 365.812 24.36H362.716V27.564Z" fill="#43473E"/>
<path d="M123.68 79.6L123.04 81.04L139.36 81.12H142.64H156.96C157.013 82.1867 157.04 83.84 157.04 86.08C157.04 88.2667 157.013 89.92 156.96 91.04H158.64V102.88H156.32C156.213 104.48 156.107 105.627 156 106.32L159.52 106.4C158.72 108.533 158.187 110.373 157.92 111.92C157.653 113.467 157.44 115.387 157.28 117.68L154.16 117.28V117.44C153.307 121.333 151.627 123.707 149.12 124.56C147.307 125.147 144.747 125.573 141.44 125.84C138.187 126.053 132.667 126.213 124.88 126.32C124.667 125.893 124.347 125.173 123.92 124.16C123.493 123.093 122.987 122.08 122.4 121.12C121.813 120.16 121.093 119.307 120.24 118.56L119.44 122.48L104.56 119.92C106.747 113.2 108.24 106.533 109.04 99.92L105.68 108.64L104 101.84V126.48H88.48V109.68C87.3067 113.893 85.7067 117.6 83.68 120.8C82.9867 112.587 81.68 105.36 79.76 99.12C83.0667 96.88 85.9733 93.44 88.48 88.8V87.92H82.8V72.08H88.48V65.04H104V72.08H107.92V78.64C108.987 76.1867 109.733 73.9733 110.16 72C110.64 70.0267 111.013 67.7067 111.28 65.04H126.96L126.72 67.6H159.68V79.6H123.68ZM104 88.32C105.12 89.44 105.947 90.32 106.48 90.96L109.6 94.16C109.867 90.4267 110 86.7733 110 83.2C109.52 83.1467 108.827 83.12 107.92 83.12V87.92H104V88.32ZM128.32 93.12L128.56 89.6H124.32C124.213 90.3467 124.107 91.52 124 93.12H128.32ZM138.96 89.6C138.96 90.4533 138.907 91.6267 138.8 93.12H142.56C142.613 92.32 142.64 91.1467 142.64 89.6H138.96ZM126.88 106L127.44 102.4H122.96C122.747 104 122.56 105.2 122.4 106H126.88ZM141.44 106.08L141.92 102.4H137.92L137.44 106.08H141.44ZM125.6 117.2C129.28 117.2 132 117.173 133.76 117.12C135.573 117.013 136.88 116.853 137.68 116.64C138.48 116.427 139.013 116.08 139.28 115.6C132.507 114.907 126.427 114.48 121.04 114.32C120.827 115.6 120.64 116.56 120.48 117.2H125.6ZM238.4 68.64V86.08H236.48V111.44C236.48 115.653 235.627 118.72 233.92 120.64C232.267 122.507 229.6 123.733 225.92 124.32C222.293 124.853 216.667 125.12 209.04 125.12H196.56C196.4 121.28 195.893 117.84 195.04 114.8C194.24 111.76 192.64 109.227 190.24 107.2C200.107 107.733 206.507 108 209.44 108C211.947 108 213.84 107.92 215.12 107.76C216.453 107.547 217.333 107.253 217.76 106.88C218.24 106.453 218.48 105.92 218.48 105.28V86.08H215.76C214.267 89.4933 212.56 92.6133 210.64 95.44C208.72 98.2133 206.453 101.067 203.84 104C200.8 101.813 198.187 100.053 196 98.72C193.867 97.3867 191.36 96.16 188.48 95.04V125.6H169.92V103.6C168.32 104.88 166.773 105.867 165.28 106.56C164.96 102.24 164.533 98.6667 164 95.84C163.467 93.0133 162.533 90.0533 161.2 86.96C167.973 82.4267 172.427 74.9067 174.56 64.4H191.36C191.2 65.36 190.773 67.0133 190.08 69.36H197.76V82.96C200.053 78.3733 201.76 72.1867 202.88 64.4H221.52L220.8 68.64H238.4ZM188.48 93.92C191.36 91.6267 193.653 89.2533 195.36 86.8H188.48V93.92ZM308.48 110.32L311.68 114.32C314.347 117.573 316.64 120.533 318.56 123.2C313.44 123.893 307.973 124.933 302.16 126.32C301.093 124.08 299.947 121.787 298.72 119.44C297.547 117.04 296.267 114.693 294.88 112.4C300.213 111.653 304.427 110.96 307.52 110.32H243.04V101.68H271.76V100.48H246.4V91.92H271.76V90.64H245.44V66.56H314.72V90.64H288.4V91.92H313.76V100.48H288.4V101.68H317.12V110.32H308.48ZM271.76 81.84V75.2H261.92V81.84H264.08C263.387 80.5067 262.907 78.5867 262.64 76.08L270.24 75.84C270.347 78.7733 270.56 80.7733 270.88 81.84H271.76ZM298.24 81.84V75.2H288.4V81.84H289.04C289.307 80.6133 289.547 78.6133 289.76 75.84L297.36 76.08C297.093 78.4267 296.587 80.3467 295.84 81.84H298.24ZM279.28 112.24C285.093 111.92 289.493 111.573 292.48 111.2C293.547 112.96 294.64 115.147 295.76 117.76C296.933 120.32 297.893 122.907 298.64 125.52C293.893 125.467 288.613 125.76 282.8 126.4C282.32 123.947 281.733 121.307 281.04 118.48C280.347 115.653 279.76 113.573 279.28 112.24ZM241.12 124.32C243.253 122.08 244.827 120.027 245.84 118.16C246.853 116.293 247.787 114.053 248.64 111.44C251.787 111.707 255.707 111.84 260.4 111.84C260.987 111.893 261.84 111.92 262.96 111.92C262.747 115.013 262.427 117.627 262 119.76C261.573 121.84 260.933 124.107 260.08 126.56C253.573 125.6 247.253 124.853 241.12 124.32ZM264.56 112.16C267.333 112.213 271.6 112.027 277.36 111.6L278.24 115.76C279.147 119.6 279.813 122.853 280.24 125.52C274.96 125.52 269.6 125.813 264.16 126.4C264.48 119.68 264.613 114.933 264.56 112.16ZM398.56 97.36C396.853 102.693 395.867 107.093 395.6 110.56L392.72 110.08V126.32H374V125.36H345.2V126.32H326.48V109.28L323.92 109.6C323.867 107.947 323.6 106.24 323.12 104.48C322.693 102.667 321.973 100.293 320.96 97.36H324.8C327.253 97.36 330.453 97.3067 334.4 97.2C331.947 96.08 329.787 95.1467 327.92 94.4C326.053 93.6 323.867 92.8 321.36 92C325.893 90.7733 329.76 89.5467 332.96 88.32H321.68V67.2H350.8V64.88H369.12V67.2H398.24V88.32H388.56L388.72 89.92C385.787 92.32 382.347 94.5067 378.4 96.48C383.52 96.96 390.24 97.2533 398.56 97.36ZM338.4 80.32V85.76C340.16 84.8 341.867 83.52 343.52 81.92H362.8C362.587 82.2933 362.213 82.8533 361.68 83.6L381.6 83.52V80.32H338.4ZM354.64 90.72C356.72 91.5733 359.04 92.4 361.6 93.2C363.52 92.56 365.547 91.7333 367.68 90.72H354.64ZM346.64 94C344.507 94.9067 341.68 95.92 338.16 97.04C342 96.8267 345.733 96.4533 349.36 95.92L346.64 94ZM371.52 105.6C368.16 104.64 365.04 103.6 362.16 102.48C358.96 103.387 354.56 104.427 348.96 105.6H371.52ZM345.2 113.28V115.36H374V113.28H345.2ZM479.76 92.48C478.427 92.64 477.067 92.9333 475.68 93.36C474.347 93.7333 472.747 94.2667 470.88 94.96C473.333 104.773 475.893 114.24 478.56 123.36C476.533 123.52 474.16 123.867 471.44 124.4C468.773 124.88 466.133 125.413 463.52 126L460.72 126.56L459.76 122.24L430.8 126.56L430.4 124.64C429.653 121.12 428.96 118.213 428.32 115.92C427.68 113.573 426.827 111.387 425.76 109.36C428.587 109.147 430.8 108.96 432.4 108.8L435.92 95.28C434.053 94.5867 432.187 93.9733 430.32 93.44L432.4 95.44L427.04 108.72L425.76 103.52L425.28 101.6V126.48H409.04V109.12C407.707 113.547 406 117.413 403.92 120.72C403.227 112.56 401.84 105.253 399.76 98.8C401.573 97.68 403.227 96.2933 404.72 94.64C406.213 92.9867 407.653 91.04 409.04 88.8V87.92H403.04V72.08H409.04V65.04H425.28V72.08H429.52V86.64C431.387 83.44 432.72 80.16 433.52 76.8C434.373 73.3867 435.013 69.2 435.44 64.24L452 65.6L451.52 68.24C450.24 76.1333 449.12 82.08 448.16 86.08L455.04 86.88L453.6 92L458.48 91.12C457.36 87.44 456.453 83.8667 455.76 80.4C455.12 76.88 454.293 71.9467 453.28 65.6L469.84 64.24C470.427 70.5867 471.387 75.8133 472.72 79.92C474.053 83.9733 476.4 88.16 479.76 92.48ZM425.28 87.92V88.32L427.2 90.24L428.72 87.92H425.28ZM449.36 107.28L456.64 106.56C455.573 101.333 454.507 96.72 453.44 92.72L449.36 107.28Z" fill="#43473E"/>
</svg>
