<svg width="156" height="31" viewBox="0 0 156 31" fill="none" xmlns="http://www.w3.org/2000/svg">
<path fill-rule="evenodd" clip-rule="evenodd" d="M23.4355 0.40962C24.5368 -0.337084 26.0248 -0.0344225 26.759 1.08563L34.7477 13.2727C35.238 14.0206 35.2837 14.9823 34.8666 15.7748C34.4496 16.5673 33.6375 17.0621 32.7536 17.0621H21.5695C20.2458 17.0621 19.1729 15.9708 19.1729 14.6247C19.1729 13.2785 20.2458 12.1873 21.5695 12.1873H28.2755L22.7708 3.78969C22.0366 2.66964 22.3342 1.15633 23.4355 0.40962Z" fill="#43473E"/>
<path fill-rule="evenodd" clip-rule="evenodd" d="M3.47749 13.7198C3.88381 12.9486 4.66599 12.4685 5.51624 12.4685H15.5736C16.8554 12.4685 17.8945 13.5415 17.8945 14.8651C17.8945 16.1888 16.8554 17.2618 15.5736 17.2618H9.78243L15.9749 27.1442C16.6712 28.2554 16.3633 29.7392 15.2871 30.4583C14.211 31.1773 12.7741 30.8594 12.0777 29.7481L3.56766 16.1671C3.10576 15.43 3.07117 14.4911 3.47749 13.7198Z" fill="#43473E"/>
<path d="M5.75185 8.53093C5.75185 10.3431 4.46426 11.8121 2.87593 11.8121C1.2876 11.8121 0 10.3431 0 8.53093C0 6.71879 1.2876 5.24976 2.87593 5.24976C4.46426 5.24976 5.75185 6.71879 5.75185 8.53093Z" fill="#D8E022"/>
<path d="M156 21.4444C155.625 21.4892 155.243 21.5715 154.853 21.6911C154.478 21.7958 154.028 21.9453 153.503 22.1397C154.193 24.8913 154.913 27.5457 155.663 30.1028C155.093 30.1477 154.425 30.2449 153.66 30.3944C152.911 30.529 152.168 30.6786 151.433 30.8431L150.646 31.0001L150.376 29.7888L142.232 31.0001L142.12 30.4617C141.91 29.4748 141.715 28.6598 141.535 28.0167C141.355 27.3587 141.115 26.7456 140.815 26.1774C141.61 26.1175 142.232 26.0652 142.682 26.0203L143.672 22.2295C143.147 22.0351 142.622 21.8631 142.097 21.7135L142.682 22.2743L141.175 25.9979L140.815 24.5399L140.68 24.0015V30.9777H136.113V26.1101C135.739 27.3513 135.259 28.4354 134.674 29.3626C134.479 27.0746 134.089 25.0259 133.504 23.2164C134.014 22.9024 134.479 22.5136 134.899 22.05C135.319 21.5864 135.724 21.0406 136.113 20.4125V20.1658H134.426V15.7244H136.113V13.7504H140.68V15.7244H141.872V19.8069C142.397 18.9096 142.772 17.9899 142.997 17.0478C143.237 16.0908 143.417 14.9169 143.537 13.5261L148.194 13.9075L148.059 14.6477C147.699 16.8609 147.384 18.5283 147.114 19.6499L149.049 19.8742L148.644 21.3098L150.016 21.063C149.701 20.0312 149.446 19.0293 149.251 18.0572C149.071 17.0703 148.839 15.687 148.554 13.9075L153.211 13.5261C153.375 15.3057 153.645 16.7712 154.02 17.9227C154.395 19.0592 155.055 20.2331 156 21.4444ZM140.68 20.1658V20.2779L141.22 20.8163L141.648 20.1658H140.68ZM147.452 25.5942L149.499 25.3923C149.199 23.9268 148.899 22.6332 148.599 21.5117L147.452 25.5942Z" fill="#43473E"/>
<path d="M133.167 22.8127C132.687 24.3081 132.41 25.5418 132.335 26.5138L131.525 26.3792V30.9328H126.261V30.6636H118.162V30.9328H112.898V26.1549L112.178 26.2447C112.163 25.7811 112.088 25.3025 111.953 24.8091C111.833 24.3006 111.631 23.6351 111.346 22.8127H112.426C113.115 22.8127 114.015 22.7977 115.125 22.7678C114.435 22.4538 113.828 22.1921 113.303 21.9827C112.778 21.7584 112.163 21.5341 111.458 21.3098C112.733 20.9658 113.82 20.6219 114.72 20.2779H111.548V14.3561H119.737V13.7056H124.888V14.3561H133.077V20.2779H130.355L130.4 20.7266C129.575 21.3995 128.608 22.0126 127.498 22.5659C128.938 22.7005 130.827 22.7828 133.167 22.8127ZM116.25 18.0348V19.5601C116.745 19.291 117.225 18.9321 117.69 18.4834H123.111C123.051 18.5881 122.946 18.7451 122.796 18.9545L128.398 18.9321V18.0348H116.25ZM120.817 20.9509C121.401 21.1901 122.054 21.4219 122.774 21.6462C123.314 21.4668 123.884 21.235 124.483 20.9509H120.817ZM118.567 21.8706C117.967 22.1248 117.172 22.4089 116.182 22.7229C117.262 22.6631 118.312 22.5584 119.332 22.4089L118.567 21.8706ZM125.563 25.1231C124.618 24.8539 123.741 24.5623 122.931 24.2483C122.031 24.5025 120.794 24.7941 119.219 25.1231H125.563ZM118.162 27.2765V27.8597H126.261V27.2765H118.162Z" fill="#43473E"/>
<path d="M107.836 26.4467L108.736 27.5682C109.486 28.4804 110.131 29.3104 110.671 30.0581C109.231 30.2525 107.694 30.5441 106.059 30.9329C105.759 30.3048 105.437 29.6618 105.092 29.0038C104.762 28.3309 104.402 27.6729 104.012 27.0299C105.512 26.8205 106.696 26.6261 107.566 26.4467H89.4344V24.0241H97.5106V23.6876H90.3793V21.2875H97.5106V20.9286H90.1093V14.1768H109.591V20.9286H102.19V21.2875H109.321V23.6876H102.19V24.0241H110.266V26.4467H107.836ZM97.5106 18.4611V16.5993H94.7435V18.4611H95.3509C95.156 18.0873 95.021 17.5489 94.946 16.8461L97.0831 16.7788C97.1131 17.6013 97.1731 18.162 97.2631 18.4611H97.5106ZM104.957 18.4611V16.5993H102.19V18.4611H102.37C102.445 18.1172 102.512 17.5564 102.572 16.7788L104.709 16.8461C104.634 17.5041 104.492 18.0424 104.282 18.4611H104.957ZM99.6252 26.985C101.26 26.8953 102.497 26.7981 103.337 26.6934C103.637 27.1869 103.944 27.8 104.259 28.5328C104.589 29.2506 104.859 29.9759 105.069 30.7086C103.734 30.6937 102.25 30.7759 100.615 30.9554C100.48 30.2675 100.315 29.5272 100.12 28.7347C99.9251 27.9421 99.7602 27.3589 99.6252 26.985ZM88.8945 30.3721C89.4944 29.7441 89.9369 29.1683 90.2218 28.6449C90.5068 28.1215 90.7692 27.4935 91.0092 26.7607C91.894 26.8355 92.9963 26.8729 94.3161 26.8729C94.4811 26.8878 94.721 26.8953 95.036 26.8953C94.976 27.7626 94.886 28.4954 94.766 29.0936C94.646 29.6768 94.4661 30.3123 94.2261 31.0002C92.3964 30.731 90.6192 30.5217 88.8945 30.3721ZM95.4859 26.9626C96.2658 26.9775 97.4656 26.9252 99.0853 26.8056L99.3327 27.972C99.5877 29.0487 99.7752 29.9609 99.8951 30.7086C98.4104 30.7086 96.9032 30.7909 95.3734 30.9554C95.4634 29.0711 95.5009 27.7402 95.4859 26.9626Z" fill="#43473E"/>
<path d="M88.1297 14.7599V19.6499H87.5898V26.7606C87.5898 27.942 87.3498 28.8019 86.8699 29.3402C86.405 29.8636 85.6551 30.2076 84.6203 30.3721C83.6004 30.5216 82.0182 30.5964 79.8736 30.5964H76.3642C76.3192 29.5197 76.1767 28.5551 75.9368 27.7028C75.7118 26.8504 75.2619 26.14 74.587 25.5718C77.3615 25.7213 79.1612 25.7961 79.9861 25.7961C80.6909 25.7961 81.2234 25.7737 81.5833 25.7288C81.9582 25.669 82.2057 25.5867 82.3257 25.4821C82.4606 25.3624 82.5281 25.2129 82.5281 25.0334V19.6499H81.7633C81.3433 20.607 80.8634 21.4818 80.3235 22.2744C79.7836 23.052 79.1462 23.852 78.4113 24.6745C77.5565 24.0614 76.8216 23.5679 76.2067 23.1941C75.6068 22.8202 74.9019 22.4763 74.0921 22.1622V30.731H68.873V24.5624C68.4231 24.9213 67.9881 25.1979 67.5682 25.3923C67.4782 24.181 67.3582 23.1791 67.2083 22.3865C67.0583 21.594 66.7958 20.764 66.4209 19.8967C68.3256 18.6256 69.5779 16.517 70.1778 13.571H74.9019C74.8569 13.8402 74.737 14.3038 74.542 14.9618H76.7016V18.7751C77.3465 17.489 77.8264 15.7544 78.1414 13.571H83.383L83.1805 14.7599H88.1297ZM74.0921 21.8482C74.9019 21.2052 75.5468 20.5397 76.0267 19.8518H74.0921V21.8482Z" fill="#43473E"/>
<path d="M55.8699 17.8327L55.6899 18.2365L60.2792 18.2589H61.2015H65.2283C65.2433 18.558 65.2508 19.0216 65.2508 19.6497C65.2508 20.2628 65.2433 20.7264 65.2283 21.0404H65.7007V24.3602H65.0483C65.0183 24.8089 64.9883 25.1304 64.9584 25.3248L65.9482 25.3472C65.7232 25.9454 65.5732 26.4613 65.4983 26.895C65.4233 27.3286 65.3633 27.867 65.3183 28.51L64.4409 28.3979V28.4427C64.201 29.5344 63.7286 30.1999 63.0237 30.4391C62.5138 30.6036 61.7939 30.7232 60.8641 30.798C59.9492 30.8578 58.397 30.9027 56.2074 30.9326C56.1474 30.813 56.0574 30.6111 55.9374 30.327C55.8174 30.0279 55.6749 29.7437 55.51 29.4746C55.345 29.2054 55.1425 28.9661 54.9026 28.7568L54.6776 29.8559L50.4933 29.1381C51.1082 27.2539 51.5282 25.3846 51.7531 23.5303L50.8083 25.9753L50.3359 24.0686V30.9775H45.9716V26.2669C45.6417 27.4483 45.1917 28.4876 44.6218 29.3848C44.4269 27.0819 44.0594 25.0556 43.5195 23.306C44.4494 22.6779 45.2667 21.7133 45.9716 20.4123V20.1656H44.3744V15.7242H45.9716V13.7502H50.3359V15.7242H51.4382V17.5636C51.7381 16.8757 51.9481 16.2551 52.0681 15.7018C52.203 15.1485 52.308 14.498 52.383 13.7502H56.7923L56.7248 14.468H65.9932V17.8327H55.8699ZM50.3359 20.2777C50.6508 20.5918 50.8833 20.8385 51.0332 21.018L51.9106 21.9152C51.9856 20.8684 52.0231 19.8441 52.0231 18.8421C51.8881 18.8272 51.6931 18.8197 51.4382 18.8197V20.1656H50.3359V20.2777ZM57.1747 21.6236L57.2422 20.6366H56.0499C56.0199 20.846 55.9899 21.175 55.9599 21.6236H57.1747ZM60.1667 20.6366C60.1667 20.8759 60.1517 21.2049 60.1217 21.6236H61.179C61.194 21.3993 61.2015 21.0703 61.2015 20.6366H60.1667ZM56.7698 25.2351L56.9272 24.2257H55.6674C55.6075 24.6743 55.555 25.0107 55.51 25.2351H56.7698ZM60.8641 25.2575L60.999 24.2257H59.8742L59.7392 25.2575H60.8641ZM56.4098 28.3754C57.4446 28.3754 58.2095 28.368 58.7044 28.353C59.2143 28.3231 59.5818 28.2782 59.8067 28.2184C60.0317 28.1586 60.1817 28.0614 60.2567 27.9268C58.352 27.7324 56.6423 27.6128 55.1275 27.5679C55.0675 27.9268 55.0151 28.196 54.9701 28.3754H56.4098Z" fill="#43473E"/>
<path d="M82.6174 5.41016V7.51871H81.0877V8.94309H78.3994C78.4294 8.62905 78.4519 8.15426 78.4669 7.51871H73.124V5.25315C74.8712 3.91475 76.431 2.43054 77.8032 0.800537H81.0877V5.41016H82.6174ZM78.5231 3.02123C78.0057 3.55211 77.5595 3.99699 77.1846 4.3559C76.8096 4.70732 76.386 5.05874 75.9135 5.41016H78.4894L78.5231 3.02123Z" fill="#D8E022"/>
<path d="M66.5557 6.98045C68.9928 6.84586 70.8824 6.69632 72.2247 6.53183C72.0972 6.92063 71.9998 7.33187 71.9323 7.76555C71.8648 8.19922 71.831 8.59176 71.831 8.94319H63.7887L63.7774 8.70766C63.7774 7.9749 63.9911 7.33935 64.4186 6.801C64.8535 6.26265 65.4571 5.76542 66.2295 5.30932C66.4545 5.17473 66.8069 5.00276 67.2868 4.7934C67.9092 4.52423 68.3891 4.2887 68.7266 4.08682C69.064 3.87746 69.2327 3.67184 69.2327 3.46996C69.2327 3.21573 69.1277 3.01385 68.9178 2.86431C68.7078 2.71477 68.3816 2.64 67.9392 2.64C67.4518 2.64 67.0806 2.76337 66.8256 3.01011C66.5782 3.25686 66.4545 3.5709 66.4545 3.95223C66.4545 4.07186 66.4657 4.19523 66.4882 4.32234C65.5434 4.20271 64.6248 4.12046 63.7324 4.0756C63.7324 3.44005 63.8974 2.86805 64.2273 2.35961C64.5648 1.84369 65.0672 1.43619 65.7346 1.1371C66.4095 0.838019 67.2343 0.688477 68.2092 0.688477C69.1015 0.688477 69.8439 0.811849 70.4363 1.05859C71.0362 1.29786 71.4748 1.60442 71.7523 1.97828C72.0372 2.34465 72.1797 2.72225 72.1797 3.11106C72.1797 3.55968 72.0785 3.94475 71.876 4.26627C71.6811 4.58778 71.3961 4.87565 71.0212 5.12987C70.6537 5.37661 70.1588 5.64579 69.5364 5.9374C69.4464 5.98226 69.3002 6.0346 69.0978 6.09442C68.8953 6.14676 68.7678 6.1804 68.7153 6.19536C68.1829 6.35238 67.7592 6.48322 67.4443 6.5879C67.1293 6.69258 66.8331 6.82343 66.5557 6.98045Z" fill="#D8E022"/>
<path d="M58.1309 9.05534C56.5187 9.05534 55.3301 8.68523 54.5653 7.945C53.8004 7.20476 53.418 6.17666 53.418 4.86069C53.418 3.5522 53.8004 2.53158 54.5653 1.79883C55.3376 1.05859 56.5262 0.688477 58.1309 0.688477C59.7356 0.688477 60.9204 1.05859 61.6853 1.79883C62.4502 2.53158 62.8326 3.5522 62.8326 4.86069C62.8326 6.17666 62.4502 7.20476 61.6853 7.945C60.9204 8.68523 59.7356 9.05534 58.1309 9.05534ZM58.1422 7.09261C58.832 7.09261 59.3345 6.88325 59.6494 6.46453C59.9643 6.03834 60.1218 5.50373 60.1218 4.86069C60.1218 4.22514 59.9643 3.69801 59.6494 3.27929C59.3345 2.8531 58.832 2.64 58.1422 2.64C57.4298 2.64 56.9124 2.8531 56.5899 3.27929C56.275 3.69801 56.1175 4.22514 56.1175 4.86069C56.1175 5.49625 56.275 6.02712 56.5899 6.45332C56.9124 6.87951 57.4298 7.09261 58.1422 7.09261Z" fill="#D8E022"/>
<path d="M46.8496 6.98045C49.2867 6.84586 51.1764 6.69632 52.5187 6.53183C52.3912 6.92063 52.2937 7.33187 52.2262 7.76555C52.1587 8.19922 52.125 8.59176 52.125 8.94319H44.0826L44.0714 8.70766C44.0714 7.9749 44.2851 7.33935 44.7125 6.801C45.1474 6.26265 45.7511 5.76542 46.5234 5.30932C46.7484 5.17473 47.1008 5.00276 47.5808 4.7934C48.2031 4.52423 48.6831 4.2887 49.0205 4.08682C49.358 3.87746 49.5267 3.67184 49.5267 3.46996C49.5267 3.21573 49.4217 3.01385 49.2117 2.86431C49.0018 2.71477 48.6756 2.64 48.2331 2.64C47.7457 2.64 47.3745 2.76337 47.1196 3.01011C46.8721 3.25686 46.7484 3.5709 46.7484 3.95223C46.7484 4.07186 46.7596 4.19523 46.7821 4.32234C45.8373 4.20271 44.9187 4.12046 44.0264 4.0756C44.0264 3.44005 44.1913 2.86805 44.5213 2.35961C44.8587 1.84369 45.3611 1.43619 46.0285 1.1371C46.7034 0.838019 47.5283 0.688477 48.5031 0.688477C49.3954 0.688477 50.1378 0.811849 50.7302 1.05859C51.3301 1.29786 51.7688 1.60442 52.0462 1.97828C52.3312 2.34465 52.4737 2.72225 52.4737 3.11106C52.4737 3.55968 52.3724 3.94475 52.17 4.26627C51.975 4.58778 51.6901 4.87565 51.3151 5.12987C50.9477 5.37661 50.4528 5.64579 49.8304 5.9374C49.7404 5.98226 49.5942 6.0346 49.3917 6.09442C49.1892 6.14676 49.0618 6.1804 49.0093 6.19536C48.4769 6.35238 48.0532 6.48322 47.7382 6.5879C47.4233 6.69258 47.1271 6.82343 46.8496 6.98045Z" fill="#D8E022"/>
</svg>
