<svg width="29" height="25" viewBox="0 0 29 25" fill="none" xmlns="http://www.w3.org/2000/svg">
<g id="logo">
<path id="Vector 66 (Stroke)" fill-rule="evenodd" clip-rule="evenodd" d="M19.3352 0.33202C20.2438 -0.273226 21.4714 -0.0279014 22.0772 0.879968L28.6681 10.7582C29.0726 11.3645 29.1103 12.144 28.7662 12.7864C28.4221 13.4288 27.7521 13.8298 27.0229 13.8298H17.7956C16.7036 13.8298 15.8184 12.9453 15.8184 11.8541C15.8184 10.763 16.7036 9.87848 17.7956 9.87848H23.3283L18.7868 3.07176C18.1811 2.16389 18.4266 0.937267 19.3352 0.33202Z" fill="#43473E"/>
<path id="Vector 67 (Stroke)" fill-rule="evenodd" clip-rule="evenodd" d="M2.86952 11.1207C3.20475 10.4956 3.85008 10.1064 4.55155 10.1064H12.8492C13.9067 10.1064 14.764 10.9762 14.764 12.0491C14.764 13.1219 13.9067 13.9917 12.8492 13.9917H8.07129L13.1802 22.0019C13.7547 22.9026 13.5007 24.1053 12.6128 24.6882C11.725 25.271 10.5395 25.0133 9.96497 24.1125L2.94392 13.1044C2.56284 12.5069 2.5343 11.7458 2.86952 11.1207Z" fill="#43473E"/>
<path id="Ellipse 23" d="M4.74545 6.91495C4.74545 8.38379 3.68315 9.57452 2.37273 9.57452C1.06231 9.57452 0 8.38379 0 6.91495C0 5.4461 1.06231 4.25537 2.37273 4.25537C3.68315 4.25537 4.74545 5.4461 4.74545 6.91495Z" fill="#D8E022"/>
</g>
</svg>
