<?xml version="1.0" encoding="iso-8859-1"?>
<!-- Generator: Adobe Illustrator 24.2.3, SVG Export Plug-In . SVG Version: 6.00 Build 0)  -->
<svg version="1.1" xmlns="http://www.w3.org/2000/svg" xmlns:xlink="http://www.w3.org/1999/xlink" x="0px" y="0px"
	 viewBox="0 0 462.131 121.89" style="enable-background:new 0 0 462.131 121.89;" xml:space="preserve">
<g id="Layer_1">
</g>
<g id="Layer_2">
	<g>
		<g>
			<polygon style="fill:#D7E027;" points="26.424,35.27 30.691,44.914 24.416,56.209 9.104,52.193 11.363,35.27 			"/>
		</g>
		<g>
			<polygon style="fill:#43483F;" points="30.573,58.696 19.898,84.591 58.121,113.315 58.481,85.595 69.878,82.607 68.396,64.033 
				63.211,56.975 			"/>
		</g>
		<g>
			<polygon style="fill:#43483F;" points="71.96,51.297 74.665,73.031 78.325,76.692 111.334,76.1 118.709,37.832 73.81,14.788 
				82.503,46.815 			"/>
		</g>
	</g>
	<g>
		<g>
			<g>
				<g>
					<g>
						<g>
							<polygon style="fill:#43483F;" points="154.491,79.983 147.649,72.317 147.649,71.814 149.668,71.814 151.523,55.955 
								147.649,55.955 147.649,48.716 135.308,48.716 135.308,55.955 130.048,55.955 131.903,71.814 135.308,71.814 135.308,73.496 
								128.374,81.265 130.932,98.244 135.308,93.599 135.308,102.73 134.247,102.93 135.308,110.828 147.649,110.828 
								147.649,92.414 151.933,96.963 							"/>
						</g>
						<g>
							<path style="fill:#43483F;" d="M191.209,92.195l1.446-12.014h-2.893v-2.521h0.044l-0.042-11.41l-0.624-0.51h-25.167
								l0.216-1.855h26.035l2.43-12.415l-27.017,0.001l0.299-2.565H153.03l-2.242,19.79h1.632v36.089l-1.537,4.472l12.15,2.328
								l0.54-2.934h9.078v2.176h11.979l2.616-2.176h2.516h0.044h2.849l-1.446-11.857h-1.446v-4.601H191.209z M165.899,97.113
								l-1.212-0.604V93.48l2.73-0.489l0.558,3.611L165.899,97.113z M167.417,81.965h-2.73v-3.11l2.73-0.458l0.558,1.946
								L167.417,81.965z M178.068,95.952l-2.85,0.557l-0.733-2.859l1.791-1.093l1.791,0.923V95.952z M178.068,81.965h-2.85
								l-0.733-2.459l0.733-1.109l2.85,0.489V81.965z"/>
						</g>
					</g>
					<g>
						<g>
							<path style="fill:#43483F;" d="M264.503,86.283"/>
						</g>
						<g>
							<polygon style="fill:#43483F;" points="260.195,110.828 261.72,99.786 276.785,99.786 275.26,110.828 							"/>
						</g>
						<g>
							<polygon style="fill:#43483F;" points="292.03,110.828 290.505,99.786 277.262,99.786 278.788,110.828 							"/>
						</g>
						<g>
							<path style="fill:#43483F;" d="M298.738,87.501v-1.218h17.155l1.385-10.111h-18.54v-1.264h18.73V49.564h-54.35v25.344h18.859
								v1.264h-18.859l1.385,10.111h17.474v1.218h-21.831l1.537,11.221h57.029l1.537-11.221H298.738z M285.296,64.86l-1.241,0.265
								l-0.415-2.936h-4.091l0.535,3.784l-1.425,0.304l-0.712-4.912l0.712-3.172l6.638,1.125V64.86z M296.625,65.118l-1.206-0.258
								v-5.64l4.267-1.298l2.371,0.272v8.084l-1.44-0.307l0.44-3.781h-4.091L296.625,65.118z"/>
						</g>
						<g>
							<polygon style="fill:#43483F;" points="306.14,110.828 304.614,99.786 291.372,99.786 292.897,110.828 							"/>
						</g>
						<g>
							<polygon style="fill:#43483F;" points="320.249,110.828 318.724,99.786 305.481,99.786 307.006,110.828 							"/>
						</g>
					</g>
					<g>
						<g>
							<polygon style="fill:#43483F;" points="413.187,79.983 406.344,72.317 406.344,71.814 408.268,71.814 410.124,55.955 
								406.344,55.955 406.344,48.716 394.003,48.716 394.003,55.955 388.743,55.955 390.598,71.814 394.003,71.814 394.003,73.496 
								387.069,81.265 389.628,98.244 394.003,93.599 394.003,102.73 392.942,102.93 394.003,110.828 406.344,110.828 
								406.344,92.414 410.628,96.963 							"/>
						</g>
						<g>
							<path style="fill:#43483F;" d="M451.117,82.366l-3.279-21.556h-2.702l-1.249-12.094l-14.365,0.004l3.961,27.777l-3.094,0
								l0.889-9.902l-4.5,0l2.066-17.875l-14.365-0.004l-1.249,12.094h-3.062l-1.487,13.572l0.429,0.439l6.891,0.025l-2.149,17.572
								h-2.067l-0.27,1.955v16.456h17.329l4.479-2.402l0.237,1.992l15.162,0.001l-4.077-28.052L451.117,82.366z M428.981,92.181
								l1.035-11.533l1.233,10.359L428.981,92.181z"/>
						</g>
					</g>
					<g>
						<path style="fill:#43483F;" d="M384.477,79.822l-16.167,0.11l11.046-6.256v-7.061l1.944,0.003l2.453-15.58h-11.092h-7.461
							h-2.426v-2.064H344.03v2.064h-1.353h-7.182h-11.371l2.453,15.58l11.415-0.019v1.329l-12.451-0.045l1.96,12.303h12.727
							l1.995,0.813l-0.601,0.267l-17.756-0.133l1.675,14.905h1.694l-0.148,14.791h53.768V94.726h1.947L384.477,79.822z
							 M356.3,86.734l6.679,2.721h-11.484L356.3,86.734z M348.496,75.673l0.437-1.998h9.785l-5.445,2.418l-1.297-0.42H348.496z
							 M342.677,63.288h22.525v1.598h-22.525V63.288z M362.776,101.24h-17.522l-1.938-2.197l7.494-1.436l13.202,1.436
							L362.776,101.24z"/>
					</g>
					<g>
						<polygon style="fill:#43483F;" points="256.865,54.011 256.379,53.46 254.12,53.46 249.393,53.46 249.393,48.973 
							228.993,48.973 228.756,59.246 226.798,61.226 226.798,53.46 221.897,53.46 220.886,53.46 220.886,48.973 200.487,48.973 
							200.25,59.246 197.187,62.342 194.865,62.334 197.557,88.604 199.731,88.604 204.359,83.544 204.359,110.828 221.897,110.828 
							221.897,72.214 224.384,72.214 226.064,88.604 228.237,88.604 237.425,78.559 237.425,92.474 232.364,92.474 234.681,110.828 
							237.425,110.828 254.12,110.828 254.12,72.514 256.865,72.514 						"/>
					</g>
				</g>
			</g>
		</g>
		<g>
			<polygon style="fill:#43483F;" points="459.507,-244.646 452.747,-244.646 453.467,-248.552 455.395,-251.406 458.879,-250.48 
							"/>
		</g>
		<g style="display:none;">
			<g style="display:inline;">
				<polygon style="fill:#43483F;" points="161.096,-486.029 182.576,-476.276 192.329,-497.757 202.267,-493.245 192.514,-471.764 
					192.514,-471.764 188.002,-461.827 178.064,-466.339 178.064,-466.339 156.583,-476.092 				"/>
			</g>
			<g style="display:inline;">
				<polygon style="fill:#43483F;" points="151.714,-510.934 173.195,-501.181 182.948,-522.661 192.886,-518.149 183.133,-496.669 
					183.133,-496.669 178.621,-486.731 168.683,-491.243 168.683,-491.243 147.202,-500.996 				"/>
			</g>
		</g>
	</g>
	<g>
		<path style="fill:#D7E027;" d="M156.994,30.098c-0.408,1.248-0.72,2.568-0.937,3.96c-0.216,1.393-0.323,2.652-0.323,3.78h-25.74
			l-0.036-0.756c0-2.352,0.689-4.393,2.07-6.12c1.38-1.728,3.306-3.324,5.777-4.788c0.721-0.432,1.849-0.983,3.385-1.656
			c1.991-0.863,3.527-1.625,4.607-2.286c1.08-0.659,1.62-1.313,1.62-1.962c0-0.815-0.336-1.463-1.008-1.943
			s-1.717-0.721-3.132-0.721c-1.561,0-2.742,0.396-3.546,1.188c-0.805,0.792-1.206,1.8-1.206,3.024c0,0.384,0.036,0.779,0.107,1.188
			c-3.023-0.384-5.964-0.648-8.819-0.792c0-2.04,0.533-3.882,1.602-5.526c1.067-1.644,2.676-2.945,4.824-3.905
			c2.147-0.96,4.781-1.44,7.901-1.44c2.856,0,5.238,0.391,7.146,1.17c1.908,0.78,3.312,1.765,4.212,2.952
			c0.9,1.188,1.35,2.406,1.35,3.654c0,1.439-0.318,2.676-0.953,3.708c-0.637,1.032-1.549,1.95-2.736,2.754
			c-1.188,0.804-2.778,1.674-4.771,2.609c-0.288,0.145-0.756,0.307-1.403,0.486c-0.648,0.18-1.057,0.294-1.225,0.342
			c-1.704,0.504-3.06,0.925-4.067,1.261c-1.009,0.336-1.957,0.756-2.845,1.26C146.649,31.106,152.697,30.626,156.994,30.098z"/>
		<path style="fill:#D7E027;" d="M163.545,34.634c-2.448-2.376-3.672-5.676-3.672-9.899c0-4.2,1.229-7.482,3.689-9.847
			c2.46-2.363,6.258-3.546,11.395-3.546c5.135,0,8.928,1.183,11.376,3.546c2.447,2.364,3.672,5.646,3.672,9.847
			c0,4.224-1.225,7.523-3.672,9.899c-2.448,2.376-6.241,3.564-11.376,3.564C169.796,38.199,165.993,37.01,163.545,34.634z
			 M179.817,29.865c1.008-1.356,1.513-3.066,1.513-5.13c0-2.04-0.505-3.738-1.513-5.095c-1.008-1.355-2.616-2.034-4.824-2.034
			c-2.28,0-3.93,0.679-4.949,2.034c-1.021,1.356-1.53,3.055-1.53,5.095s0.51,3.743,1.53,5.111c1.02,1.368,2.669,2.052,4.949,2.052
			C177.201,31.898,178.809,31.22,179.817,29.865z"/>
		<path style="fill:#D7E027;" d="M220.065,30.098c-0.408,1.248-0.72,2.568-0.937,3.96c-0.216,1.393-0.323,2.652-0.323,3.78h-25.74
			l-0.036-0.756c0-2.352,0.689-4.393,2.07-6.12c1.38-1.728,3.306-3.324,5.777-4.788c0.721-0.432,1.849-0.983,3.385-1.656
			c1.991-0.863,3.527-1.625,4.607-2.286c1.08-0.659,1.62-1.313,1.62-1.962c0-0.815-0.336-1.463-1.008-1.943
			s-1.717-0.721-3.132-0.721c-1.561,0-2.742,0.396-3.546,1.188c-0.805,0.792-1.206,1.8-1.206,3.024c0,0.384,0.036,0.779,0.107,1.188
			c-3.023-0.384-5.964-0.648-8.819-0.792c0-2.04,0.533-3.882,1.602-5.526c1.067-1.644,2.676-2.945,4.824-3.905
			c2.147-0.96,4.781-1.44,7.901-1.44c2.856,0,5.238,0.391,7.146,1.17c1.908,0.78,3.312,1.765,4.212,2.952
			c0.9,1.188,1.35,2.406,1.35,3.654c0,1.439-0.318,2.676-0.953,3.708c-0.637,1.032-1.549,1.95-2.736,2.754
			c-1.188,0.804-2.778,1.674-4.771,2.609c-0.288,0.145-0.756,0.307-1.403,0.486c-0.648,0.18-1.057,0.294-1.225,0.342
			c-1.704,0.504-3.06,0.925-4.067,1.261c-1.009,0.336-1.957,0.756-2.845,1.26C209.72,31.106,215.768,30.626,220.065,30.098z"/>
		<path style="fill:#D7E027;" d="M253.329,26.498v6.768h-4.896v4.572h-8.604c0.096-1.008,0.167-2.532,0.216-4.572h-17.1v-7.271
			c5.592-4.296,10.584-9.06,14.976-14.292h10.512v14.796H253.329z M240.224,18.83c-1.655,1.704-3.084,3.126-4.284,4.266
			c-1.2,1.141-2.556,2.274-4.067,3.402h8.244L240.224,18.83z"/>
	</g>
</g>
</svg>
