<svg width="127" height="91" viewBox="0 0 127 91" fill="none" xmlns="http://www.w3.org/2000/svg">
<path d="M17 35.9524L43.3342 15L113 43.8095L77.3292 75L23.4638 63.5714L17 35.9524Z" fill="#D8E022"/>
<path fill-rule="evenodd" clip-rule="evenodd" d="M70.5 62.1111C72.6477 62.1111 74.2143 60.3962 74.2143 58.5C74.2143 56.6038 72.6477 54.8889 70.5 54.8889C68.3523 54.8889 66.7857 56.6038 66.7857 58.5C66.7857 60.3962 68.3523 62.1111 70.5 62.1111ZM70.5 65C74.0899 65 77 62.0899 77 58.5C77 54.9101 74.0899 52 70.5 52C66.9101 52 64 54.9101 64 58.5C64 62.0899 66.9101 65 70.5 65Z" fill="white"/>
<path fill-rule="evenodd" clip-rule="evenodd" d="M86.5 56.1111C88.6477 56.1111 90.2143 54.3962 90.2143 52.5C90.2143 50.6038 88.6477 48.8889 86.5 48.8889C84.3523 48.8889 82.7857 50.6038 82.7857 52.5C82.7857 54.3962 84.3523 56.1111 86.5 56.1111ZM86.5 59C90.0899 59 93 56.0899 93 52.5C93 48.9101 90.0899 46 86.5 46C82.9101 46 80 48.9101 80 52.5C80 56.0899 82.9101 59 86.5 59Z" fill="white"/>
</svg>
