<svg width="71" height="216" viewBox="0 0 71 216" fill="none" xmlns="http://www.w3.org/2000/svg">
<g id="Group 11">
<path id="Union" fill-rule="evenodd" clip-rule="evenodd" d="M35.9259 182.073L6.78992 152.67L1.15232 158.495L35.9864 193.648L41.624 187.824L41.6234 187.823L70.4226 158.068L64.7251 152.318L35.9259 182.073Z" fill="#D8E022"/>
<path id="Union_2" fill-rule="evenodd" clip-rule="evenodd" d="M35.1838 95.0605L6.04773 65.6572L0.410135 71.482L35.2442 106.636L40.8818 100.811L40.8813 100.81L69.6806 71.0553L63.983 65.3055L35.1838 95.0605Z" fill="#D8E022"/>
<path id="Union_3" fill-rule="evenodd" clip-rule="evenodd" d="M35.8541 160.32L6.71766 130.916L1.08006 136.741L35.9142 171.894L41.5518 166.07L41.5516 166.069L70.3509 136.314L64.6533 130.565L35.8541 160.32Z" fill="#D8E022"/>
<path id="Union_4" fill-rule="evenodd" clip-rule="evenodd" d="M35.1115 73.3075L5.97547 43.9043L0.337869 49.7291L35.172 84.8827L40.8096 79.0579L40.809 79.0573L69.6081 49.3023L63.9106 43.5526L35.1115 73.3075Z" fill="#D8E022"/>
<path id="Union_5" fill-rule="evenodd" clip-rule="evenodd" d="M35.7288 138.566L6.59266 109.162L0.955057 114.987L35.7892 150.141L41.4268 144.316L41.4263 144.315L70.2257 114.56L64.5281 108.81L35.7288 138.566Z" fill="#D8E022"/>
<path id="Union_6" fill-rule="evenodd" clip-rule="evenodd" d="M34.9867 51.5534L5.85047 22.1499L0.212869 27.9747L35.047 63.1283L40.6846 57.3035L40.6842 57.3031L69.4837 27.5479L63.7861 21.7982L34.9867 51.5534Z" fill="#D8E022"/>
<path id="Union_7" fill-rule="evenodd" clip-rule="evenodd" d="M35.6566 116.813L6.52039 87.4091L0.882791 93.234L35.7169 128.388L41.3545 122.563L41.3541 122.562L70.1534 92.8072L64.4559 87.0575L35.6566 116.813Z" fill="#D8E022"/>
<path id="Union_8" fill-rule="evenodd" clip-rule="evenodd" d="M34.9144 29.7994L5.7782 0.395958L0.140604 6.22079L34.9747 41.3744L40.6123 35.5496L40.6119 35.5492L69.4113 5.79402L63.7137 0.0443131L34.9144 29.7994Z" fill="#D8E022"/>
<path id="Union_9" fill-rule="evenodd" clip-rule="evenodd" d="M35.9076 203.843L6.77137 174.439L1.13377 180.264L35.9679 215.418L41.6055 209.593L41.6051 209.593L70.4043 179.838L64.7067 174.088L35.9076 203.843Z" fill="#D8E022"/>
</g>
</svg>
