<svg width="91" height="56" viewBox="0 0 91 56" fill="none" xmlns="http://www.w3.org/2000/svg">
<g id="Group 80">
<path id="Vector 22" d="M14.1906 49.7797L0 13.7401L31.7599 0L85.5941 7.20792L91 32.6609L52.2574 55.8614L35.1386 45.7252L14.1906 49.7797Z" fill="#D8E022"/>
<path id="Ellipse 12 (Stroke)" fill-rule="evenodd" clip-rule="evenodd" d="M25.8156 36.3558C27.4844 37.6038 29.6627 37.2293 30.7252 35.8084C31.7878 34.3876 31.5314 32.1923 29.8626 30.9443C28.1938 29.6962 26.0155 30.0708 24.9529 31.4916C23.8904 32.9124 24.1467 35.1077 25.8156 36.3558ZM24.1968 38.5204C26.9862 40.6065 30.8782 40.1171 32.8898 37.4272C34.9014 34.7374 34.2709 30.8658 31.4814 28.7797C28.692 26.6936 24.7999 27.183 22.7883 29.8728C20.7767 32.5626 21.4073 36.4343 24.1968 38.5204Z" fill="white"/>
<path id="Ellipse 13 (Stroke)" fill-rule="evenodd" clip-rule="evenodd" d="M42.2199 40.7484C43.8887 41.9964 46.067 41.6218 47.1295 40.201C48.1921 38.7802 47.9357 36.5849 46.2669 35.3368C44.5981 34.0888 42.4198 34.4634 41.3572 35.8842C40.2947 37.305 40.551 39.5003 42.2199 40.7484ZM40.6011 42.913C43.3905 44.9991 47.2825 44.5096 49.2941 41.8198C51.3057 39.13 50.6752 35.2583 47.8857 33.1722C45.0963 31.0861 41.2042 31.5756 39.1926 34.2654C37.181 36.9552 37.8116 40.8269 40.6011 42.913Z" fill="white"/>
</g>
</svg>
