<svg width="199" height="168" viewBox="0 0 199 168" fill="none" xmlns="http://www.w3.org/2000/svg">
<path d="M52.4823 67.8472L101.841 29.1971L171.401 89.9002L133.828 121.174L62.7246 102.532L52.4823 67.8472Z" stroke="black" stroke-width="0.5"/>
<path d="M147.196 83.0411L108.727 59.2718L20.6991 109.129L73.2652 145.086L143.097 121.053L147.196 83.0411Z" fill="#D8E022"/>
<path d="M73.7183 124.011C74.0846 127.017 76.9622 129.325 80.3481 128.912C83.734 128.499 85.973 125.568 85.6067 122.562C85.2404 119.556 82.3628 117.248 78.9769 117.661C75.591 118.074 73.352 121.005 73.7183 124.011Z" stroke="white" stroke-width="6"/>
<path d="M50.3257 117.807C50.692 120.813 53.5696 123.121 56.9555 122.708C60.3414 122.295 62.5804 119.364 62.2141 116.358C61.8478 113.352 58.9702 111.044 55.5843 111.457C52.1984 111.87 49.9594 114.801 50.3257 117.807Z" stroke="white" stroke-width="6"/>
<path d="M137.21 110.33V116.42H136.34V127.25C136.34 128.41 136.14 129.25 135.74 129.77C135.34 130.29 134.69 130.63 133.79 130.79C132.91 130.95 131.53 131.03 129.65 131.03H125.9C125.78 128.63 125.4 126.79 124.76 125.51C124.74 125.43 124.69 125.33 124.61 125.21L124.49 125H124.52C124.32 124.6 124.16 124.3 124.04 124.1C123.52 123.04 123.07 122.21 122.69 121.61V127.22H121.04C121.96 127.7 122.78 128.17 123.5 128.63C122.36 129.45 121.19 130.44 119.99 131.6C119.07 130.84 118.32 130.25 117.74 129.83C117.16 129.41 116.57 129.06 115.97 128.78L117.53 127.22H115.04L115.85 127.79C115.31 128.45 114.63 129.12 113.81 129.8C113.01 130.48 112.19 131.06 111.35 131.54C110.65 130.82 109.46 129.82 107.78 128.54C109.08 128.14 110.15 127.7 110.99 127.22H109.37V108.74H122.69V120.5C125.01 119.12 126.97 117.76 128.57 116.42H123.44V110.33H130.49L130.52 108.08H136.34V110.33H137.21ZM117.35 114.53V113.45H114.74V114.53H117.35ZM114.74 118.76H117.35V117.68H114.74V118.76ZM126.14 125.12C127.22 125.22 128.16 125.27 128.96 125.27C129.44 125.27 129.77 125.24 129.95 125.18C130.15 125.12 130.26 125.04 130.28 124.94C130.32 124.82 130.34 124.62 130.34 124.34L130.37 121.49C128.91 122.91 127.5 124.12 126.14 125.12ZM114.74 121.94V123.05H117.35V121.94H114.74ZM166.85 120.68C166.87 121.12 166.88 121.84 166.88 122.84C166.88 124.78 166.8 126.62 166.64 128.36C166.58 129.06 166.33 129.6 165.89 129.98C165.45 130.36 164.78 130.64 163.88 130.82C163 130.98 161.74 131.09 160.1 131.15L159.86 130.52C159.7 130.1 159.52 129.65 159.32 129.17C159.12 128.69 158.9 128.26 158.66 127.88C157.62 129.16 156.34 130.27 154.82 131.21C154.22 129.77 153.43 128.4 152.45 127.1C152.35 127.66 152.26 128.06 152.18 128.3C151.14 127.88 150.01 127.55 148.79 127.31V128.12C148.79 129.08 148.32 129.81 147.38 130.31C146.46 130.79 144.91 131.07 142.73 131.15C142.67 130.99 142.53 130.6 142.31 129.98C142.11 129.34 141.83 128.71 141.47 128.09C140.87 128.77 140.38 129.29 140 129.65C139.68 127.99 139.4 126.65 139.16 125.63C138.94 124.61 138.65 123.64 138.29 122.72C139.07 122.44 139.71 122.07 140.21 121.61C140.71 121.13 141.11 120.54 141.41 119.84H138.98V115.7H141.41L140.36 114.23L143.72 113.21H139.1V108.56H152.72L153.26 111.29C154.34 110.49 154.99 109.37 155.21 107.93H159.5L159.32 108.95H167.57V113.3H163.76L165.92 114.11C165.42 114.71 164.97 115.21 164.57 115.61C165.53 115.73 166.62 115.82 167.84 115.88C167.5 116.58 167.25 117.27 167.09 117.95C166.93 118.61 166.74 119.52 166.52 120.68H166.85ZM145.16 113.21C145.44 113.59 145.72 114.02 146 114.5C146.52 114 146.94 113.57 147.26 113.21H145.16ZM160.04 114.08C160.34 113.82 160.59 113.56 160.79 113.3H159.14C159.44 113.6 159.74 113.86 160.04 114.08ZM153.89 116.18C153.63 115.18 153.27 114.25 152.81 113.39C152.39 113.89 151.7 114.66 150.74 115.7H153.02L153.2 116.6L153.95 116.42C155.19 116.18 156.15 115.95 156.83 115.73C156.63 115.47 156.35 115.08 155.99 114.56C155.49 115 154.79 115.54 153.89 116.18ZM152.66 126.05C153.9 125.89 154.88 125.47 155.6 124.79H153.89V120.68H154.73C154.43 119.6 153.97 118.53 153.35 117.47L153.77 119.66C153.53 121.32 153.16 123.45 152.66 126.05ZM161.51 119.45C161.05 119.23 160.61 118.98 160.19 118.7C159.73 118.94 159.18 119.19 158.54 119.45H161.51ZM164.63 120.68C163.73 120.42 162.81 120.07 161.87 119.63C161.83 120.11 161.79 120.46 161.75 120.68H164.63ZM145.07 120.47H148.79V123.62L149.45 119.84H145.25L145.07 120.47ZM157.25 120.68L157.31 119.93L156.56 120.2C156.36 120.26 156.15 120.34 155.93 120.44C155.71 120.52 155.46 120.6 155.18 120.68H157.25ZM142.64 126.44C143.16 126.46 143.49 126.44 143.63 126.38C143.77 126.32 143.84 126.2 143.84 126.02V124.07C143.5 124.89 143.1 125.68 142.64 126.44ZM161.54 124.79H160.55C160.31 125.37 159.97 126 159.53 126.68C160.33 126.62 160.86 126.49 161.12 126.29C161.4 126.09 161.54 125.78 161.54 125.36V124.79ZM184.28 113.87H183.02L182.87 115.13H184.64V119.72H169.19V115.13H170.9L170.69 113.87H169.55V109.07H173.63V108.02H179.9V109.07H184.28V113.87ZM197.81 112.85C196.85 115.45 196.09 117.35 195.53 118.55C196.93 120.55 197.63 122.37 197.63 124.01C197.63 125.83 197.13 127.23 196.13 128.21C195.15 129.17 193.8 129.63 192.08 129.59C191.82 127.69 191.41 126.19 190.85 125.09V130.88H185.06V108.47H196.25L197.81 112.85ZM190.85 113.54V117.17C191.57 115.71 191.94 114.5 191.96 113.54H190.85ZM177.83 113.87H176L176.12 115.13H177.68L177.83 113.87ZM190.85 124.01C191.51 123.77 191.84 123.3 191.84 122.6C191.84 121.96 191.51 121.17 190.85 120.23V124.01ZM169.64 120.53H183.92V131H178.28V130.7H175.31V131H169.64V120.53ZM178.28 126.26V124.58H175.31V126.26H178.28Z" fill="#43473E"/>
</svg>
