<svg width="200" height="211" viewBox="0 0 200 211" fill="none" xmlns="http://www.w3.org/2000/svg">
<rect x="12" y="18" width="177" height="171" rx="25" fill="#D8E022"/>
<path d="M92.44 70.8V72.64H99.36V92.16H92.44V91.76H89.92V92.16H83V72.64H85.36V61.24H92.44V63.76H99.12V70.8H92.44ZM69.08 74.8V74.2H62.68V62.2H82.04V74.2H75.36V74.8H81.96V79.44H75.36V80C76.8533 80 79.2 79.9733 82.4 79.92C82.1067 80.64 81.92 81.36 81.84 82.08C81.76 82.7733 81.72 83.6533 81.72 84.72C77.5333 84.8533 73.3867 84.9333 69.28 84.96L63.12 85.08C63.12 84.0133 63.0933 83.12 63.04 82.4C63.0133 81.6533 62.9333 80.9067 62.8 80.16L69.08 80.12V79.44H62.92V74.8H69.08ZM70.52 66H67.92V70.28H70.52V66ZM74.08 70.28H76.56V66H74.08V70.28ZM70.04 66.44C70.0933 68.0133 70.16 69.1867 70.24 69.96L68.6 70.12C68.3867 69.1067 68.24 67.9333 68.16 66.6L70.04 66.44ZM74.32 69.96C74.4 69.1867 74.4667 68.0133 74.52 66.44L76.4 66.6C76.32 67.9333 76.1733 69.1067 75.96 70.12L74.32 69.96ZM89.92 79.68V84.48H92.44V79.68H89.92ZM61.36 90.84C62.24 89.2133 62.8933 87.3467 63.32 85.24L67.72 85.44L67.64 86.92C67.5867 88.2267 67.52 89.28 67.44 90.08C67.3867 90.8533 67.2667 91.64 67.08 92.44C66.1733 92.12 65.1733 91.8133 64.08 91.52C63.0133 91.2 62.1067 90.9733 61.36 90.84ZM72.24 85.4C72.2933 85.9333 72.3467 86.5467 72.4 87.24C72.48 87.9333 72.56 88.6133 72.64 89.28L72.96 92.32C72.1333 92.2133 71.0667 92.16 69.76 92.16C69.04 92.16 68.5333 92.1733 68.24 92.2C68.24 91.1067 68.2533 90.2533 68.28 89.64L68.32 86.84C68.32 86.2 68.3067 85.7867 68.28 85.6L72.24 85.4ZM76.56 85.4C77.1733 88.3067 77.6 90.4133 77.84 91.72C76.4533 91.8 74.9733 91.9733 73.4 92.24C73.3467 91.1467 73.2533 89.9733 73.12 88.72C73.0133 87.44 72.9067 86.4 72.8 85.6L76.56 85.4ZM81.4 85.4L81.68 86.8L82.6 91.08C81.3467 91.16 79.96 91.3333 78.44 91.6C78.3333 90.6133 78.0133 88.9333 77.48 86.56L77.28 85.6L81.4 85.4ZM139.88 79.2C139.933 80.64 139.96 82.1733 139.96 83.8C139.96 85.1333 139.947 86.2533 139.92 87.16C139.893 88.4133 139.733 89.36 139.44 90C139.173 90.64 138.747 91.08 138.16 91.32C137.573 91.5333 136.747 91.64 135.68 91.64C134.613 91.64 133.28 91.28 131.68 90.56C130.08 89.84 128.533 88.7067 127.04 87.16C124.587 88.9467 121.92 90.4667 119.04 91.72C117.573 89.56 116.347 87.8933 115.36 86.72C115.307 88.2133 115 89.28 114.44 89.92C113.907 90.56 112.973 91 111.64 91.24C110.307 91.4533 107.947 91.68 104.56 91.92C104.213 90.32 103.8 88.96 103.32 87.84C102.867 86.72 102.2 85.56 101.32 84.36C103.187 84.36 104.48 84.32 105.2 84.24C105.947 84.16 106.36 84.0533 106.44 83.92C106.547 83.76 106.587 83.48 106.56 83.08L103.16 83.28C103.16 82.32 103.093 81.3733 102.96 80.44C102.827 79.5067 102.6 78.16 102.28 76.4L106.6 76.2V74.52H102.56V68H106.6L106.64 67.08L102.6 67.12V62.52L115.64 62.36L120.08 62.28V66.88C118.107 66.9333 116.533 66.96 115.36 66.96V68H120.92C120.867 65.4933 120.84 63.4133 120.84 61.76H128.84V63.92L133.08 61.56C135.453 62.92 137.653 64.5733 139.68 66.52L137 68H139.56V74.52H134.28L137.08 76.72L136.12 78C136.947 78.32 137.733 78.5867 138.48 78.8C139.253 79.0133 139.72 79.1467 139.88 79.2ZM132.76 68C131.56 66.88 130.253 65.9067 128.84 65.08V68H132.76ZM115.36 74.52V75.76L120.56 75.48V81.92C121.12 81.7067 121.907 81.36 122.92 80.88C122.227 79.1467 121.72 77.0267 121.4 74.52H115.36ZM129.52 76.28C129.92 75.9333 130.533 75.3467 131.36 74.52H129.2C129.28 75.0533 129.387 75.64 129.52 76.28ZM133.96 82.92C134.013 82.92 134.04 82.7867 134.04 82.52C134.04 82.12 134 81.52 133.92 80.72L132.68 82.12C133.107 82.52 133.533 82.7867 133.96 82.92ZM115.36 83.6C116.987 83.1733 118.44 82.72 119.72 82.24L115.36 82.52V83.6ZM66.76 119.44H74.8V120.76H78.88V126.64H74.8V127.6H78.88V133.4H77.92L77.48 135.4H78.88V141.32H74.8V142.28H78.88V148.24H74.8V150.16H66.76V148.24H62.64V142.28H66.76V141.32H61.92V135.4H63.84L63.4 133.4H61.92V127.6H66.76V126.64H62.64V120.76H66.76V119.44ZM101.4 144.24C100.573 145.2 99.88 146.147 99.32 147.08C98.76 147.987 98.0667 149.2 97.24 150.72C95.7467 149.867 94.3867 148.88 93.16 147.76C92.1467 148.747 90.9467 149.653 89.56 150.48C89.1867 149.867 88.76 149.32 88.28 148.84C87.8267 148.333 87.2667 147.76 86.6 147.12V150.08H79.52V119.84H98.56L100.2 125.8C99.7467 127.56 99.24 128.867 98.68 129.72C98.12 130.547 97.2533 131.147 96.08 131.52H98.52L100.08 134.96C99.3867 137.92 98.4133 140.48 97.16 142.64C98.4133 143.307 99.8267 143.84 101.4 144.24ZM86.6 126.36V131.56H88.84C88.4933 129.933 88.0533 128.467 87.52 127.16C88.96 127.213 89.8533 127.24 90.2 127.24C91.4267 127.24 92.2267 127.173 92.6 127.04C93 126.88 93.2267 126.653 93.28 126.36H86.6ZM69.84 135.4H71.48L71.76 133.4H69.56L69.84 135.4ZM86.6 143.84C87.32 143.44 88.1467 142.893 89.08 142.2C88.28 140.573 87.6933 138.8 87.32 136.88H86.6V143.84ZM91 136.88C91.4 137.6 91.8533 138.253 92.36 138.84C92.7867 138.227 93.16 137.573 93.48 136.88H91ZM140.4 126.72C136.96 129.44 133.827 131.667 131 133.4H139.48V149.84H130.24V149.16H117.24V149.84H108.04V142.16L104.08 142.88C103.76 141.333 103.333 139.72 102.8 138.04C102.267 136.333 101.68 134.84 101.04 133.56C105.627 133.533 109.667 133.187 113.16 132.52L110.72 131.16C108.987 131.933 107.12 132.587 105.12 133.12C104.64 131.093 104.16 129.44 103.68 128.16C103.227 126.88 102.627 125.693 101.88 124.6C107.56 123.96 111.653 122.213 114.16 119.36H123.08L122.36 120.8H138.64L140.4 126.72ZM117.36 127C119.2 127.747 121.187 128.387 123.32 128.92C123.987 128.547 124.64 128.16 125.28 127.76C125.92 127.333 126.347 127.053 126.56 126.92H117.44C117.387 126.973 117.36 127 117.36 127ZM117.24 139.96V142.24H130.24V139.96H117.24Z" fill="white"/>
</svg>
