<svg width="346" height="218" viewBox="0 0 346 218" fill="none" xmlns="http://www.w3.org/2000/svg">
<g clip-path="url(#clip0_146_3236)">
<path fill-rule="evenodd" clip-rule="evenodd" d="M126.568 92.3606L135.502 111.544L131.739 113.39L121.072 90.4825L121.075 90.481L121.074 90.4792L143.925 79.2724L145.66 82.9976L126.568 92.3606Z" fill="#A1A8AD"/>
<path fill-rule="evenodd" clip-rule="evenodd" d="M44.1504 63.476L53.0834 82.6594L49.3209 84.5051L38.6538 61.5977L38.6568 61.5962L38.656 61.5945L61.507 50.3877L63.2422 54.1129L44.1504 63.476Z" fill="#A1A8AD"/>
<path fill-rule="evenodd" clip-rule="evenodd" d="M167.731 106.923L176.664 126.107L172.901 127.952L162.234 105.045L162.237 105.043L162.236 105.042L185.087 93.835L186.822 97.5601L167.731 106.923Z" fill="#A1A8AD"/>
<path fill-rule="evenodd" clip-rule="evenodd" d="M85.3134 78.0384L94.2464 97.2219L90.4839 99.0676L79.8168 76.1602L79.8198 76.1588L79.8189 76.1569L102.67 64.9502L104.405 68.6753L85.3134 78.0384Z" fill="#A1A8AD"/>
<path fill-rule="evenodd" clip-rule="evenodd" d="M136.879 95.9455L145.812 115.129L142.049 116.975L131.382 94.0675L131.385 94.066L131.384 94.0641L154.235 82.8573L155.97 86.5825L136.879 95.9455Z" fill="#A1A8AD"/>
<path fill-rule="evenodd" clip-rule="evenodd" d="M54.4612 67.0609L63.3942 86.2444L59.6317 88.0901L48.9646 65.1827L48.9676 65.1812L48.9668 65.1794L71.8178 53.9726L73.5529 57.6978L54.4612 67.0609Z" fill="#A1A8AD"/>
<path fill-rule="evenodd" clip-rule="evenodd" d="M178.041 110.508L186.974 129.692L183.211 131.537L172.544 108.63L172.547 108.628L172.547 108.627L195.398 97.4199L197.133 101.145L178.041 110.508Z" fill="#A1A8AD"/>
<path fill-rule="evenodd" clip-rule="evenodd" d="M95.6233 81.6229L104.557 100.807L100.794 102.653L90.1269 79.7452L90.1297 79.7438L90.1286 79.7416L112.98 68.5348L114.715 72.26L95.6233 81.6229Z" fill="#A1A8AD"/>
<path fill-rule="evenodd" clip-rule="evenodd" d="M147.18 99.556L156.113 118.739L152.351 120.585L141.684 97.6778L141.687 97.6763L141.686 97.6745L164.537 86.4677L166.272 90.1929L147.18 99.556Z" fill="#A1A8AD"/>
<path fill-rule="evenodd" clip-rule="evenodd" d="M64.7622 70.6712L73.6953 89.8547L69.9328 91.7004L59.2657 68.793L59.2687 68.7916L59.2678 68.7897L82.1189 57.583L83.854 61.3081L64.7622 70.6712Z" fill="#A1A8AD"/>
<path fill-rule="evenodd" clip-rule="evenodd" d="M188.342 114.118L197.275 133.302L193.513 135.148L182.846 112.24L182.849 112.239L182.848 112.237L205.699 101.03L207.434 104.755L188.342 114.118Z" fill="#A1A8AD"/>
<path fill-rule="evenodd" clip-rule="evenodd" d="M105.924 85.2337L114.858 104.417L111.095 106.263L100.428 83.3555L100.431 83.3541L100.43 83.3522L123.281 72.1454L125.016 75.8706L105.924 85.2337Z" fill="#A1A8AD"/>
<path fill-rule="evenodd" clip-rule="evenodd" d="M157.49 103.141L166.423 122.324L162.661 124.17L151.994 101.263L151.997 101.261L151.996 101.26L174.847 90.0528L176.582 93.7779L157.49 103.141Z" fill="#A1A8AD"/>
<path fill-rule="evenodd" clip-rule="evenodd" d="M75.0731 74.2571L84.0061 93.4406L80.2436 95.2864L69.5765 72.379L69.5795 72.3775L69.5786 72.3756L92.4297 61.1689L94.1648 64.894L75.0731 74.2571Z" fill="#A1A8AD"/>
<path fill-rule="evenodd" clip-rule="evenodd" d="M198.653 117.703L207.586 136.887L203.823 138.733L193.156 115.825L193.159 115.824L193.158 115.822L216.009 104.615L217.744 108.34L198.653 117.703Z" fill="#A1A8AD"/>
<path fill-rule="evenodd" clip-rule="evenodd" d="M116.235 88.8186L125.168 108.002L121.405 109.848L110.738 86.9405L110.741 86.939L110.74 86.9372L133.591 75.7304L135.326 79.4555L116.235 88.8186Z" fill="#A1A8AD"/>
</g>
<defs>
<clipPath id="clip0_146_3236">
<rect width="325" height="118" fill="white" transform="translate(38.639) rotate(19.114)"/>
</clipPath>
</defs>
</svg>
