<svg width="138" height="96" viewBox="0 0 138 96" fill="none" xmlns="http://www.w3.org/2000/svg">
<path d="M131.196 28.0411L92.727 4.27181L4.69914 54.1292L57.2652 90.0858L127.097 66.0529L131.196 28.0411Z" fill="#D8E022"/>
<path d="M57.7183 69.011C58.0846 72.0168 60.9622 74.3248 64.3481 73.9121C67.734 73.4995 69.973 70.5679 69.6067 67.5622C69.2404 64.5564 66.3628 62.2484 62.9769 62.661C59.591 63.0737 57.352 66.0053 57.7183 69.011Z" stroke="white" stroke-width="6"/>
<path d="M34.3257 62.8069C34.692 65.8127 37.5696 68.1207 40.9555 67.708C44.3414 67.2954 46.5804 64.3638 46.2141 61.3581C45.8478 58.3523 42.9702 56.0443 39.5843 56.4569C36.1984 56.8696 33.9594 59.8012 34.3257 62.8069Z" stroke="white" stroke-width="6"/>
</svg>
