<svg width="104" height="23" viewBox="0 0 104 23" fill="none" xmlns="http://www.w3.org/2000/svg">
<g id="Group 24">
<path id="Union" fill-rule="evenodd" clip-rule="evenodd" d="M54.7494 11.1695L45.0742 21.555L43.3406 19.7565L51.4862 11.013L42.882 2.12101L44.4291 0.467078L54.7324 11.115L54.7149 11.1337L54.7494 11.1695Z" fill="#A1A8AD"/>
<path id="Union_2" fill-rule="evenodd" clip-rule="evenodd" d="M103.615 11.5913L93.9394 21.9769L92.2059 20.1784L100.351 11.4348L91.7473 2.54289L93.2943 0.888953L103.598 11.5369L103.58 11.5556L103.615 11.5913Z" fill="#A1A8AD"/>
<path id="Union_3" fill-rule="evenodd" clip-rule="evenodd" d="M30.3168 10.8824L20.6415 21.2679L18.908 19.4694L27.0536 10.7258L18.4495 1.83391L19.9965 0.179969L30.2999 10.8279L30.2824 10.8467L30.3168 10.8824Z" fill="#A1A8AD"/>
<path id="Union_4" fill-rule="evenodd" clip-rule="evenodd" d="M79.182 11.3052L69.5068 21.6907L67.7733 19.8923L75.9188 11.1487L67.3146 2.25676L68.8617 0.60282L79.165 11.2508L79.1476 11.2695L79.182 11.3052Z" fill="#A1A8AD"/>
<path id="Union_5" fill-rule="evenodd" clip-rule="evenodd" d="M48.642 11.1324L38.9667 21.5179L37.2332 19.7194L45.3788 10.9759L36.7745 2.0839L38.3216 0.429968L48.6249 11.0779L48.6075 11.0966L48.642 11.1324Z" fill="#A1A8AD"/>
<path id="Union_6" fill-rule="evenodd" clip-rule="evenodd" d="M97.5072 11.5542L87.832 21.9398L86.0985 20.1413L94.244 11.3977L85.6398 2.50578L87.1869 0.851844L97.4902 11.4998L97.4728 11.5185L97.5072 11.5542Z" fill="#A1A8AD"/>
<path id="Union_7" fill-rule="evenodd" clip-rule="evenodd" d="M24.2094 10.8462L14.5341 21.2318L12.8006 19.4333L20.9462 10.6897L12.3421 1.79777L13.8891 0.143837L24.1925 10.7918L24.1749 10.8105L24.2094 10.8462Z" fill="#A1A8AD"/>
<path id="Union_8" fill-rule="evenodd" clip-rule="evenodd" d="M73.0746 11.2681L63.3993 21.6536L61.6658 19.8552L69.8113 11.1118L61.2069 2.21964L62.7539 0.565707L73.0573 11.2137L73.04 11.2322L73.0746 11.2681Z" fill="#A1A8AD"/>
<path id="Union_9" fill-rule="evenodd" clip-rule="evenodd" d="M42.5345 11.0787L32.8593 21.4642L31.1258 19.6657L39.2714 10.9221L30.6672 2.03019L32.2142 0.376258L42.5176 11.0242L42.5001 11.0429L42.5345 11.0787Z" fill="#A1A8AD"/>
<path id="Union_10" fill-rule="evenodd" clip-rule="evenodd" d="M91.3998 11.5015L81.7245 21.887L79.991 20.0885L88.1366 11.345L79.5324 2.45305L81.0794 0.799109L91.3828 11.4471L91.3653 11.4658L91.3998 11.5015Z" fill="#A1A8AD"/>
<path id="Union_11" fill-rule="evenodd" clip-rule="evenodd" d="M18.1019 10.7925L8.42669 21.178L6.69318 19.3796L14.8388 10.636L6.23457 1.74406L7.78159 0.0901248L18.085 10.7381L18.0675 10.7568L18.1019 10.7925Z" fill="#A1A8AD"/>
<path id="Union_12" fill-rule="evenodd" clip-rule="evenodd" d="M66.9672 11.2154L57.2919 21.6009L55.5584 19.8024L63.704 11.0589L55.0998 2.16691L56.6468 0.512976L66.9502 11.1609L66.9327 11.1796L66.9672 11.2154Z" fill="#A1A8AD"/>
<path id="Union_13" fill-rule="evenodd" clip-rule="evenodd" d="M36.4271 11.0425L26.7519 21.428L25.0184 19.6296L33.164 10.886L24.5598 1.99406L26.1069 0.340126L36.4102 10.9881L36.3927 11.0068L36.4271 11.0425Z" fill="#A1A8AD"/>
<path id="Union_14" fill-rule="evenodd" clip-rule="evenodd" d="M85.2924 11.4644L75.6171 21.8499L73.8836 20.0514L82.0292 11.3079L73.425 2.41594L74.972 0.762L85.2754 11.41L85.2579 11.4287L85.2924 11.4644Z" fill="#A1A8AD"/>
<path id="Union_15" fill-rule="evenodd" clip-rule="evenodd" d="M11.9945 10.7564L2.31927 21.1419L0.585762 19.3434L8.73133 10.5999L0.127145 1.70793L1.67417 0.053992L11.9775 10.702L11.9601 10.7206L11.9945 10.7564Z" fill="#A1A8AD"/>
<path id="Union_16" fill-rule="evenodd" clip-rule="evenodd" d="M60.8597 11.1783L51.1845 21.5638L49.451 19.7653L57.5966 11.0217L48.9924 2.1298L50.5394 0.475867L60.8428 11.1238L60.8253 11.1425L60.8597 11.1783Z" fill="#A1A8AD"/>
</g>
</svg>
