<svg width="199" height="168" viewBox="0 0 199 168" fill="none" xmlns="http://www.w3.org/2000/svg">
<path d="M52.4823 67.8472L101.841 29.1971L171.401 89.9002L133.828 121.174L62.7246 102.532L52.4823 67.8472Z" stroke="black" stroke-width="0.5"/>
<path d="M147.196 83.0411L108.727 59.2718L20.6991 109.129L73.2652 145.086L143.097 121.053L147.196 83.0411Z" fill="#D8E022"/>
<path d="M73.7183 124.011C74.0846 127.017 76.9622 129.325 80.3481 128.912C83.734 128.499 85.973 125.568 85.6067 122.562C85.2404 119.556 82.3628 117.248 78.9769 117.661C75.591 118.074 73.352 121.005 73.7183 124.011Z" stroke="white" stroke-width="6"/>
<path d="M50.3257 117.807C50.692 120.813 53.5696 123.121 56.9555 122.708C60.3414 122.295 62.5804 119.364 62.2141 116.358C61.8478 113.352 58.9702 111.044 55.5843 111.457C52.1984 111.87 49.9594 114.801 50.3257 117.807Z" stroke="white" stroke-width="6"/>
<path d="M137.33 118.61H130.76V119.54H136.88V131.09H130.28V130.7H124.79V131.09H118.22V119.54H124.31V118.61H117.74V116.78L115.28 120.17L118.04 120.56L115.37 131.09L114.68 130.97C111.96 130.41 109.78 130.02 108.14 129.8C108.7 128.48 109.17 127.22 109.55 126.02C109.95 124.82 110.38 123.41 110.84 121.79C110.98 121.19 111.18 120.48 111.44 119.66L113.84 119.99C112.42 119.33 110.62 118.76 108.44 118.28L111.83 113.69C112.49 113.85 113.2 114.06 113.96 114.32C114.72 114.58 115.46 114.85 116.18 115.13L117.74 115.73V113.96H124.31V113.27L118.52 113.33C118.52 112.09 118.5 111.17 118.46 110.57L116.09 114.5C113.67 113.54 111.11 112.84 108.41 112.4L111.47 107.6C112.43 107.82 113.91 108.26 115.91 108.92L118.37 109.7C118.35 109.48 118.3 109.15 118.22 108.71C126.02 108.59 132.23 108.4 136.85 108.14C136.71 108.94 136.62 109.7 136.58 110.42C136.56 111.14 136.55 112.02 136.55 113.06C135.29 113.1 133.36 113.14 130.76 113.18V113.96H137.33V118.61ZM124.79 123.71V125.72H130.28V123.71H124.79ZM166.97 108.95C167.05 112.65 167.09 116.83 167.09 121.49C167.09 124.69 166.98 126.87 166.76 128.03C166.56 129.17 166.07 129.91 165.29 130.25C164.51 130.57 163.05 130.73 160.91 130.73C160.75 128.97 160.53 127.58 160.25 126.56C160.05 127.44 159.78 128.3 159.44 129.14C159.1 129.96 158.75 130.66 158.39 131.24C157.05 130.48 155.73 129.87 154.43 129.41V130.43C152.59 130.49 149.49 130.54 145.13 130.58L139.13 130.67C139.13 129.91 139.11 129.28 139.07 128.78C139.05 128.26 138.97 127.73 138.83 127.19L144.68 127.16V126.62H139.52V123.5H144.68V122.99H139.52V115.82H144.68V115.31H138.83V112.55H144.68V112.07C144.08 112.05 143.18 112.04 141.98 112.04C140.8 112.04 139.93 112.05 139.37 112.07C139.37 111.39 139.35 110.81 139.31 110.33C139.29 109.85 139.21 109.39 139.07 108.95C144.27 108.89 149.61 108.72 155.09 108.44C154.95 108.94 154.86 109.44 154.82 109.94C154.8 110.44 154.79 111.09 154.79 111.89C153.71 111.95 152.04 112 149.78 112.04V112.55H154.64V115.31H149.78V115.82H155.15V122.99H149.78V123.5H154.19V126.62H149.78V127.1L154.28 127.01C154.8 126.05 155.21 125.02 155.51 123.92C155.87 122.42 156.07 120.04 156.11 116.78C156.11 115.7 156.12 114.93 156.14 114.47H155.24V108.95H156.14V107.93H161.39V108.95H166.97ZM160.73 124.31C161.13 124.29 161.42 124.2 161.6 124.04C161.78 123.88 161.9 123.59 161.96 123.17C162.02 122.73 162.05 122.05 162.05 121.13C162.05 118.57 162 116.35 161.9 114.47H161.3L161.27 117.2C161.25 120.16 161.07 122.53 160.73 124.31ZM145.31 118.67V118.01H143.75V118.67H145.31ZM149.3 118.67H150.74V118.01H149.3V118.67ZM145.31 120.08H143.75V120.74H145.31V120.08ZM149.3 120.08V120.74H150.74V120.08H149.3ZM184.28 113.87H183.02L182.87 115.13H184.64V119.72H169.19V115.13H170.9L170.69 113.87H169.55V109.07H173.63V108.02H179.9V109.07H184.28V113.87ZM197.81 112.85C196.85 115.45 196.09 117.35 195.53 118.55C196.93 120.55 197.63 122.37 197.63 124.01C197.63 125.83 197.13 127.23 196.13 128.21C195.15 129.17 193.8 129.63 192.08 129.59C191.82 127.69 191.41 126.19 190.85 125.09V130.88H185.06V108.47H196.25L197.81 112.85ZM190.85 113.54V117.17C191.57 115.71 191.94 114.5 191.96 113.54H190.85ZM177.83 113.87H176L176.12 115.13H177.68L177.83 113.87ZM190.85 124.01C191.51 123.77 191.84 123.3 191.84 122.6C191.84 121.96 191.51 121.17 190.85 120.23V124.01ZM169.64 120.53H183.92V131H178.28V130.7H175.31V131H169.64V120.53ZM178.28 126.26V124.58H175.31V126.26H178.28Z" fill="#43473E"/>
</svg>
