<svg width="120" height="84" viewBox="0 0 120 84" fill="none" xmlns="http://www.w3.org/2000/svg">
<path d="M27.1906 65.7797L13 29.7401L44.7599 16L98.5941 23.2079L104 48.6609L65.2574 71.8614L48.1386 61.7252L27.1906 65.7797Z" fill="#D8E022"/>
<path fill-rule="evenodd" clip-rule="evenodd" d="M38.8156 52.3563C40.4844 53.6043 42.6627 53.2297 43.7252 51.8089C44.7878 50.3881 44.5314 48.1928 42.8626 46.9448C41.1938 45.6967 39.0155 46.0713 37.9529 47.4921C36.8904 48.9129 37.1467 51.1082 38.8156 52.3563ZM37.1968 54.5209C39.9862 56.607 43.8782 56.1176 45.8898 53.4277C47.9014 50.7379 47.2709 46.8662 44.4814 44.7801C41.692 42.694 37.7999 43.1835 35.7883 45.8733C33.7767 48.5631 34.4073 52.4348 37.1968 54.5209Z" fill="white"/>
<path fill-rule="evenodd" clip-rule="evenodd" d="M55.2199 56.7479C56.8887 57.9959 59.067 57.6213 60.1295 56.2005C61.1921 54.7797 60.9357 52.5844 59.2669 51.3364C57.5981 50.0883 55.4198 50.4629 54.3572 51.8837C53.2947 53.3045 53.551 55.4998 55.2199 56.7479ZM53.6011 58.9125C56.3905 60.9986 60.2825 60.5092 62.2941 57.8193C64.3057 55.1295 63.6752 51.2579 60.8857 49.1717C58.0963 47.0856 54.2042 47.5751 52.1926 50.2649C50.181 52.9547 50.8116 56.8264 53.6011 58.9125Z" fill="white"/>
</svg>
