<svg width="239" height="167" viewBox="0 0 239 167" fill="none" xmlns="http://www.w3.org/2000/svg">
<path d="M52.3729 137.489L5.24309 65.5788L68.0556 21.3624L188.31 12.6944L211.563 65.5673L137.851 133.5L96.0661 119.209L52.3729 137.489Z" fill="#D8E022"/>
<path d="M78.5193 94.1266C76.2899 99.3693 69.9737 101.903 64.2876 99.4846C58.6015 97.0666 56.0444 90.76 58.2738 85.5173C60.5033 80.2745 66.8194 77.7413 72.5055 80.1593C78.1917 82.5773 80.7488 88.8838 78.5193 94.1266Z" stroke="white" stroke-width="6"/>
<path d="M116.207 94.94C113.977 100.183 107.661 102.716 101.975 100.298C96.2889 97.88 93.7318 91.5735 95.9613 86.3308C98.1907 81.088 104.507 78.5548 110.193 80.9728C115.879 83.3908 118.436 89.6973 116.207 94.94Z" stroke="white" stroke-width="6"/>
</svg>
