<svg width="106" height="322" viewBox="0 0 106 322" fill="none" xmlns="http://www.w3.org/2000/svg">
<path fill-rule="evenodd" clip-rule="evenodd" d="M53.5546 271.416L10.1215 227.584L1.71753 236.267L53.6446 288.671L62.0486 279.988L62.0479 279.987L104.979 235.632L96.4852 227.06L53.5546 271.416Z" fill="#D8E022"/>
<path fill-rule="evenodd" clip-rule="evenodd" d="M52.4488 141.707L9.01565 97.8758L0.611698 106.559L52.5388 158.962L60.9428 150.279L60.942 150.278L103.873 105.923L95.3796 97.3516L52.4488 141.707Z" fill="#D8E022"/>
<path fill-rule="evenodd" clip-rule="evenodd" d="M53.447 238.988L10.0135 195.157L1.60953 203.84L53.5366 256.243L61.9406 247.56L61.9403 247.56L104.871 203.204L96.378 194.633L53.447 238.988Z" fill="#D8E022"/>
<path fill-rule="evenodd" clip-rule="evenodd" d="M52.3406 109.28L8.90762 65.4485L0.503666 74.1316L52.4308 126.535L60.8347 117.852L60.8339 117.851L103.765 73.4954L95.2714 64.9244L52.3406 109.28Z" fill="#D8E022"/>
<path fill-rule="evenodd" clip-rule="evenodd" d="M53.2615 206.56L9.82827 162.728L1.42432 171.411L53.3514 223.815L61.7554 215.132L61.7548 215.131L104.686 170.775L96.1925 162.204L53.2615 206.56Z" fill="#D8E022"/>
<path fill-rule="evenodd" clip-rule="evenodd" d="M52.1554 76.8512L8.72189 33.0193L0.317936 41.7024L52.2451 94.1058L60.649 85.4227L60.6486 85.4224L103.58 41.0665L95.0864 32.4954L52.1554 76.8512Z" fill="#D8E022"/>
<path fill-rule="evenodd" clip-rule="evenodd" d="M53.1535 174.133L9.72024 130.301L1.31629 138.984L53.2434 191.388L61.6474 182.704L61.6467 182.704L104.578 138.348L96.0845 129.777L53.1535 174.133Z" fill="#D8E022"/>
<path fill-rule="evenodd" clip-rule="evenodd" d="M52.0462 44.4222L8.61297 0.590602L0.209019 9.27366L52.1361 61.6771L60.5401 52.994L60.5394 52.9934L103.471 8.63747L94.9772 0.0664018L52.0462 44.4222Z" fill="#D8E022"/>
<path fill-rule="evenodd" clip-rule="evenodd" d="M53.5271 303.869L10.0938 260.037L1.68982 268.72L53.6169 321.123L62.0209 312.44L62.0203 312.44L104.951 268.084L96.4578 259.513L53.5271 303.869Z" fill="#D8E022"/>
</svg>
