<svg xmlns="http://www.w3.org/2000/svg" width="1069" height="72" fill="none" viewBox="0 0 1069 72">
  <path stroke="#D8E022" stroke-width="5" d="M35 37h988"/>
  <circle cx="35" cy="35" r="35" fill="#D8E022"/>
  <path fill="#fff" d="M40.33 43.34c2.16-.048 3.756-.096 4.788-.144V50H26.074v-6.804c2.592.096 4.548.144 5.868.144V30.92c-.864 1.896-2.628 3.12-5.292 3.672-.072-2.832-.336-5.412-.792-7.74 1.92-.264 3.252-.588 3.996-.972.768-.408 1.356-.852 1.764-1.332.432-.48.72-.804.864-.972v-.072h7.848V43.34Z"/>
  <circle cx="367" cy="36" r="35" fill="#D8E022"/>
  <path fill="#fff" d="M362.947 44.7c7.8-.432 13.848-.912 18.144-1.44a25.124 25.124 0 0 0-.936 3.96c-.216 1.392-.324 2.652-.324 3.78h-25.74l-.036-.756c0-2.352.684-4.392 2.052-6.12 1.392-1.728 3.324-3.324 5.796-4.788.72-.432 1.848-.984 3.384-1.656 1.992-.864 3.528-1.62 4.608-2.268 1.08-.672 1.62-1.332 1.62-1.98 0-.816-.336-1.464-1.008-1.944-.672-.48-1.716-.72-3.132-.72-1.56 0-2.748.396-3.564 1.188-.792.792-1.188 1.8-1.188 3.024 0 .384.036.78.108 1.188a116.701 116.701 0 0 0-8.82-.792c0-2.04.528-3.876 1.584-5.508 1.08-1.656 2.688-2.964 4.824-3.924 2.16-.96 4.8-1.44 7.92-1.44 2.856 0 5.232.396 7.128 1.188 1.92.768 3.324 1.752 4.212 2.952.912 1.176 1.368 2.388 1.368 3.636 0 1.44-.324 2.676-.972 3.708-.624 1.032-1.536 1.956-2.736 2.772-1.176.792-2.76 1.656-4.752 2.592-.288.144-.756.312-1.404.504-.648.168-1.056.276-1.224.324-1.704.504-3.06.924-4.068 1.26a15.987 15.987 0 0 0-2.844 1.26Z"/>
  <circle cx="694" cy="37" r="35" fill="#D8E022"/>
  <path fill="#fff" d="M699.673 38.752a13.369 13.369 0 0 1 2.556-.252c1.464 0 2.652.252 3.564.756.936.48 1.608 1.104 2.016 1.872a4.8 4.8 0 0 1 .612 2.34c0 1.896-.624 3.516-1.872 4.86-1.248 1.32-2.94 2.328-5.076 3.024-2.136.672-4.512 1.008-7.128 1.008-7.584 0-12.492-2.64-14.724-7.92l2.016-.504a71.208 71.208 0 0 0 3.78-1.008c1.056-.336 1.98-.708 2.772-1.116.48 1.2 1.164 2.064 2.052 2.592.912.504 2.16.756 3.744.756 1.68 0 3.048-.192 4.104-.576 1.056-.384 1.584-.96 1.584-1.728 0-.408-.204-.72-.612-.936-.408-.216-1.056-.36-1.944-.432-.888-.096-2.136-.144-3.744-.144h-2.736v-6.3h1.656c1.824 0 3.312-.072 4.464-.216 1.152-.168 1.728-.516 1.728-1.044 0-.6-.312-1.08-.936-1.44-.6-.384-1.548-.576-2.844-.576-1.68 0-3.048.348-4.104 1.044-1.032.696-1.836 1.704-2.412 3.024-2.568-1.032-5.304-1.764-8.208-2.196 1.152-2.592 2.916-4.596 5.292-6.012 2.4-1.416 5.484-2.124 9.252-2.124 2.448 0 4.644.324 6.588.972 1.968.624 3.504 1.5 4.608 2.628 1.128 1.128 1.692 2.388 1.692 3.78 0 .816-.192 1.548-.576 2.196-.384.624-1.14 1.248-2.268 1.872-1.128.6-2.76 1.2-4.896 1.8Z"/>
  <circle cx="1034" cy="35" r="35" fill="#D8E022"/>
  <path fill="#fff" d="M1049.19 38.66v6.768h-4.89V50h-8.61c.1-1.008.17-2.532.22-4.572h-17.1v-7.272c5.59-4.296 10.58-9.06 14.97-14.292h10.52V38.66h4.89Zm-13.1-7.668a185.45 185.45 0 0 1-4.29 4.284 46.899 46.899 0 0 1-4.06 3.384h8.24l.11-7.668Z"/>
</svg>
