<svg width="315" height="68" viewBox="0 0 315 68" fill="none" xmlns="http://www.w3.org/2000/svg">
<path d="M200.275 54.466L200.977 61H198.646L198.502 56.338L197.602 61H195.244L194.326 56.374L194.191 61H191.86L192.562 54.466H195.622L196.405 58.723L197.089 54.466H200.275ZM206.456 58.75H203.522C203.57 59.014 203.687 59.23 203.873 59.398C204.065 59.56 204.335 59.641 204.683 59.641C204.935 59.641 205.172 59.593 205.394 59.497C205.616 59.395 205.793 59.254 205.925 59.074C206.327 59.272 206.861 59.485 207.527 59.713C207.341 60.133 207.002 60.469 206.51 60.721C206.024 60.967 205.388 61.09 204.602 61.09C203.582 61.09 202.826 60.856 202.334 60.388C201.848 59.914 201.605 59.293 201.605 58.525C201.605 57.775 201.848 57.166 202.334 56.698C202.82 56.23 203.576 55.996 204.602 55.996C205.214 55.996 205.745 56.098 206.195 56.302C206.645 56.506 206.99 56.791 207.23 57.157C207.47 57.517 207.59 57.931 207.59 58.399C207.59 58.555 207.584 58.672 207.572 58.75H206.456ZM204.728 57.355C204.428 57.355 204.182 57.412 203.99 57.526C203.798 57.64 203.663 57.796 203.585 57.994H205.709C205.637 57.802 205.52 57.649 205.358 57.535C205.196 57.415 204.986 57.355 204.728 57.355ZM209.423 55.555C209.045 55.555 208.763 55.462 208.577 55.276C208.397 55.09 208.307 54.847 208.307 54.547C208.307 54.253 208.397 54.01 208.577 53.818C208.763 53.626 209.045 53.53 209.423 53.53C209.783 53.53 210.059 53.629 210.251 53.827C210.443 54.019 210.539 54.259 210.539 54.547C210.539 54.847 210.446 55.09 210.26 55.276C210.074 55.462 209.795 55.555 209.423 55.555ZM208.379 61C208.421 60.034 208.442 59.236 208.442 58.606C208.442 57.856 208.418 57.016 208.37 56.086H210.53C210.482 56.98 210.458 57.82 210.458 58.606C210.458 59.266 210.479 60.064 210.521 61H208.379ZM213.172 58.543C213.184 58.849 213.28 59.095 213.46 59.281C213.646 59.467 213.919 59.56 214.279 59.56C214.477 59.56 214.654 59.524 214.81 59.452C214.966 59.374 215.11 59.26 215.242 59.11C215.752 59.308 216.349 59.479 217.033 59.623C216.835 60.085 216.499 60.445 216.025 60.703C215.557 60.961 214.948 61.09 214.198 61.09C213.196 61.09 212.455 60.856 211.975 60.388C211.495 59.92 211.255 59.305 211.255 58.543C211.255 57.781 211.495 57.166 211.975 56.698C212.455 56.23 213.196 55.996 214.198 55.996C214.948 55.996 215.557 56.125 216.025 56.383C216.499 56.641 216.835 57.001 217.033 57.463C216.499 57.577 215.902 57.748 215.242 57.976C215.11 57.826 214.966 57.715 214.81 57.643C214.654 57.565 214.477 57.526 214.279 57.526C213.919 57.526 213.646 57.619 213.46 57.805C213.28 57.991 213.184 58.237 213.172 58.543ZM221.219 61C221.255 60.118 221.273 59.305 221.273 58.561C221.273 58.297 221.207 58.087 221.075 57.931C220.949 57.775 220.787 57.697 220.589 57.697C220.379 57.697 220.199 57.799 220.049 58.003C219.905 58.207 219.833 58.486 219.833 58.84L219.824 58.822C219.824 59.8 219.836 60.526 219.86 61H217.709C217.757 60.136 217.781 58.966 217.781 57.49C217.781 56.014 217.757 54.844 217.709 53.98H219.851L219.86 56.752L219.851 57.229C219.995 56.809 220.208 56.5 220.49 56.302C220.778 56.098 221.102 55.996 221.462 55.996C221.822 55.996 222.134 56.077 222.398 56.239C222.662 56.395 222.86 56.608 222.992 56.878C223.13 57.148 223.199 57.451 223.199 57.787V59.083C223.199 59.881 223.214 60.52 223.244 61H221.219ZM229.502 56.086C229.46 56.842 229.439 57.658 229.439 58.534C229.439 59.416 229.46 60.238 229.502 61C229.118 60.982 228.815 60.973 228.593 60.973C228.383 60.973 228.08 60.982 227.684 61L227.423 59.677C227.285 60.157 227.069 60.514 226.775 60.748C226.481 60.976 226.139 61.09 225.749 61.09C225.389 61.09 225.077 61.012 224.813 60.856C224.549 60.694 224.348 60.478 224.21 60.208C224.078 59.938 224.012 59.635 224.012 59.299V58.003C224.012 57.205 223.997 56.566 223.967 56.086H225.992C225.956 56.968 225.938 57.841 225.938 58.705C225.938 58.969 226.001 59.179 226.127 59.335C226.259 59.491 226.424 59.569 226.622 59.569C226.808 59.569 226.97 59.488 227.108 59.326C227.252 59.158 227.339 58.93 227.369 58.642V58.435C227.381 57.967 227.387 57.643 227.387 57.463C227.387 57.049 227.375 56.59 227.351 56.086H229.502ZM239.568 54.466C239.526 55.48 239.505 56.569 239.505 57.733C239.505 58.897 239.526 59.986 239.568 61H237.453V58.552H234.141V61H232.026C232.074 59.836 232.098 58.747 232.098 57.733C232.098 56.719 232.074 55.63 232.026 54.466H234.141V56.914H237.453V54.466H239.568ZM246.057 59.506C246.057 59.71 246.081 59.854 246.129 59.938C246.177 60.022 246.273 60.082 246.417 60.118L246.381 60.964C246.189 60.994 246.021 61.015 245.877 61.027C245.739 61.039 245.553 61.045 245.319 61.045C244.803 61.045 244.461 60.931 244.293 60.703C244.125 60.469 244.041 60.172 244.041 59.812V59.587C243.867 60.079 243.612 60.445 243.276 60.685C242.946 60.925 242.523 61.045 242.007 61.045C241.407 61.045 240.954 60.925 240.648 60.685C240.348 60.445 240.198 60.088 240.198 59.614C240.198 59.224 240.327 58.918 240.585 58.696C240.843 58.474 241.242 58.321 241.782 58.237C241.326 57.913 240.87 57.631 240.414 57.391C240.774 56.935 241.185 56.59 241.647 56.356C242.109 56.116 242.67 55.996 243.33 55.996C244.254 55.996 244.938 56.197 245.382 56.599C245.832 56.995 246.057 57.607 246.057 58.435V59.506ZM243.519 57.58C243.213 57.58 242.943 57.631 242.709 57.733C242.475 57.835 242.265 57.988 242.079 58.192C242.439 58.15 242.889 58.129 243.429 58.129C243.651 58.129 243.807 58.102 243.897 58.048C243.987 57.994 244.032 57.925 244.032 57.841C244.032 57.769 243.987 57.709 243.897 57.661C243.807 57.607 243.681 57.58 243.519 57.58ZM242.574 59.578C242.91 59.578 243.213 59.515 243.483 59.389C243.753 59.257 243.939 59.086 244.041 58.876V58.642C243.897 58.714 243.738 58.771 243.564 58.813C243.39 58.849 243.18 58.885 242.934 58.921L242.61 58.975C242.274 59.041 242.106 59.155 242.106 59.317C242.106 59.491 242.262 59.578 242.574 59.578ZM248.786 58.543C248.798 58.849 248.894 59.095 249.074 59.281C249.26 59.467 249.533 59.56 249.893 59.56C250.091 59.56 250.268 59.524 250.424 59.452C250.58 59.374 250.724 59.26 250.856 59.11C251.366 59.308 251.963 59.479 252.647 59.623C252.449 60.085 252.113 60.445 251.639 60.703C251.171 60.961 250.562 61.09 249.812 61.09C248.81 61.09 248.069 60.856 247.589 60.388C247.109 59.92 246.869 59.305 246.869 58.543C246.869 57.781 247.109 57.166 247.589 56.698C248.069 56.23 248.81 55.996 249.812 55.996C250.562 55.996 251.171 56.125 251.639 56.383C252.113 56.641 252.449 57.001 252.647 57.463C252.113 57.577 251.516 57.748 250.856 57.976C250.724 57.826 250.58 57.715 250.424 57.643C250.268 57.565 250.091 57.526 249.893 57.526C249.533 57.526 249.26 57.619 249.074 57.805C248.894 57.991 248.798 58.237 248.786 58.543ZM259.676 56.077L257.444 58.111C258.206 59.191 258.917 60.154 259.577 61H257.192L256.733 60.262C256.433 59.764 256.235 59.44 256.139 59.29L255.392 59.974V61H253.322C253.37 59.86 253.394 58.705 253.394 57.535C253.394 56.359 253.37 55.18 253.322 53.998H255.392V57.814C255.974 57.22 256.523 56.641 257.039 56.077H259.676ZM265.533 59.506C265.533 59.71 265.557 59.854 265.605 59.938C265.653 60.022 265.749 60.082 265.893 60.118L265.857 60.964C265.665 60.994 265.497 61.015 265.353 61.027C265.215 61.039 265.029 61.045 264.795 61.045C264.279 61.045 263.937 60.931 263.769 60.703C263.601 60.469 263.517 60.172 263.517 59.812V59.587C263.343 60.079 263.088 60.445 262.752 60.685C262.422 60.925 261.999 61.045 261.483 61.045C260.883 61.045 260.43 60.925 260.124 60.685C259.824 60.445 259.674 60.088 259.674 59.614C259.674 59.224 259.803 58.918 260.061 58.696C260.319 58.474 260.718 58.321 261.258 58.237C260.802 57.913 260.346 57.631 259.89 57.391C260.25 56.935 260.661 56.59 261.123 56.356C261.585 56.116 262.146 55.996 262.806 55.996C263.73 55.996 264.414 56.197 264.858 56.599C265.308 56.995 265.533 57.607 265.533 58.435V59.506ZM262.995 57.58C262.689 57.58 262.419 57.631 262.185 57.733C261.951 57.835 261.741 57.988 261.555 58.192C261.915 58.15 262.365 58.129 262.905 58.129C263.127 58.129 263.283 58.102 263.373 58.048C263.463 57.994 263.508 57.925 263.508 57.841C263.508 57.769 263.463 57.709 263.373 57.661C263.283 57.607 263.157 57.58 262.995 57.58ZM262.05 59.578C262.386 59.578 262.689 59.515 262.959 59.389C263.229 59.257 263.415 59.086 263.517 58.876V58.642C263.373 58.714 263.214 58.771 263.04 58.813C262.866 58.849 262.656 58.885 262.41 58.921L262.086 58.975C261.75 59.041 261.582 59.155 261.582 59.317C261.582 59.491 261.738 59.578 262.05 59.578ZM270.512 57.697C269.96 57.661 269.456 57.634 269 57.616L268.991 58.57C268.991 58.894 269.06 59.149 269.198 59.335C269.342 59.515 269.594 59.605 269.954 59.605C270.092 59.605 270.224 59.593 270.35 59.569C270.326 59.791 270.314 60.016 270.314 60.244C270.314 60.352 270.32 60.598 270.332 60.982C270.068 61.03 269.846 61.06 269.666 61.072C269.486 61.084 269.252 61.09 268.964 61.09C268.262 61.09 267.764 60.922 267.47 60.586C267.182 60.244 267.038 59.77 267.038 59.164L267.047 57.643C266.765 57.655 266.471 57.673 266.165 57.697V56.104C266.477 56.104 266.741 56.005 266.957 55.807C267.173 55.609 267.302 55.372 267.344 55.096H269.792C269.486 55.516 269.147 55.852 268.775 56.104H270.512V57.697ZM274.56 61C274.596 60.118 274.614 59.305 274.614 58.561C274.614 58.297 274.548 58.087 274.416 57.931C274.29 57.775 274.128 57.697 273.93 57.697C273.72 57.697 273.54 57.799 273.39 58.003C273.246 58.207 273.174 58.486 273.174 58.84L273.165 58.822C273.165 59.8 273.177 60.526 273.201 61H271.05C271.098 60.136 271.122 58.966 271.122 57.49C271.122 56.014 271.098 54.844 271.05 53.98H273.192L273.201 56.752L273.192 57.229C273.336 56.809 273.549 56.5 273.831 56.302C274.119 56.098 274.443 55.996 274.803 55.996C275.163 55.996 275.475 56.077 275.739 56.239C276.003 56.395 276.201 56.608 276.333 56.878C276.471 57.148 276.54 57.451 276.54 57.787V59.083C276.54 59.881 276.555 60.52 276.585 61H274.56ZM280.205 61.09C279.179 61.09 278.423 60.856 277.937 60.388C277.457 59.914 277.217 59.293 277.217 58.525C277.217 57.775 277.457 57.166 277.937 56.698C278.423 56.23 279.179 55.996 280.205 55.996C280.895 55.996 281.471 56.11 281.933 56.338C282.401 56.56 282.746 56.863 282.968 57.247C283.19 57.625 283.301 58.051 283.301 58.525C283.301 59.299 283.043 59.92 282.527 60.388C282.017 60.856 281.243 61.09 280.205 61.09ZM280.241 59.56C280.631 59.56 280.922 59.467 281.114 59.281C281.306 59.095 281.402 58.846 281.402 58.534C281.402 58.24 281.306 58 281.114 57.814C280.922 57.622 280.631 57.526 280.241 57.526C279.851 57.526 279.566 57.619 279.386 57.805C279.206 57.991 279.116 58.234 279.116 58.534C279.116 58.846 279.206 59.095 279.386 59.281C279.566 59.467 279.851 59.56 280.241 59.56ZM287.444 61C287.48 60.118 287.498 59.305 287.498 58.561C287.498 58.297 287.432 58.087 287.3 57.931C287.174 57.775 287.012 57.697 286.814 57.697C286.616 57.697 286.448 57.787 286.31 57.967C286.172 58.141 286.091 58.381 286.067 58.687C286.055 59.143 286.049 59.467 286.049 59.659C286.049 60.067 286.061 60.514 286.085 61H283.934C283.982 60.136 284.006 59.32 284.006 58.552C284.006 57.784 283.982 56.962 283.934 56.086C284.33 56.104 284.633 56.113 284.843 56.113C285.065 56.113 285.368 56.104 285.752 56.086L286.013 57.409C286.151 56.929 286.367 56.575 286.661 56.347C286.955 56.113 287.297 55.996 287.687 55.996C288.047 55.996 288.359 56.077 288.623 56.239C288.887 56.395 289.085 56.608 289.217 56.878C289.355 57.148 289.424 57.451 289.424 57.787V59.083C289.424 59.881 289.439 60.52 289.469 61H287.444Z" fill="black"/>
<path d="M186.5 18H311.5L314 20.5V51.5M186.5 18H3.87834L1.00012 21V50L19.0001 67.5H186.5M186.5 18V51.5M186.5 67.5H310.5L314 64V51.5M186.5 67.5V51.5M186.5 51.5H314" stroke="black"/>
<rect x="4.50012" width="11" height="11" fill="#333333"/>
<rect x="24.5001" y="4" width="11" height="5" fill="black"/>
<path d="M42.0001 11V0.5H48.0001C48.0001 4.5 51.3335 5.5 53.0001 5.5V11H42.0001Z" stroke="black"/>
<circle cx="199" cy="28.5" r="5" stroke="black"/>
<circle cx="213" cy="28.5" r="5" stroke="black"/>
<circle cx="226" cy="28.5" r="5" stroke="black"/>
<path d="M213 24L216.897 30.75H209.103L213 24Z" fill="black"/>
<path d="M224.5 28.5V24.5H227V28.5L226.5 29.5H225L224.5 28.5Z" fill="black"/>
<path d="M224.5 32V31H226.5V32H224.5Z" fill="black"/>
<path d="M224.5 28.5V24.5H227V28.5L226.5 29.5H225L224.5 28.5Z" stroke="black"/>
<path d="M224.5 32V31H226.5V32H224.5Z" stroke="black"/>
</svg>
