<svg width="325" height="118" viewBox="0 0 325 118" fill="none" xmlns="http://www.w3.org/2000/svg">
<path fill-rule="evenodd" clip-rule="evenodd" d="M113.325 58.4763L128.047 73.6771L125.097 76.6531L107.517 58.5016L107.519 58.4992L107.518 58.4977L125.439 40.4263L128.298 43.3779L113.325 58.4763Z" fill="#A1A8AD"/>
<path fill-rule="evenodd" clip-rule="evenodd" d="M25.9926 58.1717L40.7147 73.3724L37.764 76.3484L20.184 58.1969L20.1864 58.1945L20.185 58.1931L38.1066 40.1216L40.9659 43.0732L25.9926 58.1717Z" fill="#A1A8AD"/>
<path fill-rule="evenodd" clip-rule="evenodd" d="M156.986 58.7572L171.709 73.9579L168.758 76.9339L151.178 58.7823L151.18 58.7799L151.179 58.7785L169.1 40.7071L171.96 43.6587L156.986 58.7572Z" fill="#A1A8AD"/>
<path fill-rule="evenodd" clip-rule="evenodd" d="M69.6547 58.4526L84.3769 73.6534L81.4262 76.6294L63.8462 58.4779L63.8485 58.4755L63.8471 58.474L81.7687 40.4026L84.6279 43.3542L69.6547 58.4526Z" fill="#A1A8AD"/>
<path fill-rule="evenodd" clip-rule="evenodd" d="M124.241 58.4875L138.963 73.6883L136.012 76.6643L118.432 58.5128L118.435 58.5104L118.433 58.5089L136.355 40.4375L139.214 43.3891L124.241 58.4875Z" fill="#A1A8AD"/>
<path fill-rule="evenodd" clip-rule="evenodd" d="M36.9089 58.1829L51.6311 73.3837L48.6804 76.3596L31.1003 58.2081L31.1027 58.2057L31.1013 58.2043L49.0229 40.1328L51.8822 43.0844L36.9089 58.1829Z" fill="#A1A8AD"/>
<path fill-rule="evenodd" clip-rule="evenodd" d="M167.902 58.7684L182.624 73.9691L179.674 76.9451L162.094 58.7936L162.096 58.7911L162.095 58.7897L180.016 40.7183L182.875 43.6699L167.902 58.7684Z" fill="#A1A8AD"/>
<path fill-rule="evenodd" clip-rule="evenodd" d="M80.57 58.4635L95.2925 73.6647L92.3418 76.6406L74.7618 58.4891L74.7639 58.4869L74.7622 58.4851L92.6838 40.4137L95.5431 43.3653L80.57 58.4635Z" fill="#A1A8AD"/>
<path fill-rule="evenodd" clip-rule="evenodd" d="M135.157 58.5254L149.879 73.7262L146.928 76.7022L129.348 58.5506L129.35 58.5482L129.349 58.5468L147.271 40.4753L150.13 43.4269L135.157 58.5254Z" fill="#A1A8AD"/>
<path fill-rule="evenodd" clip-rule="evenodd" d="M47.8242 58.2207L62.5463 73.4215L59.5956 76.3975L42.0156 58.246L42.018 58.2436L42.0166 58.2421L59.9382 40.1707L62.7974 43.1222L47.8242 58.2207Z" fill="#A1A8AD"/>
<path fill-rule="evenodd" clip-rule="evenodd" d="M178.818 58.8064L193.54 74.0072L190.589 76.9832L173.009 58.8316L173.012 58.8293L173.01 58.8278L190.932 40.7563L193.791 43.7079L178.818 58.8064Z" fill="#A1A8AD"/>
<path fill-rule="evenodd" clip-rule="evenodd" d="M91.4855 58.5017L106.208 73.7025L103.257 76.6785L85.6769 58.527L85.6793 58.5246L85.6778 58.5231L103.599 40.4516L106.459 43.4032L91.4855 58.5017Z" fill="#A1A8AD"/>
<path fill-rule="evenodd" clip-rule="evenodd" d="M146.072 58.5367L160.794 73.7374L157.844 76.7134L140.264 58.5619L140.266 58.5595L140.265 58.5581L158.186 40.4866L161.045 43.4382L146.072 58.5367Z" fill="#A1A8AD"/>
<path fill-rule="evenodd" clip-rule="evenodd" d="M58.7406 58.2324L73.4628 73.4332L70.5121 76.4092L52.932 58.2577L52.9344 58.2553L52.9329 58.2538L70.8545 40.1824L73.7138 43.134L58.7406 58.2324Z" fill="#A1A8AD"/>
<path fill-rule="evenodd" clip-rule="evenodd" d="M189.734 58.8179L204.456 74.0187L201.505 76.9946L183.925 58.8431L183.928 58.8407L183.926 58.8393L201.848 40.7678L204.707 43.7194L189.734 58.8179Z" fill="#A1A8AD"/>
<path fill-rule="evenodd" clip-rule="evenodd" d="M102.401 58.5129L117.123 73.7137L114.173 76.6897L96.5925 58.5382L96.5948 58.5358L96.5934 58.5343L114.515 40.4629L117.374 43.4145L102.401 58.5129Z" fill="#A1A8AD"/>
</svg>
