<svg width="201" height="126" viewBox="0 0 201 126" fill="none" xmlns="http://www.w3.org/2000/svg">
<path d="M0 44L55 0L200.5 60.5L126 126L13.5 102L0 44Z" fill="#D8E022"/>
<path d="M123 93.5C123 99.1971 118.179 104 112 104C105.821 104 101 99.1971 101 93.5C101 87.8029 105.821 83 112 83C118.179 83 123 87.8029 123 93.5Z" stroke="white" stroke-width="6"/>
<path d="M158 79.5C158 85.1971 153.179 90 147 90C140.821 90 136 85.1971 136 79.5C136 73.8029 140.821 69 147 69C153.179 69 158 73.8029 158 79.5Z" stroke="white" stroke-width="6"/>
</svg>
