<svg width="331" height="262" viewBox="0 0 331 262" fill="none" xmlns="http://www.w3.org/2000/svg">
<g clip-path="url(#clip0_275_1300)">
<path fill-rule="evenodd" clip-rule="evenodd" d="M127.968 106.23L133.433 126.673L129.407 127.838L122.881 103.426L122.884 103.425L122.884 103.423L147.334 96.3553L148.396 100.325L127.968 106.23Z" fill="#A1A8AD"/>
<path fill-rule="evenodd" clip-rule="evenodd" d="M51.8198 63.4682L57.285 83.9117L53.2591 85.0758L46.7329 60.6638L46.7362 60.6629L46.7357 60.661L71.1859 53.5936L72.2476 57.5635L51.8198 63.4682Z" fill="#A1A8AD"/>
<path fill-rule="evenodd" clip-rule="evenodd" d="M165.975 127.72L171.44 148.164L167.414 149.328L160.888 124.916L160.892 124.915L160.891 124.913L185.341 117.846L186.403 121.815L165.975 127.72Z" fill="#A1A8AD"/>
<path fill-rule="evenodd" clip-rule="evenodd" d="M89.8277 84.9593L95.2929 105.403L91.267 106.567L84.7409 82.155L84.7441 82.1541L84.7435 82.1521L109.194 75.0848L110.255 79.0547L89.8277 84.9593Z" fill="#A1A8AD"/>
<path fill-rule="evenodd" clip-rule="evenodd" d="M137.499 111.551L142.964 131.995L138.938 133.159L132.412 108.747L132.415 108.746L132.415 108.744L156.865 101.677L157.927 105.646L137.499 111.551Z" fill="#A1A8AD"/>
<path fill-rule="evenodd" clip-rule="evenodd" d="M61.3512 68.7904L66.8164 89.2339L62.7905 90.3981L56.2644 65.9861L56.2676 65.9852L56.2671 65.9832L80.7173 58.9159L81.779 62.8858L61.3512 68.7904Z" fill="#A1A8AD"/>
<path fill-rule="evenodd" clip-rule="evenodd" d="M175.506 133.041L180.971 153.485L176.945 154.649L170.419 130.237L170.422 130.236L170.422 130.234L194.872 123.167L195.934 127.137L175.506 133.041Z" fill="#A1A8AD"/>
<path fill-rule="evenodd" clip-rule="evenodd" d="M99.3583 90.2802L104.824 110.724L100.798 111.888L94.2716 87.4763L94.2746 87.4755L94.2739 87.473L118.724 80.4057L119.786 84.3756L99.3583 90.2802Z" fill="#A1A8AD"/>
<path fill-rule="evenodd" clip-rule="evenodd" d="M147.017 116.896L152.482 137.339L148.456 138.504L141.93 114.092L141.933 114.091L141.933 114.089L166.383 107.021L167.445 110.991L147.017 116.896Z" fill="#A1A8AD"/>
<path fill-rule="evenodd" clip-rule="evenodd" d="M70.8686 74.1342L76.3338 94.5777L72.3079 95.7418L65.7818 71.3298L65.785 71.3289L65.7845 71.3269L90.2347 64.2596L91.2964 68.2295L70.8686 74.1342Z" fill="#A1A8AD"/>
<path fill-rule="evenodd" clip-rule="evenodd" d="M185.024 138.386L190.489 158.83L186.463 159.994L179.937 135.582L179.94 135.581L179.94 135.579L204.39 128.512L205.452 132.481L185.024 138.386Z" fill="#A1A8AD"/>
<path fill-rule="evenodd" clip-rule="evenodd" d="M108.876 95.6253L114.341 116.069L110.315 117.233L103.789 92.8211L103.792 92.8201L103.792 92.8181L128.242 85.7508L129.304 89.7207L108.876 95.6253Z" fill="#A1A8AD"/>
<path fill-rule="evenodd" clip-rule="evenodd" d="M156.547 122.217L162.013 142.661L157.987 143.825L151.461 119.413L151.464 119.412L151.463 119.41L175.914 112.343L176.975 116.313L156.547 122.217Z" fill="#A1A8AD"/>
<path fill-rule="evenodd" clip-rule="evenodd" d="M80.3999 79.4564L85.8652 99.8999L81.8393 101.064L75.3131 76.6521L75.3163 76.6512L75.3158 76.6492L99.766 69.5818L100.828 73.5517L80.3999 79.4564Z" fill="#A1A8AD"/>
<path fill-rule="evenodd" clip-rule="evenodd" d="M194.555 143.707L200.02 164.151L195.994 165.315L189.468 140.903L189.471 140.902L189.471 140.9L213.921 133.833L214.983 137.803L194.555 143.707Z" fill="#A1A8AD"/>
<path fill-rule="evenodd" clip-rule="evenodd" d="M118.406 100.947L123.872 121.39L119.846 122.554L113.32 98.1423L113.323 98.1414L113.322 98.1394L137.773 91.0721L138.834 95.042L118.406 100.947Z" fill="#A1A8AD"/>
</g>
<defs>
<clipPath id="clip0_275_1300">
<rect width="325" height="118" fill="white" transform="translate(57.4175) rotate(29.1166)"/>
</clipPath>
</defs>
</svg>
