<svg width="165" height="325" viewBox="0 0 165 325" fill="none" xmlns="http://www.w3.org/2000/svg">
<path fill-rule="evenodd" clip-rule="evenodd" d="M83.9259 271.073L54.7899 241.67L49.1523 247.495L83.9864 282.648L89.624 276.824L89.6234 276.823L118.423 247.068L112.725 241.318L83.9259 271.073Z" fill="#D8E022"/>
<path fill-rule="evenodd" clip-rule="evenodd" d="M83.1838 184.062L54.0477 154.658L48.4101 160.483L83.2442 195.637L88.8818 189.812L88.8813 189.811L117.681 160.056L111.983 154.307L83.1838 184.062Z" fill="#D8E022"/>
<path fill-rule="evenodd" clip-rule="evenodd" d="M83.8541 249.32L54.7177 219.916L49.0801 225.741L83.9142 260.894L89.5518 255.07L89.5516 255.069L118.351 225.314L112.653 219.565L83.8541 249.32Z" fill="#D8E022"/>
<path fill-rule="evenodd" clip-rule="evenodd" d="M83.1115 162.307L53.9755 132.904L48.3379 138.729L83.172 173.883L88.8096 168.058L88.809 168.057L117.608 138.302L111.911 132.553L83.1115 162.307Z" fill="#D8E022"/>
<path fill-rule="evenodd" clip-rule="evenodd" d="M83.7288 227.566L54.5927 198.163L48.9551 203.988L83.7892 239.142L89.4268 233.317L89.4263 233.316L118.226 203.561L112.528 197.811L83.7288 227.566Z" fill="#D8E022"/>
<path fill-rule="evenodd" clip-rule="evenodd" d="M82.9867 140.554L53.8505 111.15L48.2129 116.975L83.047 152.129L88.6846 146.304L88.6842 146.304L117.484 116.548L111.786 110.799L82.9867 140.554Z" fill="#D8E022"/>
<path fill-rule="evenodd" clip-rule="evenodd" d="M83.6566 205.814L54.5204 176.41L48.8828 182.235L83.7169 217.389L89.3545 211.564L89.3541 211.563L118.153 181.808L112.456 176.058L83.6566 205.814Z" fill="#D8E022"/>
<path fill-rule="evenodd" clip-rule="evenodd" d="M82.9144 118.8L53.7782 89.3964L48.1406 95.2213L82.9747 130.375L88.6123 124.55L88.6119 124.55L117.411 94.7945L111.714 89.0448L82.9144 118.8Z" fill="#D8E022"/>
<path fill-rule="evenodd" clip-rule="evenodd" d="M83.9076 292.843L54.7714 263.439L49.1338 269.264L83.9679 304.418L89.6055 298.593L89.6051 298.593L118.404 268.838L112.707 263.088L83.9076 292.843Z" fill="#D8E022"/>
</svg>
