<svg width="234" height="186" viewBox="0 0 234 186" fill="none" xmlns="http://www.w3.org/2000/svg">
<g id="Monster1">
<path id="Vector22" d="M68.2795 162.345L11.3175 97.9433L67.1343 45.1703L184.9 19.334L215.5 68.3224L152.301 146.13L108.897 137.984L68.2795 162.345Z" fill="#D8E022"/>
<path id="Ellipse12_2" d="M87.9323 115.68C86.4783 121.188 80.5911 124.602 74.6168 123.025C68.6425 121.448 65.2068 115.574 66.6608 110.065C68.1148 104.557 74.002 101.143 79.9763 102.72C85.9506 104.297 89.3862 110.171 87.9323 115.68Z" stroke="white" stroke-width="6"/>
<path id="Ellipse13_2" d="M125.346 111.076C123.892 116.585 118.005 119.998 112.031 118.421C106.057 116.844 102.621 110.97 104.075 105.462C105.529 99.9532 111.416 96.5398 117.39 98.1167C123.365 99.6936 126.8 105.568 125.346 111.076Z" stroke="white" stroke-width="6"/>
</g>
</svg>
