<svg width="269" height="495" viewBox="0 0 269 495" fill="none" xmlns="http://www.w3.org/2000/svg">
<path fill-rule="evenodd" clip-rule="evenodd" d="M135.555 396.416L92.1215 352.584L83.7175 361.267L135.645 413.671L144.049 404.988L144.048 404.987L186.979 360.632L178.485 352.06L135.555 396.416Z" fill="#D8E022"/>
<path fill-rule="evenodd" clip-rule="evenodd" d="M134.449 266.708L91.0157 222.876L82.6117 231.559L134.539 283.963L142.943 275.28L142.942 275.279L185.873 230.923L177.38 222.352L134.449 266.708Z" fill="#D8E022"/>
<path fill-rule="evenodd" clip-rule="evenodd" d="M135.447 363.988L92.0135 320.157L83.6095 328.84L135.537 381.243L143.941 372.56L143.94 372.56L186.871 328.204L178.378 319.633L135.447 363.988Z" fill="#D8E022"/>
<path fill-rule="evenodd" clip-rule="evenodd" d="M134.341 234.28L90.9076 190.449L82.5037 199.132L134.431 251.535L142.835 242.852L142.834 242.851L185.765 198.495L177.271 189.924L134.341 234.28Z" fill="#D8E022"/>
<path fill-rule="evenodd" clip-rule="evenodd" d="M135.262 331.56L91.8283 287.729L83.4243 296.412L135.351 348.815L143.755 340.132L143.755 340.132L186.686 295.776L178.193 287.205L135.262 331.56Z" fill="#D8E022"/>
<path fill-rule="evenodd" clip-rule="evenodd" d="M134.155 201.852L90.7219 158.02L82.3179 166.703L134.245 219.106L142.649 210.423L142.649 210.423L185.58 166.067L177.086 157.496L134.155 201.852Z" fill="#D8E022"/>
<path fill-rule="evenodd" clip-rule="evenodd" d="M135.153 299.133L91.7202 255.301L83.3163 263.984L135.243 316.388L143.647 307.704L143.647 307.704L186.578 263.348L178.084 254.777L135.153 299.133Z" fill="#D8E022"/>
<path fill-rule="evenodd" clip-rule="evenodd" d="M134.046 169.423L90.613 125.591L82.209 134.274L134.136 186.678L142.54 177.995L142.539 177.994L185.471 133.638L176.977 125.067L134.046 169.423Z" fill="#D8E022"/>
<path fill-rule="evenodd" clip-rule="evenodd" d="M135.527 428.869L92.0938 385.037L83.6898 393.72L135.617 446.124L144.021 437.441L144.02 437.44L186.951 393.085L178.458 384.514L135.527 428.869Z" fill="#D8E022"/>
</svg>
