<svg width="96" height="60" viewBox="0 0 96 60" fill="none" xmlns="http://www.w3.org/2000/svg">
<g id="Group 26">
<path id="Vector 18" d="M0 20.9524L26.3342 0L96 28.8095L60.3292 60L6.46384 48.5714L0 20.9524Z" fill="#D8E022"/>
<path id="Ellipse 10 (Stroke)" fill-rule="evenodd" clip-rule="evenodd" d="M53.5 47.1111C55.6477 47.1111 57.2143 45.3962 57.2143 43.5C57.2143 41.6038 55.6477 39.8889 53.5 39.8889C51.3523 39.8889 49.7857 41.6038 49.7857 43.5C49.7857 45.3962 51.3523 47.1111 53.5 47.1111ZM53.5 50C57.0899 50 60 47.0899 60 43.5C60 39.9101 57.0899 37 53.5 37C49.9101 37 47 39.9101 47 43.5C47 47.0899 49.9101 50 53.5 50Z" fill="white"/>
<path id="Ellipse 11 (Stroke)" fill-rule="evenodd" clip-rule="evenodd" d="M69.5 41.1111C71.6477 41.1111 73.2143 39.3962 73.2143 37.5C73.2143 35.6038 71.6477 33.8889 69.5 33.8889C67.3523 33.8889 65.7857 35.6038 65.7857 37.5C65.7857 39.3962 67.3523 41.1111 69.5 41.1111ZM69.5 44C73.0899 44 76 41.0899 76 37.5C76 33.9101 73.0899 31 69.5 31C65.9101 31 63 33.9101 63 37.5C63 41.0899 65.9101 44 69.5 44Z" fill="white"/>
</g>
</svg>
