<svg width="199" height="168" viewBox="0 0 199 168" fill="none" xmlns="http://www.w3.org/2000/svg">
<path d="M52.4823 67.8472L101.841 29.1971L171.401 89.9002L133.828 121.174L62.7246 102.532L52.4823 67.8472Z" stroke="black" stroke-width="0.5"/>
<path d="M147.196 83.0411L108.727 59.2718L20.6991 109.129L73.2652 145.086L143.097 121.053L147.196 83.0411Z" fill="#D8E022"/>
<path d="M73.7183 124.011C74.0846 127.017 76.9622 129.325 80.3481 128.912C83.734 128.499 85.973 125.568 85.6067 122.562C85.2404 119.556 82.3628 117.248 78.9769 117.661C75.591 118.074 73.352 121.005 73.7183 124.011Z" stroke="white" stroke-width="6"/>
<path d="M50.3257 117.807C50.692 120.813 53.5696 123.121 56.9555 122.708C60.3414 122.295 62.5804 119.364 62.2141 116.358C61.8478 113.352 58.9702 111.044 55.5843 111.457C52.1984 111.87 49.9594 114.801 50.3257 117.807Z" stroke="white" stroke-width="6"/>
<path d="M137 108.44V126.41C137 127.85 136.88 128.85 136.64 129.41C136.42 129.95 135.89 130.32 135.05 130.52C134.21 130.72 132.73 130.81 130.61 130.79C130.57 129.37 130.46 128.08 130.28 126.92H128.72V130.67H123.74V126.92H122.12C121.98 127.76 121.76 128.49 121.46 129.11L121.1 129.89C120.94 130.35 120.74 130.71 120.5 130.97C119.58 130.53 118.73 130.17 117.95 129.89C117.19 129.59 116.42 129.38 115.64 129.26V130.82H109.46V108.44H122.96V118.79H115.64V128.84C116.28 128.38 116.75 127.88 117.05 127.34L117.26 126.92H116.09V123.29H117.68V122.63H116.09V119.27H130.31V122.63H128.72V123.29H130.31V124.82C130.51 124.8 130.64 124.72 130.7 124.58C130.78 124.44 130.82 124.17 130.82 123.77V118.79H123.53V108.44H137ZM117.98 111.74H115.64V112.34H117.98V111.74ZM128.48 111.74V112.34H130.82V111.74H128.48ZM117.98 115.28V114.65H115.64V115.28H117.98ZM128.48 115.28H130.82V114.65H128.48V115.28ZM123.74 123.29V122.63H122.39L122.36 123.29H123.74ZM164.51 126.89C165.59 126.93 166.52 126.85 167.3 126.65C167.22 126.83 166.9 127.62 166.34 129.02C165.94 130 165.69 130.65 165.59 130.97C163.41 130.83 161.2 130.38 158.96 129.62C158.04 129.9 156.5 130.25 154.34 130.67C153.5 130.81 152.84 130.94 152.36 131.06C152.08 130.12 151.59 129.02 150.89 127.76C150.71 128.98 150.25 129.81 149.51 130.25C148.77 130.67 147.86 130.88 146.78 130.88C145.22 130.88 143.7 130.86 142.22 130.82C142.02 130.8 141.72 130.79 141.32 130.79L141.11 130.1C140.83 129.22 140.55 128.46 140.27 127.82C140.01 127.18 139.66 126.64 139.22 126.2L140.24 126.29C141.02 126.37 141.74 126.43 142.4 126.47C143.06 126.49 143.88 126.5 144.86 126.5C145.08 126.5 145.21 126.46 145.25 126.38C145.31 126.28 145.34 126.06 145.34 125.72H139.22L139.79 119.42H145.37V118.91H142.22V118.13C141.18 118.33 140.45 118.46 140.03 118.52C139.93 117.74 139.76 117.01 139.52 116.33C139.3 115.63 138.93 114.81 138.41 113.87C138.97 113.95 139.63 113.99 140.39 113.99C140.85 113.99 141.19 113.98 141.41 113.96L140.63 113.45L142.67 112.37H140.18V108.56H152.63L152.75 109.43L155.39 107.96C155.93 108.5 156.53 109.05 157.19 109.61C157.69 109.05 158.08 108.56 158.36 108.14L162.29 110C161.85 110.64 161.34 111.25 160.76 111.83C160.96 111.89 161.12 111.96 161.24 112.04C162.26 110.94 163.1 109.95 163.76 109.07L167.9 111.65C167.72 111.85 167.16 112.4 166.22 113.3C166.62 113.34 167.22 113.38 168.02 113.42C167.26 115 166.68 116.43 166.28 117.71L167 117.86C166.92 119.1 166.75 119.99 166.49 120.53C166.25 121.05 165.84 121.32 165.26 121.34C164.38 121.38 163.23 121.4 161.81 121.4C160.69 121.4 159.85 121.38 159.29 121.34C158.79 121.28 158.42 121.1 158.18 120.8C157.96 120.48 157.85 120.11 157.85 119.69H157.19C156.87 120.37 156.19 121.07 155.15 121.79L166.28 121.73L167.21 124.58C166.45 125.38 165.55 126.15 164.51 126.89ZM145.13 112.37C145.35 112.53 145.7 112.75 146.18 113.03C146.72 112.85 147.2 112.63 147.62 112.37H145.13ZM153.53 114.62C152.27 115.24 150.73 115.83 148.91 116.39H150.98V118.28C151.72 118.16 152.39 117.87 152.99 117.41C153.59 116.95 153.89 116.4 153.89 115.76H158.27C156.37 114.9 154.7 113.93 153.26 112.85L153.53 114.62ZM161.48 117.59C161.48 117.65 161.61 117.7 161.87 117.74C162.15 117.76 162.44 117.77 162.74 117.77C163.14 117.77 163.5 117.75 163.82 117.71C163.04 117.49 162.26 117.25 161.48 116.99V117.59ZM144.89 122.48H150.98V125.6L152.84 124.76H151.49V121.79H152.21C151.83 120.59 151.42 119.68 150.98 119.06V121.97H144.92L144.89 122.48ZM158.63 125.72C159.21 125.44 159.74 125.12 160.22 124.76H157.13C157.55 125.14 158.05 125.46 158.63 125.72ZM150.98 126.77C151.72 126.91 152.33 126.98 152.81 126.98L151.7 126.38C151.54 126.28 151.3 126.15 150.98 125.99V126.59V126.77ZM184.28 113.87H183.02L182.87 115.13H184.64V119.72H169.19V115.13H170.9L170.69 113.87H169.55V109.07H173.63V108.02H179.9V109.07H184.28V113.87ZM197.81 112.85C196.85 115.45 196.09 117.35 195.53 118.55C196.93 120.55 197.63 122.37 197.63 124.01C197.63 125.83 197.13 127.23 196.13 128.21C195.15 129.17 193.8 129.63 192.08 129.59C191.82 127.69 191.41 126.19 190.85 125.09V130.88H185.06V108.47H196.25L197.81 112.85ZM190.85 113.54V117.17C191.57 115.71 191.94 114.5 191.96 113.54H190.85ZM177.83 113.87H176L176.12 115.13H177.68L177.83 113.87ZM190.85 124.01C191.51 123.77 191.84 123.3 191.84 122.6C191.84 121.96 191.51 121.17 190.85 120.23V124.01ZM169.64 120.53H183.92V131H178.28V130.7H175.31V131H169.64V120.53ZM178.28 126.26V124.58H175.31V126.26H178.28Z" fill="#43473E"/>
</svg>
