<svg width="199" height="168" viewBox="0 0 199 168" fill="none" xmlns="http://www.w3.org/2000/svg">
<path d="M52.4823 67.8472L101.841 29.1971L171.401 89.9002L133.828 121.174L62.7246 102.532L52.4823 67.8472Z" stroke="black" stroke-width="0.5"/>
<!-- <path d="M147.196 83.0411L108.727 59.2718L20.6991 109.129L73.2652 145.086L143.097 121.053L147.196 83.0411Z" fill="#D8E022"/> -->
<path d="M73.7183 124.011C74.0846 127.017 76.9622 129.325 80.3481 128.912C83.734 128.499 85.973 125.568 85.6067 122.562C85.2404 119.556 82.3628 117.248 78.9769 117.661C75.591 118.074 73.352 121.005 73.7183 124.011Z" stroke="white" stroke-width="6"/>
<path d="M50.3257 117.807C50.692 120.813 53.5696 123.121 56.9555 122.708C60.3414 122.295 62.5804 119.364 62.2141 116.358C61.8478 113.352 58.9702 111.044 55.5843 111.457C52.1984 111.87 49.9594 114.801 50.3257 117.807Z" stroke="white" stroke-width="6"/>
<path d="M120.38 113.09C118.8 113.93 117.2 114.69 115.58 115.37C113.96 116.03 112.13 116.71 110.09 117.41C109.89 115.95 109.69 114.78 109.49 113.9C109.29 113 108.92 112.17 108.38 111.41C112.5 110.55 116.09 109.2 119.15 107.36L120.38 112.52V108.47H136.85V113.42H120.38V113.09ZM137.75 113.99V119.33H135.92V125.66C135.92 127.38 135.49 128.61 134.63 129.35C133.77 130.07 132.39 130.52 130.49 130.7C128.59 130.88 125.44 130.97 121.04 130.97C121 129.65 120.89 128.46 120.71 127.4C120.53 126.32 120.17 125.35 119.63 124.49C122.73 124.67 124.89 124.76 126.11 124.76C126.89 124.76 127.47 124.73 127.85 124.67C128.23 124.59 128.48 124.49 128.6 124.37C128.72 124.25 128.78 124.07 128.78 123.83V119.33H120.38V113.99H137.75ZM120.23 119.36C119.67 119.72 119.25 119.98 118.97 120.14V131.18H111.8V123.38C111.66 123.42 111.34 123.53 110.84 123.71L109.52 124.13C109.36 122.91 109.15 121.86 108.89 120.98C108.65 120.08 108.24 119.25 107.66 118.49C109.88 118.05 111.9 117.49 113.72 116.81C115.54 116.11 117.22 115.2 118.76 114.08L120.23 119.36ZM168.2 124.73C167.46 125.81 166.9 126.81 166.52 127.73C166.14 128.65 165.72 129.83 165.26 131.27C163.68 130.41 162.25 129.43 160.97 128.33C159.15 129.45 156.65 130.43 153.47 131.27C153.29 129.69 153 128.32 152.6 127.16C150.26 128.04 148.07 128.74 146.03 129.26C144.01 129.78 141.75 130.19 139.25 130.49C139.09 129.07 138.95 127.97 138.83 127.19C138.73 126.41 138.57 125.6 138.35 124.76L140.3 124.52V114.74H145.37V123.62C145.53 123.6 145.77 123.55 146.09 123.47V114.23H138.95V108.8H153.32V113.9C153.7 112.7 153.89 111.1 153.89 109.1V108.05H159.59L159.62 108.95H167.45V115.13H166.79C166.73 116.85 166.58 118.39 166.34 119.75C166.12 121.09 165.76 122.32 165.26 123.44C165.94 123.8 166.92 124.23 168.2 124.73ZM150.98 114.23V115.76H152.27V115.91C152.63 115.47 152.94 114.91 153.2 114.23H150.98ZM160.4 119.18C160.66 118.16 160.77 116.81 160.73 115.13H158.84C158.78 115.39 158.71 115.62 158.63 115.82C159.23 117.2 159.82 118.32 160.4 119.18ZM153.02 124.37C154.5 124.37 155.8 124.13 156.92 123.65C156.44 122.85 156.06 122.14 155.78 121.52C155.3 122.22 154.7 122.89 153.98 123.53C153.5 121.75 152.93 120.09 152.27 118.55V120.89H150.98V122.15C151.4 122.03 152.03 121.83 152.87 121.55L153.02 124.37ZM184.28 113.87H183.02L182.87 115.13H184.64V119.72H169.19V115.13H170.9L170.69 113.87H169.55V109.07H173.63V108.02H179.9V109.07H184.28V113.87ZM197.81 112.85C196.85 115.45 196.09 117.35 195.53 118.55C196.93 120.55 197.63 122.37 197.63 124.01C197.63 125.83 197.13 127.23 196.13 128.21C195.15 129.17 193.8 129.63 192.08 129.59C191.82 127.69 191.41 126.19 190.85 125.09V130.88H185.06V108.47H196.25L197.81 112.85ZM190.85 113.54V117.17C191.57 115.71 191.94 114.5 191.96 113.54H190.85ZM177.83 113.87H176L176.12 115.13H177.68L177.83 113.87ZM190.85 124.01C191.51 123.77 191.84 123.3 191.84 122.6C191.84 121.96 191.51 121.17 190.85 120.23V124.01ZM169.64 120.53H183.92V131H178.28V130.7H175.31V131H169.64V120.53ZM178.28 126.26V124.58H175.31V126.26H178.28Z" fill="#43473E"/>
</svg>
