<svg width="281" height="68" viewBox="0 0 281 68" fill="none" xmlns="http://www.w3.org/2000/svg">
<path d="M98.7336 47.8408V50.6449H94.5548V64.2047H91.5059V50.6449H87.3271V47.8408H98.73H98.7336Z" fill="#2C306D"/>
<path d="M110.136 64.2076H107.313V63.2977C106.409 64.0924 105.373 64.4416 104.264 64.4416C102.64 64.4416 101.104 63.6951 100.132 62.5251C99.275 61.4964 98.7334 60.0925 98.7334 58.5512C98.7334 55.2086 101.126 52.6348 104.107 52.6348C105.348 52.6348 106.456 53.0544 107.313 53.7787V52.8687H110.136V64.2076ZM107.199 56.8427C106.589 55.9996 105.617 55.4388 104.49 55.4388C102.776 55.4388 101.668 56.9133 101.668 58.5475C101.668 60.3227 102.909 61.6338 104.559 61.6338C105.663 61.6338 106.635 61.073 107.202 60.2299V56.839L107.199 56.8427Z" fill="#2C306D"/>
<path d="M114.989 46.9082C116.051 46.9082 116.908 47.7513 116.908 48.8469C116.908 49.9425 116.051 50.7856 114.989 50.7856C113.928 50.7856 113.07 49.9425 113.07 48.8469C113.07 47.7513 113.928 46.9082 114.989 46.9082ZM116.46 64.208H113.526V52.8692H116.46V64.208Z" fill="#2C306D"/>
<path d="M125.018 64.208H122.985L118.379 52.8691H121.338L124.003 59.4838L126.758 52.8691H128.792L131.525 59.4838L134.212 52.8691H137.171L132.565 64.208H130.531L127.777 57.6156L125.022 64.208H125.018Z" fill="#2C306D"/>
<path d="M149.249 64.2086H146.426V63.2986C145.522 64.0934 144.485 64.4425 143.377 64.4425C141.752 64.4425 140.217 63.696 139.245 62.5261C138.387 61.4973 137.846 60.0934 137.846 58.5521C137.846 55.2095 140.238 52.6357 143.219 52.6357C144.46 52.6357 145.568 53.0554 146.426 53.7797V52.8697H149.249V64.2086ZM146.311 56.8437C145.701 56.0006 144.729 55.4398 143.603 55.4398C141.888 55.4398 140.78 56.9143 140.78 58.5484C140.78 60.3237 142.021 61.6348 143.671 61.6348C144.776 61.6348 145.748 61.0739 146.314 60.2309V56.84L146.311 56.8437Z" fill="#2C306D"/>
<path d="M152.635 64.2086V52.8697H155.458V53.7797C156.293 53.0777 157.33 52.6357 158.55 52.6357C160.063 52.6357 161.441 53.3377 162.345 54.4593C163.066 55.347 163.474 56.4946 163.474 58.4333V64.2086H160.54V58.1993C160.54 57.0777 160.293 56.4909 159.884 56.0712C159.5 55.6738 158.912 55.4398 158.234 55.4398C156.993 55.4398 155.974 56.2569 155.569 56.8437V64.2086H152.635Z" fill="#2C306D"/>
<path d="M180.749 57.6384L186.506 47.8408H188.651V64.2084H185.602V55.0905L181.807 61.5195H179.684L175.889 55.0905V64.2084H172.84V47.8408H174.985L180.742 57.6384H180.749Z" fill="#2C306D"/>
<path d="M197.073 52.6357C200.391 52.6357 202.898 55.2764 202.898 58.5521C202.898 61.8279 200.391 64.4425 197.073 64.4425C193.755 64.4425 191.248 61.8242 191.248 58.5521C191.248 55.2801 193.755 52.6357 197.073 52.6357ZM197.073 61.6385C198.788 61.6385 199.964 60.2606 199.964 58.5521C199.964 56.8437 198.791 55.4435 197.073 55.4435C195.355 55.4435 194.182 56.8474 194.182 58.5521C194.182 60.2569 195.355 61.6385 197.073 61.6385Z" fill="#2C306D"/>
<path d="M205.383 64.208V47.6064H208.318V53.6863C209.175 52.9843 210.215 52.6352 211.41 52.6352C214.39 52.6352 216.783 55.209 216.783 58.5516C216.783 60.0929 216.241 61.4968 215.384 62.5256C214.412 63.6955 212.877 64.442 211.252 64.442C210.147 64.442 209.107 64.0929 208.203 63.2981V64.208H205.38H205.383ZM208.321 60.234C208.884 61.0771 209.856 61.6379 210.965 61.6379C212.615 61.6379 213.856 60.3269 213.856 58.5516C213.856 56.9137 212.751 55.443 211.033 55.443C209.903 55.443 208.935 56.0038 208.325 56.8469V60.2378L208.321 60.234Z" fill="#2C306D"/>
<path d="M220.739 46.9082C221.801 46.9082 222.658 47.7513 222.658 48.8469C222.658 49.9425 221.801 50.7856 220.739 50.7856C219.678 50.7856 218.82 49.9425 218.82 48.8469C218.82 47.7513 219.678 46.9082 220.739 46.9082ZM222.206 64.208H219.272V52.8692H222.206V64.208Z" fill="#2C306D"/>
<path d="M228.53 64.208H225.596V47.6064H228.53V64.208Z" fill="#2C306D"/>
<path d="M241.243 62.4073C240.181 63.7183 238.441 64.4425 236.748 64.4425C233.473 64.4425 231.013 62.1027 231.013 58.5521C231.013 55.3952 233.09 52.6357 236.343 52.6357C239.37 52.6357 241.515 55.2764 241.515 58.4333C241.515 58.7378 241.494 59.0424 241.447 59.2987H233.861C234.019 60.8882 235.26 61.9876 236.82 61.9876C238.061 61.9876 239.055 61.2634 239.575 60.6765L241.246 62.4073H241.243ZM238.513 57.0777C238.423 56.0712 237.541 55.0907 236.346 55.0907C235.152 55.0907 234.133 56.0489 233.997 57.0777H238.513Z" fill="#2C306D"/>
<path d="M229.373 19.399V10.4668H211.145V19.399H229.373ZM214.857 13.828H225.664V16.0378H214.857V13.828Z" fill="#2C306D"/>
<path d="M233.688 19.7862H237.49V8.54766H241.389V4.75195H208.131V8.54766H233.688V19.7862Z" fill="#2C306D"/>
<path d="M87.5391 39.332H112.77C115.922 39.332 118.243 37.4118 118.243 34.2401V24.0117H87.5391V39.332ZM91.5744 28.0934H114.208V33.0887C114.208 34.7712 113.419 35.2503 111.887 35.2503H91.5708V28.0934H91.5744Z" fill="#2C306D"/>
<path d="M111.844 11.2358L114.441 15.9897H91.2511V15.1243C91.2511 13.4419 92.0869 12.3388 93.3387 11.7149L103.077 6.76782L101.269 2.92383L91.1578 8.11228C88.0516 9.69816 86.8428 12.0974 86.8428 15.3174V20.2162H116.743L117.87 22.2812L121.442 20.3611L115.413 9.46047L111.84 11.2358H111.844Z" fill="#2C306D"/>
<path d="M206.37 25.0185H233.688V32.4613C233.688 36.4947 230.951 37.3601 227.242 37.3601V41.2969H227.845C234.108 41.2969 237.494 38.3666 237.494 32.4613V25.0185H242.132V21.3193H206.37V25.0185Z" fill="#2C306D"/>
<path d="M186.997 16.5661H201.961V12.243H186.979V4.12793H182.71V12.243H168.054V16.5661H182.502C181.161 24.1947 178.514 32.0312 166.896 36.592L168.936 40.5288C179.934 36.2503 183.413 29.3571 185.053 22.6756C187.51 29.6728 192.592 36.9597 200.939 40.5288L203.167 36.4954C193.062 31.7229 188.55 23.489 186.993 16.5661H186.997Z" fill="#2C306D"/>
<path d="M229.373 26.9385H210.774V36.1603H229.373V26.9385ZM225.664 32.7992H214.487V30.3034H225.664V32.7992Z" fill="#2C306D"/>
<path d="M264.826 16.5661H279.79V12.243H264.808V4.12793H260.493V12.243H245.883V16.5661H260.331C258.99 24.1947 256.343 32.0312 244.725 36.592L246.766 40.5288C257.763 36.2503 261.242 29.3571 262.882 22.6756C265.339 29.6728 270.421 36.9597 278.768 40.5288L280.996 36.4954C270.891 31.7229 266.379 23.489 264.822 16.5661H264.826Z" fill="#2C306D"/>
<path d="M129.445 26.7978C129.445 32.4654 128.609 35.8265 124.62 37.6018L126.894 40.8181C132.368 38.6566 133.157 33.0856 133.157 26.2667V25.9287H129.448V26.7941L129.445 26.7978Z" fill="#2C306D"/>
<path d="M125.55 5.95417L131.113 12.3868L133.85 9.74616L128.287 3.50293L125.55 5.95417Z" fill="#2C306D"/>
<path d="M125.363 15.9417L130.837 22.3297L133.667 19.6891L128.147 13.4941L125.363 15.9417Z" fill="#2C306D"/>
<path d="M139.807 30.493H160.195V22.9053H135.797V25.9805H156.436V27.5181H136.633L135.008 36.4985L138.674 37.1225L138.968 35.3917H157.842C157.286 36.7511 155.342 37.4716 149.804 37.5533V41.0593H150.22C158.524 41.0593 161.723 38.6563 161.723 33.9507V32.1271H139.524L139.804 30.493H139.807Z" fill="#2C306D"/>
<path d="M142.874 7.6331V4.8216H146.683V3.26172H149.675V4.8216H153.534V7.6331H142.874Z" fill="#2C306D"/>
<path d="M149.553 21.3126V19.7416H146.856V21.3126H144.19V16.9189H152.214V21.3126H149.553Z" fill="#2C306D"/>
<path d="M151.87 12.9033H144.538V15.7037H151.87V12.9033Z" fill="#2C306D"/>
<path d="M151.87 8.88086H144.538V11.6812H151.87V8.88086Z" fill="#2C306D"/>
<path d="M140.087 18.3739H138.011V18.255C138.011 17.8279 138.011 17.178 138.401 16.658L143.387 10.4631L141.318 8.76577L139.427 11.0424H138.011V10.2922C138.011 9.77597 138.15 9.36372 138.445 8.99603L141.235 5.34889L139.126 3.61816L135.833 7.73699C135.245 8.45379 134.983 9.21145 134.983 10.1919V13.3971H137.469L135.923 15.2578C135.241 16.0489 134.937 17.048 134.937 18.5002V21.3117H143.025V15.8521H140.087V18.3702V18.3739Z" fill="#2C306D"/>
<path d="M158.531 18.3739H156.454V18.255C156.454 17.8279 156.454 17.178 156.845 16.658L161.831 10.4631L159.761 8.76577L157.871 11.0424H156.454V10.2922C156.454 9.77597 156.594 9.36372 156.888 8.99603L159.679 5.34889L157.569 3.61816L154.277 7.73699C153.688 8.45379 153.427 9.21145 153.427 10.1919V13.3971H155.912L154.366 15.2578C153.685 16.0489 153.38 17.048 153.38 18.5002V21.3117H161.468V15.8521H158.531V18.3702V18.3739Z" fill="#2C306D"/>
<path d="M54.8724 47.1642L32.8164 33.9795V60.3489L54.8724 47.1642Z" fill="#D52B27"/>
<path d="M10.7646 47.1642L32.8207 60.3489V33.9795L10.7646 47.1642Z" fill="#EF3E23"/>
<path d="M65.6374 33.979L61.2398 16.9912L54.873 20.7981L65.6374 33.979Z" fill="#DE5498"/>
<path d="M54.8724 47.1641L49.2266 63.4091L61.2392 50.9709L54.8724 47.1641Z" fill="#4B4FA1"/>
<path d="M61.2398 50.971L65.6374 33.9795L54.873 47.1642L61.2398 50.971Z" fill="#5E5CA8"/>
<path d="M32.8171 7.61426L10.7646 20.799L32.8171 33.9799V7.61426Z" fill="#F78E1E"/>
<path d="M54.8724 47.1635V20.7979L32.8164 33.9788L54.8724 47.1635Z" fill="#EF3E23"/>
<path d="M10.7646 20.7979V47.1635L32.8207 33.9825L10.7646 20.7979Z" fill="#F26722"/>
<path d="M32.8164 67.9623L49.2266 63.409L32.8164 60.3486V67.9623Z" fill="#074E5A"/>
<path d="M54.8724 20.7978L61.2392 16.9909L49.2266 4.55273L54.8724 20.7978Z" fill="#FDB913"/>
<path d="M54.8724 20.799L32.8164 7.61426V33.9837L54.8724 20.799Z" fill="#F26722"/>
<path d="M4.39757 16.9912L0 33.979L10.7644 20.7981L4.39757 16.9912Z" fill="#FDB913"/>
<path d="M32.8168 60.3486L16.4102 63.409L32.8168 67.9623V60.3486Z" fill="#108A7A"/>
<path d="M10.7643 20.7978L16.4101 4.55273L4.39746 16.9909L10.7643 20.7978Z" fill="#FFD804"/>
<path d="M32.8168 0L16.4102 4.55336L32.8168 7.6137V0Z" fill="#FFD804"/>
<path d="M0 33.9795L4.39757 50.971L10.7644 47.1642L0 33.9795Z" fill="#FDB913"/>
<path d="M10.7643 47.1641L4.39746 50.9709L16.4101 63.4091L10.7643 47.1641Z" fill="#5AC2AC"/>
<path d="M49.2266 4.55336L32.8164 0V7.6137L49.2266 4.55336Z" fill="#FDB913"/>
<path d="M32.8164 60.3488L49.2266 63.4091L54.8724 47.1641L32.8164 60.3488Z" fill="#5E5CA8"/>
<path d="M10.7646 47.1641L16.4105 63.4091L32.8207 60.3488L10.7646 47.1641Z" fill="#13AA7E"/>
<path d="M54.8724 20.7978L49.2266 4.55273L32.8164 7.61307L54.8724 20.7978Z" fill="#F99B1C"/>
<path d="M54.873 20.7988V47.1645L65.6374 33.9835L54.873 20.7988Z" fill="#CF2B75"/>
<path d="M32.8171 7.61307L16.4105 4.55273L10.7646 20.7978L32.8171 7.61307Z" fill="#FDB913"/>
<path d="M10.7644 47.1645V20.7988L0 33.9798L10.7644 47.1645Z" fill="#F99B1C"/>
</svg>
