<svg width="137" height="62" viewBox="0 0 137 62" fill="none" xmlns="http://www.w3.org/2000/svg">
<path d="M136.947 0H0V61.4994H136.947V0Z" fill="#E60A0F"/>
<path d="M26.2128 17.9537C26.602 18.3411 26.5443 18.6587 26.3065 19.1287C26.0686 19.5987 25.1965 20.9324 23.7045 22.0947C22.1981 23.2697 20.8286 23.9112 20.252 24.1271C19.6754 24.3431 19.3294 24.2796 18.9402 23.8921L18.4717 23.4221C18.0825 23.0347 18.0392 22.5076 18.378 22.2472C18.378 22.2472 20.6556 20.9388 21.6503 20.1703C22.645 19.4018 24.4325 17.2487 24.4325 17.2487C24.764 16.9883 25.3551 17.0963 25.7443 17.4837L26.2128 17.9537Z" fill="white"/>
<path d="M26.1918 23.549L25.716 23.0727C25.3196 22.6789 24.7214 22.5773 24.3826 22.844C24.3826 22.844 22.5446 25.0479 21.5211 25.8355C20.4976 26.623 18.1623 27.9759 18.1623 27.9759C17.8164 28.2426 17.8596 28.7761 18.2488 29.1699L18.7245 29.6462C19.121 30.04 19.4741 30.0972 20.058 29.8749C20.3679 29.7606 20.9157 29.5065 21.586 29.1254V37.2424C21.586 37.7251 21.9968 38.1188 22.5086 38.1188H23.3159C23.8276 38.1188 24.2385 37.7251 24.2385 37.2424V27.2137C25.3629 26.1848 26.0692 25.1495 26.271 24.7431C26.5161 24.2604 26.5738 23.9428 26.1845 23.549H26.1918Z" fill="white"/>
<path d="M44.2762 25.0796H35.2521C35.2521 25.0796 35.216 25.086 35.1944 25.086C35.1728 25.086 35.1584 25.0796 35.1439 25.0796H33.3276C32.996 25.0796 32.7294 24.8446 32.7294 24.5525V23.441C32.7294 23.1489 32.996 22.9139 33.3276 22.9139H35.1439C35.6917 22.9139 36.1386 22.5201 36.1386 22.0374V21.4531C36.1386 20.9704 35.6917 20.5766 35.1439 20.5766H33.3276C32.996 20.5766 32.7294 20.3416 32.7294 20.0494V18.1504C32.7294 17.6677 32.2825 17.2676 31.7347 17.2676H31.0716C30.5238 17.2676 30.0769 17.6614 30.0769 18.1504V20.0494C30.0769 20.3416 29.8102 20.5766 29.4787 20.5766H27.583C27.0352 20.5766 26.5811 20.9704 26.5811 21.4531V22.0374C26.5811 22.5201 27.028 22.9139 27.583 22.9139H29.4787C29.8102 22.9139 30.0769 23.1489 30.0769 23.441V24.5525C30.0769 24.8446 29.8102 25.0796 29.4787 25.0796H27.583C27.0352 25.0796 26.5811 25.4734 26.5811 25.9561V26.5404C26.5811 27.0231 27.028 27.4169 27.583 27.4169H29.4787C29.8102 27.4169 30.0769 27.6519 30.0769 27.9441V28.9476C30.0769 29.2397 29.8102 29.4747 29.4787 29.4747H27.583C27.0352 29.4747 26.5811 29.8685 26.5811 30.3512V30.9355C26.5811 31.4182 27.028 31.812 27.583 31.812H29.4787C29.8102 31.812 30.0769 32.047 30.0769 32.3392V34.289C30.0769 34.543 29.8751 34.7526 29.6012 34.8098C27.9362 35.121 26.2712 35.4132 26.2712 35.4132C25.7162 35.5338 25.3847 36.0419 25.5288 36.5437L25.7018 37.1471C25.846 37.6488 26.1847 37.8267 26.9632 37.833C27.7416 37.833 28.8372 37.725 31.3238 37.1661C33.7961 36.6072 35.3313 35.6736 35.9296 35.3179C36.5206 34.9622 36.8161 34.6891 36.672 34.1874L36.499 33.584C36.3548 33.0823 35.7926 32.7774 35.2376 32.8981C35.2376 32.8981 34.5169 33.2156 33.5799 33.584C33.1834 33.7428 32.7294 33.4887 32.7294 33.1013V32.3392C32.7294 32.047 32.996 31.812 33.3276 31.812H35.1439C35.6917 31.812 36.1386 31.4182 36.1386 30.9355V30.3512C36.1386 29.8685 35.6917 29.4747 35.1439 29.4747H33.3276C32.996 29.4747 32.7294 29.2397 32.7294 28.9476V27.9441C32.7294 27.6519 32.996 27.4169 33.3276 27.4169H35.1439C35.1439 27.4169 35.18 27.4106 35.1944 27.4106C35.216 27.4106 35.2304 27.4169 35.2521 27.4169H37.4937C37.8324 27.4169 38.1063 27.6583 38.1063 27.9568V37.2423C38.1063 37.725 38.5172 38.1188 39.0289 38.1188H39.8362C40.3479 38.1188 40.7588 37.725 40.7588 37.2423V27.9568C40.7588 27.6583 41.0327 27.4169 41.3714 27.4169H44.2689C44.8167 27.4169 45.2636 27.0231 45.2636 26.5404V25.9561C45.2636 25.4734 44.8167 25.0796 44.2689 25.0796H44.2762Z" fill="white"/>
<path d="M39.5841 17.1268C39.5336 17.1268 39.4904 17.1268 39.4399 17.1268C39.3895 17.1268 39.3462 17.1205 39.2958 17.1268C37.8038 17.1967 36.8307 18.4289 37.0758 19.7944C37.3209 21.1345 39.1156 23.9164 39.1156 23.9164C39.1805 24.037 39.3102 24.0942 39.4327 24.0942C39.5625 24.0942 39.6922 24.037 39.7499 23.9164C39.7499 23.9164 41.5446 21.1345 41.7897 19.7944C42.0419 18.4289 41.0617 17.1967 39.5697 17.1268H39.5841ZM39.4399 20.3342C38.8129 20.3342 38.3011 19.8833 38.3011 19.3307C38.3011 18.7782 38.8129 18.3272 39.4399 18.3272C40.067 18.3272 40.5788 18.7782 40.5788 19.3307C40.5788 19.8833 40.067 20.3342 39.4399 20.3342Z" fill="white"/>
<path d="M41.0192 12.1426H22.1854C17.695 12.1426 14.0479 15.3627 14.0479 19.3132V35.909C14.0479 39.8659 17.7022 43.0796 22.1854 43.0796H41.0192C45.5096 43.0796 49.1568 39.8595 49.1568 35.909V19.3132C49.1568 15.3563 45.5024 12.1426 41.0192 12.1426ZM47.0449 35.9154C47.0449 38.8433 44.342 41.2187 41.0264 41.2187H22.1926C18.8698 41.2187 16.1741 38.837 16.1741 35.9154V19.3195C16.1741 16.3916 18.877 14.0162 22.1926 14.0162H41.0264C44.3492 14.0162 47.0449 16.3979 47.0449 19.3195V35.9154Z" fill="white"/>
<path d="M71.4064 19.0142L55.8016 18.9951C53.9204 18.9951 53.005 19.8208 53.005 21.4531L52.9834 35.1019C52.9834 36.7596 53.8916 37.5662 55.7728 37.5662L71.3776 37.5853C73.2299 37.5853 74.1742 36.785 74.1742 35.1274L74.1958 21.4785C74.1958 19.8462 73.2588 19.0142 71.4064 19.0142ZM71.2262 34.2445C71.2262 34.5176 71.1397 34.7272 70.9667 34.8733C70.8009 35.013 70.5703 35.0829 70.2748 35.0829L56.8972 35.0702C56.2773 35.0702 55.9458 34.778 55.9458 34.2318L55.9602 22.3422C55.9602 22.0818 56.0395 21.8786 56.1981 21.7325C56.3638 21.5801 56.6017 21.5039 56.9044 21.5039L70.282 21.5166C70.8802 21.5166 71.2334 21.8341 71.2334 22.3549L71.219 34.2445H71.2262Z" fill="white"/>
<path d="M56.3937 51.4251C56.0117 51.7236 55.4351 51.876 54.6638 51.876C53.7989 51.876 53.0421 51.5394 52.3862 50.8534C52.1988 50.6756 52.1123 50.5105 52.1123 50.3707C52.1123 50.2501 52.1555 50.1358 52.2565 50.0405C52.3502 49.9516 52.4655 49.9008 52.6096 49.9008C52.7826 49.9008 52.9196 49.9706 53.0565 50.0849C53.4097 50.4343 53.6403 50.6502 53.7629 50.7328C54.0584 50.9487 54.3755 51.0567 54.6927 51.0567C55.1396 51.0567 55.4567 50.9678 55.6441 50.7899C55.8243 50.6121 55.918 50.3263 55.918 49.9262V47.157C55.918 47.0236 55.9684 46.9093 56.0694 46.8204C56.1703 46.7378 56.3 46.6934 56.4586 46.6934C56.6171 46.6934 56.7397 46.7378 56.8406 46.8204C56.9415 46.9093 56.9919 47.0236 56.9919 47.157V49.9579C56.9919 50.6312 56.7901 51.1202 56.3865 51.4378L56.3937 51.4251Z" fill="white"/>
<path d="M65.2311 51.7368C65.1157 51.8257 64.9788 51.8702 64.8418 51.8702C64.6544 51.8702 64.5031 51.7939 64.395 51.6542L62.42 49.2217L61.447 49.8632V51.4065C61.447 51.5399 61.3965 51.6542 61.3028 51.7431C61.2019 51.8257 61.0722 51.8702 60.928 51.8702C60.7551 51.8702 60.6253 51.8257 60.5244 51.7431C60.4235 51.6542 60.373 51.5462 60.373 51.4065V47.1385C60.373 47.0051 60.4163 46.8971 60.5172 46.8082C60.6109 46.7193 60.7262 46.6748 60.8848 46.6748C61.0434 46.6748 61.1803 46.7193 61.2884 46.7955C61.3893 46.8844 61.447 46.9987 61.447 47.1385V48.6945L64.3445 46.7701C64.4454 46.7002 64.5535 46.6621 64.6689 46.6621C64.813 46.6621 64.9428 46.7129 65.0509 46.8018C65.1518 46.8971 65.2094 47.0114 65.2094 47.1448C65.2094 47.2972 65.1302 47.4116 65.0004 47.5005L63.2778 48.6501L65.2959 51.1461C65.3608 51.235 65.404 51.3239 65.404 51.4065C65.404 51.5335 65.3464 51.6352 65.2311 51.7304V51.7368Z" fill="white"/>
<path d="M72.092 51.1393C71.6163 51.622 70.9316 51.8697 70.0306 51.8697C69.1296 51.8697 68.4593 51.622 67.962 51.1329C67.4791 50.6629 67.2412 50.0341 67.2412 49.2529C67.2412 48.4717 67.4791 47.8811 67.9692 47.4111C68.4665 46.9284 69.1441 46.6807 70.0018 46.6807C70.8595 46.6807 71.5154 46.9284 72.0272 47.4174C72.5101 47.8938 72.7551 48.5098 72.7551 49.2529C72.7551 50.0595 72.5245 50.6883 72.0848 51.1456L72.092 51.1393ZM71.3136 48.0525C71.0109 47.6969 70.5856 47.5127 70.0234 47.5127C69.4612 47.5127 69.0287 47.6905 68.726 48.0525C68.4449 48.3828 68.308 48.7893 68.308 49.2974C68.308 49.8055 68.4449 50.1993 68.7332 50.5168C69.0359 50.8598 69.4684 51.0313 70.0234 51.0313C70.5784 51.0313 71.0037 50.8598 71.3064 50.5168C71.5659 50.212 71.7028 49.8055 71.7028 49.2974C71.7028 48.7893 71.5659 48.3701 71.3136 48.0525Z" fill="white"/>
<path d="M79.7838 49.5269C79.445 49.8382 79.0197 49.9969 78.5224 49.9969H76.2087V51.445C76.2087 51.7308 76.0213 51.8706 75.6681 51.8706C75.315 51.8706 75.1348 51.7181 75.1348 51.4387V47.5453C75.1348 47.3167 75.2285 47.1262 75.4231 46.9928C75.5961 46.8721 75.8195 46.8086 76.0934 46.8086H78.6017C79.0918 46.8086 79.5027 46.9674 79.8198 47.2659C80.1369 47.5771 80.2955 47.9518 80.2955 48.3837C80.2955 48.8156 80.1225 49.2157 79.7838 49.5269ZM79.0197 47.8629C78.8756 47.7232 78.6882 47.647 78.472 47.647H76.5114C76.3096 47.647 76.2087 47.7613 76.2087 47.9836V49.1522H78.472C78.6954 49.1522 78.8756 49.076 79.0197 48.9299C79.1567 48.7775 79.2288 48.606 79.2288 48.4028C79.2288 48.1995 79.1495 48.0217 79.0197 47.8693V47.8629Z" fill="white"/>
<path d="M87.474 51.7299C87.337 51.8252 87.1857 51.8824 87.0127 51.8824C86.7892 51.8824 86.6379 51.7871 86.537 51.5902L86.1045 50.7772H83.0989L82.6664 51.5902C82.5655 51.7871 82.3925 51.8824 82.1763 51.8824C82.0033 51.8824 81.8591 51.8316 81.7366 51.7299C81.5997 51.622 81.542 51.514 81.542 51.3616C81.542 51.2853 81.5564 51.2028 81.6069 51.1202L84.0142 46.9538C84.1152 46.7696 84.3098 46.668 84.5981 46.668C84.8864 46.668 85.081 46.7632 85.1891 46.9538L87.5893 51.1202C87.6397 51.2028 87.6614 51.2853 87.6614 51.3616C87.6614 51.514 87.5965 51.622 87.4668 51.7299H87.474ZM84.5981 47.9763L83.5385 49.9325H85.6648L84.5981 47.9763Z" fill="white"/>
<path d="M94.2051 47.3984L92.0356 49.8944V51.406C92.0356 51.5457 91.9851 51.6601 91.8842 51.749C91.7833 51.8316 91.6608 51.876 91.5094 51.876C91.3508 51.876 91.2211 51.8316 91.1202 51.749C91.0193 51.6601 90.9688 51.5457 90.9688 51.406V49.8944L88.7993 47.3984C88.7128 47.3094 88.6768 47.2205 88.6768 47.1189C88.6768 46.9919 88.7344 46.8903 88.8642 46.795C88.9795 46.7124 89.1236 46.668 89.2822 46.668C89.4408 46.668 89.5633 46.7378 89.6714 46.8649L91.5022 49.0815L93.3257 46.8649C93.4267 46.7378 93.5636 46.668 93.715 46.668C93.8663 46.668 94.0033 46.7124 94.133 46.795C94.2556 46.8839 94.3204 46.9919 94.3204 47.1189C94.3204 47.2142 94.2772 47.3031 94.2123 47.3984H94.2051Z" fill="white"/>
<path d="M124.759 20.8826C124.55 20.7175 124.204 20.6286 123.786 20.6286H121.725V17.5355C121.703 16.8115 121.227 16.4431 120.276 16.4431C119.324 16.4875 118.82 16.8623 118.82 17.5355V20.6286L110.372 20.6222C109.897 20.6222 109.579 20.7111 109.392 20.8509C109.125 21.0351 109.024 21.3844 109.024 21.8988C109.024 22.3625 109.125 22.6927 109.392 22.8769C109.63 23.0611 109.947 23.1564 110.365 23.1564H118.813L118.798 34.5379C118.798 34.7729 118.668 34.8872 118.402 34.8872C117.948 34.8872 112.909 35.1666 107.05 35.0587L107.064 22.2926C107.698 20.9906 108.174 19.7585 108.52 18.5962C108.599 18.2913 108.65 17.9674 108.707 17.6181C108.707 17.1544 108.52 16.8242 108.181 16.6654C107.864 16.5257 107.446 16.4304 106.97 16.4304C106.545 16.5002 106.228 16.7543 106.048 17.1735C105.017 20.311 103.503 23.2898 101.521 26.1224C101.312 26.4019 101.175 26.6559 101.175 26.8909C101.175 27.2657 101.305 27.5642 101.593 27.7738C101.91 28.0278 102.329 28.1485 102.833 28.1485C103.359 28.1485 103.756 27.9897 104.073 27.615C104.102 27.5705 104.123 27.5197 104.181 27.4752V34.9698C99.5463 34.7792 94.8036 34.2902 91.6322 33.2041C91.8196 33.1088 92.0286 33.0199 92.2377 32.9056C94.3279 31.7433 95.9641 30.4921 97.1533 29.1647C97.9966 28.1167 98.4507 27.2339 98.53 26.5162C98.53 25.8176 98.2417 25.3285 97.6579 25.0046C97.3119 24.8395 96.6848 24.7506 95.7334 24.6997H90.0609V21.6003H99.3517C99.8274 21.613 100.195 21.4923 100.433 21.2383C100.591 21.0541 100.7 20.8001 100.7 20.4253C100.7 19.9617 100.599 19.6568 100.382 19.5171C100.173 19.3329 99.8274 19.2376 99.3517 19.2376H90.0609V17.2306C90.0609 16.8559 89.9024 16.5574 89.614 16.3224C89.405 16.1573 89.0374 16.0684 88.5329 16.0684C87.9491 16.0684 87.5815 16.1636 87.3941 16.3224C87.1058 16.6019 86.9688 16.9004 86.9688 17.2306V19.2313L78.0961 19.2249C77.6492 19.2249 77.3032 19.3202 77.0654 19.5044C76.8563 19.714 76.7482 20.0125 76.7482 20.4126C76.7482 20.8572 76.8491 21.1557 77.0654 21.3209C77.3032 21.5051 77.642 21.6003 78.0961 21.6003H86.9688V24.7061H78.9178C78.5213 24.6997 78.233 24.7887 78.0168 24.9538C77.7789 25.1634 77.6708 25.4428 77.6708 25.7922C77.6708 26.1669 77.7501 26.4463 77.9591 26.6305C78.0889 26.8655 78.406 26.9544 78.9105 26.9544H80.0998C79.862 27.164 79.7539 27.4435 79.7539 27.7928C79.7827 28.1675 80.1214 28.6566 80.8062 29.2854C82.4423 30.8668 83.9992 32.1053 85.4696 33.0326C83.1992 33.7757 80.4025 34.5379 77.0437 35.3254C76.6761 35.5096 76.5176 35.8843 76.5176 36.4178C76.5176 36.6528 76.6473 36.9069 76.914 37.1419C77.1807 37.3769 77.5483 37.5166 77.9663 37.5166C78.7592 37.4722 79.9196 37.2626 81.426 36.8688C84.1217 36.1066 86.4426 35.3381 88.4536 34.595C97.8381 38.5265 117.515 37.4658 118.568 37.4658C119.62 37.3705 120.391 37.1673 120.867 36.8624C121.393 36.4877 121.689 36.0241 121.689 35.4652L121.703 23.1818H123.764C124.291 23.1818 124.665 23.0675 124.903 22.788C125.033 22.6483 125.112 22.3434 125.112 21.9242C125.112 21.3907 124.982 21.0414 124.745 20.9017L124.759 20.8826ZM88.5545 31.8703C88.4248 31.8259 88.2878 31.756 88.1869 31.6861C86.1039 30.5239 84.3884 29.1901 83.019 27.7039C82.8316 27.5197 82.6009 27.2847 82.3342 27.0307C82.3054 27.0307 82.2838 26.9862 82.2549 26.9354L94.609 26.9481C94.8757 26.9481 95.0343 27.018 95.0343 27.1323C94.9262 27.6467 94.3495 28.32 93.3404 29.1075C92.0214 30.1301 90.5366 31.0129 88.85 31.756C88.7419 31.8005 88.6626 31.8259 88.5617 31.8703H88.5545Z" fill="white"/>
<path d="M113.501 31.6417C113.63 31.737 113.847 31.7814 114.164 31.7814C114.611 31.7814 114.957 31.6925 115.223 31.4575C115.411 31.3178 115.512 31.1082 115.512 30.7843C115.512 30.0856 115.223 29.2473 114.697 28.2247C113.746 26.548 112.982 25.481 112.434 24.9665C112.117 24.7823 111.778 24.6616 111.403 24.6172C111.137 24.6172 110.899 24.6616 110.69 24.7315C110.401 24.8712 110.185 25.0364 110.055 25.246C109.976 25.4302 109.947 25.5699 109.947 25.7096C109.947 25.9446 110.027 26.1288 110.156 26.313C111.526 28.4978 112.528 30.1555 113.133 31.2479C113.241 31.4321 113.342 31.5718 113.501 31.6417Z" fill="white"/>
</svg>
