<svg width="165" height="64" viewBox="0 0 165 64" fill="none" xmlns="http://www.w3.org/2000/svg">
<path d="M54.9805 6.54057L55.6625 3.77785H64.5878L65.3815 0.557617H70.1793L69.3797 3.77785H80.3981L79.7102 6.54057H54.9805Z" fill="#0F75B4"/>
<path d="M47.1075 32.4025V16.923C47.1075 16.923 45.0967 19.6447 43.1094 21.6508V15.7499C43.4739 15.2279 48.2011 9.81389 49.8474 1.19727H54.6158L51.6936 11.7378V32.3966H47.1075V32.4025Z" fill="#0F75B4"/>
<path d="M73.8066 32.4018L73.6067 31.5748H61.1654L60.9596 32.4018H55.9561V20.999H78.8102V32.4018H73.8066ZM60.9243 28.4836H73.836V24.2134H60.9243V28.4836Z" fill="#0F75B4"/>
<path d="M78.4461 9.81934H56.3916V12.7815H78.4461V9.81934Z" fill="#0F75B4"/>
<path d="M78.4461 15.6504H56.3916V18.3779H78.4461V15.6504Z" fill="#0F75B4"/>
<path d="M5.87963 32.4018V27.3749H0L0.623241 24.8703H5.88551V22.6296H0.687916V8.72221H5.87963V6.6927H0L0.62912 4.14114H5.87963V0H10.0071V4.14114H15.3399L14.7108 6.6927H10.0071V8.72221H15.1988V22.6355H10.0071V24.8762H15.1988V27.3808H10.0071V32.4077H5.87963V32.4018ZM10.0071 19.6206H12.4178V17.0162H10.0071V19.6206ZM3.46898 19.6206H5.87963V17.0162H3.46898V19.6206ZM10.0071 14.2711H12.4178V11.7313H10.0071V14.2711ZM3.46898 14.2711H5.87963V11.7313H3.46898V14.2711Z" fill="#0F75B4"/>
<path d="M36.2011 6.75131L36.8478 4.14697H33.8492L33.3436 2.094H29.5806L30.0921 4.14697H28.3459V0.0351562H24.1831V4.14697H17.3157L16.6689 6.75131H24.1772V10.1475H17.0217V32.0205L20.8788 31.5336V25.7384H24.1772V31.5982H28.34V25.7384H31.8678V26.9233C31.8678 29.7036 30.5331 32.3724 30.5331 32.3724H32.4499C35.2015 32.3724 35.7248 30.6069 35.7248 27.7562V10.1475H28.34V6.75131H36.2011ZM24.1772 23.0402H20.8788V19.38H24.1772V23.0402ZM24.1772 16.8344H20.8788V13.1742H24.1772V16.8344ZM31.8737 23.0402H28.3459V19.38H31.8737V23.0402ZM31.8737 13.1742V16.8344H28.3459V13.1742H31.8737Z" fill="#0F75B4"/>
<path d="M91.7984 32.4009V19.3499C90.8283 21.919 88.6704 26.2244 87.2652 27.9841L85.9658 22.7343C90.8988 18.2471 91.6926 13.7071 91.6926 13.7071H86.2951V10.5983H91.7925V5.98792C91.7925 5.98792 89.7053 6.21668 86.5361 6.03485L87.3064 2.93192C93.2272 3.00231 96.4374 2.07554 100.594 0.837891L101.435 4.2341C98.6364 5.28991 96.4962 5.57146 96.4962 5.57146V10.5983H102.682L101.911 13.7071H100.3L102.041 20.7341L98.2719 21.2386L96.5315 14.2115L96.4962 31.7674L91.7925 32.395L91.7984 32.4009Z" fill="#2EBBEE"/>
<path d="M104.022 13.4548L108.82 12.8037L110.684 19.5492L105.886 20.2003L104.022 13.4548Z" fill="#2EBBEE"/>
<path d="M104.828 4.01104L109.473 2.81445L111.272 10.0702L106.469 10.604L104.828 4.01104Z" fill="#2EBBEE"/>
<path d="M113.259 32.4011V25.3682L101.33 26.9636L100.342 23.5615L113.259 21.8194V0.691406H118.386V21.1214L121.585 20.6874L122.696 24.1364L118.386 24.6995V32.4011H113.259Z" fill="#2EBBEE"/>
<path d="M155.392 25.4976C155.392 25.4976 160.949 21.8785 163.577 16.8986V13.3264H154.61V8.07082H162.907V4.72154H154.61V0.28125H149.636V4.70981H142.169V8.05909H149.636V13.3147H140.717L141.505 16.4763H157.779C155.539 21.38 152.041 23.4271 152.041 23.4271C152.041 23.4271 149.442 21.4386 148.29 18.8167L142.069 18.7932C144.009 21.685 148.672 25.5973 148.672 25.5973C148.672 25.5973 146.779 27.1283 140.911 27.6034V32.5364C148.002 31.4043 152.041 27.7383 152.041 27.7383C152.041 27.7383 156.362 31.4513 163.424 32.9411L165.006 28.2838C159.438 27.6973 155.398 25.4976 155.398 25.4976H155.392Z" fill="#2EBBEE"/>
<path d="M137.054 17.0042V9.71906H139.858V6.70999H137.054V0.28125H132.391V6.70413H128.775V9.7132H132.391V17.6318L127.111 18.3533L127.911 21.5677L132.391 20.9987V28.5067C131.345 28.5067 130.31 28.4657 129.157 28.3307C130.145 29.5801 130.751 30.853 130.998 32.3956C130.998 32.3956 134.643 32.3956 137.054 31.68V29.8441V20.3711L140.864 19.8608L140.058 16.6112L137.048 16.9983L137.054 17.0042Z" fill="#2EBBEE"/>
<path d="M45.2435 47.0073C44.3616 46.6026 41.7745 45.6875 38.7936 45.6875C36.33 45.6875 34.3721 46.6788 33.9723 48.1511C32.861 52.2923 45.8432 52.1456 44.1969 58.2752C43.0916 62.387 38.2115 64.0001 32.6552 64.0001C29.5684 64.0001 26.6521 63.4839 25.8643 63.261L26.6815 60.2167C27.7928 60.7329 30.6738 61.9354 33.9076 61.9354C36.7768 61.9354 39.064 61.0907 39.5932 59.114C40.7867 54.6737 27.7693 54.9318 29.4097 48.8374C30.2681 45.6465 34.0663 43.8164 39.7696 43.8164C42.3096 43.8164 44.9319 44.1801 45.9608 44.3267L45.2435 47.0014V47.0073Z" fill="#0F75B4"/>
<path d="M51.5699 44.1094H55.5739L53.0809 53.3947H53.1574C54.0863 52.4034 56.6028 49.8694 60.795 49.8694C64.1464 49.8694 65.0401 51.8872 64.5168 53.8287L61.8651 63.7065H57.8199L60.0894 55.2658C60.5481 53.5413 60.5892 52.0397 58.5607 52.0397C54.5861 52.0397 52.2637 56.4448 51.8227 58.0931L50.3175 63.7065H46.3135L51.5757 44.1094H51.5699Z" fill="#0F75B4"/>
<path d="M78.9161 60.4748H78.8455C77.9224 61.4661 75.4353 64.0001 71.2784 64.0001C67.8918 64.0001 66.9922 62.0175 67.5272 60.0349L70.1672 50.2041H74.2124L71.9487 58.6448C71.496 60.3282 71.449 61.8709 73.4715 61.8709C77.4403 61.8709 79.7627 57.4658 80.2037 55.8175L81.7148 50.21H85.7247L82.097 63.7127H78.0459L78.9161 60.4807V60.4748Z" fill="#0F75B4"/>
<path d="M96.7374 63.8128C95.8849 63.9535 94.8148 63.9946 93.8917 63.9946C90.1052 63.9946 88.1473 63.1851 88.8646 60.5397L91.2459 51.665H88.1943L88.5883 50.1986H91.6398L92.4982 47.0018L96.9667 45.2773L95.6497 50.1986H100.836L100.442 51.665H95.2558L93.1803 59.4077C92.6393 61.4254 92.6746 62.3815 95.2499 62.3815C95.9084 62.3815 96.5904 62.3112 97.1843 62.1587L96.7433 63.8128H96.7374Z" fill="#0F75B4"/>
<path d="M107.949 63.8128C107.097 63.9535 106.027 63.9946 105.109 63.9946C101.317 63.9946 99.3298 63.1851 100.035 60.5397L102.422 51.665H99.4121L99.806 50.1986H102.822L103.681 47.0018L108.19 45.2773L106.873 50.1986H112.059L111.665 51.665H106.479L104.398 59.4077C103.857 61.4254 103.857 62.3815 106.468 62.3815C107.091 62.3815 107.773 62.3112 108.396 62.1587L107.955 63.8128H107.949Z" fill="#0F75B4"/>
<path d="M116.263 44.1094H120.273L115.005 63.7065H110.995L116.263 44.1094Z" fill="#0F75B4"/>
<path d="M132.55 54.1286H125.23C125.547 53.3543 126.735 51.1195 129.822 51.1195C132.909 51.1195 132.826 53.0962 132.544 54.1286H132.55ZM124.812 55.4073H136.178C136.872 52.8088 136.525 49.8701 130.38 49.8701C124.236 49.8701 121.555 52.6211 120.55 56.3575C119.092 61.795 122.725 63.9946 127.987 63.9946C130.375 63.9946 131.933 63.7013 133.708 63.2262L134.055 61.9357C132.785 62.3111 131.521 62.4871 130.304 62.4871C124.607 62.4871 124.107 58.0468 124.818 55.4073H124.812Z" fill="#0F75B4"/>
<path d="M138.936 43.8223C140.329 43.8223 141.44 44.9367 141.44 46.3328C141.44 47.7288 140.329 48.855 138.924 48.855C137.519 48.855 136.396 47.7522 136.396 46.3328C136.396 44.9133 137.53 43.8223 138.924 43.8223H138.936ZM138.924 44.2094C137.801 44.2094 136.884 45.1596 136.884 46.3269C136.884 47.4942 137.801 48.4561 138.93 48.4561C140.064 48.4679 140.97 47.5176 140.97 46.3386C140.97 45.1596 140.064 44.2094 138.93 44.2094H138.918H138.924ZM138.453 47.7874H138.001V44.9895C138.236 44.9543 138.465 44.925 138.806 44.925C139.235 44.925 139.518 45.013 139.688 45.1362C139.859 45.2593 139.953 45.4471 139.953 45.7169C139.953 46.0864 139.7 46.3093 139.4 46.3973V46.4207C139.653 46.4618 139.817 46.6906 139.876 47.1012C139.941 47.5352 140.011 47.6995 140.059 47.7933H139.582C139.518 47.7053 139.447 47.4472 139.388 47.0777C139.318 46.7199 139.135 46.5908 138.777 46.5908H138.459V47.7933L138.453 47.7874ZM138.453 46.2389H138.783C139.159 46.2389 139.476 46.104 139.476 45.7579C139.476 45.5116 139.294 45.2652 138.783 45.2652C138.636 45.2652 138.536 45.2769 138.453 45.2887V46.2389Z" fill="#0F75B4"/>
</svg>
