<svg width="273" height="53" viewBox="0 0 273 53" fill="none" xmlns="http://www.w3.org/2000/svg">
<g clip-path="url(#clip0_2717_7722)">
<path d="M41.8221 20.7639C39.1232 19.7178 34.5234 20.9222 32.8722 22.4225C34.0516 21.3558 38.367 21.4866 38.811 23.2966C39.4424 25.8499 34.6136 28.8574 32.7889 30.1444C30.1317 32.0232 28.0295 34.4733 26.8431 37.4327C25.5457 40.6673 25.1294 44.4869 27.1276 47.5358C37.6801 63.6677 89.0276 38.9399 89.0276 38.9399L92.8574 11.1426C92.8019 11.177 92.7533 11.2183 92.6978 11.2596C83.956 17.5843 56.4541 40.454 42.058 37.0335C40.5941 36.6825 39.4007 35.2854 39.1995 33.5786C38.7208 29.4906 44.1393 27.4741 43.8549 23.4549C43.7577 22.0578 42.9599 21.2182 41.8151 20.7708L41.8221 20.7639Z" fill="url(#paint0_linear_2717_7722)"/>
<path d="M50.9035 33.145C50.9035 33.145 50.959 33.1795 50.9867 33.1932C53.0057 34.3976 55.4617 33.2964 57.0505 31.9682C55.9335 32.8973 54.5598 31.0666 54.6569 30.165C54.8442 28.4376 56.9464 27.0887 57.994 25.9462C62.3302 21.2457 67.6308 13.3311 64.37 6.36631C54.6638 -14.3492 3.82973 22.1128 3.82973 22.1128L0 42.5393C7.00729 37.4189 12.9184 32.8491 20.3212 28.3137C26.1004 24.7763 32.0115 21.3764 38.1863 18.5547C42.5225 16.5726 47.6496 14.2052 52.5547 14.4667C59.8465 14.859 52.3743 25.086 50.952 28.1073C50.1889 29.7383 49.0233 31.9338 50.9035 33.1382V33.145Z" fill="url(#paint1_linear_2717_7722)"/>
<path d="M57.5224 8.57582C57.1061 10.7162 55.0178 12.4436 52.867 12.4436C50.7163 12.4436 49.3079 10.7162 49.7172 8.57582C50.1335 6.43545 52.2218 4.70801 54.3726 4.70801C56.5233 4.70801 57.9387 6.43545 57.5224 8.57582Z" fill="white"/>
<path d="M102.549 15.0239C102.528 14.9413 102.528 14.8725 102.59 14.8312L103.041 14.8932C103.319 14.9964 103.576 15.1684 103.77 15.4231C103.923 15.5951 104.006 15.8498 104.047 16.187C106.143 15.5332 108.196 15.0446 110.222 14.6798C112.04 14.3839 113.837 14.1912 115.606 14.1499C115.821 14.1499 115.988 14.1086 116.099 14.026L116.48 13.9228C116.654 13.9228 116.862 14.0053 117.098 14.1568L117.569 14.5628L117.909 14.8587L118.36 15.3267L118.534 15.8154C118.596 16.0081 118.596 16.1526 118.555 16.2627C118.492 16.3659 118.402 16.4554 118.298 16.5174L117.764 16.5999H117.209L116.418 16.8339C116.099 16.9165 115.8 16.9578 115.502 16.9578L114.475 17.0404C114.322 17.0611 114.218 17.0611 114.177 16.9991C114.135 16.9372 114.198 16.8546 114.392 16.7445C114.822 16.4279 115.287 15.9599 115.738 15.3887C115.842 15.2373 115.911 15.1134 115.89 15.0514C115.87 14.9895 115.786 14.9689 115.655 14.9895C113.178 15.2235 111.166 15.4781 109.563 15.7741C107.468 16.2008 105.886 16.6412 104.838 17.1505L104.346 17.4052L104.131 17.3432H104.047V18.0246C104.027 18.2173 103.964 18.4719 103.812 18.7885L103.617 19.167L103.298 19.4423L102.979 19.6144C102.875 19.635 102.785 19.5731 102.743 19.4629C102.681 19.2909 102.57 19.1051 102.382 18.933C102.257 18.761 102.188 18.527 102.167 18.2517C102.146 17.9144 102.271 16.9991 102.549 15.5607V15.0308V15.0239ZM109.73 17.5497C109.431 17.9557 109.001 18.3962 108.467 18.8848L108.404 19.0087H108.536L110.777 18.2654L111.866 17.9282L111.762 17.6736L111.638 17.2675C111.658 17.2056 111.7 17.1849 111.762 17.2056H112.123C112.574 17.1849 112.977 17.2882 113.296 17.5015C113.656 17.7562 113.851 18.0727 113.892 18.4581C113.934 18.7334 113.892 19.0294 113.809 19.284C113.684 19.5593 113.511 19.7314 113.296 19.752C113.081 19.7726 112.914 19.7107 112.72 19.518L112.206 18.8573C111.61 18.9605 110.985 19.112 110.347 19.346L110.43 19.3872L110.881 19.7451L110.923 20.103L110.881 20.3783L111.693 20.0823L111.971 20.0411L112.352 20.1718L112.734 20.4884L112.949 20.7637C112.97 20.8256 112.907 20.9357 112.755 21.1216L112.581 21.3969C112.581 21.4588 112.449 21.5001 112.199 21.5689L110.874 21.9061V22.7527C112.047 22.6907 112.928 22.6907 113.525 22.7527C113.844 22.7733 114.059 22.7526 114.253 22.6701L114.489 22.5187L114.85 22.7114L115.488 23.0692C115.641 23.1312 115.724 23.2206 115.766 23.3445L115.87 23.6818C115.89 23.8332 115.89 23.9364 115.828 24.0396L115.634 24.3356L115.315 24.5696C115.252 24.6315 115.183 24.6521 115.1 24.6315L114.905 24.5696C113.962 24.3975 113.025 24.3562 112.082 24.3769C110.756 24.4388 109.473 24.5902 108.231 24.7829L106.608 25.0995L106.198 25.2027L106.004 25.1201L105.768 24.8036L105.449 24.3562L105.275 24.019L105.192 23.723V23.4684L105.345 23.3858L105.622 23.4478H106.004C106.92 23.1931 107.905 23.0004 108.973 22.8972L109.015 22.7045V22.2571L108.12 22.3604H107.759L107.44 22.1883L107.079 21.8304L106.823 21.5551L106.691 21.3005C106.628 21.1491 106.691 21.1078 106.906 21.1284C107.287 21.1904 107.801 21.1697 108.509 21.0252L109.022 20.9013V20.5641L108.897 19.9722L108.855 19.869L107.981 20.2062L107.53 20.4196C107.336 20.5228 107.079 20.4402 106.76 20.1649C106.545 19.9516 106.42 19.7176 106.358 19.4217C106.295 19.1257 106.358 18.9743 106.531 18.933L107.218 18.761C107.371 18.7403 107.627 18.4444 107.967 17.8938L108.092 17.7011H107.579C107.405 17.6805 107.281 17.6392 107.197 17.5497L106.92 17.2331L106.795 17.0198C106.753 16.9578 106.753 16.889 106.795 16.8684L107.204 16.7169C107.655 16.6963 108.446 16.5449 109.598 16.2902C110.493 16.0769 111.263 15.8223 111.929 15.5263L112.123 15.5057L112.574 15.6295L112.935 15.781L113.039 16.015L112.866 16.5036C112.824 16.5862 112.692 16.655 112.456 16.6756L109.827 17.2262L109.723 17.5222L109.73 17.5497ZM110.909 6.29037L111.721 6.01508L111.957 5.95314L112.727 6.33167C112.831 6.41425 112.9 6.54502 112.9 6.68954C112.9 6.88225 112.859 7.00613 112.775 7.11624C112.644 7.26077 112.477 7.37088 112.262 7.41218L111.089 7.68747L110.916 8.25869L110.743 8.72668L111.381 8.55463H111.853L112.255 8.61657C112.428 8.61657 112.533 8.67851 112.595 8.78862L112.637 9.00197V9.15338L112.595 9.30479L112.491 9.49749L112.338 9.66955L112.019 9.8416C111.013 10.2408 110.118 10.5229 109.348 10.6881L107.704 10.9634H107.468C107.364 10.9841 107.19 10.812 106.975 10.4128L106.76 9.88289L106.823 9.80031L107.1 9.73837L108.855 9.22908L108.897 8.80239V8.33439L107.787 8.67162L107.378 8.73356C107.163 8.73356 106.968 8.65098 106.781 8.49957L106.309 8.01093C106.157 7.77693 106.073 7.63241 106.094 7.54294C106.115 7.43971 106.094 7.32959 106.011 7.22636V7.0543L106.073 6.93042H106.177L106.302 6.99236H106.497L107.648 6.88913L108.8 6.71707L108.675 6.01508C108.613 5.6985 108.633 5.54709 108.737 5.60903C108.8 5.65033 108.89 5.62968 108.994 5.56774C109.057 5.5058 109.272 5.56774 109.632 5.71915L110.874 6.26973L110.895 6.29037H110.909ZM112.533 10.6124C113.171 11.0391 113.518 11.3144 113.539 11.5002C113.539 11.6516 113.407 11.8581 113.178 12.1127L112.581 12.856H112.623L112.796 12.918L112.879 13.152L112.796 13.3859L112.734 13.5786L112.581 13.6612L112.283 13.7025C111.062 13.7851 109.612 14.1017 107.988 14.6592H107.731L107.607 14.5766C107.523 14.5972 107.482 14.5972 107.454 14.5353L107.371 14.4527L107.267 14.3288L107.183 14.1568L107.142 14.0948L107.01 13.7782L106.649 12.6977L106.24 11.9957C106.136 11.8512 106.136 11.7617 106.198 11.7617L106.323 11.6792L106.705 11.6379L107.343 11.6792L111.873 10.6606C112.13 10.5092 112.366 10.5092 112.539 10.6193L112.533 10.6124ZM107.87 12.6289L107.933 12.9248L107.974 13.5374L108.828 13.3034L110.257 12.9661L110.895 12.8629L111.561 11.9476L111.665 11.6516C111.603 11.569 111.367 11.5897 110.937 11.6929L107.856 12.6289H107.87Z" fill="black"/>
<path d="M128.865 23.2764L128.546 23.5104L128.185 23.5517C128.06 23.5724 127.97 23.5104 127.949 23.4072L127.776 22.9185L127.671 22.2166L127.63 21.6247L126.11 22.7878L125.535 23.0837L125.104 22.9805C124.764 22.8291 124.418 22.5744 124.015 22.1959C123.738 21.9206 123.696 21.7279 123.911 21.5834L124.383 21.3081C125.021 20.9915 125.729 20.5648 126.52 19.9936L127.526 19.3123V18.569L127.463 16.8484L127.082 17.1031L126.443 17.3577C126.145 17.4197 125.805 17.3577 125.479 17.2063C125.139 17.0342 124.813 16.8278 124.584 16.5938C124.265 16.3185 124.092 16.0845 124.071 15.9331C124.05 15.7404 124.008 15.5959 123.897 15.4651L123.793 15.2105L123.835 15.0178L123.987 14.9558H124.542L125.458 14.7012L127.449 13.9579L127.408 11.5835C127.366 10.6957 127.276 9.97309 127.089 9.42251L126.936 8.85128V8.65858C126.999 8.46588 127.089 8.38329 127.234 8.36265C127.318 8.342 127.47 8.40394 127.706 8.5347L129.503 9.76662C129.996 10.1451 130.19 10.5925 130.079 11.1224C129.885 11.3977 129.739 11.907 129.67 12.5883L129.586 13.3936L130.225 13.5863C130.419 13.6895 130.544 13.8409 130.606 14.0955C130.669 14.3708 130.648 14.6048 130.565 14.7769C130.412 15.0522 130.204 15.2655 129.899 15.41L129.427 15.644L129.344 18.0184L130.093 17.5298C130.35 17.3577 130.502 17.3164 130.565 17.3784L130.461 17.8463C130.183 18.6722 129.794 19.3949 129.309 19.9867C129.246 21.3425 129.184 22.189 129.094 22.5331C129.052 22.8497 128.99 23.1044 128.879 23.2764H128.865ZM132.695 8.30759C132.59 8.11489 132.542 7.99101 132.611 7.90842C132.674 7.75701 132.695 7.59184 132.632 7.39914C132.611 7.2959 132.632 7.18579 132.757 7.1032C132.861 7.04126 133.055 7.06191 133.354 7.16514C133.763 7.31655 134.249 7.54366 134.783 7.86713C135.234 8.12177 135.442 8.39706 135.491 8.69299C135.553 9.14034 135.532 9.51886 135.407 9.92491C135.303 10.2621 135.234 10.7714 135.192 11.4321L135.109 13.8065L135.921 13.194L136.351 12.9806C136.67 12.9393 136.906 12.9393 137.058 12.9806L137.849 13.2766C138.085 13.4004 138.231 13.5106 138.3 13.6138C138.363 13.7377 138.321 13.9717 138.196 14.3364C138.092 14.5704 138.044 14.7149 138.071 14.8251C138.092 14.9283 137.919 15.0797 137.558 15.3137L136.15 15.9262L135.574 16.1189L135.081 16.0776V18.0322C135.06 20.0487 135.123 21.1705 135.275 21.3632C135.338 21.487 135.511 21.5352 135.768 21.5077C136.24 21.4458 136.559 21.3632 136.684 21.253C136.809 21.1498 137.024 21.1016 137.301 21.1292C137.579 21.1292 137.96 21.2118 138.411 21.4045C138.946 21.6178 139.223 21.783 139.244 21.9344C139.265 22.0858 139.181 22.2097 139.029 22.3404C138.814 22.5331 138.62 22.7396 138.474 23.0218C138.391 23.1938 138.196 23.2764 137.898 23.2764C136.379 23.2558 135.4 23.2971 134.97 23.4278C134.561 23.5104 134.2 23.4072 133.818 23.1319C133.437 22.836 133.152 22.3886 133.048 21.7761C132.896 20.9296 132.875 18.5552 132.944 14.6117C133.007 10.7714 132.944 8.67235 132.708 8.33512L132.695 8.30759Z" fill="black"/>
<path d="M147.937 14.1777V14.0057H148.346C148.603 14.047 148.818 14.1571 149.012 14.3429L149.116 14.4668C149.97 14.0194 150.955 13.6822 152.086 13.4069H152.107V12.8563L152.002 12.2438C151.898 11.7758 151.857 11.5212 151.919 11.4592L151.982 11.3285C151.059 11.4592 150.164 11.6244 149.269 11.8378L146.813 12.4503L146.32 12.6223L146.043 12.5398L145.724 12.1612L145.294 11.6107L145.058 11.184L144.905 10.8261C144.863 10.6747 144.863 10.5714 144.926 10.4888C144.988 10.3856 145.03 10.3374 145.078 10.3581L145.439 10.3994H145.953C147.639 9.86945 149.456 9.4634 151.427 9.21564C151.919 8.02501 152.134 7.32991 152.023 7.07527C151.746 6.64857 151.614 6.37328 151.642 6.29069C151.815 5.56806 152.002 5.29277 152.218 5.48547C152.349 5.71947 152.648 5.91217 153.071 6.11864C153.758 6.45587 154.181 6.71051 154.396 6.90321C154.59 7.05462 154.694 7.30926 154.736 7.62584C154.798 7.90113 154.715 8.13513 154.5 8.36913L154.049 8.89906C155.478 8.74765 156.595 8.68571 157.386 8.727C157.858 8.74765 158.219 8.68571 158.476 8.5343C158.58 8.41042 158.691 8.3416 158.774 8.3416L159.266 8.55495C159.482 8.70635 159.759 8.85088 160.078 8.961C160.272 9.02294 160.397 9.13305 160.46 9.27758L160.633 9.72492C160.675 9.89698 160.675 10.0415 160.612 10.1929L160.356 10.5508L159.995 10.9087C159.933 10.9706 159.842 10.9913 159.738 10.9706L159.482 10.9087C158.052 10.7366 156.595 10.7366 155.097 10.9087L152.981 11.1633L153.411 11.356C153.792 11.5487 154.028 11.7139 154.181 11.9066C154.375 12.0993 154.438 12.3126 154.396 12.4985L154.223 12.9871L156.04 12.8357C156.595 12.815 156.935 12.877 157.13 13.0697L157.747 13.5583C157.921 13.6409 158.045 13.7717 158.129 13.9162C158.191 14.0676 158.191 14.2328 158.129 14.4255C158.025 14.6801 157.983 15.3615 158.004 16.4213C158.025 17.5225 157.962 18.3071 157.789 18.7544C157.636 19.071 157.449 19.3463 157.123 19.5596L156.373 20.1102C156.137 20.2823 155.922 20.3235 155.756 20.2616C155.52 20.179 155.326 20.007 155.138 19.7523C154.819 19.4357 154.431 19.1398 153.987 18.9058V22.0854L153.883 23.7578L153.688 24.5011L153.348 25.031L152.967 25.2856L152.516 25.4783C152.453 25.5196 152.384 25.4164 152.322 25.203L152.218 24.5217L152.086 21.3215V15.2995L151.274 15.5542C150.615 15.7882 150.164 16.0428 149.928 16.2974L149.755 16.38L149.859 17.1853L149.963 18.2864C149.984 18.603 149.921 19.0297 149.768 19.4977L149.637 19.8556L149.422 20.1308L149.165 20.3029C149.082 20.3235 149.019 20.3029 148.95 20.2203L148.61 19.8418C148.332 19.6078 148.159 19.2706 148.055 18.8645C147.923 18.2933 147.902 16.8893 147.992 14.6457L147.93 14.1777H147.937ZM156.124 14.7902C156.124 14.6182 156.103 14.4943 156.04 14.4117C155.978 14.3498 155.888 14.3291 155.784 14.3704L154.049 14.7489L154.008 16.7173V18.2245H155.395C155.548 18.2245 155.693 18.1625 155.804 17.9905C155.888 17.8391 155.95 17.4192 155.999 16.7173L156.124 14.7902Z" fill="black"/>
<path d="M165.85 16.5932C165.788 16.4212 165.767 16.3592 165.83 16.3799C165.892 16.4005 165.934 16.3799 165.954 16.3179H166.364L167.113 16.4212L167.328 16.6139L167.432 16.8685L167.585 18.6304L167.647 19.9036L168.993 19.2222L168.952 18.417L168.91 15.9188V12.4226H168.695C168.397 12.4226 168.057 12.2299 167.626 11.872C167.113 11.3627 166.731 10.8947 166.496 10.4543C166.343 10.1583 166.412 9.98628 166.69 9.94499L167.46 9.77293L168.889 9.26365L170.901 8.52037C171.095 8.45843 171.262 8.41713 171.415 8.43778L171.734 8.47907L172.053 8.77501L172.434 9.243C172.538 9.39441 172.518 9.58023 172.414 9.81423L172.004 10.3648C171.9 10.5369 171.706 10.702 171.408 10.8741L170.36 11.5554L170.298 12.2574V14.5285L170.769 14.0812L170.901 13.9298L171.137 13.8266L171.567 13.682C171.713 13.5788 171.824 13.5788 171.928 13.6614L172.074 13.7853L172.157 13.9367L172.199 14.0881V14.3427L172.157 14.5561L171.921 14.8727L171.789 15.0447L171.852 15.086H172.212C172.386 15.0654 172.663 15.1273 173.024 15.2787L173.385 15.5334C173.919 14.5974 174.328 13.5375 174.564 12.3951C174.883 10.998 175.015 9.66282 174.946 8.41025C174.904 7.92161 174.814 7.60503 174.668 7.52245L174.433 7.32974L174.308 7.15769C174.287 7.0751 174.328 7.00628 174.433 6.98563C174.495 6.96498 174.537 6.8824 174.537 6.77228C174.557 6.66905 174.578 6.57958 174.641 6.53829L175.022 6.38688C175.494 6.30429 175.966 6.28365 176.389 6.34559C176.667 6.36623 176.861 6.44882 177.006 6.55893C177.131 6.66217 177.242 6.75164 177.284 6.89616C177.346 7.13016 177.346 7.34351 177.284 7.5775C177.222 7.72891 177.201 7.91473 177.222 8.14873C177.263 8.87136 177.18 9.75917 176.965 10.819L176.604 12.1748L177.416 11.7068C178.228 11.2182 178.866 10.9223 179.275 10.7709L179.678 10.5782L179.83 10.3648C179.893 10.3029 180.066 10.3235 180.344 10.4267L180.725 10.468L180.94 10.5093L181.239 10.7846C181.322 10.8879 181.363 10.9773 181.343 11.0806L181.301 11.3558L181.176 11.5898L180.982 11.7825H180.808C180.253 11.934 179.74 12.0991 179.206 12.3744L177.985 13.0351L178.561 13.2897L178.88 13.565L178.963 13.799L178.88 14.095L178.727 14.4116L178.366 16.4693C178.262 17.3158 178.006 18.2725 177.555 19.291L177.513 19.3736L179.414 20.8327C180.656 21.6998 181.551 22.2091 182.106 22.3812L183.258 22.8492C183.514 23.0419 183.729 23.207 183.875 23.3997C183.937 23.4823 183.854 23.5924 183.639 23.7576C183.362 23.9916 183.022 24.1637 182.591 24.2669L181.586 24.6041C181.329 24.7074 181.072 24.7555 180.878 24.7074C180.642 24.6661 180.344 24.5353 180.004 24.3288C179.317 23.9228 178.526 23.3103 177.589 22.4225L176.368 21.1699L175.598 21.7824C175.168 22.099 174.571 22.333 173.864 22.4844L173.628 22.5257H173.433C173.329 22.5463 173.218 22.5463 173.135 22.4844L172.774 22.4225C172.649 22.4431 172.559 22.3812 172.497 22.2779C172.414 22.1265 172.414 22.0439 172.518 22.0439L173.205 21.9407C173.482 21.8788 173.718 21.7274 173.975 21.5622C174.53 21.1148 175.022 20.6056 175.445 19.9724C175.105 19.4631 174.613 18.8299 173.975 18.066L172.24 16.0082C172.094 15.8155 171.859 15.6916 171.553 15.5815C171.449 15.5609 171.408 15.5196 171.38 15.4301L171.102 15.6848L170.589 16.1321L170.374 16.3042H170.242V18.6166L171.609 18.0454L172.122 17.8733L172.594 17.8114C172.677 17.7907 172.747 17.8114 172.788 17.8733V18.5959C172.809 18.7886 172.705 18.9332 172.511 19.0846C172.06 19.5319 171.616 19.9311 171.123 20.2477C170.485 20.7157 169.305 21.3695 167.64 22.2642C167.3 22.4569 167.064 22.5395 166.87 22.5188C166.634 22.4775 166.378 22.2848 166.058 21.9476C165.934 21.8444 165.802 21.5897 165.656 21.163C165.573 20.929 165.552 20.8051 165.614 20.7363L165.913 20.695C166.045 20.7363 166.232 20.695 166.489 20.5436L166.662 20.4404V20.4197L166.579 19.8485L166.26 17.9215C166.156 17.4535 166.003 17.0337 165.809 16.607L165.85 16.5932ZM177.201 13.861L177.159 13.5444L176.347 14.095L176.111 14.267H175.834C175.64 14.6455 175.432 14.9277 175.168 15.1342L174.53 15.6848C174.315 15.8568 174.127 15.9394 173.933 15.9601L175.3 17.2952L176.368 18.3344L176.431 18.2105C176.902 16.9993 177.159 15.5402 177.201 13.861Z" fill="black"/>
<path d="M190.438 10.358L190.397 10.0208L190.459 9.76615C190.48 9.68356 190.521 9.66292 190.591 9.70421L190.868 9.83497L191.167 9.91756L191.638 10.1103L191.722 10.1722C192.214 9.91756 192.873 9.66292 193.754 9.38763L194.906 9.07105C194.969 8.09377 194.969 7.52254 194.823 7.35049C194.414 6.99261 194.226 6.75862 194.226 6.6898C194.185 5.90522 194.289 5.58864 194.566 5.73317C194.781 5.90522 195.1 6.0291 195.572 6.09104C196.322 6.2218 196.814 6.34568 197.092 6.49709C197.327 6.60033 197.494 6.77238 197.647 7.08896C197.751 7.34361 197.751 7.5776 197.626 7.85289L197.369 8.44476L198.375 8.21077L198.694 8.14883L198.93 8.06624L199.208 7.91483C199.333 7.85289 199.423 7.83224 199.527 7.87354L200.616 8.44476L200.81 8.7407C200.831 8.89211 200.79 9.05728 200.685 9.24998C200.581 9.42204 200.47 9.50463 200.366 9.50463H199.874C199.36 9.42204 198.764 9.44269 198.167 9.54592C197.695 9.58721 197.272 9.6698 196.842 9.82121L196.648 10.0552C196.453 10.2273 196.266 10.3511 196.03 10.3924C195.815 10.4544 195.649 10.4337 195.538 10.3305L195.392 10.2479C194.497 10.5438 193.595 10.9292 192.7 11.3491L192.249 11.5211C192.103 11.9891 191.951 12.8769 191.756 14.1914L191.222 16.9237L192.402 15.1412C193.088 13.9781 193.408 13.1935 193.428 12.8081C193.408 12.5535 193.428 12.3814 193.491 12.2988C193.553 12.1956 193.643 12.168 193.789 12.1956L194.344 12.2988L194.962 12.5122L195.413 12.8287C195.517 12.932 195.586 13.0627 195.586 13.166C195.565 13.3587 195.482 13.4825 195.371 13.572C195.01 13.8473 194.733 14.2327 194.476 14.6525L194.004 15.3958C194.067 15.4577 194.108 15.5472 194.129 15.6917L194.212 16.7929V19.2499L194.15 22.8974L194.046 23.448L193.831 23.7439C193.727 23.8954 193.574 23.9986 193.38 24.0192C193.255 24.0399 193.165 23.9779 193.061 23.8265L192.61 23.2347C192.506 23.0833 192.457 22.9181 192.526 22.7667L192.61 22.3881C192.735 20.2891 192.783 18.7819 192.735 17.8115V16.7516L192.284 17.1301L191.042 17.9766L190.91 18.0179C190.653 18.8851 190.417 19.5664 190.14 20.0551L189.266 21.4728C189.134 21.6655 188.752 21.9821 188.114 22.4914L187.753 22.6634L187.344 22.7667L187.15 22.7047C187.108 22.6428 187.129 22.6015 187.191 22.5327L187.594 22.0027C188.024 21.3214 188.426 20.4542 188.766 19.4357C189.175 18.3758 189.578 16.9787 189.959 15.2169C190.279 13.7991 190.452 12.3332 190.473 10.8054L190.431 10.3374L190.438 10.358ZM196.467 18.7337C196.849 18.9677 197.154 19.2017 197.341 19.4976C197.425 19.649 197.445 19.7729 197.425 19.9037C197.404 20.0757 197.321 20.2409 197.168 20.3923C197.015 20.5437 196.786 20.6057 196.53 20.6263C196.398 20.6263 196.252 20.4749 196.058 20.1996L194.969 18.8025C194.823 18.6511 194.774 18.5272 194.823 18.4653C194.844 18.4033 194.927 18.3827 195.038 18.424H195.316C195.808 18.4859 196.169 18.596 196.467 18.7406V18.7337ZM198.798 14.4529L198.84 12.5879C198.861 12.1405 198.84 11.8652 198.736 11.7001L198.479 11.0875C198.417 10.8948 198.417 10.7916 198.521 10.7297L198.667 10.475C198.708 10.3718 198.771 10.3236 198.882 10.3236H199.201L199.582 10.5163L200.012 10.771L200.887 11.4316C201.06 11.6244 201.143 11.7895 201.123 11.9616L200.991 12.3401L200.845 12.7462L200.803 13.4481L201.317 13.1522C201.49 13.049 201.636 12.9801 201.768 13.0008L202.434 13.104L203.141 13.5101C203.377 13.6615 203.523 13.7854 203.544 13.8886C203.606 14.0125 203.523 14.2465 203.329 14.5906L203.135 15.0379C203.135 15.1412 202.961 15.2719 202.559 15.4165L200.72 16.1804L200.803 18.892C200.998 21.3971 201.039 22.8355 200.928 23.2828L200.609 24.0674L200.096 24.7694L199.603 25.2374C199.478 25.2993 199.367 25.2993 199.263 25.2374L198.986 25.0034L198.535 24.6455L197.806 24.1982L197.189 23.8196C197.015 23.6682 196.994 23.565 197.126 23.5444L197.785 23.5031L198.535 23.4618C198.791 23.4411 198.916 23.2691 198.895 22.9525L198.771 17.9285V16.848L197.702 17.1645L197.126 17.2471C196.974 17.2678 196.786 17.2058 196.55 17.0751C196.231 16.903 195.995 16.7378 195.864 16.5658C195.76 16.3937 195.607 16.2698 195.413 16.1597L195.094 15.8019C194.962 15.5679 195.073 15.4853 195.433 15.5059C195.905 15.5059 196.613 15.3339 197.466 15.0173L198.791 14.4667L198.798 14.4529Z" fill="black"/>
<path d="M209.49 12.6911V12.4571C209.469 12.3538 209.511 12.3332 209.594 12.3951L209.913 12.5465C209.996 12.5878 210.191 12.4433 210.552 12.0785C211.086 11.528 211.793 10.764 212.626 9.74547C212.772 9.51148 212.883 9.40824 212.924 9.44954C212.987 9.49083 212.924 9.68353 212.772 10.0001L212.3 11.1632L212.106 11.6106L211.932 12.0785L211.717 12.6704L211.46 13.2623C211.356 13.4756 211.308 13.6683 211.329 13.7922L211.391 14.4254C211.391 14.7213 211.238 14.9553 210.94 15.148C210.794 15.21 210.51 15.1067 210.128 14.8108C209.913 14.6387 209.698 14.1501 209.49 13.3931C209.428 13.1591 209.407 12.9044 209.448 12.6911H209.469H209.49ZM211.731 6.68977C212.265 6.66912 212.716 6.71041 213.056 6.90311C213.209 6.9857 213.334 7.11646 213.396 7.26099C213.459 7.43305 213.479 7.61887 213.417 7.85286C213.354 8.08686 213.202 8.27956 212.924 8.44473C212.82 8.48603 212.605 8.46538 212.237 8.3415C211.488 8.00427 210.85 7.74963 210.274 7.57757C210.059 7.53628 209.955 7.44681 209.955 7.36422C209.955 7.30228 210.017 7.21282 210.108 7.15088L210.406 7.02011C210.898 6.78612 211.329 6.68288 211.731 6.68288V6.68977ZM215.304 21.5141C215.408 21.638 215.436 21.7481 215.346 21.8926L214.985 22.4432C214.645 22.9731 214.277 23.503 213.833 23.971C213.472 24.4184 212.917 24.7762 212.21 25.0309L211.828 25.0722L211.488 25.0309H211.315C211.273 24.9896 211.315 24.9277 211.419 24.8382L211.592 24.6661C212.022 24.2394 212.466 23.6682 212.897 22.9938C213.216 22.5051 213.431 22.0853 213.563 21.7205H213.431C213.216 21.7205 213.07 21.638 212.959 21.5278L212.661 21.1011L212.487 20.8671C212.425 20.8052 212.425 20.7364 212.487 20.6951L212.98 20.5024H213.32L213.216 20.1239L213.021 18.2588V16.1804C213.042 15.4577 213.021 14.8452 212.959 14.3979V13.8266C213.063 13.4688 213.174 13.2554 213.257 13.2141C213.341 13.1935 213.493 13.2348 213.687 13.3862L214.09 13.6615L215.734 13.0902C215.797 13.0489 215.838 13.0283 215.908 13.0696H215.498C215.436 13.0696 215.373 13.0283 215.353 12.9664L215.415 12.8356L215.457 12.6429C215.457 12.5809 215.498 12.5603 215.602 12.5809C215.734 12.5809 215.901 12.4984 216.116 12.3263C216.31 12.1543 216.567 11.817 216.886 11.2871C217.163 10.8397 217.378 10.3511 217.545 9.86935C217.718 9.36007 217.781 8.98155 217.739 8.65808L217.656 8.61679H217.462L217.226 8.97466L216.629 9.63536C216.331 9.93129 216.095 10.0621 215.991 10.0139C215.866 9.99323 215.734 9.99323 215.588 10.0552C215.269 10.1584 215.054 10.1791 214.992 10.1378C214.909 10.0965 214.95 9.90376 215.096 9.56653L215.415 9.01596L215.713 8.40344L216.074 7.55693L216.331 6.73106L216.414 6.28371V5.88455C216.393 5.76067 216.414 5.65055 216.477 5.60926C216.56 5.54732 216.692 5.56796 216.837 5.65055L217.267 5.80196L217.864 5.99466L218.294 6.26995C218.468 6.39383 218.551 6.52459 218.551 6.64847C218.572 6.82053 218.551 6.96505 218.447 7.07517L218.343 7.2197L219.05 6.94441L220.757 6.51771C220.931 6.49706 221.076 6.45577 221.16 6.3663L221.458 6.24242C221.631 6.22177 221.798 6.24242 222.013 6.34566L222.485 6.64159L222.783 6.85494L223.234 7.15088L223.491 7.50875L223.574 7.84598C223.553 7.94921 223.512 8.05933 223.421 8.12127L223.019 8.29332L222.568 8.39656L221.902 8.80261L221.111 9.18113L220.216 9.51836C220.091 9.5803 220.001 9.5803 219.959 9.53901C219.918 9.49771 219.939 9.40824 220.084 9.32566C220.445 8.87831 220.771 8.30709 221.049 7.6051L221.132 7.30917H220.917L219.377 7.7978C218.946 7.94233 218.586 8.11439 218.35 8.28644H218.433L218.926 8.56173L219.203 9.00908C219.266 9.11231 219.245 9.20178 219.182 9.26372L219.141 9.32566L219.397 9.3876C219.633 9.49083 220.105 9.76612 220.785 10.2341L222.173 11.232L223.005 11.8033L223.949 12.2919L224.524 12.5052L225.336 12.8012L226.148 13.0765L226.425 13.2485C226.488 13.2692 226.509 13.3105 226.488 13.3724C226.488 13.4343 226.425 13.5445 226.273 13.6477L225.891 13.9023C225.676 14.0056 225.461 14.0537 225.274 14.0537L224.823 14.1157L224.136 14.329C223.983 14.391 223.838 14.391 223.685 14.329L223.213 14.1363L222.617 13.8404L221.909 13.4343C221.527 13.1591 220.882 12.5878 220.07 11.7138L218.808 10.3993H218.766L218.273 11.3353C218.017 11.762 217.781 12.0373 217.587 12.2024L217.073 12.6291L216.601 12.8631L216.539 12.8838L217.989 12.6704C218.204 12.6498 218.419 12.5878 218.627 12.4777C218.752 12.3951 218.863 12.3745 218.946 12.4364L219.307 12.6291C219.841 12.8218 220.14 12.9664 220.251 13.0765L220.549 13.3931C220.632 13.4963 220.702 13.627 220.723 13.7991C220.743 14.0125 220.702 14.2052 220.598 14.3703C220.466 14.6043 220.403 15.1136 220.424 15.9601C220.445 17.1507 220.507 18.2725 220.639 19.3531C220.723 19.9449 220.702 20.4749 220.598 20.8603L220.341 21.6035L220.001 21.7068L219.723 21.7894L219.578 21.8926C220.07 22.1266 220.584 22.4638 221.097 22.9112C221.548 23.3172 221.756 23.6132 221.784 23.8196V24.3289L221.659 24.7556L221.465 25.0515L221.229 25.2442L221.014 25.3062L220.778 25.2442L220.348 24.7969L218.745 22.9318L218.038 22.0234L217.739 21.5967C217.76 21.5347 217.822 21.4934 217.933 21.5141L218.315 21.5554L218.87 21.6792L218.787 21.2525L218.704 20.6813C217.059 20.936 215.859 21.17 215.137 21.3627L215.283 21.4865L215.304 21.5141ZM218.53 16.5107L218.489 14.1157L218.405 13.7991L218.19 13.7372C217.76 13.7372 217.143 13.7991 216.352 13.9918C215.797 14.1157 215.408 14.2464 215.2 14.3703L214.687 14.6869L214.582 14.7695L214.409 15.7468V15.7881C214.409 15.7261 214.471 15.7055 214.603 15.7261C214.749 15.7468 214.985 15.7055 215.262 15.5954L216.546 15.0654L216.761 15.0035L217.08 15.0861L217.399 15.2994L217.573 15.4921L217.469 15.7881L217.365 16.0221L217.087 16.1941L215.637 16.6002H215.38L215.103 16.5176L214.784 16.2629L214.589 16.0496L214.465 15.8775L214.402 15.8156V17.894L214.298 20.351L215.602 20.0757C216.608 19.8623 217.462 19.5664 218.149 19.2498C218.253 19.1879 218.343 19.1672 218.405 19.2085L218.62 19.3118V19.1879L218.558 16.5176L218.53 16.5107ZM215.276 17.9284L216.601 17.3159L216.816 17.2746L217.136 17.3159L217.455 17.5086L217.649 17.7013L217.545 18.0386L217.441 18.2313L217.184 18.424C216.671 18.6167 216.178 18.7818 215.644 18.8919L215.387 18.9332L215.11 18.8507L214.791 18.596L214.555 18.3827L214.43 18.2106C214.367 18.128 214.43 18.0592 214.576 18.0798L215.283 17.9353L215.276 17.9284Z" fill="black"/>
<path d="M232.406 7.94226C232.322 7.66697 232.302 7.28157 232.343 6.77917L232.406 6.31118C232.468 6.29053 232.551 6.29053 232.662 6.35247C232.857 6.4557 233.044 6.47635 233.238 6.39376C233.412 6.29053 233.668 6.33182 233.946 6.47635L234.674 6.92369C235.188 7.32286 235.465 7.62568 235.465 7.90097C235.465 8.19691 235.382 8.47219 235.188 8.74748L234.993 9.14665H235.229L235.701 9.29806C235.805 9.33935 235.875 9.42194 235.916 9.5527C235.937 9.63529 235.875 9.86929 235.722 10.234C235.701 10.3166 235.528 10.4061 235.25 10.468L234.119 10.8466L234.078 10.9085C233.842 11.1631 233.627 11.3352 233.481 11.3971C233.287 11.4591 233.203 11.4384 233.162 11.3352L232.968 11.2113C232.156 11.466 231.642 11.6587 231.469 11.7825C231.275 11.8858 231.018 11.9546 230.699 11.9546C230.484 11.9546 230.317 11.9133 230.206 11.8032L229.825 11.4247L229.651 11.1907C229.589 11.1287 229.568 11.0874 229.63 11.0393L230.102 10.7846C230.512 10.7227 231.254 10.4887 232.322 10.1033L232.558 10.0207C232.753 9.29806 232.815 8.83007 232.732 8.6649L232.413 7.94226H232.406ZM234.737 17.3778C235.59 17.5911 235.999 17.8664 236.02 18.2037L235.937 18.9469L235.618 20.0894C235.764 20.0687 235.895 20.0894 235.937 20.172L236.069 20.344V20.6193L236.006 20.8327L235.944 20.9841L235.687 21.2181C235.07 21.6654 234.536 22.0026 234.043 22.2366L233.016 22.7046H232.975L233.169 23.2965C233.19 23.4479 233.169 23.5099 233.106 23.5511L232.85 23.7851L232.704 24.0191C232.662 24.1224 232.551 24.1017 232.406 23.9572C232.128 23.6613 231.747 23.0006 231.316 21.982C230.824 20.8808 230.546 20.0963 230.421 19.6076L230.206 18.9745L230.144 18.7198C230.165 18.6166 230.206 18.5891 230.317 18.6166L230.914 18.6579C231.087 18.5959 231.254 18.6579 231.448 18.8299H231.49C232.732 18.4721 233.627 18.0867 234.182 17.6462C234.397 17.4328 234.591 17.3503 234.758 17.3916L234.737 17.3778ZM232.406 15.5953L234.161 14.6593L234.397 14.5974L234.737 14.6387L235.077 14.8107L235.292 15.0034C235.313 15.0654 235.292 15.1961 235.188 15.3613L235.104 15.5746L234.848 15.788C234.119 16.1252 233.37 16.4212 232.648 16.6345L232.371 16.6965L232.073 16.6139L231.733 16.3799L231.497 16.1872L231.344 16.0151C231.282 15.9119 231.323 15.8431 231.497 15.8431L232.42 15.5884L232.406 15.5953ZM232.468 13.0351C232.961 12.8631 233.537 12.5671 234.175 12.1886L234.39 12.106L234.73 12.1473L235.07 12.3606L235.285 12.5534C235.306 12.6153 235.285 12.7254 235.181 12.8906L235.098 13.1039L234.82 13.3173C234.133 13.6339 233.432 13.8679 232.725 14.0812L232.426 14.1431L232.149 14.0606L231.809 13.8059L231.573 13.6132L231.42 13.4412C231.358 13.3379 231.4 13.2691 231.573 13.2691C231.809 13.2691 232.107 13.1865 232.468 13.0351ZM232.191 19.9449L232.107 19.9655L232.191 20.1995L232.551 21.5553C232.933 21.28 233.384 21.0047 233.96 20.7501L234.3 19.4149C234.341 19.2016 234.341 19.0777 234.3 19.0364C234.237 18.9745 234.105 18.9745 233.918 19.0571L232.184 19.9449H232.191ZM237.769 14.9208V13.9642C237.727 13.2003 237.685 12.7529 237.616 12.6084L237.491 12.2712V11.9959L237.533 11.7206C237.554 11.6587 237.637 11.638 237.727 11.6793L238.046 11.8307L238.261 11.9546L238.795 12.2505C238.99 12.3331 239.115 12.4639 239.198 12.6084C239.26 12.7598 239.281 12.8837 239.219 13.0351L239.094 13.6063L239.031 14.2877V14.4184L239.371 14.3565H239.989C240.266 14.3152 240.419 14.3771 240.523 14.5286L240.676 14.8038V15.2718L240.544 15.6091L240.398 15.8843L239.926 16.2216L239.031 16.7102V19.1878C239.011 19.9311 239.031 20.991 239.135 22.4775L239.094 23.0075L238.858 23.2621L238.497 23.62C238.372 23.7714 238.157 23.6406 237.88 23.3034L237.796 22.622C237.734 21.7136 237.734 20.3096 237.796 18.4445V17.2333L237.366 17.3365L237.005 17.4397C236.832 17.5017 236.534 17.2677 236.131 16.7377C235.791 16.311 235.618 16.0564 235.639 15.9945C235.66 15.9325 235.68 15.8912 235.743 15.8912L236.124 15.7192C236.575 15.4645 237.13 15.1892 237.789 14.914H237.769V14.9208ZM242.257 7.13704C242.473 6.98563 242.729 6.94434 243.007 7.03381C243.263 7.13704 243.562 7.28845 243.86 7.5018C244.158 7.71515 244.332 7.9285 244.353 8.11432C244.374 8.34831 244.269 8.54102 244.034 8.72684C243.756 8.98148 243.416 9.53206 243.048 10.3786C242.771 11.0806 242.618 11.9477 242.556 13.0076C242.493 14.3634 242.75 15.9119 243.347 17.6944C243.923 19.3668 244.63 20.812 245.484 21.9545L246.191 22.801C246.295 22.7803 246.469 22.505 246.684 21.8925C246.941 21.3213 247.093 20.8327 247.156 20.4266C247.26 20.0687 247.35 19.9173 247.433 19.938C247.496 19.938 247.558 20.11 247.669 20.4679C247.815 21.0804 247.905 21.7618 247.905 22.5257C247.905 23.2896 247.711 23.9228 247.371 24.4734L246.941 25.1547C246.836 25.2786 246.746 25.3474 246.663 25.3474C246.58 25.3474 246.386 25.2648 246.108 25.0308C245.595 24.6729 245.102 24.2669 244.679 23.7576C243.735 22.567 242.972 21.1492 242.389 19.5595C241.855 18.0935 241.515 16.4418 241.362 14.6387C241.258 12.9663 241.21 11.6036 241.279 10.5437L241.238 10.351L241.064 10.4543C240.377 10.9842 239.781 11.2595 239.288 11.3214C238.99 11.3421 238.712 11.2182 238.456 10.9429C238.157 10.6263 237.921 10.3097 237.748 9.98628C237.623 9.64905 237.623 9.477 237.748 9.477L238.303 9.32559L242.257 7.12328V7.13704Z" fill="black"/>
<path d="M263.509 6.43483C264.473 7.04735 265.007 7.4947 265.049 7.74934C265.07 7.98333 264.945 8.32056 264.646 8.74726L263.682 10.2338L263.786 10.4472V10.6605L263.724 10.8945L263.599 11.1905L263.446 11.4451L262.954 11.7204C261.781 12.2916 260.754 12.7389 259.811 12.9936L257.868 13.4822L257.507 13.5442C257.403 13.5648 257.313 13.4822 257.167 13.3308L256.272 15.6639C255.78 16.827 255.183 17.9763 254.475 19.0981C254.045 19.7519 253.553 20.3713 252.935 20.9426C252.699 21.094 252.359 21.1972 251.929 21.2591C251.416 21.3004 251.138 21.2798 251.118 21.2178C251.076 21.0664 251.159 20.8187 251.437 20.4333C251.95 19.8827 252.401 19.222 252.803 18.5063C253.442 17.4051 254.025 16.1525 254.6 14.7348C255.114 13.4616 255.516 12.3604 255.773 11.4244C256.134 10.2132 256.411 8.96749 256.522 7.67363V7.35705C256.501 7.16435 256.522 7.06112 256.585 6.99918C256.668 6.89594 256.779 6.8753 256.904 6.91659L257.223 6.99918L257.91 7.3364L258.083 7.41899L262.53 6.57248C262.94 6.33848 263.28 6.29719 263.516 6.4486L263.509 6.43483ZM260.387 17.295C260.532 17.1711 260.858 17.1917 261.302 17.3569L262.35 17.8869C262.496 17.9901 262.586 18.1208 262.565 18.2654C262.544 18.4994 262.482 18.816 262.329 19.2014L261.774 20.392L261.92 20.4333L262.197 20.6466C262.26 20.7499 262.26 20.86 262.197 20.9219L261.961 21.4106C261.899 21.6033 261.857 21.7065 261.809 21.6858L261.705 21.7271L261.469 21.7684C260.421 21.7891 259.29 21.9405 258.111 22.2571H257.792L257.598 22.4291L257.382 22.6838C257.32 22.8076 257.209 22.7663 257.042 22.6012C256.807 22.3259 256.55 21.7753 256.272 20.9288C255.953 19.9928 255.738 19.339 255.676 18.933L255.551 18.403L255.53 18.0864C255.53 17.9626 255.613 17.9144 255.724 17.9626C256.002 18.0658 256.279 18.114 256.494 18.0864C256.689 18.0451 256.855 18.1071 257.029 18.2585C257.993 17.9626 258.826 17.7286 259.533 17.6047C259.915 17.5427 260.192 17.4326 260.387 17.3087V17.295ZM257.868 20.9013L258.68 20.6673C258.999 20.564 259.318 20.4952 259.665 20.4746L259.943 19.9033C260.047 19.5455 260.137 19.2014 260.158 18.8641V18.6095C260.137 18.5475 260.054 18.5475 259.922 18.5888L258.493 19.0155C258.132 19.0981 257.826 19.2289 257.618 19.3734V19.4766L257.875 20.8944L257.868 20.9013ZM258.978 9.09137L258.597 9.22213C258.402 9.60066 258.125 10.3439 257.764 11.4726C258.749 11.0666 259.963 10.6468 261.42 10.2201L262.17 8.84361L262.274 8.41691C262.211 8.35497 261.996 8.35497 261.656 8.41691L258.985 9.09825L258.978 9.09137ZM259.943 14.7073C260.56 14.5352 261.164 14.37 261.76 14.2599L263.495 14.1085L264.605 14.0672C265.292 13.8745 265.736 13.8745 265.992 14.1085C266.464 14.5559 266.915 15.0445 267.297 15.6157C267.699 16.1869 267.727 16.6343 267.401 17.0335C267.165 18.2654 267.061 19.3665 266.998 20.3163C266.915 21.3142 266.638 22.202 266.187 23.0072C265.757 23.7299 265.313 24.2598 264.799 24.5557C264.716 24.6796 264.584 24.7691 264.417 24.8104L263.779 24.9136C263.606 24.9342 263.46 24.8723 263.307 24.6796L262.815 24.3011L261.899 23.5372L261.323 22.9866C261.219 22.8833 261.191 22.7732 261.261 22.6906C261.282 22.6287 261.344 22.6494 261.455 22.7113L262.267 22.8833L262.926 22.9866C263.203 23.0072 263.418 22.9246 263.523 22.7113C263.696 22.5392 263.904 22.0093 264.189 21.1421C264.619 19.6349 264.917 18.0245 265.084 16.3315C265.125 15.9048 265.084 15.6708 264.959 15.6295C264.785 15.5469 264.556 15.5263 264.272 15.5675H263.738C263.183 15.5675 262.648 15.6088 262.093 15.719L260.387 16.125L259.381 16.4209L259.103 16.5035C258.999 16.5242 258.867 16.4829 258.763 16.4209C258.659 16.359 258.548 16.2282 258.465 16.0424L258.187 15.6364C258.062 15.5331 257.993 15.4024 258.014 15.2991C258.014 15.1477 258.229 15.0651 258.61 15.0445L259.956 14.7073H259.943Z" fill="black"/>
<path d="M103.188 36.9641V30.2539H105.241C107.628 30.2539 108.821 31.3413 108.821 33.523C108.821 34.5691 108.481 35.4087 107.801 36.0281C107.121 36.6475 106.247 36.9641 105.186 36.9641H103.188ZM104.235 31.1486V36.0763H105.158C105.956 36.0763 106.58 35.856 107.038 35.4087C107.496 34.9682 107.718 34.3488 107.718 33.5505C107.718 32.7522 107.503 32.174 107.066 31.7611C106.629 31.3551 106.004 31.1486 105.179 31.1486H104.228H104.235Z" fill="black"/>
<path d="M114.004 34.838H110.688C110.73 35.8084 111.229 36.2901 112.18 36.2901C112.714 36.2901 113.199 36.1318 113.643 35.8153V36.6549C113.213 36.9371 112.644 37.0747 111.944 37.0747C111.243 37.0747 110.667 36.8545 110.265 36.4278C109.862 35.9942 109.661 35.3886 109.661 34.6109C109.661 33.8745 109.876 33.262 110.313 32.7802C110.75 32.2984 111.292 32.0645 111.951 32.0645C112.61 32.0645 113.109 32.2709 113.47 32.677C113.831 33.083 114.011 33.6474 114.011 34.3631V34.8449L114.004 34.838ZM113.005 34.1016C113.005 33.6887 112.908 33.379 112.721 33.1587C112.533 32.9385 112.27 32.8284 111.923 32.8284C111.611 32.8284 111.34 32.9454 111.111 33.1794C110.882 33.4134 110.737 33.7231 110.681 34.1016H112.998H113.005Z" fill="black"/>
<path d="M116.099 36.3177V39.1669H115.072V32.1746H116.099V32.9729H116.12C116.495 32.3673 117.036 32.0645 117.743 32.0645C118.361 32.0645 118.84 32.2778 119.193 32.7045C119.547 33.1312 119.721 33.7093 119.721 34.4319C119.721 35.2303 119.519 35.8703 119.124 36.3521C118.729 36.8338 118.194 37.0747 117.521 37.0747C116.911 37.0747 116.446 36.8201 116.12 36.3177H116.099ZM116.092 34.9412C116.092 35.3129 116.21 35.6294 116.439 35.8772C116.675 36.1318 116.966 36.2557 117.32 36.2557C117.75 36.2557 118.083 36.0906 118.319 35.7671C118.555 35.4436 118.673 34.9894 118.673 34.4182C118.673 33.9227 118.562 33.5441 118.347 33.2757C118.132 33.0073 117.82 32.8697 117.431 32.8697C117.043 32.8697 116.717 33.0142 116.467 33.2964C116.217 33.5785 116.092 33.9364 116.092 34.37V34.9412Z" fill="black"/>
<path d="M120.852 32.4912C121.344 32.2021 121.913 32.0576 122.558 32.0576C123.779 32.0576 124.39 32.6839 124.39 33.9365V36.9646H123.398V36.2351H123.377C123.051 36.7926 122.558 37.0748 121.913 37.0748C121.441 37.0748 121.067 36.9509 120.796 36.6962C120.525 36.4416 120.387 36.0975 120.387 35.6708C120.387 34.7692 120.928 34.2462 122.003 34.0948L123.405 33.9021C123.405 33.1863 123.086 32.8353 122.454 32.8353C121.878 32.8353 121.344 33.0211 120.858 33.3928V32.4981L120.852 32.4912ZM122.329 34.7348C121.982 34.783 121.733 34.8724 121.587 34.9963C121.441 35.1271 121.372 35.3198 121.372 35.5675C121.372 35.7809 121.448 35.953 121.601 36.0837C121.753 36.2214 121.955 36.2833 122.198 36.2833C122.544 36.2833 122.829 36.1663 123.051 35.9185C123.28 35.6777 123.391 35.3748 123.391 35.0032V34.5765L122.322 34.721L122.329 34.7348Z" fill="black"/>
<path d="M128.484 33.1447C128.331 33.0484 128.13 33.0002 127.88 33.0002C127.547 33.0002 127.276 33.1447 127.075 33.4338C126.867 33.7228 126.77 34.1082 126.77 34.5831V36.9712H125.743V32.1812H126.77V33.131H126.791C127.027 32.4427 127.45 32.0986 128.06 32.0986C128.241 32.0986 128.387 32.1193 128.491 32.1606V33.1516L128.484 33.1447Z" fill="black"/>
<path d="M132.029 36.9096C131.841 37.0198 131.571 37.0679 131.21 37.0679C130.294 37.0679 129.836 36.5724 129.836 35.5882V32.9799H129.018V32.1747H129.836V31.0529L130.856 30.7432V32.1747H132.029V32.9799H130.856V35.4162C130.856 35.7121 130.912 35.9255 131.016 36.0631C131.12 36.1939 131.293 36.2627 131.529 36.2627C131.709 36.2627 131.876 36.2076 132.029 36.1044V36.9165V36.9096Z" fill="black"/>
<path d="M140.139 36.9646H139.112V34.2186C139.112 33.7437 139.036 33.3996 138.883 33.1931C138.731 32.9798 138.481 32.8766 138.148 32.8766C137.857 32.8766 137.607 33.0073 137.399 33.2757C137.19 33.5441 137.086 33.8676 137.086 34.253V36.9715H136.067V34.1566C136.067 33.3101 135.74 32.8834 135.081 32.8834C134.776 32.8834 134.526 33.0142 134.325 33.2688C134.124 33.5235 134.027 33.8607 134.027 34.2668V36.9715H133V32.1814H134.027V32.9316H134.048C134.395 32.3535 134.901 32.0645 135.567 32.0645C136.233 32.0645 136.705 32.381 136.941 33.0211C137.302 32.381 137.843 32.0645 138.557 32.0645C139.612 32.0645 140.139 32.7114 140.139 34.0121V36.9715V36.9646Z" fill="black"/>
<path d="M145.543 34.838H142.227C142.269 35.8084 142.768 36.2901 143.719 36.2901C144.253 36.2901 144.739 36.1318 145.183 35.8153V36.6549C144.752 36.9371 144.183 37.0747 143.483 37.0747C142.782 37.0747 142.206 36.8545 141.804 36.4278C141.401 35.9942 141.2 35.3886 141.2 34.6109C141.2 33.8745 141.415 33.262 141.852 32.7802C142.289 32.2984 142.831 32.0645 143.49 32.0645C144.149 32.0645 144.648 32.2709 145.009 32.677C145.37 33.083 145.55 33.6474 145.55 34.3631V34.8449L145.543 34.838ZM144.544 34.1016C144.544 33.6887 144.447 33.379 144.26 33.1587C144.072 32.9385 143.809 32.8284 143.462 32.8284C143.15 32.8284 142.879 32.9454 142.65 33.1794C142.421 33.4134 142.276 33.7231 142.22 34.1016H144.537H144.544Z" fill="black"/>
<path d="M150.851 36.9646H149.831V34.2599C149.831 33.3377 149.492 32.8766 148.819 32.8766C148.479 32.8766 148.194 33.0073 147.972 33.262C147.75 33.5166 147.639 33.8401 147.639 34.2324V36.9646H146.612V32.1746H147.639V32.9591H147.66C148.021 32.3604 148.541 32.0645 149.235 32.0645C150.317 32.0645 150.858 32.7251 150.858 34.0397V36.9646H150.851Z" fill="black"/>
<path d="M154.688 36.9096C154.5 37.0198 154.23 37.0679 153.869 37.0679C152.953 37.0679 152.495 36.5724 152.495 35.5882V32.9799H151.677V32.1747H152.495V31.0529L153.515 30.7432V32.1747H154.688V32.9799H153.515V35.4162C153.515 35.7121 153.571 35.9255 153.675 36.0631C153.779 36.1939 153.952 36.2627 154.188 36.2627C154.369 36.2627 154.535 36.2076 154.688 36.1044V36.9165V36.9096Z" fill="black"/>
<path d="M157.581 34.6109C157.581 33.8195 157.81 33.2001 158.261 32.7458C158.712 32.2916 159.329 32.0576 160.113 32.0576C160.849 32.0576 161.432 32.2778 161.862 32.7183C162.292 33.1588 162.507 33.7644 162.507 34.5283C162.507 35.2923 162.278 35.9185 161.827 36.3797C161.376 36.8408 160.772 37.0748 160.016 37.0748C159.26 37.0748 158.684 36.8476 158.247 36.4003C157.803 35.953 157.588 35.3542 157.588 34.604L157.581 34.6109ZM158.622 34.5903C158.622 35.1133 158.754 35.5263 159.01 35.8222C159.267 36.1181 159.614 36.2627 160.058 36.2627C160.988 36.2627 161.452 35.6983 161.452 34.5627C161.452 34.0122 161.334 33.5992 161.092 33.3102C160.856 33.0211 160.509 32.8766 160.058 32.8766C159.607 32.8766 159.253 33.028 159.003 33.3377C158.747 33.6474 158.622 34.0603 158.622 34.5972V34.5903Z" fill="black"/>
<path d="M166.121 30.7016C165.948 30.619 165.774 30.5777 165.594 30.5777C165.074 30.5777 164.817 30.8874 164.817 31.5068V32.1675H165.934V32.9727H164.817V36.9575H163.797V32.9727H162.979V32.1675H163.797V31.4587C163.797 30.9356 163.957 30.5227 164.276 30.2199C164.595 29.917 164.997 29.7656 165.497 29.7656C165.754 29.7656 165.962 29.7932 166.128 29.8551V30.7085L166.121 30.7016Z" fill="black"/>
<path d="M170.125 31.1004V36.1107V36.9641H169.077V36.1176V31.1073V30.2539H170.125V31.1004Z" fill="black"/>
<path d="M175.938 36.9646H174.918V34.2599C174.918 33.3377 174.578 32.8766 173.905 32.8766C173.566 32.8766 173.281 33.0073 173.059 33.262C172.837 33.5166 172.726 33.8401 172.726 34.2324V36.9646H171.699V32.1746H172.726V32.9591H172.747C173.108 32.3604 173.628 32.0645 174.322 32.0645C175.404 32.0645 175.938 32.7251 175.938 34.0397V36.9646Z" fill="black"/>
<path d="M179.955 30.7016C179.782 30.619 179.608 30.5777 179.428 30.5777C178.908 30.5777 178.651 30.8874 178.651 31.5068V32.1675H179.768V32.9727H178.651V36.9575H177.631V32.9727H176.812V32.1675H177.631V31.4587C177.631 30.9356 177.791 30.5227 178.11 30.2199C178.429 29.917 178.831 29.7656 179.331 29.7656C179.588 29.7656 179.796 29.7932 179.962 29.8551V30.7085L179.955 30.7016Z" fill="black"/>
<path d="M180.254 34.6109C180.254 33.8195 180.483 33.2001 180.934 32.7458C181.385 32.2916 182.002 32.0576 182.779 32.0576C183.515 32.0576 184.098 32.2778 184.528 32.7183C184.958 33.1588 185.173 33.7644 185.173 34.5283C185.173 35.2923 184.944 35.9185 184.493 36.3797C184.042 36.8408 183.438 37.0748 182.682 37.0748C181.926 37.0748 181.35 36.8476 180.913 36.4003C180.469 35.953 180.254 35.3542 180.254 34.604V34.6109ZM181.295 34.5903C181.295 35.1133 181.426 35.5263 181.683 35.8222C181.94 36.1181 182.287 36.2627 182.731 36.2627C183.66 36.2627 184.125 35.6983 184.125 34.5627C184.125 34.0122 184.007 33.5992 183.764 33.3102C183.529 33.0211 183.182 32.8766 182.731 32.8766C182.28 32.8766 181.926 33.028 181.676 33.3377C181.419 33.6474 181.295 34.0603 181.295 34.5972V34.5903Z" fill="black"/>
<path d="M189.051 33.1447C188.898 33.0484 188.697 33.0002 188.447 33.0002C188.114 33.0002 187.844 33.1447 187.643 33.4338C187.434 33.7228 187.337 34.1082 187.337 34.5831V36.9712H186.311V32.1812H187.337V33.131H187.358C187.594 32.4427 188.017 32.0986 188.628 32.0986C188.808 32.0986 188.947 32.1193 189.058 32.1606V33.1516L189.051 33.1447Z" fill="black"/>
<path d="M196.96 36.9646H195.934V34.2186C195.934 33.7437 195.857 33.3996 195.705 33.1931C195.552 32.9798 195.302 32.8766 194.969 32.8766C194.678 32.8766 194.428 33.0073 194.22 33.2757C194.012 33.5441 193.908 33.8676 193.908 34.253V36.9715H192.888V34.1566C192.888 33.3101 192.562 32.8834 191.903 32.8834C191.597 32.8834 191.348 33.0142 191.153 33.2688C190.952 33.5235 190.855 33.8607 190.855 34.2668V36.9715H189.828V32.1814H190.855V32.9316H190.876C191.223 32.3535 191.729 32.0645 192.395 32.0645C193.061 32.0645 193.533 32.381 193.769 33.0211C194.13 32.381 194.671 32.0645 195.385 32.0645C196.44 32.0645 196.967 32.7114 196.967 34.0121V36.9715L196.96 36.9646Z" fill="black"/>
<path d="M198.439 32.4912C198.931 32.2021 199.5 32.0576 200.145 32.0576C201.366 32.0576 201.977 32.6839 201.977 33.9365V36.9646H200.978V36.2351H200.957C200.631 36.7926 200.138 37.0748 199.486 37.0748C199.015 37.0748 198.64 36.9509 198.369 36.6962C198.099 36.4416 197.96 36.0975 197.96 35.6708C197.96 34.7692 198.501 34.2462 199.577 34.0948L200.978 33.9021C200.978 33.1863 200.659 32.8353 200.027 32.8353C199.452 32.8353 198.917 33.0211 198.432 33.3928V32.4981L198.439 32.4912ZM199.916 34.7348C199.57 34.783 199.32 34.8724 199.174 34.9963C199.028 35.1271 198.959 35.3198 198.959 35.5675C198.959 35.7809 199.035 35.953 199.188 36.0837C199.341 36.2214 199.542 36.2833 199.785 36.2833C200.132 36.2833 200.416 36.1663 200.638 35.9185C200.867 35.6777 200.978 35.3748 200.978 35.0032V34.5765L199.91 34.721L199.916 34.7348Z" fill="black"/>
<path d="M205.813 36.9096C205.625 37.0198 205.348 37.0679 204.994 37.0679C204.078 37.0679 203.62 36.5724 203.62 35.5882V32.9799H202.802V32.1747H203.62V31.0529L204.64 30.7432V32.1747H205.813V32.9799H204.64V35.4162C204.64 35.7121 204.696 35.9255 204.8 36.0631C204.904 36.1939 205.077 36.2627 205.313 36.2627C205.494 36.2627 205.66 36.2076 205.813 36.1044V36.9165V36.9096Z" fill="black"/>
<path d="M206.667 30.5225C206.667 30.3504 206.722 30.2128 206.84 30.1027C206.958 29.9926 207.111 29.9375 207.291 29.9375C207.472 29.9375 207.617 29.9926 207.742 30.1027C207.867 30.2128 207.923 30.3573 207.923 30.5225C207.923 30.6877 207.86 30.8322 207.742 30.9423C207.617 31.0524 207.472 31.1075 207.291 31.1075C207.111 31.1075 206.965 31.0524 206.847 30.9354C206.729 30.8253 206.667 30.6808 206.667 30.5156V30.5225ZM206.771 36.9642V32.1742H207.798V36.9642H206.771Z" fill="black"/>
<path d="M208.929 34.6109C208.929 33.8195 209.158 33.2001 209.609 32.7458C210.06 32.2916 210.677 32.0576 211.461 32.0576C212.196 32.0576 212.779 32.2778 213.209 32.7183C213.64 33.1588 213.855 33.7644 213.855 34.5283C213.855 35.2923 213.626 35.9185 213.175 36.3797C212.724 36.8408 212.12 37.0748 211.364 37.0748C210.608 37.0748 210.032 36.8476 209.595 36.4003C209.151 35.953 208.936 35.3542 208.936 34.604L208.929 34.6109ZM209.976 34.5903C209.976 35.1133 210.108 35.5263 210.365 35.8222C210.622 36.1181 210.968 36.2627 211.412 36.2627C212.342 36.2627 212.807 35.6983 212.807 34.5627C212.807 34.0122 212.689 33.5992 212.446 33.3102C212.21 33.0211 211.863 32.8766 211.412 32.8766C210.962 32.8766 210.608 33.028 210.358 33.3377C210.101 33.6474 209.976 34.0603 209.976 34.5972V34.5903Z" fill="black"/>
<path d="M219.231 36.9646H218.211V34.2599C218.211 33.3377 217.871 32.8766 217.198 32.8766C216.858 32.8766 216.574 33.0073 216.352 33.262C216.13 33.5166 216.019 33.8401 216.019 34.2324V36.9646H214.992V32.1746H216.019V32.9591H216.04C216.401 32.3604 216.921 32.0645 217.615 32.0645C218.697 32.0645 219.238 32.7251 219.238 34.0397V36.9646H219.231Z" fill="black"/>
<path d="M227.202 31.1486H225.26V36.9641H224.205V31.1486H222.27V30.2539H227.202V31.1486Z" fill="black"/>
<path d="M231.144 34.838H227.828C227.869 35.8084 228.369 36.2901 229.319 36.2901C229.853 36.2901 230.339 36.1318 230.783 35.8153V36.6549C230.353 36.9371 229.784 37.0747 229.083 37.0747C228.383 37.0747 227.807 36.8545 227.404 36.4278C227.002 35.9942 226.801 35.3886 226.801 34.6109C226.801 33.8745 227.016 33.262 227.453 32.7802C227.89 32.2984 228.431 32.0645 229.09 32.0645C229.749 32.0645 230.249 32.2709 230.61 32.677C230.97 33.083 231.151 33.6474 231.151 34.3631V34.8449L231.144 34.838ZM230.145 34.1016C230.145 33.6887 230.048 33.379 229.86 33.1587C229.673 32.9385 229.409 32.8284 229.063 32.8284C228.75 32.8284 228.48 32.9454 228.251 33.1794C228.022 33.4134 227.876 33.7231 227.821 34.1016H230.138H230.145Z" fill="black"/>
<path d="M235.632 36.7582C235.278 36.9715 234.82 37.0748 234.265 37.0748C233.558 37.0748 232.989 36.8545 232.552 36.4141C232.114 35.9736 231.899 35.3955 231.899 34.6797C231.899 33.8814 232.135 33.2414 232.6 32.7665C233.072 32.2916 233.696 32.0576 234.473 32.0576C234.952 32.0576 235.341 32.1333 235.639 32.2847V33.2345C235.292 32.9867 234.924 32.8628 234.522 32.8628C234.05 32.8628 233.669 33.0211 233.377 33.3308C233.086 33.6474 232.94 34.0672 232.94 34.5972C232.94 35.1271 233.079 35.5194 233.356 35.8153C233.634 36.1112 234.009 36.2558 234.48 36.2558C234.89 36.2558 235.271 36.125 235.632 35.8635V36.7513V36.7582Z" fill="black"/>
<path d="M240.967 36.9647H239.941V34.2187C239.941 33.324 239.608 32.8766 238.941 32.8766C238.602 32.8766 238.324 33.0074 238.102 33.262C237.88 33.5167 237.769 33.847 237.769 34.2462V36.9647H236.742V29.876H237.769V32.9454H237.79C238.158 32.3605 238.671 32.0645 239.337 32.0645C240.426 32.0645 240.967 32.7183 240.967 34.0191V36.9647Z" fill="black"/>
<path d="M246.559 36.9646H245.54V34.2599C245.54 33.3377 245.2 32.8766 244.527 32.8766C244.187 32.8766 243.902 33.0073 243.68 33.262C243.458 33.5166 243.347 33.8401 243.347 34.2324V36.9646H242.32V32.1746H243.347V32.9591H243.368C243.729 32.3604 244.249 32.0645 244.943 32.0645C246.025 32.0645 246.559 32.7251 246.559 34.0397V36.9646Z" fill="black"/>
<path d="M247.614 34.6109C247.614 33.8195 247.843 33.2001 248.294 32.7458C248.745 32.2916 249.363 32.0576 250.147 32.0576C250.882 32.0576 251.465 32.2778 251.895 32.7183C252.325 33.1588 252.533 33.7644 252.533 34.5283C252.533 35.2923 252.304 35.9185 251.853 36.3797C251.402 36.8408 250.799 37.0748 250.043 37.0748C249.286 37.0748 248.71 36.8476 248.273 36.4003C247.829 35.953 247.614 35.3542 247.614 34.604V34.6109ZM248.655 34.5903C248.655 35.1133 248.787 35.5263 249.043 35.8222C249.3 36.1181 249.654 36.2627 250.091 36.2627C251.021 36.2627 251.486 35.6983 251.486 34.5627C251.486 34.0122 251.368 33.5992 251.125 33.3102C250.889 33.0211 250.542 32.8766 250.091 32.8766C249.64 32.8766 249.286 33.028 249.037 33.3377C248.78 33.6474 248.655 34.0603 248.655 34.5972V34.5903Z" fill="black"/>
<path d="M253.657 36.9647V29.876H254.684V36.9647H253.657Z" fill="black"/>
<path d="M255.821 34.6109C255.821 33.8195 256.05 33.2001 256.501 32.7458C256.952 32.2916 257.57 32.0576 258.347 32.0576C259.082 32.0576 259.665 32.2778 260.095 32.7183C260.525 33.1588 260.733 33.7644 260.733 34.5283C260.733 35.2923 260.504 35.9185 260.054 36.3797C259.603 36.8408 258.999 37.0748 258.243 37.0748C257.486 37.0748 256.911 36.8476 256.474 36.4003C256.03 35.953 255.814 35.3542 255.814 34.604L255.821 34.6109ZM256.862 34.5903C256.862 35.1133 256.994 35.5263 257.251 35.8222C257.507 36.1181 257.861 36.2627 258.298 36.2627C259.228 36.2627 259.693 35.6983 259.693 34.5627C259.693 34.0122 259.575 33.5992 259.332 33.3102C259.096 33.0211 258.749 32.8766 258.298 32.8766C257.847 32.8766 257.493 33.028 257.244 33.3377C256.987 33.6474 256.862 34.0603 256.862 34.5972V34.5903Z" fill="black"/>
<path d="M266.215 36.5241C266.215 38.3204 265.313 39.2151 263.502 39.2151C262.885 39.2151 262.364 39.1118 261.941 38.9054V37.9694C262.468 38.2653 262.982 38.4099 263.481 38.4099C264.619 38.4099 265.195 37.8318 265.195 36.6755V36.2007H265.174C264.82 36.7857 264.286 37.0816 263.571 37.0816C262.968 37.0816 262.482 36.8682 262.114 36.4415C261.747 36.0148 261.566 35.4367 261.566 34.721C261.566 33.9158 261.768 33.2688 262.17 32.7871C262.572 32.3053 263.107 32.0645 263.773 32.0645C264.404 32.0645 264.876 32.3122 265.181 32.8077H265.202V32.1814H266.229V36.531L266.215 36.5241ZM265.202 34.1566C265.202 33.7988 265.084 33.496 264.848 33.2482C264.612 33.0004 264.321 32.8766 263.974 32.8766C263.551 32.8766 263.218 33.0348 262.975 33.3514C262.732 33.668 262.607 34.1085 262.607 34.6659C262.607 35.1546 262.725 35.54 262.954 35.829C263.19 36.1181 263.495 36.2626 263.877 36.2626C264.258 36.2626 264.577 36.1181 264.827 35.8359C265.077 35.5537 265.195 35.189 265.195 34.7554V34.1635L265.202 34.1566Z" fill="black"/>
<path d="M271.772 32.1748L269.649 37.598C269.225 38.6786 268.615 39.2154 267.817 39.2154C267.553 39.2154 267.345 39.1878 267.179 39.1328V38.2725C267.345 38.3482 267.526 38.3826 267.706 38.3826C268.088 38.3826 268.372 38.1693 268.559 37.7494L268.892 36.9511L266.978 32.168H268.115L269.274 35.5884C269.302 35.6573 269.336 35.8155 269.385 36.0495H269.406C269.42 35.9601 269.461 35.8087 269.524 35.6022L270.731 32.1748H271.765H271.772Z" fill="black"/>
<path d="M273 35.8564L272.264 38.1758H271.494L272.021 35.8564H272.993H273Z" fill="black"/>
<path d="M107.448 41.7892H105.505V47.6047H104.45V41.7892H102.515V40.8945H107.448V41.7892Z" fill="black"/>
<path d="M107.427 43.1377C107.919 42.8486 108.488 42.7041 109.133 42.7041C110.355 42.7041 110.965 43.3304 110.965 44.5829V47.6111H109.973V46.8816H109.952C109.626 47.4391 109.133 47.7212 108.488 47.7212C108.016 47.7212 107.642 47.5974 107.371 47.3427C107.101 47.0881 106.962 46.744 106.962 46.3173C106.962 45.4157 107.503 44.8927 108.578 44.7412L109.98 44.5485C109.98 43.8328 109.661 43.4818 109.029 43.4818C108.454 43.4818 107.919 43.6676 107.434 44.0393V43.1446L107.427 43.1377ZM108.911 45.3813C108.565 45.4295 108.315 45.5189 108.169 45.6428C108.023 45.7736 107.954 45.9663 107.954 46.214C107.954 46.4274 108.03 46.5994 108.183 46.7302C108.336 46.8678 108.537 46.9298 108.78 46.9298C109.127 46.9298 109.411 46.8128 109.633 46.565C109.862 46.3242 109.973 46.0213 109.973 45.6497V45.223L108.905 45.3675L108.911 45.3813Z" fill="black"/>
<path d="M112.214 41.1699C112.214 40.9979 112.269 40.8602 112.387 40.7501C112.505 40.64 112.658 40.585 112.838 40.585C113.019 40.585 113.164 40.64 113.289 40.7501C113.414 40.8602 113.47 41.0048 113.47 41.1699C113.47 41.3351 113.407 41.4796 113.289 41.5898C113.164 41.6999 113.019 41.7549 112.838 41.7549C112.658 41.7549 112.512 41.6999 112.394 41.5829C112.276 41.4728 112.214 41.3282 112.214 41.1631V41.1699ZM112.318 47.6117V42.8217H113.345V47.6117H112.318Z" fill="black"/>
<path d="M115.815 46.9641V49.8134H114.788V42.8211H115.815V43.6194H115.836C116.21 43.0138 116.752 42.7109 117.459 42.7109C118.077 42.7109 118.555 42.9243 118.909 43.351C119.263 43.7777 119.436 44.3558 119.436 45.0784C119.436 45.8768 119.235 46.5168 118.84 46.9986C118.444 47.4803 117.91 47.7212 117.237 47.7212C116.627 47.7212 116.162 47.4666 115.836 46.9641H115.815ZM115.808 45.5877C115.808 45.9593 115.926 46.2759 116.155 46.5237C116.391 46.7783 116.682 46.9022 117.036 46.9022C117.466 46.9022 117.799 46.737 118.035 46.4136C118.271 46.0901 118.389 45.6359 118.389 45.0647C118.389 44.5691 118.278 44.1906 118.063 43.9222C117.848 43.6538 117.536 43.5162 117.147 43.5162C116.758 43.5162 116.432 43.6607 116.183 43.9429C115.933 44.225 115.808 44.5829 115.808 45.0165V45.5877Z" fill="black"/>
<path d="M124.619 45.4845H121.302C121.344 46.4549 121.843 46.9366 122.794 46.9366C123.328 46.9366 123.814 46.7783 124.258 46.4617V47.3014C123.828 47.5836 123.259 47.7212 122.558 47.7212C121.857 47.7212 121.281 47.501 120.879 47.0743C120.477 46.6407 120.275 46.0351 120.275 45.2574C120.275 44.521 120.49 43.9084 120.928 43.4267C121.365 42.9449 121.906 42.7109 122.565 42.7109C123.224 42.7109 123.724 42.9174 124.084 43.3235C124.445 43.7295 124.625 44.2938 124.625 45.0096V45.4914L124.619 45.4845ZM123.619 44.7412C123.619 44.3283 123.522 44.0186 123.335 43.7983C123.148 43.5781 122.884 43.468 122.537 43.468C122.225 43.468 121.954 43.585 121.725 43.819C121.496 44.053 121.351 44.3627 121.295 44.7412H123.613H123.619Z" fill="black"/>
<path d="M125.576 41.1699C125.576 40.9979 125.632 40.8602 125.75 40.7501C125.868 40.64 126.02 40.585 126.201 40.585C126.381 40.585 126.527 40.64 126.652 40.7501C126.776 40.8602 126.832 41.0048 126.832 41.1699C126.832 41.3351 126.769 41.4796 126.652 41.5898C126.527 41.6999 126.381 41.7549 126.201 41.7549C126.02 41.7549 125.874 41.6999 125.757 41.5829C125.639 41.4728 125.576 41.3282 125.576 41.1631V41.1699ZM125.68 47.6117V42.8217H126.707V47.6117H125.68Z" fill="black"/>
<path d="M135.199 47.3429C134.7 47.5975 134.069 47.7214 133.305 47.7214C132.327 47.7214 131.543 47.4186 130.953 46.8061C130.364 46.1936 130.072 45.3883 130.072 44.3904C130.072 43.3925 130.398 42.484 131.051 41.8096C131.703 41.1351 132.549 40.791 133.576 40.791C134.228 40.791 134.762 40.8805 135.192 41.0594V42.1124C134.714 41.844 134.186 41.7132 133.611 41.7132C132.875 41.7132 132.285 41.9541 131.835 42.4359C131.39 42.9176 131.168 43.5439 131.168 44.3216C131.168 45.0993 131.377 45.6636 131.793 46.1247C132.209 46.5858 132.771 46.813 133.472 46.813C134.124 46.813 134.7 46.6616 135.192 46.3656V47.3498L135.199 47.3429Z" fill="black"/>
<path d="M136.268 41.1699C136.268 40.9979 136.323 40.8602 136.441 40.7501C136.559 40.64 136.712 40.585 136.892 40.585C137.072 40.585 137.218 40.64 137.343 40.7501C137.468 40.8602 137.523 41.0048 137.523 41.1699C137.523 41.3351 137.461 41.4796 137.343 41.5898C137.218 41.6999 137.072 41.7549 136.892 41.7549C136.712 41.7549 136.566 41.6999 136.448 41.5829C136.33 41.4728 136.268 41.3282 136.268 41.1631V41.1699ZM136.372 47.6117V42.8217H137.398V47.6117H136.372Z" fill="black"/>
<path d="M141.326 47.5562C141.138 47.6663 140.861 47.7145 140.507 47.7145C139.591 47.7145 139.133 47.2189 139.133 46.2348V43.6195H138.314V42.8143H139.133V41.6925L140.153 41.3828V42.8143H141.326V43.6195H140.153V46.0558C140.153 46.3518 140.209 46.5651 140.313 46.7028C140.417 46.8335 140.59 46.9024 140.826 46.9024C141.006 46.9024 141.173 46.8473 141.326 46.7441V47.5562Z" fill="black"/>
<path d="M146.397 42.8145L144.267 48.2377C143.844 49.3182 143.233 49.855 142.435 49.855C142.172 49.855 141.963 49.8275 141.797 49.7724V48.9121C141.963 48.9879 142.144 49.0223 142.317 49.0223C142.699 49.0223 142.983 48.8089 143.171 48.3891L143.511 47.5908L141.596 42.8076H142.734L143.892 46.2281C143.92 46.2969 143.955 46.4552 144.003 46.6892H144.024C144.038 46.5997 144.079 46.4483 144.142 46.2418L145.349 42.8145H146.383H146.397Z" fill="black"/>
<path d="M154.737 47.1502C154.064 47.5288 153.28 47.7215 152.399 47.7215C151.386 47.7215 150.581 47.4186 149.977 46.8061C149.374 46.1936 149.068 45.3746 149.068 44.3423C149.068 43.31 149.401 42.4428 150.074 41.7821C150.747 41.1145 151.608 40.7842 152.669 40.7842C153.398 40.7842 154.022 40.8943 154.535 41.1214V42.1882C154.001 41.8647 153.356 41.6995 152.6 41.6995C151.885 41.6995 151.302 41.9404 150.851 42.4153C150.393 42.8901 150.171 43.5164 150.171 44.2941C150.171 45.0718 150.38 45.7119 150.796 46.1592C151.212 46.6065 151.781 46.8268 152.496 46.8268C152.967 46.8268 153.363 46.7373 153.689 46.5653V44.886H152.253V44.0051H154.744V47.164L154.737 47.1502Z" fill="black"/>
<path d="M155.784 45.2574C155.784 44.466 156.013 43.8466 156.464 43.3923C156.915 42.9381 157.533 42.7041 158.317 42.7041C159.052 42.7041 159.635 42.9243 160.065 43.3648C160.495 43.8053 160.703 44.4109 160.703 45.1748C160.703 45.9387 160.481 46.565 160.03 47.0261C159.579 47.4872 158.976 47.7212 158.219 47.7212C157.463 47.7212 156.887 47.4941 156.45 47.0468C156.006 46.5994 155.791 46.0007 155.791 45.2505L155.784 45.2574ZM156.825 45.2368C156.825 45.7598 156.957 46.1727 157.213 46.4687C157.47 46.7646 157.824 46.9091 158.261 46.9091C159.191 46.9091 159.656 46.3448 159.656 45.2092C159.656 44.6587 159.538 44.2457 159.295 43.9567C159.059 43.6676 158.712 43.5231 158.261 43.5231C157.81 43.5231 157.456 43.6745 157.206 43.9842C156.95 44.2939 156.825 44.7068 156.825 45.2436V45.2368Z" fill="black"/>
<path d="M165.921 42.8145L164.04 47.6045H162.951L161.161 42.8145H162.278L163.367 46.111C163.458 46.3932 163.52 46.641 163.541 46.8406H163.562C163.589 46.6066 163.638 46.3657 163.721 46.1317L164.852 42.8145H165.927H165.921Z" fill="black"/>
<path d="M170.665 45.4845H167.349C167.391 46.4549 167.89 46.9366 168.841 46.9366C169.375 46.9366 169.861 46.7783 170.305 46.4617V47.3014C169.874 47.5836 169.306 47.7212 168.605 47.7212C167.904 47.7212 167.328 47.501 166.926 47.0743C166.523 46.6407 166.322 46.0351 166.322 45.2574C166.322 44.521 166.537 43.9084 166.974 43.4267C167.412 42.9449 167.953 42.7109 168.612 42.7109C169.271 42.7109 169.77 42.9174 170.131 43.3235C170.492 43.7295 170.672 44.2938 170.672 45.0096V45.4914L170.665 45.4845ZM169.666 44.7412C169.666 44.3283 169.569 44.0186 169.382 43.7983C169.195 43.5781 168.931 43.468 168.584 43.468C168.272 43.468 168.001 43.585 167.772 43.819C167.543 44.053 167.398 44.3627 167.342 44.7412H169.659H169.666Z" fill="black"/>
<path d="M174.475 43.7844C174.322 43.688 174.121 43.6399 173.871 43.6399C173.538 43.6399 173.268 43.7844 173.066 44.0734C172.858 44.3625 172.761 44.7479 172.761 45.2228V47.6109H171.734V42.8209H172.761V43.7706H172.782C173.018 43.0824 173.441 42.7383 174.045 42.7383C174.225 42.7383 174.371 42.7589 174.475 42.8002V43.7913V43.7844Z" fill="black"/>
<path d="M179.484 47.6111H178.464V44.9064C178.464 43.9841 178.124 43.523 177.451 43.523C177.111 43.523 176.827 43.6538 176.605 43.9084C176.383 44.1631 176.272 44.4865 176.272 44.8788V47.6111H175.245V42.8211H176.272V43.6056H176.293C176.654 43.0069 177.174 42.7109 177.868 42.7109C178.95 42.7109 179.484 43.3716 179.484 44.6861V47.6111Z" fill="black"/>
<path d="M187.983 47.6111H186.956V44.8651C186.956 44.3902 186.88 44.0461 186.727 43.8396C186.574 43.6263 186.325 43.523 185.992 43.523C185.7 43.523 185.45 43.6538 185.242 43.9222C185.034 44.1906 184.93 44.5141 184.93 44.8995V47.618H183.91V44.8031C183.91 43.9566 183.584 43.5299 182.925 43.5299C182.62 43.5299 182.37 43.6607 182.176 43.9153C181.975 44.17 181.877 44.5072 181.877 44.9132V47.618H180.851V42.8279H181.877V43.5781H181.898C182.245 43 182.752 42.7109 183.418 42.7109C184.084 42.7109 184.555 43.0275 184.791 43.6676C185.152 43.0275 185.693 42.7109 186.408 42.7109C187.462 42.7109 187.99 43.3579 187.99 44.6586V47.618L187.983 47.6111Z" fill="black"/>
<path d="M193.387 45.4845H190.071C190.112 46.4549 190.612 46.9366 191.562 46.9366C192.097 46.9366 192.582 46.7783 193.026 46.4617V47.3014C192.596 47.5836 192.027 47.7212 191.327 47.7212C190.626 47.7212 190.05 47.501 189.648 47.0743C189.245 46.6407 189.044 46.0351 189.044 45.2574C189.044 44.521 189.259 43.9084 189.696 43.4267C190.133 42.9449 190.674 42.7109 191.333 42.7109C191.993 42.7109 192.492 42.9174 192.853 43.3235C193.214 43.7295 193.394 44.2938 193.394 45.0096V45.4914L193.387 45.4845ZM192.388 44.7412C192.388 44.3283 192.291 44.0186 192.104 43.7983C191.916 43.5781 191.653 43.468 191.313 43.468C191 43.468 190.73 43.585 190.501 43.819C190.272 44.053 190.126 44.3627 190.071 44.7412H192.388Z" fill="black"/>
<path d="M198.695 47.6111H197.675V44.9064C197.675 43.9841 197.335 43.523 196.662 43.523C196.322 43.523 196.038 43.6538 195.816 43.9084C195.594 44.1631 195.483 44.4865 195.483 44.8788V47.6111H194.456V42.8211H195.483V43.6056H195.504C195.864 43.0069 196.385 42.7109 197.079 42.7109C198.161 42.7109 198.695 43.3716 198.695 44.6861V47.6111Z" fill="black"/>
<path d="M202.532 47.5562C202.344 47.6663 202.074 47.7145 201.713 47.7145C200.797 47.7145 200.339 47.2189 200.339 46.2348V43.6195H199.521V42.8143H200.339V41.6925L201.359 41.3828V42.8143H202.532V43.6195H201.359V46.0558C201.359 46.3518 201.415 46.5651 201.519 46.7028C201.623 46.8335 201.796 46.9024 202.032 46.9024C202.212 46.9024 202.379 46.8473 202.532 46.7441V47.5562Z" fill="black"/>
</g>
<defs>
<linearGradient id="paint0_linear_2717_7722" x1="25.7539" y1="32.0714" x2="92.8574" y2="32.0714" gradientUnits="userSpaceOnUse">
<stop stop-color="#E4007F"/>
<stop offset="0.71" stop-color="#FFAD00"/>
</linearGradient>
<linearGradient id="paint1_linear_2717_7722" x1="0" y1="21.2732" x2="65.3898" y2="21.2732" gradientUnits="userSpaceOnUse">
<stop stop-color="#00A7FF"/>
<stop offset="1" stop-color="#13AE67"/>
</linearGradient>
<clipPath id="clip0_2717_7722">
<rect width="273" height="53" fill="white"/>
</clipPath>
</defs>
</svg>
