<svg width="248" height="51" viewBox="0 0 248 51" fill="none" xmlns="http://www.w3.org/2000/svg">
<path d="M68.943 51.0008C64.4314 51.0008 61.7102 50.173 58.1738 47.559C53.6621 44.0389 52.9962 37.6175 53.5415 33.092C55.9874 19.2309 63.3723 8.41459 75.0591 5.98602C78.0948 5.43502 82.3601 5.45592 85.907 5.92074C90.9089 6.58664 94.1884 7.67558 94.1884 13.2169C94.1884 14.2301 94.0416 15.1128 93.6458 17.1836L87.9964 49.1023C87.7552 50.4628 86.7669 50.8441 86.1272 50.8441H82.714C81.605 50.8441 81.2249 49.9641 81.3744 49.1023L82.3024 43.9187C80.9287 45.9217 79.2509 47.4624 76.6425 49.0135C74.6029 50.2409 71.9447 51.006 68.9456 51.006L68.943 51.0008ZM68.1959 45.2061C80.9811 45.2061 83.178 38.1293 85.4299 26.3573C85.4299 26.3573 87.0211 17.6928 87.5586 14.674C87.9597 12.3421 85.962 11.167 83.9251 10.9293C81.744 10.6995 80.5984 10.71 78.0738 10.8379C69.2157 11.2218 61.9304 20.124 59.1726 33.737C58.3337 38.4897 60.9342 45.2088 68.1933 45.2088L68.1959 45.2061Z" fill="black"/>
<path d="M156.207 5.91797H183.424C184.913 5.91797 185.906 7.00691 185.906 8.39093C185.906 9.47987 185.311 10.2711 184.813 10.8639L154.416 44.7046H177.064C178.954 44.7046 179.997 45.8954 179.712 47.3003C179.586 48.0445 179.405 48.9089 179.177 49.7158C179.001 50.3243 178.443 50.7839 177.78 50.8413H146.866C145.377 50.8413 144.384 49.7524 144.384 48.3684C144.384 47.3786 144.782 46.6866 145.477 45.8954L176.27 11.8562H155.211C153.622 11.8562 152.629 10.7673 152.629 9.38325C152.629 7.40384 154.217 5.92058 156.204 5.92058L156.207 5.91797Z" fill="black"/>
<path d="M141.809 14.7726L135.732 49.1408C135.53 50.3446 134.526 50.8408 133.934 50.8408H130.602C129.739 50.8408 129.118 50.1984 129.294 49.1408L133.58 25.0431C133.884 23.3326 134.298 20.5672 134.576 18.9925C135.182 15.0363 134.445 11.8766 130.146 11.6546C126.864 11.5528 117.961 11.4822 115.114 11.6415C112.435 11.7512 110.259 13.3468 109.43 17.2508C108.875 20.4053 108.439 22.7581 107.913 25.7455L103.826 49.0964C103.634 50.295 102.62 50.8382 101.983 50.8382H98.5693C97.5496 50.8382 97.062 50.0339 97.2297 49.0964L101.6 25.0326C102.169 21.9721 102.905 17.8488 103.697 13.3494C104.594 8.88916 108.117 6.10806 112.532 5.91481C116.883 5.85475 129.624 5.82342 134.406 5.91481C139.033 6.07933 142.525 9.8397 141.804 14.77L141.809 14.7726Z" fill="black"/>
<path d="M247.999 21.1496C247.999 23.5259 247.593 25.7377 247.292 27.3463L243.427 49.1356C243.171 50.4125 242.182 50.8382 241.626 50.8382H238.289C237.343 50.8382 236.821 50.1279 236.981 49.1356L240.895 27.0486C241.199 25.3382 241.519 23.1577 241.519 21.7476C241.519 17.7339 238.239 12.2239 231.468 11.6546C228.637 11.4248 225.769 11.4901 222.804 11.6416C220.062 11.7591 217.909 13.4539 217.12 17.2508C216.565 20.4053 216.129 22.7582 215.602 25.7456L211.403 49.1356C211.177 50.2898 210.26 50.8382 209.602 50.8382H206.265C205.137 50.8382 204.82 49.8981 204.956 49.1356L209.292 25.0327C209.861 21.9721 210.635 17.4414 211.426 12.9446C212.09 9.5342 215.875 6.07936 219.857 5.91746C224.261 5.72944 225.965 5.71377 230.752 5.91746C242.78 5.91746 247.997 14.0701 247.997 21.1496H247.999Z" fill="black"/>
<path d="M194.824 49.0862C194.617 50.2352 193.723 50.8411 192.971 50.8411H189.534C188.178 50.8411 188.087 49.585 188.186 49.0862L195.395 8.7171C195.705 6.86303 197.257 5.41895 199.223 5.41895C201.189 5.41895 202.327 6.86042 202.017 8.7171L194.824 49.0862Z" fill="black"/>
<path d="M48.2309 25.4954C48.4721 23.9887 48.1313 23.5917 47.1168 23.3097C46.8887 23.2653 46.6161 23.2549 46.4011 23.2549C43.929 23.3828 42.4452 25.8715 41.3494 29.0469C40.4948 31.5512 39.2574 33.8205 37.1366 36.5285C35.0184 39.2391 31.613 42.1455 27.1485 43.8768C25.2374 44.5506 23.6671 45.0494 21.7665 45.3314C18.272 45.8432 17.3335 46.7807 16.4684 48.042C16.3294 48.2613 16.0883 48.8149 16.0358 49.1623C15.8078 50.3844 16.1879 51.0007 18.7544 51.0007C22.4324 51.0111 25.9846 50.2251 28.6952 49.1753C35.5139 46.5587 39.8944 42.2212 41.8789 39.8214C45.051 35.9905 47.6411 30.1567 48.2257 25.4954H48.2309Z" fill="black"/>
<path d="M34.5249 30.0104C36.6301 27.042 36.3121 23.2109 33.8147 21.4534C31.3172 19.6959 27.586 20.6775 25.4808 23.6458C23.3756 26.6142 23.6935 30.4453 26.191 32.2028C28.6884 33.9603 32.4197 32.9788 34.5249 30.0104Z" fill="black"/>
<path d="M3.70389 41.1947C2.49798 41.1947 1.67744 39.3249 1.27372 38.1211C0.870005 36.912 0.555421 35.6429 0.343077 34.345C-0.739618 27.7513 0.759901 20.7033 4.56375 14.4986C8.35187 8.31754 14.0039 3.67453 20.4739 1.42615C29.4369 -1.68922 38.6175 0.378987 44.4268 6.81862C44.8909 7.33306 45.0744 7.54719 45.3365 7.92584C45.9604 8.87899 47.0012 10.9681 44.5107 10.9681H42.8329C41.0896 10.9681 40.2953 10.6129 38.6044 9.19235C35.1702 6.24673 29.2822 4.518 22.3719 6.85257C11.5737 10.6025 4.24654 22.5208 6.03443 33.4206C6.19697 34.4155 6.28348 34.7811 6.55874 35.7134C7.35044 38.3117 5.77228 39.6539 5.22176 40.2049C4.67123 40.7559 4.00536 41.1947 3.70389 41.1947Z" fill="black"/>
</svg>
