<svg width="434" height="65" viewBox="0 0 434 65" fill="none" xmlns="http://www.w3.org/2000/svg">
<path d="M144.39 28.0062C144.39 27.9037 144.373 27.8097 144.356 27.7072L144.331 27.5876C144.305 27.4594 144.271 27.3484 144.22 27.2202L144.194 27.1519C144.134 27.0152 144.066 26.8956 143.972 26.7589C143.886 26.6307 143.792 26.5111 143.673 26.3915C143.562 26.289 143.451 26.195 143.297 26.0839C143.177 26.007 143.058 25.9387 142.921 25.8789L142.844 25.8447C142.725 25.7934 142.605 25.7593 142.511 25.7422C142.468 25.7336 142.426 25.7251 142.323 25.6995C142.263 25.6824 142.195 25.6738 142.127 25.6738H141.922C141.871 25.6738 141.819 25.6738 141.751 25.6738C141.683 25.6738 141.614 25.6824 141.572 25.6909C141.469 25.708 141.358 25.7336 141.221 25.7678L141.136 25.7934C140.999 25.8362 140.871 25.896 140.7 25.9814C140.581 26.0497 140.47 26.1181 140.367 26.2121L140.282 26.2804C140.205 26.3488 140.137 26.4171 140.077 26.4855C140.025 26.5453 139.966 26.6136 139.906 26.6905C139.88 26.7247 139.846 26.7674 139.829 26.8101C139.752 26.9297 139.692 27.0408 139.633 27.1861C139.573 27.3313 139.522 27.4765 139.487 27.6389V27.6901C139.462 27.767 139.445 27.8439 139.436 27.9208C139.299 29.6295 138.112 31.0734 136.506 31.5177C136.156 31.6117 135.789 31.6629 135.43 31.6629C134.123 31.6629 132.936 31.0563 132.176 29.9969C131.714 29.322 130.946 28.9119 130.126 28.9119C129.263 28.9119 128.477 29.3476 128.016 30.0994L127.982 30.1507C127.913 30.2789 127.853 30.3899 127.819 30.4924C127.811 30.5266 127.794 30.5608 127.777 30.6206V30.6462C127.734 30.7573 127.708 30.8427 127.7 30.9282L127.683 31.0136C127.683 31.0734 127.674 31.1247 127.666 31.1674V31.2187C127.648 31.287 127.648 31.3553 127.648 31.4493C127.648 31.5519 127.657 31.6373 127.683 31.774C127.683 31.8338 127.7 31.8851 127.708 31.9363C127.725 32.0132 127.751 32.0816 127.768 32.1499L127.794 32.2183C127.811 32.2781 127.836 32.3464 127.862 32.4062C127.879 32.4489 127.905 32.4917 127.939 32.5515C127.982 32.6454 128.041 32.7394 128.11 32.8505C129.801 35.2 132.543 36.6011 135.439 36.6011C136.25 36.6011 137.053 36.4901 137.822 36.2765C141.443 35.2769 144.083 32.0816 144.399 28.3224V28.1515C144.399 28.1002 144.399 28.0575 144.399 27.9977L144.39 28.0062Z" fill="#EA4E18"/>
<path d="M224.29 26.126C222.701 26.126 221.42 27.4161 221.42 28.9966C221.42 30.5772 222.71 31.8673 224.29 31.8673C225.87 31.8673 227.16 30.5772 227.16 28.9966C227.16 27.4161 225.87 26.126 224.29 26.126Z" fill="#53ADDE"/>
<path d="M233.37 26.126C231.79 26.126 230.5 27.4161 230.5 28.9966C230.5 30.5772 231.79 31.8673 233.37 31.8673C234.95 31.8673 236.249 30.5772 236.249 28.9966C236.249 27.4161 234.959 26.126 233.37 26.126Z" fill="#53ADDE"/>
<path d="M188.868 26.3742C188.646 25.7506 188.048 25.3319 187.194 25.1781L179.37 23.7941C178.43 23.6317 177.704 23.8795 177.302 24.4434C176.952 24.9389 176.91 25.6309 177.183 26.3828L179.891 33.8585C180.224 34.7812 180.873 35.328 181.625 35.328C182.188 35.328 182.752 35.0204 183.23 34.448L188.347 28.3649C188.911 27.6985 189.09 26.9894 188.868 26.3742Z" fill="#F1C81E"/>
<path d="M81.9069 4.94629H49.9691C47.6201 4.94629 45.6982 6.86006 45.6982 9.20956C45.6982 11.5591 47.6116 13.4728 49.9691 13.4728H61.6714V46.306C61.6714 48.6555 63.5848 50.5693 65.9338 50.5693C68.2827 50.5693 70.1961 48.6555 70.1961 46.306V13.4728H81.9069C84.2559 13.4728 86.1693 11.5591 86.1693 9.20956C86.1693 6.86006 84.2559 4.94629 81.9069 4.94629Z" fill="#2F2870"/>
<path d="M36.2087 13.4728C38.5577 13.4728 40.471 11.5591 40.471 9.20956C40.471 6.86006 38.5577 4.94629 36.2087 4.94629H0V49.3134H36.2087C38.5577 49.3134 40.471 47.3996 40.471 45.0501C40.471 42.7006 38.5577 40.7783 36.2087 40.7783H8.53325V31.3888H28.3417C30.6907 31.3888 32.604 29.4751 32.604 27.1256C32.604 24.7761 30.6907 22.8623 28.3417 22.8623H8.53325V13.4728H36.2087Z" fill="#2F2870"/>
<path d="M135.772 8.16797C124.343 8.16797 115.05 17.4634 115.05 28.8863C115.05 40.3091 124.343 49.6046 135.772 49.6046C147.201 49.6046 156.486 40.3091 156.486 28.8863C156.486 17.4634 147.193 8.16797 135.772 8.16797ZM135.772 41.7274C128.691 41.7274 122.934 35.969 122.934 28.8863C122.934 21.8036 128.691 16.0452 135.772 16.0452C142.853 16.0452 148.611 21.8122 148.611 28.8863C148.611 35.9604 142.853 41.7274 135.772 41.7274Z" fill="#EA4E18"/>
<path d="M250.24 46.247L247.285 37.9938L247.396 37.7546C248.72 34.9694 249.386 31.9876 249.386 28.8863C249.386 17.4634 240.093 8.16797 228.664 8.16797C217.235 8.16797 207.941 17.4634 207.941 28.8863C207.941 40.3091 217.235 49.6046 228.664 49.6046C232.362 49.6046 235.993 48.6135 239.17 46.7425L239.367 46.6229L248.472 48.1949C248.472 48.1949 249.13 48.3316 249.258 48.3316C249.933 48.3316 250.48 47.7848 250.48 47.1099C250.48 46.939 250.24 46.2384 250.24 46.2384V46.247ZM228.672 41.7274C221.591 41.7274 215.834 35.969 215.834 28.8863C215.834 21.8036 221.591 16.0452 228.672 16.0452C235.753 16.0452 241.511 21.8122 241.511 28.8863C241.511 35.9604 235.753 41.7274 228.672 41.7274Z" fill="#53ADDE"/>
<path d="M198.759 0C196.41 0 194.488 1.91377 194.488 4.26328V12.0892L193.523 11.4656C190.174 9.30402 186.296 8.15917 182.307 8.15917C170.887 8.15917 161.585 17.4547 161.585 28.8775C161.585 40.3003 170.878 49.5958 182.307 49.5958C186.305 49.5958 190.2 48.451 193.548 46.2723L194.411 45.717L194.514 46.7422C194.736 48.9209 196.564 50.5612 198.759 50.5612C201.108 50.5612 203.03 48.6475 203.03 46.298V4.26328C203.03 1.91377 201.116 0 198.759 0ZM194.462 33.0297C192.686 38.2328 187.808 41.7271 182.307 41.7271C175.226 41.7271 169.469 35.9687 169.469 28.886C169.469 21.8034 175.226 16.045 182.307 16.045C187.8 16.045 192.686 19.5393 194.462 24.7424C194.924 26.0752 195.154 27.4763 195.154 28.886C195.154 30.2957 194.924 31.6969 194.462 33.0297Z" fill="#F1C81E"/>
<path d="M100.682 20.5562H106.883C109.241 20.5562 111.154 18.6425 111.154 16.293C111.154 13.9435 109.241 12.0297 106.883 12.0297H100.682V9.12485C100.648 6.80099 98.7427 4.9043 96.4108 4.9043C94.0789 4.9043 92.1741 6.80099 92.1484 9.12485V9.3299V33.3632C92.1484 33.423 92.1484 33.4742 92.1484 33.534C92.1484 41.0268 96.8635 47.4004 103.483 49.8866C103.577 49.9293 103.671 49.9634 103.765 49.9976C103.851 50.0233 103.928 50.066 104.013 50.0916V50.0745C104.406 50.1856 104.807 50.271 105.226 50.271C107.575 50.271 109.48 48.3658 109.48 46.0163C109.48 44.205 108.344 42.6672 106.746 42.052V42.035C103.56 40.6594 100.699 36.6097 100.699 33.7049C100.699 33.6195 100.699 33.534 100.699 33.4486V32.0816V24.4778V20.5648L100.682 20.5562Z" fill="#2F2870"/>
<path d="M294.837 14.2765C294.709 11.9953 292.821 10.167 290.507 10.167C288.414 10.167 286.671 11.6621 286.261 13.6357C286.244 13.7297 286.227 13.8322 286.21 13.9262C286.193 14.0458 286.176 14.1569 286.176 14.2765H286.167V14.3619H286.15V27.6046V30.5436C285.928 36.5412 281.008 41.3427 274.96 41.3427C268.913 41.3427 263.882 36.4472 263.762 30.3556V29.7746C263.762 29.6636 263.762 29.5525 263.771 29.45V14.2765H263.762C263.762 14.1483 263.737 14.0116 263.719 13.8835C263.711 13.7895 263.694 13.7041 263.677 13.6186C263.267 11.6536 261.524 10.167 259.44 10.167C257.125 10.167 255.229 11.9953 255.109 14.2765H255.092V14.3619H255.075V29.4158C255.092 29.749 255.109 30.0737 255.126 30.3983C255.22 41.2658 264.053 50.0487 274.943 50.0487C277.489 50.0487 279.923 49.5617 282.161 48.6903L281.896 49.3737C279.821 54.6708 274.004 56.4393 273.756 56.5077C271.937 57.0716 270.707 58.7376 270.707 60.6599C270.707 63.0436 272.629 64.9744 275.003 65.0001H275.046C275.541 65.0001 276.037 64.9061 276.515 64.7352C281.871 62.437 293.009 57.6525 294.632 32.5257C294.649 32.2523 294.666 31.9789 294.683 31.7055V31.6799C294.709 31.4834 294.726 31.2783 294.752 31.0733C294.795 30.6461 294.82 30.2189 294.837 29.7832L294.863 29.4158V14.2765H294.854H294.837Z" fill="#2F2870"/>
<path d="M344.798 23.2134C344.798 21.9233 343.807 20.8724 342.535 20.7699V20.7528H342.355C342.355 20.7528 342.33 20.7528 342.321 20.7528C342.313 20.7528 342.296 20.7528 342.287 20.7528H331.208V17.0876L340.493 15.6693C341.655 15.4985 342.552 14.4989 342.552 13.2857C342.552 11.9529 341.467 10.8678 340.134 10.8678C340.015 10.8678 339.895 10.8849 339.776 10.902L328.005 12.6962V12.7133C326.954 12.9781 326.177 13.9179 326.177 15.0542C326.177 15.0798 326.177 15.0969 326.177 15.114V31.6203C326.177 34.1407 326.092 36.6782 325.759 39.1729C325.665 39.8991 325.545 40.6339 325.4 41.3515C325.332 41.6762 325.255 42.0008 325.178 42.317C325.058 42.0265 324.887 41.7702 324.674 41.5395L324.648 41.5139C324.64 41.4968 324.623 41.4882 324.614 41.4711L318.447 34.7217H322.889C322.889 34.7217 322.897 34.7217 322.906 34.7217C322.906 34.7217 322.914 34.7217 322.923 34.7217H323.111V34.7046C324.349 34.6021 325.323 33.5683 325.323 32.3038C325.323 31.0394 324.349 30.0141 323.111 29.9031V29.886H322.94C322.94 29.886 322.923 29.886 322.906 29.886C322.889 29.886 322.889 29.886 322.871 29.886H316.525V27.3998H322.889C322.889 27.3998 322.897 27.3998 322.906 27.3998C322.906 27.3998 322.914 27.3998 322.923 27.3998H323.111V27.3827C324.349 27.2802 325.323 26.2464 325.323 24.9819C325.323 23.7175 324.349 22.6922 323.111 22.5812V22.5641H322.94C322.94 22.5641 322.923 22.5641 322.906 22.5641C322.889 22.5641 322.889 22.5641 322.871 22.5641H319.002L321.616 17.7796H323.111V17.7625C324.349 17.66 325.323 16.6262 325.323 15.3618C325.323 14.0973 324.349 13.0721 323.111 12.961V12.9439H322.94C322.94 12.9439 322.923 12.9439 322.906 12.9439C322.889 12.9439 322.889 12.9439 322.871 12.9439H316.516V11.1925C316.516 11.1925 316.516 11.1498 316.516 11.1241C316.516 9.73152 315.389 8.6123 314.005 8.6123C312.621 8.6123 311.511 9.72298 311.494 11.0985V12.9525H305.156C305.156 12.9525 305.13 12.9525 305.122 12.9525C303.789 12.9525 302.704 14.0375 302.704 15.3703C302.704 16.7031 303.789 17.7882 305.122 17.7882H306.454L309.068 22.5726H305.156C305.156 22.5726 305.13 22.5726 305.122 22.5726C303.789 22.5726 302.704 23.6577 302.704 24.9905C302.704 26.3233 303.789 27.4083 305.122 27.4083C305.122 27.4083 305.13 27.4083 305.139 27.4083H311.502V29.8945H305.156C305.156 29.8945 305.13 29.8945 305.122 29.8945C303.789 29.8945 302.704 30.9795 302.704 32.3124C302.704 33.6452 303.789 34.7302 305.122 34.7302C305.122 34.7302 305.13 34.7302 305.139 34.7302H309.589L303.422 41.4797C303.422 41.4797 303.405 41.5053 303.388 41.5139L303.362 41.548C302.935 42.0008 302.679 42.5989 302.679 43.2653C302.679 44.6494 303.806 45.7771 305.19 45.7771C305.933 45.7771 306.599 45.4439 307.061 44.9313L311.494 40.0871V47.708C311.494 47.708 311.494 47.7336 311.494 47.7507C311.494 47.7678 311.494 47.7763 311.494 47.7934V47.8362C311.537 49.186 312.638 50.2625 313.997 50.2625C315.355 50.2625 316.457 49.1775 316.499 47.8362V40.0871L320.941 44.9484C321.402 45.4525 322.06 45.7857 322.812 45.7857C323.205 45.7857 323.58 45.6831 323.914 45.5208C323.572 46.2299 323.273 46.9562 323.273 47.6909V47.708C323.273 47.7422 323.273 47.7678 323.273 47.802C323.273 49.4765 325.084 50.8008 326.656 50.1515C327.544 49.7841 327.997 49.0237 328.347 48.1779C329.278 45.9565 329.987 43.7096 330.422 41.343C330.721 39.7026 330.892 38.0708 331.003 36.4133C331.08 35.2685 331.131 34.1151 331.166 32.9617V25.691H334.941V48.1437C334.941 48.1437 334.941 48.1693 334.941 48.1864C334.941 48.2035 334.941 48.2121 334.941 48.2292V48.2548C334.975 49.6559 336.111 50.7752 337.521 50.7752C338.93 50.7752 340.066 49.6559 340.1 48.2548V48.2206C340.1 48.2206 340.1 48.2035 340.1 48.195C340.1 48.1864 340.1 48.1779 340.1 48.1693V25.6996H342.261C342.261 25.6996 342.27 25.6996 342.278 25.6996C342.278 25.6996 342.287 25.6996 342.296 25.6996H342.483V25.6825C343.748 25.5714 344.747 24.5291 344.747 23.239L344.798 23.2134ZM316.363 17.7796L314.048 22.0087L311.733 17.7796H316.354H316.363Z" fill="#2F2870"/>
<path d="M388.19 11.0131V10.7568H370.765V26.8958H383.193V47.691C383.193 47.691 383.193 47.7166 383.193 47.7337C383.193 47.7508 383.193 47.7593 383.193 47.7764V47.8191C383.236 49.169 384.338 50.2455 385.696 50.2455C387.054 50.2455 388.156 49.1605 388.198 47.8191V11.0131H388.173H388.19ZM383.193 22.4873H375.428V20.7614H383.193V22.4873ZM383.193 16.6861H375.428V14.9603H383.193V16.6861Z" fill="#2F2870"/>
<path d="M366.545 10.7568H349.12V12.1665V47.6995C349.12 47.6995 349.12 47.7252 349.12 47.7422C349.12 47.7508 349.12 47.7679 349.12 47.7764V47.8277C349.163 49.1776 350.265 50.2541 351.623 50.2541C352.981 50.2541 354.083 49.169 354.134 47.8277V26.9043H366.537V10.7568H366.545ZM361.899 22.4873H354.151V20.7614H361.899V22.4873ZM361.899 16.6861H354.151V14.9603H361.899V16.6861Z" fill="#2F2870"/>
<path d="M378.264 29.0488C378.264 29.0488 378.256 29.0488 378.247 29.0488H359.566C358.362 29.0574 357.38 30.0399 357.38 31.2445C357.38 32.4492 358.353 33.4232 359.549 33.4317V44.5214C358.345 44.5214 357.371 45.5039 357.371 46.7085C357.371 47.9132 358.353 48.8957 359.558 48.8957H373.771C373.771 50.126 374.779 51.117 376.009 51.117C377.239 51.117 378.239 50.126 378.239 48.8957H378.256V48.4173V33.4317C379.46 33.4317 380.442 32.4492 380.442 31.2445C380.442 30.0399 379.46 29.0574 378.256 29.0574L378.264 29.0488ZM373.481 44.5214H364.333V43.0262H373.481V44.5214ZM373.481 39.7711H364.333V38.2332H373.481V39.7711ZM373.481 34.9781H364.333V33.4488H373.481V34.9781Z" fill="#2F2870"/>
<path d="M409.665 24.2471H400.918V27.2203H409.665V24.2471Z" fill="#2F2870"/>
<path d="M409.665 29.0312H400.918V32.0044H409.665V29.0312Z" fill="#2F2870"/>
<path d="M427.098 24.2471H418.352V27.2203H427.098V24.2471Z" fill="#2F2870"/>
<path d="M427.098 29.0312H418.352V32.0044H427.098V29.0312Z" fill="#2F2870"/>
<path d="M399.082 33.8757C397.92 33.8757 396.972 34.8155 396.972 35.986C396.972 37.1565 397.911 38.0963 399.082 38.0963C399.09 38.0963 399.107 38.0963 399.116 38.0963H429.046C429.046 38.0963 429.072 38.0963 429.08 38.0963C430.251 38.0963 431.19 37.1565 431.19 35.986C431.19 34.8155 430.251 33.8757 429.08 33.8757L399.082 33.8672V33.8757Z" fill="#2F2870"/>
<path d="M416.481 17.2839V15.6863H430.378C430.378 15.6863 430.404 15.6863 430.412 15.6863C430.421 15.6863 430.438 15.6863 430.447 15.6863H430.515C431.813 15.6265 432.847 14.5585 432.847 13.2513C432.847 11.9442 431.813 10.8762 430.515 10.8164H430.464C430.447 10.8164 430.421 10.8164 430.404 10.8164C430.378 10.8164 430.361 10.8164 430.344 10.8164H397.484C397.484 10.8164 397.441 10.8164 397.424 10.8164C396.074 10.8164 394.981 11.91 394.981 13.2599C394.981 14.6098 396.074 15.7034 397.424 15.7034C397.433 15.7034 397.45 15.7034 397.458 15.7034H411.407V17.301H393.888V32.2268H398.953V22.3674H411.407V32.2695H416.481V22.3674H428.935V32.2268H434.009V17.301H416.489L416.481 17.2839Z" fill="#2F2870"/>
<path d="M431.096 39.5398H431.027H431.019C431.002 39.5398 431.002 39.5398 430.993 39.5398H397.159H397.142C395.972 39.5398 395.032 40.4881 395.032 41.6501C395.032 42.812 395.963 43.7518 397.125 43.7604H399.893L397.723 46.2038L397.193 46.8019C397.125 46.8702 397.057 46.9471 396.988 47.0326L396.963 47.0582C396.689 47.4256 396.518 47.8784 396.518 48.3739C396.518 49.5871 397.501 50.5696 398.714 50.5696C398.791 50.5696 398.876 50.5696 398.953 50.5525L429.43 50.5696H429.507C430.686 50.5269 431.634 49.5615 431.634 48.3739C431.634 47.8271 431.429 47.323 431.104 46.9386L430.079 45.7852L428.277 43.7604H431.104C432.232 43.7091 433.137 42.7778 433.137 41.6415C433.137 40.5052 432.232 39.5825 431.104 39.5312L431.096 39.5398ZM403.779 46.3918L406.111 43.7604H422.033L424.356 46.3918H403.779Z" fill="#2F2870"/>
</svg>
