<svg id="圖層_1" data-name="圖層 1" xmlns="http://www.w3.org/2000/svg" viewBox="0 0 2311.4 914.54"><defs><style>.cls-1{fill:#221c35;}.cls-2{fill:#e95758;}.cls-3{fill:none;}</style></defs><path class="cls-1" d="M785.68,688.86c18.55,7,44.06,17.47,57.51,24l-7,11.29c-13.29-7-40-18.55-59.21-26.28l6.19-9h-8.35c-7.57,18.55-24.27,29.53-66,34.63a45.38,45.38,0,0,0-6.49-12.06c34-3.55,49-10.67,56.12-22.57h-53.8V677h58.59c.46-2.63.92-5.1,1.39-8H780c-.46,2.78-.93,5.41-1.39,8h64v11.9Zm-54.1-17.62H718.13V593.48h45.29a120.48,120.48,0,0,0,4.18-11.75l15.61,1.7c-1.55,3.71-3.25,7-4.79,10.05h52.25V659.8c0,5.72-1.09,8.5-4.33,10.51-3.4,2-8,2.16-13.76,2.16a45.85,45.85,0,0,0-4.64-11c3.25.15,6,.15,7.27.15s1.54-.46,1.54-1.7v-55H731.58Zm36.32-6.8V649a96.44,96.44,0,0,1-25.81,17.47,45.9,45.9,0,0,0-7.27-8.2,85.17,85.17,0,0,0,27.36-16.38H738.07v-9h13.14a47.57,47.57,0,0,0-4.33-9.58l8.35-2.63a41.6,41.6,0,0,1,5.25,11l-3.55,1.24h11V619.3c-8.81.46-17.77.61-25.81.61a29.41,29.41,0,0,0-2.47-7.88c21.33-.46,47.76-2,62.14-4.33l6.18,7.89c-7.88,1.23-18.24,2.31-28.91,3.09V632.9h10.82l-3.24-1.24c1.86-3.55,4.48-8.81,5.87-12.36l9,2.93c-2.16,4-4.48,7.58-6.49,10.67h15.15v9H781.66c10.05,4.79,22.26,11.28,28.76,15.76l-6,8A237.25,237.25,0,0,0,779,651v13.45Z"/><path class="cls-1" d="M1068.88,685.3c-5.1,6.81-11.9,12.68-19.63,17.94,5.1,4.94,10.67,7.73,16.39,7.57,4,0,5.1-3.25,5.87-13.14a31.38,31.38,0,0,0,10.82,5.57c-2.16,16.69-6.64,20.71-17.47,20.71-10.51,0-19.94-5-27.51-13.45a195.76,195.76,0,0,1-32.93,13.3C1003,721,999.47,715,997,712.36a150.92,150.92,0,0,0,33.24-11.6,91,91,0,0,1-8.82-20.4H988.19v8.35c8.35-.62,17-1.24,25.51-1.86v10c-8.51.77-17.16,1.55-25.51,2.16v11.6c0,7-1.55,10.05-6.65,11.59-4.95,1.7-12.52,1.86-24.12,1.86a61.76,61.76,0,0,0-4.17-11.29c7.73.47,15.93.47,17.94.31,2.47,0,3.09-.62,3.09-2.78V700.3l-30.92,2.47-1.24-11.13c8.81-.46,19.94-1.08,32.16-2v-9.27H942.74v-11h31.54v-8.66c-9,.93-17.93,1.55-26.28,1.86a34.43,34.43,0,0,0-3.1-9c20.41-1.08,44.52-3.71,58.13-7.11l8.5,8.66c-6.8,1.7-14.84,2.94-23.34,4.17v10h30.45a151.07,151.07,0,0,1-2.78-21.33h13.91a115.39,115.39,0,0,0,2.78,21.33h30.92c-5.25-4.48-16.08-10.51-24.89-14.22l8-8.35c8.81,3.25,19.79,8.81,25.35,13.61l-8.19,9H1080v11H1035.8a66.6,66.6,0,0,0,6.34,13.76,59.7,59.7,0,0,0,14.53-13Zm10.51-39.42H942.89V634.6h60.6v-7.88h-45.6V616.36h45.6v-7.89H949.7V597.65h29.68A64.88,64.88,0,0,0,972,586.37l12.52-4.17a54.12,54.12,0,0,1,10.2,15.15l-.77.3h34.32a140.79,140.79,0,0,0,8.19-15.76l15.61,3.4c-3.09,4.48-6,8.81-8.81,12.36h29.53v10.82h-54.57v7.89h46.37v10.36h-46.37v7.88h61.21Z"/><path class="cls-1" d="M1238.67,657.09c-4.49-3.71-14.53-11-22-16.07-5.41,8.34-14.54,16.54-29.69,23.34a44,44,0,0,0-9.11-9.58c17.93-7,26-15.93,29.52-24.58h-28V618.76H1190c-2.78-1.86-8-5.26-11-6.5,7.73-7.73,13.76-19,17-30.45l12.83,2.63c-1.08,3.55-2.32,6.8-3.55,10.2h40v11.44H1224v8c0,1.54,0,3.09-.15,4.64h25.35V630.2h-27.52l-.46,1.39c6.34,3.09,23.34,13.14,27.51,16.07Zm-28.45-38.33c.16-1.7.16-3.25.16-4.8v-7.88h-10.82a61.6,61.6,0,0,1-9,12.68ZM1201,660.49h96.92V724h-14.68v-5.26h-68v5.41H1201Zm14.22,11.44V684h68V671.93Zm68,35.25V694.81h-68v12.37Zm27.67-112.69v55.18h-55.81V594.49Zm-14.22,12.67H1268.5V637h28.14Z"/><path class="cls-1" d="M1408.56,713.28c7.73-6.49,14.53-16.85,18.39-25.66l12.37,5.56c-4.64,9.28-10.67,20.25-18.55,27.36Zm108.52-48.85H1409.79v-9h107.29V648h-94v-9.43h108.05v16.85h15.77v9h-15.77v17.16H1478c6.49,4.48,14.06,10.2,18.08,14.37l-9.89,8.35c-4.33-4.64-13-11.75-19.79-16.69l7.42-6h-51.63v-9.43h94.92ZM1437,629h-25.82v-9H1437v-6.34h-20.25v-8.81H1437v-6.34h-23.81v-9H1437v-7.27h13.14v7.27h22.57v9h-22.57v6.34h20.71v8.81h-20.71v6.34h24.43v9h-24.43v7.26H1437Zm58.59,81.16c6.34,0,7.42-1.55,8.19-12.84,2.94,2,8.81,4,12.68,4.8-1.86,16.54-5.88,20.56-19.64,20.56h-28.75c-18.09,0-22.57-3.71-22.57-16.85V687.15h14.22V705.7c0,4,1.4,4.49,9.59,4.49Zm7.11-80.85h-25.35v-9h25.35v-6.65h-20.56v-8.81h20.56v-6.34h-23.81v-9h23.81v-7.27H1516v7.27h25.67v9H1516v6.34h23.19v8.81H1516v6.65h28.45v9H1516v6.95H1502.7Zm20.41,57.19c9.27,7.73,20.4,18.86,25.81,26.59l-12.52,7.11c-4.64-7.42-15.61-19-24.74-27.2Z"/><path class="cls-1" d="M1695.34,677c-2.17-4.64-7.43-13.3-12.06-20.41v67.56h-13.92V661.5c-5.71,14.07-12.67,27.21-19.78,36-1.39-3.87-4.79-9.74-7-13.3,9.12-10.51,19-28.91,24.73-45.29h-22.72V625.48h24.73V604.77c-6.64,1.23-13.29,2.16-19.47,3.09a44.2,44.2,0,0,0-4-11.13c17.31-2.79,37.1-7.27,49.16-12.53l8.19,11.75a145.76,145.76,0,0,1-19.94,5.88v23.65h21.64v13.45h-21.64v2.16c4.63,4.79,17.77,20.56,20.71,24.58Zm72.5,7.57v39.58h-14.23V687l-48.69,8.19-2.16-13.76,50.85-8.5V582.35h14.23v88.27l16.85-2.78,2.16,13.45Zm-33.7-20.87c-5.11-6.64-16.39-16.54-25.82-23l9.12-8.35c9.27,6.18,21,15.46,26.43,22ZM1738,623c-4.64-6.5-15.15-15.93-24-22.42l9.43-8.19c8.81,6,19.48,15,24.58,21.48Z"/><path class="cls-1" d="M1935.49,661.65l-17.63,5.1v40.66c0,7.42-1.54,11.29-6,13.45s-11.44,2.63-21.95,2.47a55.92,55.92,0,0,0-4.33-13c6.8.15,13.29.15,15.15,0,2.31,0,3.09-.78,3.09-2.94V670.77c-6,1.7-11.6,3.25-17,4.64l-3.71-13.76c5.88-1.39,13-3.09,20.72-4.94V625.63h-19V612.34h19V582h14.06v30.15h16.24v13.44h-16.24v27.21l15.93-4.17Zm83.32-18.86c-6.18,21.34-16.54,38.19-30.14,51.17a108.1,108.1,0,0,0,38,17.93c-3.24,2.79-7.26,8.51-9.27,12.22a107.69,107.69,0,0,1-40-20.87,131,131,0,0,1-42.2,20.56,61.4,61.4,0,0,0-7.73-13,123.86,123.86,0,0,0,39.73-17.47c-10.2-11.28-18.09-24.58-24-40l2-.61H1939V639.55h31.85V618.37h-34.63V605.23h34.63V582h14.22v23.19h35.71v13.14h-35.71v21.18h22l2.47-.47Zm-61.52,9.9A97.58,97.58,0,0,0,1978,684.53a92.08,92.08,0,0,0,22.57-31.84Z"/><path class="cls-2" d="M341.28,331.33l-46.5-.22a11.61,11.61,0,0,0-10.11,5.81l-94.73,164a7,7,0,0,0,6,10.53h45.29a11.64,11.64,0,0,0,10.07-5.82l61.75-107a7,7,0,0,1,12.08,0l61.63,107a11.62,11.62,0,0,0,10.1,5.82h43.17A6.86,6.86,0,0,0,446,501.13l-94.69-164A11.62,11.62,0,0,0,341.28,331.33Z"/><path class="cls-2" d="M497.67,505.65a11.63,11.63,0,0,0,10.1,5.81l43,.1a6.86,6.86,0,0,0,5.92-10.29L379,193.86a6.87,6.87,0,0,0-11.89,0L346,230.52a11.63,11.63,0,0,0,0,11.65Z"/><path class="cls-1" d="M1350.59,364.44l37.26-64.16a11.51,11.51,0,0,0,0-11.56l-14.15-24.57a11.55,11.55,0,0,0-10-5.78l-70.8-.05a11.54,11.54,0,0,0-10,5.77L1181.83,439.25a11.54,11.54,0,0,0,.31,12.05l11.3,19.79c3.38,5.21,8.7,5.08,11.81-.29l98.16-169.6a11.55,11.55,0,0,1,10-5.75l23.55.13a6.91,6.91,0,0,1,6,10.35l-25.45,44.41a9.72,9.72,0,0,1-8.43,4.88,6.93,6.93,0,0,0-6,10.4l61,105.62a6.93,6.93,0,0,0,12-.05l11.35-20a11.54,11.54,0,0,0,0-11.56L1350.59,376A11.55,11.55,0,0,1,1350.59,364.44Z"/><path class="cls-1" d="M1717.3,389.46a11.58,11.58,0,0,1,10-5.74l76.38-.06a7,7,0,0,0,6-3.47l13.82-23.94a6.94,6.94,0,0,0-6-10.41l-63.2,0a6.93,6.93,0,0,1-6-10.39l19.54-34a11.55,11.55,0,0,1,10-5.79h77.6a11.54,11.54,0,0,0,10-5.78l12.49-21.63a6.94,6.94,0,0,0-6-10.41H1758.08a11.58,11.58,0,0,0-10,5.78L1665,407.51a11.62,11.62,0,0,0,0,11.59l11.57,20.18a6.94,6.94,0,0,0,12,0Z"/><path class="cls-1" d="M2097.53,258.06h-178a6.93,6.93,0,0,0-6,10.43l12.62,21.64a11.54,11.54,0,0,0,10,5.74H2114a6.93,6.93,0,0,0,6-10.4l-12.48-21.63A11.56,11.56,0,0,0,2097.53,258.06Z"/><path class="cls-1" d="M1939,471.39l-11.46-19.7a11.56,11.56,0,0,1,0-11.6l63.91-110.76a11.57,11.57,0,0,1,10-5.77h22.72a6.93,6.93,0,0,1,6,10.4L1951,471.38A6.93,6.93,0,0,1,1939,471.39Z"/><path class="cls-1" d="M870.05,451.77l11.42,19.78a6.94,6.94,0,0,0,12,0l117.14-202.76a6.93,6.93,0,0,0-6-10.4l-22.82-.08a11.57,11.57,0,0,0-10,5.78L870.05,440.21A11.58,11.58,0,0,0,870.05,451.77Z"/><path class="cls-1" d="M890.27,350.75l11.38-19.62a11.63,11.63,0,0,0,0-11.66l-32.13-55.39a11.57,11.57,0,0,0-10-5.78H836.75a6.94,6.94,0,0,0-6,10.41l47.51,82A6.94,6.94,0,0,0,890.27,350.75Z"/><path class="cls-1" d="M733,448.16l-12.16,21a11.56,11.56,0,0,1-10,5.77H671.47a11.6,11.6,0,0,1-10-5.8l-3.24-5.65L606,373.14a11.57,11.57,0,0,1,.09-11.42l56.6-98c1.86-3.49,5.26-5.36,7.74-5.36H788a6.94,6.94,0,0,1,6,10.41L782.2,289.22a11.58,11.58,0,0,1-10,5.78H692.75a11.57,11.57,0,0,0-10,5.77l-35.3,61.06a11.56,11.56,0,0,0-.06,11.47L681.18,432a11.56,11.56,0,0,0,10.08,5.79l35.71,0A6.94,6.94,0,0,1,733,448.16Z"/><path class="cls-1" d="M1134.12,448.16l-12.16,21a11.57,11.57,0,0,1-10,5.77h-39.34a11.57,11.57,0,0,1-10-5.8l-3.25-5.65-52.21-90.33a11.59,11.59,0,0,1,.08-11.42l56.61-98c1.86-3.49,5.26-5.36,7.73-5.36h117.6a6.94,6.94,0,0,1,6,10.41l-11.81,20.46a11.57,11.57,0,0,1-10,5.78h-79.44a11.55,11.55,0,0,0-10,5.77l-35.3,61.06a11.54,11.54,0,0,0-.06,11.47L1082.32,432a11.57,11.57,0,0,0,10.08,5.79l35.71,0A6.94,6.94,0,0,1,1134.12,448.16Z"/><rect class="cls-1" x="650.29" y="389.08" width="0.01" height="0.01" transform="translate(-107.47 380.67) rotate(-30.26)"/><path class="cls-1" d="M1529.85,261.1l-11.46,19.7a11.56,11.56,0,0,0,0,11.6L1621,469.07a11.54,11.54,0,0,0,10,5.77h22.73a6.93,6.93,0,0,0,6-10.4L1541.85,261.12A6.93,6.93,0,0,0,1529.85,261.1Z"/><path class="cls-1" d="M1505,324.12l11.45,19.7a11.56,11.56,0,0,1,0,11.6l-65.74,113.65a11.56,11.56,0,0,1-10,5.77H1418a6.93,6.93,0,0,1-6-10.4l81-140.31A6.93,6.93,0,0,1,1505,324.12Z"/><path class="cls-3" d="M127,510.44l-12.16,21a11.57,11.57,0,0,1-10,5.77H65.48a11.57,11.57,0,0,1-10-5.8l-3.25-5.65L0,435.42A11.59,11.59,0,0,1,.08,424l56.61-98c1.86-3.49,5.26-5.36,7.73-5.36H182A6.94,6.94,0,0,1,188,331L176.21,351.5a11.57,11.57,0,0,1-10,5.78H86.76a11.55,11.55,0,0,0-10,5.77l-35.3,61.06a11.54,11.54,0,0,0-.06,11.47l33.79,58.67A11.57,11.57,0,0,0,85.27,500L121,500A6.94,6.94,0,0,1,127,510.44Z"/><path class="cls-3" d="M2249.42,510.44l-12.16,21a11.57,11.57,0,0,1-10,5.77h-39.34a11.57,11.57,0,0,1-10-5.8l-3.25-5.65-52.21-90.33a11.59,11.59,0,0,1,.08-11.42l56.61-98c1.86-3.49,5.26-5.36,7.73-5.36h117.6a6.94,6.94,0,0,1,6,10.41l-11.82,20.46a11.57,11.57,0,0,1-10,5.78h-79.44a11.55,11.55,0,0,0-10,5.77l-35.3,61.06a11.54,11.54,0,0,0-.06,11.47l33.79,58.67A11.57,11.57,0,0,0,2207.7,500l35.71,0A6.94,6.94,0,0,1,2249.42,510.44Z"/><path class="cls-3" d="M286,128.45l-21-12.16a11.56,11.56,0,0,1-5.77-10V67a11.57,11.57,0,0,1,5.8-10l5.64-3.24L361,1.46a11.55,11.55,0,0,1,11.41.09l98,56.6c3.48,1.86,5.35,5.26,5.35,7.74V183.48a6.93,6.93,0,0,1-10.4,6l-20.46-11.81a11.56,11.56,0,0,1-5.78-10V88.23a11.57,11.57,0,0,0-5.77-10l-61.07-35.3a11.56,11.56,0,0,0-11.47-.06l-58.66,33.8a11.56,11.56,0,0,0-5.79,10.08v35.71A6.93,6.93,0,0,1,286,128.45Z"/><path class="cls-3" d="M449,786.08l21,12.17a11.55,11.55,0,0,1,5.76,10v39.34a11.55,11.55,0,0,1-5.8,10l-5.64,3.25L374,913.07a11.57,11.57,0,0,1-11.41-.08l-98-56.61c-3.48-1.86-5.35-5.26-5.35-7.73V731.05a6.93,6.93,0,0,1,10.4-6l20.46,11.81a11.54,11.54,0,0,1,5.78,10v79.44a11.54,11.54,0,0,0,5.78,10l61.06,35.31a11.56,11.56,0,0,0,11.47,0l58.66-33.79a11.54,11.54,0,0,0,5.79-10.08V792.09A6.94,6.94,0,0,1,449,786.08Z"/></svg>