<svg width="286" height="59" viewBox="0 0 286 59" fill="none" xmlns="http://www.w3.org/2000/svg">
<path d="M100.34 41.6172V44.0321H96.0841V55.7015H92.9822V44.0321H88.7266V41.6172H100.34Z" fill="#2C306D"/>
<path d="M111.953 55.6933H109.078V54.9076C108.161 55.5941 107.102 55.8918 105.976 55.8918C104.321 55.8918 102.751 55.2467 101.768 54.246C100.898 53.3611 100.34 52.1536 100.34 50.8304C100.34 47.9523 102.78 45.7441 105.815 45.7441C107.083 45.7441 108.208 46.108 109.078 46.7283V45.9426H111.953V55.7016V55.6933ZM108.965 49.3583C108.341 48.6305 107.357 48.1508 106.203 48.1508C104.454 48.1508 103.328 49.4162 103.328 50.8221C103.328 52.3521 104.596 53.4769 106.269 53.4769C107.395 53.4769 108.388 52.9972 108.965 52.2694V49.35V49.3583Z" fill="#2C306D"/>
<path d="M116.899 40.8154C117.977 40.8154 118.857 41.5432 118.857 42.486C118.857 43.4288 117.987 44.1566 116.899 44.1566C115.811 44.1566 114.941 43.4288 114.941 42.486C114.941 41.5432 115.811 40.8154 116.899 40.8154ZM118.403 55.6937H115.414V45.9348H118.403V55.6937Z" fill="#2C306D"/>
<path d="M127.113 55.6945H125.042L120.352 45.9355H123.368L126.083 51.6255L128.891 45.9355H130.962L133.743 51.6255L136.476 45.9355H139.493L134.802 55.6945H132.731L129.922 50.0211L127.113 55.6945Z" fill="#2C306D"/>
<path d="M151.796 55.6933H148.921V54.9076C148.004 55.5941 146.944 55.8918 145.819 55.8918C144.164 55.8918 142.604 55.2467 141.611 54.246C140.741 53.3611 140.183 52.1536 140.183 50.8304C140.183 47.9523 142.623 45.7441 145.658 45.7441C146.925 45.7441 148.051 46.108 148.921 46.7283V45.9426H151.796V55.7016V55.6933ZM148.807 49.3583C148.183 48.6305 147.2 48.1508 146.046 48.1508C144.296 48.1508 143.171 49.4162 143.171 50.8221C143.171 52.3521 144.438 53.4769 146.112 53.4769C147.238 53.4769 148.231 52.9972 148.807 52.2694V49.35V49.3583Z" fill="#2C306D"/>
<path d="M155.247 55.6938V45.9348H158.122V46.7205C158.973 46.1168 160.032 45.7363 161.271 45.7363C162.813 45.7363 164.212 46.3401 165.139 47.3077C165.877 48.0686 166.293 49.061 166.293 50.7233V55.6938H163.304V50.5248C163.304 49.5572 163.049 49.0527 162.633 48.6971C162.245 48.358 161.64 48.1513 160.95 48.1513C159.682 48.1513 158.652 48.8542 158.236 49.3587V55.6938H155.247Z" fill="#2C306D"/>
<path d="M183.883 50.0446L189.746 41.6172H191.931V55.7015H188.829V47.853L184.961 53.3858H182.795L178.927 47.853V55.7015H175.825V41.6172H178.01L183.873 50.0446H183.883Z" fill="#2C306D"/>
<path d="M200.518 45.7363C203.904 45.7363 206.457 48.0107 206.457 50.8226C206.457 53.6345 203.904 55.8923 200.518 55.8923C197.133 55.8923 194.579 53.6427 194.579 50.8226C194.579 48.0024 197.133 45.7363 200.518 45.7363ZM200.518 53.4856C202.268 53.4856 203.459 52.2947 203.459 50.8308C203.459 49.367 202.268 48.1595 200.518 48.1595C198.769 48.1595 197.577 49.367 197.577 50.8308C197.577 52.2947 198.769 53.4856 200.518 53.4856Z" fill="#2C306D"/>
<path d="M208.982 55.693V41.4102H211.971V46.637C212.841 46.0333 213.9 45.7355 215.12 45.7355C218.156 45.7355 220.596 47.952 220.596 50.8218C220.596 52.1533 220.047 53.3525 219.168 54.2374C218.175 55.2464 216.614 55.8832 214.959 55.8832C213.834 55.8832 212.775 55.5855 211.857 54.899V55.6847H208.982V55.693ZM211.971 52.2773C212.548 53.0051 213.531 53.4848 214.666 53.4848C216.349 53.4848 217.607 52.36 217.607 50.83C217.607 49.4241 216.482 48.1587 214.732 48.1587C213.579 48.1587 212.595 48.6384 211.971 49.3662V52.2856V52.2773Z" fill="#2C306D"/>
<path d="M224.625 40.8154C225.703 40.8154 226.582 41.5432 226.582 42.486C226.582 43.4288 225.712 44.1566 224.625 44.1566C223.537 44.1566 222.667 43.4288 222.667 42.486C222.667 41.5432 223.537 40.8154 224.625 40.8154ZM226.119 55.6937H223.13V45.9348H226.119V55.6937Z" fill="#2C306D"/>
<path d="M232.559 55.693H229.57V41.4102H232.559V55.693Z" fill="#2C306D"/>
<path d="M245.506 54.1468C244.428 55.2715 242.65 55.9001 240.928 55.9001C237.59 55.9001 235.084 53.8904 235.084 50.8304C235.084 48.1177 237.202 45.7441 240.512 45.7441C243.595 45.7441 245.78 48.0185 245.78 50.7311C245.78 50.9958 245.761 51.2522 245.714 51.4755H237.987C238.148 52.8401 239.415 53.7912 241.004 53.7912C242.271 53.7912 243.283 53.1709 243.813 52.6664L245.515 54.155L245.506 54.1468ZM242.725 49.565C242.631 48.6966 241.732 47.8531 240.522 47.8531C239.311 47.8531 238.271 48.6801 238.129 49.565H242.725Z" fill="#2C306D"/>
<path d="M233.42 17.145V9.46191H214.855V17.145H233.42ZM218.629 12.3565H229.637V14.2587H218.629V12.3565Z" fill="#2C306D"/>
<path d="M237.817 17.4758H241.685V7.80779H245.657V4.54102H211.782V7.80779H237.817V17.4758Z" fill="#2C306D"/>
<path d="M88.9346 34.2893H114.639C117.854 34.2893 120.218 32.6353 120.218 29.9061V21.1064H88.944V34.2893H88.9346ZM93.0484 24.6213H116.105V28.9219C116.105 30.3692 115.301 30.7827 113.74 30.7827H93.0484V24.6296V24.6213Z" fill="#2C306D"/>
<path d="M113.693 10.1235L116.341 14.2173H92.7177V13.473C92.7177 12.0257 93.5688 11.0746 94.8455 10.5371L104.766 6.27785L102.922 2.96973L92.6231 7.43569C89.455 8.80029 88.2256 10.8679 88.2256 13.6302V17.848H118.687L119.831 19.6261L123.472 17.9721L117.334 8.59354L113.693 10.1235Z" fill="#2C306D"/>
<path d="M209.985 21.9834H237.817V28.3846C237.817 31.8582 235.028 32.6025 231.254 32.6025V35.9933H231.869C238.243 35.9933 241.695 33.4709 241.695 28.3929V21.9917H246.423V18.8076H209.995V21.9917L209.985 21.9834Z" fill="#2C306D"/>
<path d="M190.248 14.7057H205.492V10.984H190.229V4.00391H185.878V10.984H170.946V14.7057H185.661C184.29 21.2723 181.594 28.0126 169.764 31.9327L171.844 35.3236C183.051 31.6433 186.588 25.7135 188.262 19.9656C190.768 25.9864 195.941 32.2553 204.443 35.3236L206.712 31.85C196.423 27.748 191.827 20.6603 190.238 14.7057H190.248Z" fill="#2C306D"/>
<path d="M233.42 23.6289H214.478V31.5601H233.42V23.6289ZM229.637 28.6738H218.251V26.5235H229.637V28.6738Z" fill="#2C306D"/>
<path d="M269.536 14.7057H284.78V10.984H269.517V4.00391H265.119V10.984H250.234V14.7057H264.949C263.578 21.2723 260.883 28.0126 249.052 31.9327L251.132 35.3236C262.339 31.6433 265.876 25.7135 267.55 19.9656C270.056 25.9864 275.229 32.2553 283.731 35.3236L286 31.85C275.711 27.748 271.115 20.6603 269.526 14.7057H269.536Z" fill="#2C306D"/>
<path d="M131.625 23.5051C131.625 28.3846 130.774 31.2709 126.707 32.8009L129.024 35.5714C134.604 33.7106 135.398 28.9221 135.398 23.0502V22.7607H131.615V23.5051H131.625Z" fill="#2C306D"/>
<path d="M127.662 5.57475L133.327 11.1159L136.117 8.84152L130.442 3.46582L127.662 5.57475Z" fill="#2C306D"/>
<path d="M127.473 14.168L133.043 19.6678L135.927 17.3935L130.3 12.0674L127.473 14.168Z" fill="#2C306D"/>
<path d="M142.178 26.6893H162.946V20.1641H138.093V22.8106H159.116V24.1338H138.944L137.289 31.8583L141.025 32.3958L141.327 30.9072H160.553C159.986 32.0733 158.009 32.6936 152.364 32.768V35.7867H152.789C161.244 35.7867 164.506 33.7191 164.506 29.6749V28.1036H141.895L142.178 26.6976V26.6893Z" fill="#2C306D"/>
<path d="M145.309 7.02276V4.59956H149.186V3.25977H152.241V4.59956H156.165V7.02276H145.309Z" fill="#2C306D"/>
<path d="M152.108 18.7912V17.4349H149.366V18.7912H146.651V15.0117H154.822V18.7912H152.108Z" fill="#2C306D"/>
<path d="M154.472 11.5557H147.001V13.9623H154.472V11.5557Z" fill="#2C306D"/>
<path d="M154.472 8.09863H147.001V10.5053H154.472V8.09863Z" fill="#2C306D"/>
<path d="M142.472 16.2609H140.353V16.1616C140.353 15.7895 140.353 15.2354 140.75 14.7888L145.829 9.46268L143.72 7.99883L141.791 9.9589H140.344V9.31381C140.344 8.86722 140.486 8.51159 140.788 8.19732L143.635 5.06287L141.488 3.57422L138.131 7.11391C137.535 7.73418 137.27 8.38754 137.27 9.22284V11.9851H139.805L138.235 13.5896C137.535 14.2677 137.232 15.1278 137.232 16.3767V18.7916H145.47V14.094H142.472V16.2609Z" fill="#2C306D"/>
<path d="M161.253 16.2609H159.135V16.1616C159.135 15.7895 159.134 15.2354 159.532 14.7888L164.61 9.46268L162.501 7.99883L160.572 9.9589H159.125V9.31381C159.125 8.86722 159.267 8.51159 159.57 8.19732L162.416 5.06287L160.269 3.57422L156.912 7.11391C156.316 7.73418 156.051 8.38754 156.051 9.22284V11.9851H158.586L157.016 13.5896C156.316 14.2677 156.014 15.1278 156.014 16.3767V18.7916H164.251V14.094H161.253V16.2609Z" fill="#2C306D"/>
<path d="M55.7022 40.891L33.3174 29.5938V52.1965L55.7022 40.891Z" fill="#D52B27"/>
<path d="M10.9316 40.891L33.3165 52.1965V29.5938L10.9316 40.891Z" fill="#EF3E23"/>
<path d="M66.625 29.5938L62.1613 15.0215L55.7021 18.2883L66.625 29.5938Z" fill="#DE5498"/>
<path d="M55.7017 40.8896L49.9707 54.8169L62.1608 44.1564L55.7017 40.8896Z" fill="#4B4FA1"/>
<path d="M62.1613 44.1578L66.625 29.5938L55.7021 40.891L62.1613 44.1578Z" fill="#5E5CA8"/>
<path d="M33.3171 6.98242L10.9229 18.2879L33.3171 29.5934V6.98242Z" fill="#F78E1E"/>
<path d="M55.7022 40.8908V18.2881L33.3174 29.5936L55.7022 40.8908Z" fill="#EF3E23"/>
<path d="M10.9316 18.2881V40.8908L33.3165 29.5936L10.9316 18.2881Z" fill="#F26722"/>
<path d="M33.3174 58.7216L49.9712 54.818L33.3174 52.1963V58.7216Z" fill="#074E5A"/>
<path d="M55.7017 18.2885L62.1608 15.0218L49.9707 4.36133L55.7017 18.2885Z" fill="#FDB913"/>
<path d="M55.7022 18.2879L33.3174 6.98242V29.5934L55.7022 18.2879Z" fill="#F26722"/>
<path d="M4.46373 15.0215L0 29.5938L10.9323 18.2883L4.46373 15.0215Z" fill="#FDB913"/>
<path d="M33.3176 52.1963L16.6543 54.818L33.3176 58.7216V52.1963Z" fill="#108A7A"/>
<path d="M10.9325 18.2885L16.654 4.36133L4.46387 15.0218L10.9325 18.2885Z" fill="#FFD804"/>
<path d="M33.3176 0.457031L16.6543 4.36062L33.3176 6.9823V0.457031Z" fill="#FFD804"/>
<path d="M0 29.5938L4.46373 44.1578L10.9229 40.891L0 29.5938Z" fill="#FDB913"/>
<path d="M10.9325 40.8896L4.46387 44.1564L16.654 54.8169L10.9325 40.8896Z" fill="#5AC2AC"/>
<path d="M49.9712 4.36062L33.3174 0.457031V6.9823L49.9712 4.36062Z" fill="#FDB913"/>
<path d="M33.3174 52.1952L49.9712 54.8169L55.7022 40.8896L33.3174 52.1952Z" fill="#5E5CA8"/>
<path d="M10.9316 40.8896L16.6532 54.8169L33.3165 52.1952L10.9316 40.8896Z" fill="#13AA7E"/>
<path d="M55.7022 18.2885L49.9712 4.36133L33.3174 6.98302L55.7022 18.2885Z" fill="#F99B1C"/>
<path d="M55.7021 18.2881V40.8908L66.625 29.5936L55.7021 18.2881Z" fill="#CF2B75"/>
<path d="M33.3171 6.98302L16.6538 4.36133L10.9229 18.2885L33.3171 6.98302Z" fill="#FDB913"/>
<path d="M10.9323 40.8908V18.2881L0 29.5936L10.9323 40.8908Z" fill="#F99B1C"/>
</svg>
