<svg width="59" height="54" viewBox="0 0 59 54" fill="none" xmlns="http://www.w3.org/2000/svg">
<path d="M4.00526 44.7939H0.226103C0.103361 44.7939 0 44.8948 0 45.0217V53.5901C0 53.717 0.100131 53.8178 0.226103 53.8178H4.01818C6.99628 53.8178 8.92138 52.0449 8.92138 49.2994C8.92138 46.5538 6.99305 44.7939 4.00526 44.7939ZM4.00526 51.4366H2.71324V47.1752H4.01818C5.36187 47.1752 6.16939 47.9689 6.16939 49.2994C6.16939 50.3631 5.42648 51.4366 4.00526 51.4366Z" fill="#0077B4"/>
<path d="M26.289 47.1201C25.2457 47.1201 24.3994 47.6992 24.0182 48.2717C23.7437 47.5072 23.1106 47.1201 22.1513 47.1201C21.0886 47.1201 20.2843 47.6601 20.0033 48.0245V47.5105C20.0033 47.3836 19.9032 47.2828 19.7772 47.2828H17.8101C17.6841 47.2828 17.584 47.3836 17.584 47.5105V53.5904C17.584 53.7172 17.6841 53.8181 17.8101 53.8181H19.7772C19.9032 53.8181 20.0033 53.7172 20.0033 53.5904V49.7876C20.1454 49.6184 20.4393 49.2736 20.982 49.2736C21.46 49.2736 21.7217 49.5371 21.7217 50.0055V53.5936C21.7217 53.7205 21.8218 53.8213 21.9478 53.8213H23.9149C24.0408 53.8213 24.141 53.7205 24.141 53.5936V49.7908C24.2831 49.6249 24.577 49.2769 25.1326 49.2769C25.6042 49.2769 25.8723 49.5436 25.8723 50.0088V53.5969C25.8723 53.7237 25.9724 53.8246 26.0984 53.8246H28.0655C28.1915 53.8246 28.2916 53.7237 28.2916 53.5969V49.0882C28.2916 47.8228 27.581 47.1266 26.289 47.1266" fill="#0077B4"/>
<path d="M31.7772 47.2822H29.8101C29.6841 47.2822 29.584 47.3831 29.584 47.5099V53.5898C29.584 53.7167 29.6841 53.8175 29.8101 53.8175H31.7772C31.9032 53.8175 32.0033 53.7167 32.0033 53.5898V47.5099C32.0033 47.3831 31.8999 47.2822 31.7772 47.2822Z" fill="#0077B4"/>
<path d="M30.8537 44.0781C30.1075 44.0781 29.4971 44.6929 29.4971 45.4444C29.4971 46.1958 30.1075 46.8107 30.8537 46.8107C31.5998 46.8107 32.2103 46.1991 32.2103 45.4444C32.2103 44.6897 31.5998 44.0781 30.8537 44.0781Z" fill="#0077B4"/>
<path d="M37.982 47.1201C36.7288 47.1201 36.0472 47.6861 35.7533 48.0245V47.5105C35.7533 47.3836 35.6532 47.2828 35.5272 47.2828H33.5601C33.4341 47.2828 33.334 47.3836 33.334 47.5105V53.5904C33.334 53.7172 33.4341 53.8181 33.5601 53.8181H35.5272C35.6532 53.8181 35.7533 53.7172 35.7533 53.5904V49.7876C35.9116 49.6087 36.2023 49.2736 36.7869 49.2736C37.4135 49.2736 37.7268 49.5892 37.7268 50.2072V53.5904C37.7268 53.7172 37.8302 53.8181 37.9529 53.8181H39.92C40.046 53.8181 40.1461 53.7172 40.1461 53.5904V49.1793C40.1461 47.8911 39.3386 47.1234 37.982 47.1234" fill="#0077B4"/>
<path d="M13.127 47.0908C11.2374 47.0908 9.70312 48.636 9.70312 50.539C9.70312 52.442 11.2374 53.9872 13.127 53.9872C15.0165 53.9872 16.5508 52.4453 16.5508 50.539C16.5508 48.6327 15.0165 47.0908 13.127 47.0908ZM13.127 51.6711C12.481 51.6711 11.9577 51.1441 11.9577 50.4935C11.9577 49.8429 12.481 49.3159 13.127 49.3159C13.773 49.3159 14.2962 49.8429 14.2962 50.4935C14.2962 51.1441 13.773 51.6711 13.127 51.6711Z" fill="#0077B4"/>
<path d="M44.5977 47.1006C42.7081 47.1006 41.1738 48.6458 41.1738 50.5488C41.1738 52.4518 42.7081 53.997 44.5977 53.997C46.4873 53.997 48.0215 52.455 48.0215 50.5488C48.0215 48.6425 46.4873 47.1006 44.5977 47.1006ZM44.5977 51.6808C43.9517 51.6808 43.4284 51.1538 43.4284 50.5032C43.4284 49.8526 43.9517 49.3256 44.5977 49.3256C45.2437 49.3256 45.767 49.8526 45.767 50.5032C45.767 51.1538 45.2437 51.6808 44.5977 51.6808Z" fill="#0077B4"/>
<path d="M50.2206 45.184C50.2206 45.184 50.2206 45.1743 50.2206 45.171C50.2206 45.171 50.2206 45.1645 50.2174 45.1612C50.2174 45.1612 50.2174 45.158 50.2174 45.1547C50.0656 44.4781 49.3323 43.9837 48.6088 44.1333C47.8756 44.2862 47.3975 44.9726 47.5397 45.6622C47.6559 46.2315 48.1631 46.6056 48.7445 46.6446C48.7154 46.8853 48.5054 47.1033 48.331 47.2041C48.218 47.2659 48.2858 47.3928 48.2858 47.3928L48.4344 47.6173C48.4764 47.6921 48.5442 47.7311 48.6217 47.6986C50.1108 47.0838 50.3724 45.8086 50.2206 45.1905" fill="#0077B4"/>
<path d="M52.2718 49.2278C52.2653 48.9838 52.5819 48.8764 52.9727 48.8764C53.7576 48.8764 54.2033 49.1009 54.7008 49.4327C54.7525 49.4685 54.817 49.4815 54.8784 49.4652C54.9398 49.4522 54.9915 49.4099 55.0238 49.3546L55.6859 48.19C55.7473 48.0827 55.7085 47.9493 55.6052 47.8843C55.0593 47.559 54.2615 47.1328 52.8726 47.1328C50.8732 47.1328 49.8008 48.0794 49.9784 49.4425C50.2918 51.8399 53.9934 51.0202 53.9352 51.8367C53.9223 52.0253 53.5961 52.1652 53.0276 52.1652C52.2944 52.1652 51.4643 51.7944 50.9378 51.4691C50.8893 51.4365 50.8247 51.4268 50.7633 51.4431C50.702 51.4593 50.6535 51.4951 50.6245 51.5504L49.8589 52.8386C49.8008 52.9427 49.8299 53.0728 49.9268 53.1411C50.6632 53.6421 51.8519 53.9804 52.8855 53.9804C54.8881 53.9804 56.0445 53.1118 56.0445 51.687C56.0445 49.0586 52.2879 49.8751 52.275 49.2245" fill="#0077B4"/>
<path d="M57.7795 46.8008C58.4384 46.8008 59.0004 47.3148 59.0004 48.0174C59.0004 48.7201 58.4352 49.2373 57.7795 49.2373C57.1238 49.2373 56.5488 48.7233 56.5488 48.0174C56.5488 47.3115 57.1141 46.8008 57.7795 46.8008ZM57.7795 46.9992C57.2174 46.9992 56.7846 47.4351 56.7846 48.0174C56.7846 48.5997 57.2174 49.0421 57.7795 49.0421C58.3415 49.0421 58.7679 48.6127 58.7679 48.0174C58.7679 47.4221 58.3318 46.9992 57.7795 46.9992ZM57.5211 48.7233H57.3079V47.318H57.8441C58.1768 47.318 58.3383 47.4449 58.3383 47.7214C58.3383 47.9719 58.1832 48.0825 57.9733 48.1085L58.3706 48.7266H58.1348L57.7633 48.115H57.5211V48.7266V48.7233ZM57.5211 47.9361H57.7762C58.0379 47.9361 58.1219 47.8613 58.1219 47.7051C58.1219 47.5685 58.0573 47.4937 57.8118 47.4937H57.5211V47.9361Z" fill="#0077B4"/>
<path d="M47.1135 11.7271L36.183 0.718916C35.7211 0.253735 35.1074 0 34.4549 0C33.8025 0 33.1888 0.253735 32.7269 0.718916L23.56 9.95096L8.30449 25.3149C7.35163 26.2746 7.35163 27.8328 8.30449 28.7957L19.235 39.8039C19.6969 40.2658 20.3106 40.5228 20.963 40.5228C21.6155 40.5228 22.2292 40.2658 22.6879 39.8039L36.3607 26.0339L47.1103 15.2078C48.0631 14.2482 48.0631 12.6867 47.1103 11.7304" fill="white"/>
<path d="M46.3418 12.5109L35.4081 1.50266C34.8816 0.969166 34.0256 0.969166 33.5023 1.50266L21.6836 13.4022L34.5198 26.3329L46.3385 14.4301C46.865 13.8999 46.865 13.0378 46.3385 12.5076M36.7259 15.6923C36.1057 16.3169 35.295 16.6227 34.4875 16.6227C33.68 16.6227 32.8692 16.3136 32.2491 15.6923C31.6321 15.0677 31.3188 14.2512 31.3188 13.438C31.3188 12.6247 31.6289 11.8049 32.2491 11.1836C32.8692 10.5623 33.6768 10.25 34.4907 10.25C35.3047 10.25 36.109 10.559 36.7291 11.1836C37.3461 11.8049 37.6594 12.6247 37.6594 13.438C37.6594 14.2512 37.3493 15.0677 36.7291 15.6923" fill="#E1002B"/>
<path d="M9.07944 26.0955C8.55295 26.6257 8.55295 27.4878 9.07944 28.018L20.0099 39.0262C20.2715 39.293 20.6172 39.4263 20.9628 39.4263C21.3084 39.4263 21.654 39.293 21.9156 39.0262L33.7279 27.1299L20.8917 14.1992L9.07944 26.0955ZM18.5435 29.2639C17.9233 29.882 17.1126 30.1943 16.3018 30.1943C15.4911 30.1943 14.6836 29.8852 14.0634 29.2639C13.4432 28.6426 13.1364 27.8261 13.1364 27.0096C13.1364 26.1931 13.4465 25.3798 14.0634 24.752C14.6836 24.1307 15.4911 23.8216 16.3018 23.8216C17.1126 23.8216 17.9233 24.1339 18.5435 24.752C19.1604 25.3766 19.4705 26.1931 19.4673 27.0096C19.4673 27.8261 19.1604 28.6426 18.5435 29.2639ZM23.3562 24.8821C23.9764 24.2575 24.7872 23.9485 25.5947 23.9485C26.4022 23.9485 27.2161 24.2575 27.8331 24.8821C28.4533 25.5067 28.7633 26.3199 28.7633 27.1364C28.7633 27.953 28.4533 28.7662 27.8331 29.3908C27.2161 30.0089 26.4054 30.3211 25.5947 30.3244C24.7872 30.3244 23.9764 30.0089 23.3562 29.3908C22.7393 28.7695 22.4292 27.953 22.4292 27.1364C22.4292 26.3199 22.7393 25.5067 23.3562 24.8821Z" fill="#0077B4"/>
<path d="M25.2041 38.4375H24.9683V38.7531H25.2041C25.2784 38.7531 25.3623 38.688 25.3623 38.5969C25.3623 38.4993 25.2784 38.4375 25.2041 38.4375ZM25.3462 39.215L25.1136 38.8637H24.9618V39.215H24.8391V38.3269H25.2008C25.3494 38.3269 25.4851 38.4343 25.4851 38.5969C25.4851 38.7954 25.3107 38.8604 25.259 38.8604L25.4948 39.215H25.343H25.3462ZM25.1362 38.109C24.7745 38.109 24.4838 38.3952 24.4838 38.7661C24.4838 39.1369 24.7745 39.4232 25.1362 39.4232C25.498 39.4232 25.7887 39.1272 25.7887 38.7661C25.7887 38.405 25.498 38.109 25.1362 38.109ZM25.1362 39.5435C24.7131 39.5435 24.3643 39.1955 24.3643 38.7693C24.3643 38.3432 24.7099 37.9951 25.1362 37.9951C25.5626 37.9951 25.9082 38.3399 25.9082 38.7693C25.9082 39.1987 25.5691 39.5435 25.1362 39.5435Z" fill="#0077B4"/>
</svg>
