<svg width="128" height="64" viewBox="0 0 128 64" fill="none" xmlns="http://www.w3.org/2000/svg">
<g id="&#229;&#156;&#150;&#229;&#177;&#164; 2">
<g id="Group">
<path id="Vector" d="M128 0H0V64H128V0Z" fill="#E60A0F"/>
<g id="Group_2">
<g id="Group_3">
<path id="Vector_2" d="M24.501 18.6895C24.8637 19.0942 24.8091 19.4221 24.5911 19.9105C24.373 20.3989 23.5552 21.7849 22.1614 22.9954C20.7558 24.2175 19.4734 24.8873 18.9377 25.1094C18.402 25.3315 18.0773 25.271 17.7146 24.8664L17.2773 24.378C16.9146 23.9733 16.8743 23.4268 17.1872 23.1571C17.1872 23.1571 19.3146 21.7954 20.2426 20.9954C21.1706 20.1954 22.8405 17.957 22.8405 17.957C23.1534 17.6872 23.701 17.7953 24.0637 18.2L24.501 18.6884V18.6895Z" fill="white"/>
<path id="Vector_3" d="M24.4842 24.5047L24.0397 24.0093C23.6723 23.5989 23.1129 23.4919 22.7917 23.7698C22.7917 23.7698 21.0708 26.064 20.1168 26.885C19.1627 27.7071 16.9808 29.1094 16.9808 29.1094C16.6584 29.3873 16.6963 29.9443 17.0649 30.3548L17.5082 30.8502C17.8756 31.2606 18.2074 31.3199 18.7574 31.0897C19.0477 30.9676 19.5621 30.706 20.1879 30.3095V38.755C20.1879 39.2608 20.5743 39.6701 21.0507 39.6701H21.8057C22.2821 39.6701 22.6685 39.2608 22.6685 38.755V28.3187C23.7209 27.2454 24.3787 26.1698 24.5695 25.7489C24.7959 25.2501 24.8528 24.914 24.4854 24.5035L24.4842 24.5047Z" fill="white"/>
<path id="Vector_4" d="M41.3856 26.0989H32.9519C32.9341 26.0989 32.9187 26.107 32.9009 26.1082C32.8831 26.1082 32.8689 26.0989 32.8511 26.0989H31.1539C30.8434 26.0989 30.5921 25.8524 30.5921 25.5477V24.3919C30.5921 24.0872 30.8434 23.8407 31.1539 23.8407H32.8511C33.3667 23.8407 33.7839 23.4326 33.7839 22.9291V22.3209C33.7839 21.8174 33.3667 21.4081 32.8511 21.4081H31.1539C30.8434 21.4081 30.5921 21.1616 30.5921 20.8569V18.879C30.5921 18.3732 30.1761 17.9639 29.663 17.9639H29.0431C28.5299 17.9639 28.1127 18.3743 28.1127 18.879V20.8569C28.1127 21.1616 27.8615 21.4081 27.551 21.4081H25.7767C25.2612 21.4081 24.844 21.8163 24.844 22.3209V22.9291C24.844 23.4326 25.2624 23.8407 25.7767 23.8407H27.551C27.8615 23.8407 28.1127 24.0872 28.1127 24.3919V25.5477C28.1127 25.8524 27.8615 26.0989 27.551 26.0989H25.7767C25.2612 26.0989 24.844 26.507 24.844 27.0105V27.6187C24.844 28.1222 25.2624 28.5303 25.7767 28.5303H27.551C27.8615 28.5303 28.1127 28.7769 28.1127 29.0815V30.1234C28.1127 30.428 27.8615 30.6746 27.551 30.6746H25.7767C25.2612 30.6746 24.844 31.0827 24.844 31.5862V32.1944C24.844 32.6979 25.2624 33.1072 25.7767 33.1072H27.551C27.8615 33.1072 28.1127 33.3537 28.1127 33.6583V35.6863C28.1127 35.9479 27.9267 36.1723 27.6671 36.2258C26.1121 36.5479 24.5548 36.8514 24.5548 36.8514C24.0381 36.9805 23.7276 37.5072 23.8627 38.0305L24.0262 38.6619C24.1613 39.184 24.4778 39.3701 25.2067 39.3747C25.9367 39.3794 26.956 39.2631 29.2837 38.677C31.5913 38.0968 33.0324 37.1258 33.5871 36.7549C34.1418 36.3851 34.4144 36.0991 34.2793 35.5758L34.1157 34.9456C33.9806 34.4235 33.452 34.1037 32.9353 34.2316C32.9353 34.2316 32.2585 34.563 31.385 34.9491C31.0129 35.1142 30.591 34.8467 30.591 34.4467V33.6572C30.591 33.3525 30.8422 33.106 31.1527 33.106H32.8499C33.3655 33.106 33.7827 32.6979 33.7827 32.1932V31.585C33.7827 31.0815 33.3655 30.6734 32.8499 30.6734H31.1527C30.8422 30.6734 30.591 30.4269 30.591 30.1222V29.0803C30.591 28.7757 30.8422 28.5292 31.1527 28.5292H32.8499C32.8677 28.5292 32.8819 28.521 32.8997 28.5199C32.9175 28.5199 32.9317 28.5292 32.9507 28.5292H35.0496C35.3661 28.5292 35.6221 28.7803 35.6221 29.0908V38.7549C35.6221 39.2608 36.0084 39.6701 36.4837 39.6701H37.2387C37.7151 39.6701 38.1015 39.2608 38.1015 38.7549V29.0908C38.1015 28.7815 38.3575 28.5292 38.6739 28.5292H41.3844C41.9 28.5292 42.3172 28.121 42.3172 27.6175V27.0094C42.3172 26.5059 41.8988 26.0977 41.3844 26.0977L41.3856 26.0989Z" fill="white"/>
<path id="Vector_5" d="M37.001 17.8295C36.9548 17.8272 36.9121 17.8353 36.8671 17.8365C36.822 17.8365 36.7794 17.8272 36.7331 17.8295C35.3394 17.9039 34.428 19.1865 34.6614 20.604C34.8902 21.997 36.5684 24.8948 36.5684 24.8948C36.6265 25.0203 36.7474 25.0796 36.8671 25.0773C36.9868 25.0796 37.1077 25.0192 37.1657 24.8948C37.1657 24.8948 38.844 21.997 39.0727 20.604C39.3062 19.1854 38.3948 17.9028 37.001 17.8295ZM36.8671 21.1679C36.2792 21.1679 35.804 20.7005 35.804 20.1249C35.804 19.5493 36.2804 19.0819 36.8671 19.0819C37.4537 19.0819 37.9302 19.5493 37.9302 20.1249C37.9302 20.7005 37.4537 21.1679 36.8671 21.1679Z" fill="white"/>
</g>
<path id="Vector_6" d="M38.3433 12.6416H20.7374C16.543 12.6416 13.1309 15.9893 13.1309 20.1045V37.3781C13.1309 41.4933 16.543 44.841 20.7374 44.841H38.3433C42.5377 44.841 45.9498 41.4933 45.9498 37.3781V20.1045C45.9498 15.9893 42.5377 12.6416 38.3433 12.6416ZM43.9694 37.3781C43.9694 40.4223 41.4449 42.8991 38.3421 42.8991H20.7362C17.6334 42.8991 15.1089 40.4223 15.1089 37.3781V20.1045C15.1089 17.0603 17.6334 14.5835 20.7362 14.5835H38.3421C41.4449 14.5835 43.9694 17.0603 43.9694 20.1045V37.3781Z" fill="white"/>
<path id="Vector_7" d="M66.7412 19.7927L52.1587 19.7764C50.3987 19.774 49.5453 20.6369 49.543 22.3369L49.5264 36.5395C49.524 38.2651 50.3761 39.1035 52.1361 39.1058L66.7187 39.1221C68.4514 39.1244 69.332 38.2872 69.3344 36.5616L69.351 22.359C69.3533 20.6589 68.4739 19.795 66.7412 19.7927ZM66.5705 35.6429C66.5705 35.9243 66.4887 36.1429 66.3287 36.2941C66.1747 36.4395 65.9578 36.5139 65.6828 36.5139L53.1779 36.4999C52.596 36.4988 52.289 36.1964 52.2902 35.6267L52.3044 23.2555C52.3044 22.9834 52.3815 22.7694 52.5296 22.6194C52.6837 22.4636 52.9065 22.3846 53.1921 22.3846L65.6982 22.3985C66.2541 22.3997 66.5859 22.7264 66.5859 23.2718L66.5717 35.6429H66.5705Z" fill="white"/>
<g id="Group_4">
<path id="Vector_8" d="M52.7111 53.5199C52.3544 53.8304 51.8163 53.9862 51.0946 53.9862C50.2874 53.9862 49.5823 53.6374 48.9636 52.9211C48.7894 52.735 48.71 52.5641 48.71 52.4164C48.71 52.292 48.7491 52.1746 48.8439 52.0746C48.9316 51.9815 49.0418 51.9269 49.1769 51.9269C49.3357 51.9269 49.4697 51.9967 49.5965 52.1211C49.9295 52.4862 50.1428 52.7118 50.2543 52.7967C50.5316 53.0223 50.8243 53.1316 51.1254 53.1316C51.5449 53.1316 51.8388 53.0385 52.0131 52.8513C52.1802 52.6653 52.2667 52.3688 52.2667 51.9501V49.0664C52.2667 48.9268 52.3141 48.8105 52.4101 48.7175C52.5049 48.6315 52.6234 48.585 52.774 48.585C52.9245 48.585 53.0359 48.6315 53.1307 48.7175C53.2255 48.8105 53.2729 48.9268 53.2729 49.0664V51.9815C53.2729 52.6804 53.0833 53.1943 52.71 53.5199H52.7111Z" fill="white"/>
<path id="Vector_9" d="M60.968 53.8464C60.8566 53.9394 60.7298 53.9859 60.6042 53.9859C60.43 53.9859 60.2877 53.908 60.1846 53.7615L58.3393 51.2277L57.4279 51.8963V53.5045C57.4279 53.644 57.3805 53.7615 57.294 53.8533C57.1991 53.9394 57.0794 53.9859 56.9455 53.9859C56.7867 53.9859 56.6599 53.9394 56.5651 53.8533C56.4703 53.7603 56.4229 53.6522 56.4229 53.5045V49.066C56.4229 48.9265 56.4631 48.8172 56.558 48.7253C56.6445 48.6311 56.7559 48.5846 56.8981 48.5846C57.0486 48.5846 57.1754 48.6312 57.2786 48.7091C57.3734 48.8021 57.4291 48.9184 57.4291 49.066V50.6824L60.1384 48.6777C60.2332 48.6079 60.3363 48.5684 60.4394 48.5684C60.5746 48.5684 60.6931 48.623 60.7962 48.716C60.891 48.816 60.9467 48.9335 60.9467 49.073C60.9467 49.2288 60.8756 49.3533 60.7488 49.4463L59.1405 50.644L61.0261 53.2394C61.0889 53.3324 61.1292 53.4254 61.1292 53.5115C61.1292 53.6429 61.0735 53.7522 60.9704 53.8452L60.968 53.8464Z" fill="white"/>
<path id="Vector_10" d="M67.3835 53.223C66.9402 53.7276 66.2979 53.9846 65.4588 53.9846C64.6196 53.9846 63.9927 53.7276 63.5257 53.2148C63.0742 52.7253 62.8525 52.0729 62.8525 51.2566C62.8525 50.4403 63.0742 49.8264 63.534 49.3368C64.0022 48.831 64.6351 48.5752 65.4351 48.5752C66.2351 48.5752 66.8537 48.8322 67.329 49.345C67.7805 49.8427 68.0105 50.4799 68.0105 51.2566C68.0105 52.0962 67.7971 52.7485 67.3847 53.223H67.3835ZM66.6546 50.0055C66.369 49.6322 65.9731 49.4461 65.4505 49.4461C64.9278 49.4461 64.5237 49.6322 64.238 50.0055C63.9773 50.3473 63.8505 50.7752 63.8505 51.3032C63.8505 51.8311 63.9773 52.2439 64.2463 52.5706C64.5319 52.9276 64.9349 53.1067 65.4505 53.1067C65.966 53.1067 66.369 52.9276 66.6463 52.5706C66.8917 52.252 67.0185 51.8322 67.0185 51.3032C67.0185 50.7741 66.8917 50.3403 66.6546 50.0055Z" fill="white"/>
<path id="Vector_11" d="M74.5674 51.5467C74.251 51.8723 73.8551 52.0363 73.387 52.0363H71.224V53.5433C71.224 53.8386 71.0498 53.9863 70.7167 53.9863C70.3837 53.9863 70.2178 53.8305 70.2178 53.5363V49.4874C70.2178 49.2467 70.3055 49.0525 70.4868 48.9129C70.6456 48.7885 70.859 48.7188 71.1126 48.7188H73.4569C73.9167 48.7188 74.2972 48.8815 74.597 49.192C74.8898 49.5188 75.0403 49.9083 75.0403 50.3583C75.0403 50.8083 74.8815 51.2211 74.565 51.5479L74.5674 51.5467ZM73.8551 49.813C73.72 49.6653 73.5458 49.5885 73.3395 49.5885H71.5096C71.32 49.5885 71.224 49.7048 71.224 49.9374V51.1502H73.3384C73.5446 51.1502 73.7188 51.0723 73.8539 50.9165C73.9807 50.7606 74.0518 50.5827 74.0518 50.3653C74.0518 50.1478 73.9807 49.9688 73.8539 49.813H73.8551Z" fill="white"/>
<path id="Vector_12" d="M81.7566 53.8369C81.6298 53.9381 81.4876 53.9927 81.3288 53.9927C81.1237 53.9927 80.9815 53.8916 80.8855 53.6892L80.4814 52.8416H77.6689L77.2648 53.6892C77.17 53.8904 77.0111 53.9927 76.8049 53.9927C76.6461 53.9927 76.5122 53.9381 76.3925 53.8369C76.2657 53.7276 76.21 53.6113 76.21 53.4555C76.21 53.3776 76.2265 53.2916 76.2728 53.2067L78.5223 48.8706C78.6171 48.6764 78.7996 48.5752 79.0686 48.5752C79.3377 48.5752 79.5202 48.6764 79.6233 48.8706L81.8657 53.2067C81.9131 53.2916 81.9368 53.3776 81.9368 53.4555C81.9368 53.6113 81.874 53.7276 81.7543 53.8369H81.7566ZM79.071 49.9275L78.0802 51.9636H80.0689L79.071 49.9275Z" fill="white"/>
<path id="Vector_13" d="M88.0508 49.3307L86.0229 51.926V53.4958C86.0229 53.6435 85.9755 53.761 85.8795 53.8528C85.7847 53.9389 85.6745 53.9854 85.5323 53.9854C85.3817 53.9854 85.262 53.9389 85.1672 53.8528C85.0724 53.7598 85.025 53.6435 85.025 53.4958V51.926L82.9971 49.3307C82.9177 49.2376 82.8857 49.1446 82.8857 49.0434C82.8857 48.912 82.9414 48.8027 83.06 48.7097C83.1702 48.6248 83.3053 48.5771 83.4475 48.5771C83.5897 48.5771 83.7094 48.6469 83.8126 48.7795L85.524 51.0877L87.2271 48.7795C87.3219 48.6469 87.4487 48.5771 87.5909 48.5771C87.7332 48.5771 87.8612 48.6237 87.9797 48.7097C88.0911 48.8027 88.1539 48.912 88.1539 49.0434C88.1539 49.1446 88.1136 49.2376 88.0508 49.3307Z" fill="white"/>
</g>
<g id="Group_5">
<path id="Vector_14" d="M116.61 21.7314C116.413 21.5604 116.092 21.4639 115.697 21.4639L113.772 21.4616L113.776 18.2418C113.752 17.4917 113.309 17.1034 112.421 17.1022C111.534 17.1499 111.063 17.5359 111.062 18.2383L111.058 21.4581L103.163 21.4488C102.718 21.4488 102.422 21.5441 102.249 21.6895C102.002 21.8825 101.903 22.2453 101.903 22.7779C101.903 23.2628 102 23.6012 102.246 23.7953C102.468 23.9895 102.764 24.0861 103.159 24.0872L111.055 24.0965L111.041 35.9339C111.041 36.1758 110.917 36.2967 110.671 36.2967C110.249 36.2967 105.537 36.5886 100.061 36.4746L100.076 23.1895C100.67 21.8348 101.116 20.5523 101.438 19.3429C101.513 19.0278 101.563 18.6894 101.612 18.3266C101.612 17.8418 101.441 17.5034 101.119 17.3336C100.824 17.1882 100.43 17.0917 99.9851 17.0906C99.5904 17.1627 99.2941 17.429 99.1199 17.8638C98.154 21.1302 96.7448 24.2279 94.89 27.1791C94.6921 27.4698 94.5688 27.735 94.5688 27.978C94.5688 28.3652 94.6909 28.6803 94.9623 28.8989C95.2574 29.1652 95.6521 29.2861 96.1214 29.2873C96.6156 29.2873 96.9854 29.1187 97.2817 28.7326C97.3066 28.685 97.3315 28.6361 97.3813 28.5873L97.3718 36.3874C93.0506 36.1863 88.6144 35.6793 85.6538 34.5525C85.8269 34.456 86.0236 34.3595 86.2215 34.2386C88.1724 33.0304 89.7036 31.7246 90.8153 30.3455C91.6058 29.2571 92.0266 28.3385 92.1013 27.5873C92.1013 26.8617 91.831 26.3524 91.2894 26.0128C90.9682 25.8431 90.3768 25.7454 89.4891 25.6965L84.1842 25.6907L84.1878 22.4709L92.8728 22.4802C93.3173 22.4802 93.6621 22.3604 93.885 22.0942C94.0331 21.9011 94.1315 21.6348 94.1327 21.2476C94.1327 20.7639 94.0355 20.4488 93.8376 20.3034C93.6408 20.1092 93.3208 20.0127 92.8764 20.0116L84.1913 20.0023L84.1937 17.9208C84.1937 17.5336 84.0467 17.2185 83.7753 16.9755C83.5786 16.8057 83.2337 16.708 82.7644 16.708C82.2216 16.708 81.8755 16.8034 81.7036 16.9731C81.431 17.2638 81.3078 17.5778 81.3078 17.9173L81.3054 19.9988L73.015 19.9895C72.5955 19.9895 72.2743 20.0848 72.0527 20.279C71.8547 20.4964 71.7564 20.8104 71.7552 21.222C71.7552 21.6825 71.8524 21.9976 72.0503 22.1674C72.2719 22.3616 72.5919 22.4581 73.0115 22.4593L81.3018 22.4686L81.2983 25.6884L73.7736 25.6803C73.4038 25.6803 73.1312 25.7756 72.9344 25.9454C72.7116 26.1628 72.6133 26.4524 72.6133 26.8163C72.6133 27.2035 72.6867 27.4943 72.8835 27.6884C73.0067 27.9303 73.303 28.028 73.7724 28.0291H74.8817C74.6589 28.2478 74.5605 28.5373 74.5593 28.9013C74.583 29.2885 74.9042 29.7978 75.5442 30.4513C77.0719 32.1001 78.5261 33.3839 79.9057 34.3537C77.7842 35.1258 75.1673 35.9223 72.0325 36.7409C71.6864 36.934 71.5383 37.3212 71.5371 37.8782C71.5371 38.12 71.6604 38.3863 71.9069 38.6293C72.1534 38.8712 72.4983 39.0177 72.893 39.0177C73.6337 38.97 74.7193 38.7538 76.1261 38.3433C78.6447 37.5468 80.8159 36.7502 82.6921 35.9781C91.4636 40.0689 109.854 38.9631 110.841 38.9642C111.829 38.8689 112.543 38.6514 112.989 38.3375C113.483 37.9503 113.755 37.4665 113.756 36.8863L113.771 24.1047L115.696 24.107C116.189 24.107 116.535 23.9872 116.757 23.6965C116.88 23.5512 116.955 23.236 116.955 22.8C116.955 22.243 116.833 21.8802 116.611 21.7348L116.61 21.7314ZM82.7679 33.1664C82.6447 33.1188 82.5214 33.0455 82.423 32.9734C80.4758 31.7606 78.8734 30.378 77.5922 28.828C77.4192 28.6338 77.1987 28.3919 76.951 28.1245C76.9261 28.1245 76.9024 28.0768 76.8776 28.028L88.4248 28.0408C88.6713 28.0408 88.8195 28.114 88.8195 28.235C88.7199 28.7675 88.1771 29.4687 87.2384 30.2908C86.0035 31.3536 84.6204 32.2722 83.0405 33.0455C82.9421 33.0944 82.8675 33.1188 82.7691 33.1664H82.7679Z" fill="white"/>
<path id="Vector_15" d="M106.085 32.927C106.208 33.0235 106.406 33.0723 106.701 33.0723C107.121 33.0723 107.441 32.977 107.689 32.7351C107.862 32.5898 107.961 32.3723 107.961 32.034C107.961 31.3084 107.692 30.4351 107.2 29.37C106.314 27.6257 105.599 26.5118 105.082 25.9792C104.786 25.785 104.466 25.6629 104.12 25.6152C103.873 25.6152 103.652 25.6629 103.454 25.735C103.182 25.8804 102.985 26.049 102.86 26.2676C102.787 26.4606 102.762 26.606 102.762 26.7513C102.762 26.9932 102.835 27.1874 102.958 27.3815C104.238 29.6583 105.175 31.3781 105.74 32.5165C105.838 32.7107 105.938 32.8561 106.085 32.9282V32.927Z" fill="white"/>
</g>
</g>
</g>
</g>
</svg>
