<svg width="257" height="61" viewBox="0 0 257 61" fill="none" xmlns="http://www.w3.org/2000/svg">
<g clip-path="url(#clip0_2443_7584)">
<path d="M59.9225 22.6122C59.9026 22.5261 59.8628 22.3738 59.8001 22.1222C59.7867 22.0725 59.7734 22.0228 59.7603 21.9732C59.7603 21.9732 59.8395 22.2811 59.8958 22.4963C59.8495 22.3208 59.8032 22.1453 59.7535 21.9732H59.7603C59.4096 20.6785 58.9001 19.7779 58.9001 19.7779L55.932 21.5924C52.2363 23.8042 48.5372 26.0193 44.8415 28.2311C43.3197 25.8637 41.801 23.4962 40.2791 21.1322C39.8589 20.4799 39.0018 20.1951 38.3069 20.6156C31.2827 24.867 23.084 29.8403 16.0631 34.0917L17.5189 36.585C24.1494 32.5717 31.9546 27.8371 38.5849 23.824C40.1036 26.1881 41.6224 28.5522 43.1442 30.9197C43.5645 31.5751 44.4215 31.8533 45.1161 31.4362C49.1892 28.9993 53.2586 26.5623 57.3317 24.1254C59.5848 34.0123 56.3722 44.3462 48.7888 51.2033C47.664 49.3357 46.5357 47.4716 45.4106 45.6043C45.2189 45.2863 44.7921 45.1572 44.4644 45.356C42.6611 46.4487 40.8579 47.5413 39.0549 48.6306C38.7337 48.8226 38.6082 49.253 38.8067 49.5775C39.9912 51.541 41.1791 53.5077 42.3635 55.4744C41.2185 56.0144 40.0375 56.471 38.8331 56.8486C35.7662 51.7627 32.6955 46.6802 29.6285 41.5978C29.4366 41.2767 29.0098 41.1507 28.6823 41.3495C26.879 42.4422 25.0758 43.5314 23.2726 44.624C22.9517 44.8161 22.826 45.2467 23.0245 45.5712C25.549 49.7562 28.0768 53.9381 30.6012 58.1234C28.9669 58.1333 27.329 57.9974 25.7144 57.7227C24.2751 55.342 22.8392 52.9582 21.4032 50.5775C21.208 50.2564 20.7812 50.1304 20.457 50.3292C18.7034 51.3919 16.9498 52.4515 15.1963 53.5145C7.75845 48.5148 3.07673 40.0482 2.8782 30.9363C2.64992 20.4269 8.73121 10.6294 17.9887 5.82838C28.3349 0.464465 40.9905 2.62328 49.3778 10.3579C50.1122 11.05 50.8105 11.7784 51.4687 12.5465L53.9436 11.04C53.7286 10.7817 53.3217 10.2453 53.3217 10.2453C45.2022 1.13992 32.2622 -2.30359 20.7018 1.57036C10.6568 4.93772 2.99733 13.6326 0.701146 23.9565C-1.65129 34.5452 2.03122 45.8491 10.015 53.127C17.9788 60.388 29.4167 62.8085 39.6703 59.6267C47.1278 57.3089 53.4475 52.0144 57.2258 45.197C61.0075 38.3331 61.8876 30.1682 59.9225 22.6122Z" fill="#B81C25"/>
<path d="M244.719 17.0103C244.125 15.4441 243.115 14.6562 241.696 14.6562C240.41 14.6562 239.247 15.4346 238.758 16.6259L226.766 45.9332H231.668L241.696 20.6601L243.988 26.4741L247.856 24.6991L244.719 17.0103Z" fill="#2F2725"/>
<path d="M256.53 45.9379L251.571 33.7783L247.547 35.6244L251.675 45.9379H256.53Z" fill="#2F2725"/>
<path d="M251.438 25.8857L240.196 31.1823L237.638 37.6277L253.232 30.2806L251.438 25.8857Z" fill="#B81C25"/>
<path d="M73.1924 42.4989V14.5869H86.0253C88.2762 14.5869 89.9369 14.7057 91.0117 14.9479C92.0868 15.1902 92.9987 15.5797 93.7569 16.1307C94.7264 16.8337 95.475 17.76 96.0077 18.9001C96.5405 20.0401 96.8091 21.3037 96.8091 22.6812C96.8091 24.3295 96.4252 25.707 95.6573 26.8138C94.8894 27.9206 93.7714 28.69 92.3075 29.1272C94.1312 29.4073 95.5613 30.2291 96.6075 31.5878C97.6539 32.9462 98.177 34.6612 98.177 36.7321C98.177 37.9863 97.9561 39.1786 97.5145 40.3043C97.0732 41.43 96.4445 42.3896 95.6334 43.1781C94.7792 44.038 93.7186 44.646 92.4515 44.9973C91.1847 45.3489 89.0585 45.5246 86.0688 45.5246H76.2542C74.5651 45.5246 73.1924 44.171 73.1924 42.4989ZM77.5406 27.6498H85.699C88.118 27.6498 89.8312 27.3221 90.8342 26.6666C91.8372 26.011 92.3413 24.909 92.3413 23.3605C92.3413 21.6694 91.8804 20.4819 90.9541 19.7978C90.028 19.1138 88.2761 18.7718 85.7039 18.7718H77.5455V27.6498H77.5406ZM77.5406 41.321H85.5071C87.2876 41.321 88.6169 41.2495 89.5001 41.1117C90.383 40.9694 91.079 40.7223 91.5924 40.3709C92.2163 39.9623 92.7011 39.4113 93.0419 38.7225C93.3826 38.0337 93.5553 37.2738 93.5553 36.4376C93.5553 35.4545 93.3489 34.5946 92.9362 33.8583C92.5236 33.1269 91.9332 32.5567 91.1653 32.1484C90.6806 31.9109 90.1288 31.7349 89.5098 31.6211C88.8907 31.507 88.07 31.45 87.0428 31.45H85.5071H77.5406V41.321Z" fill="#2F2725"/>
<path d="M131.833 29.6356H143.634C143.634 29.8398 143.639 30.12 143.653 30.4812C143.692 31.436 143.716 32.0771 143.716 32.4145C143.716 36.5659 142.516 39.7868 140.112 42.0811C137.712 44.3753 134.324 45.5247 129.957 45.5247C127.514 45.5247 125.34 45.1686 123.425 44.4561C121.51 43.7436 119.835 42.6702 118.4 41.2355C116.989 39.8105 115.909 38.1384 115.156 36.2194C114.403 34.3002 114.028 32.2434 114.028 30.0536C114.028 27.8257 114.412 25.7689 115.18 23.8926C115.943 22.0116 117.081 20.3537 118.587 18.9192C120.042 17.5084 121.741 16.4349 123.694 15.6986C125.647 14.9623 127.735 14.5918 129.961 14.5918C132.308 14.5918 134.41 15.0146 136.258 15.8601C138.11 16.7056 139.761 18.0024 141.216 19.7457L137.674 22.3821C136.671 21.2278 135.538 20.368 134.276 19.8028C133.014 19.2422 131.603 18.9572 130.043 18.9572C126.813 18.9572 124.179 19.9832 122.139 22.0305C120.099 24.0779 119.077 26.738 119.077 30.0155C119.077 33.3453 120.099 36.0483 122.139 38.124C124.179 40.1999 126.827 41.2355 130.086 41.2355C132.855 41.2355 135.029 40.599 136.618 39.3211C138.206 38.048 138.998 36.3095 138.998 34.1056V33.6828H131.833V29.6356Z" fill="#2F2725"/>
<path d="M154.792 42.9312V14.5869H160.489C165.01 14.5869 168.191 14.8149 170.034 15.2614C171.877 15.7127 173.49 16.468 174.877 17.5273C176.71 18.9143 178.101 20.6956 179.047 22.8664C179.992 25.042 180.468 27.5216 180.468 30.3099C180.468 33.0984 179.992 35.5683 179.047 37.7203C178.101 39.8719 177.338 41.6485 175.505 43.0499C174.118 44.1092 171.911 44.8643 170.14 45.3108C168.369 45.7621 165.614 45.9855 161.871 45.9855H161.112H157.878C156.179 45.9951 154.792 44.6223 154.792 42.9312ZM159.323 41.3825H163.656C166.041 41.3825 167.827 41.2258 169.022 40.9123C170.212 40.5988 171.249 40.0668 172.131 39.3257C173.331 38.3091 174.229 37.0504 174.829 35.5398C175.428 34.0292 175.726 32.2766 175.726 30.272C175.726 28.2675 175.428 26.5146 174.829 25.004C174.229 23.4982 173.331 22.2347 172.131 21.2182C171.234 20.4724 170.164 19.9451 168.916 19.6316C167.668 19.3181 165.71 19.1613 163.051 19.1613H161.189H159.327V41.3825H159.323Z" fill="#2F2725"/>
<path d="M108.826 15.209H104.392V45.5244H108.826V15.209Z" fill="#2F2725"/>
<path d="M206.628 45.9949H211.538L199.593 17.0426C198.993 15.475 197.971 14.6865 196.536 14.6865C195.235 14.6865 194.059 15.4655 193.565 16.6578L181.438 45.9901H186.395L189.51 38.2237H203.528L206.628 45.9949ZM191.223 33.9579L196.54 20.6955L201.829 33.9579H191.223Z" fill="#2F2725"/>
<path d="M230.158 14.6768H221.097H207.89V19.0327H216.692V45.6527H221.097V19.0327H230.158V14.6768Z" fill="#2F2725"/>
</g>
<defs>
<clipPath id="clip0_2443_7584">
<rect width="257" height="61" fill="white"/>
</clipPath>
</defs>
</svg>
