<svg version="1.1" id="Layer_1" xmlns="http://www.w3.org/2000/svg" xmlns:xlink="http://www.w3.org/1999/xlink" x="0px" y="0px"
	 width="100%" viewBox="0 0 1042 552" enable-background="new 0 0 1042 552" xml:space="preserve">
<path fill="#FFFFFF" opacity="1.000000" stroke="none" 
	d="
M695.000000,553.000000 
	C463.333344,553.000000 232.166672,553.000000 1.000000,553.000000 
	C1.000000,369.000000 1.000000,185.000000 1.000000,1.000000 
	C348.333344,1.000000 695.666687,1.000000 1043.000000,1.000000 
	C1043.000000,185.000000 1043.000000,369.000000 1043.000000,553.000000 
	C927.166687,553.000000 811.333313,553.000000 695.000000,553.000000 
M578.577881,409.936310 
	C578.872742,409.799500 579.053040,409.571930 580.037598,409.177734 
	C669.987793,409.177734 759.937988,409.177734 850.504578,409.177734 
	C850.504578,442.399689 850.504578,475.119659 850.504578,507.807831 
	C879.028442,507.807831 906.933411,507.807831 935.391235,507.807831 
	C935.391235,474.741608 935.391235,442.023285 935.391235,408.934113 
	C968.544556,408.934113 1001.143005,408.934113 1033.892822,408.934113 
	C1033.892822,385.480743 1033.892822,362.407349 1033.892822,338.778748 
	C1000.913452,338.778748 968.194946,338.778748 934.937012,338.778748 
	C934.937012,234.512878 934.937012,130.801895 934.937012,27.136328 
	C921.864258,26.114058 921.851501,26.101336 917.710876,30.256210 
	C834.338440,113.916214 750.973938,197.584137 667.594971,281.237671 
	C651.948303,296.935822 636.263123,312.595734 620.539856,328.217010 
	C619.300903,329.447968 617.620789,330.234863 616.044861,330.393585 
	C616.436768,329.004974 616.934998,327.636505 617.203247,326.224426 
	C618.855774,317.525085 620.867004,308.867615 621.970703,300.096985 
	C623.352905,289.113312 623.975830,278.034027 625.083435,266.086487 
	C624.417542,257.382477 623.824097,248.672180 623.071045,239.975723 
	C621.426270,220.983063 616.621582,202.796188 610.243408,184.821533 
	C600.239441,156.628952 584.990845,131.693314 565.705811,109.088928 
	C553.161011,94.384903 538.718689,81.759033 522.657776,70.958504 
	C503.880676,58.331478 484.004700,47.930920 462.692993,40.249100 
	C441.152222,32.484730 418.818451,28.295321 396.107361,27.263058 
	C380.959503,26.574558 365.592438,27.449991 350.514191,29.235840 
	C326.542145,32.075054 303.612030,39.245071 281.737457,49.549549 
	C263.017517,58.367977 245.235184,68.899933 229.960129,82.848984 
	C218.000092,93.770767 207.042526,105.850143 196.221939,117.936584 
	C190.089859,124.786041 185.131226,132.686066 178.907928,141.109329 
	C178.907928,102.340927 178.907928,64.680534 178.907928,26.840811 
	C151.833374,26.840811 125.345215,26.899418 98.858025,26.766180 
	C95.570007,26.749641 93.328247,27.789192 91.055656,30.074015 
	C65.439919,55.827656 39.728428,81.486046 14.051747,107.179115 
	C12.935075,108.296509 11.906399,109.501831 10.008603,111.567627 
	C38.720104,111.567627 66.266762,111.567627 94.400764,111.567627 
	C94.400764,244.028351 94.400764,375.895996 94.400764,507.865479 
	C122.905128,507.865479 150.813354,507.865479 179.269028,507.865479 
	C179.269028,469.790405 179.269028,432.007263 179.680847,394.690674 
	C180.898590,396.477081 182.151382,398.240723 183.328796,400.053314 
	C200.872940,427.061554 223.013046,449.550110 249.738678,467.510315 
	C284.982574,491.194946 323.881622,504.791168 366.134613,507.808990 
	C391.160950,509.596436 416.083069,507.592224 440.642914,501.464355 
	C464.194458,495.588104 486.264648,486.304657 506.964264,473.904510 
	C521.789795,465.023285 536.379456,455.525726 548.435913,442.936218 
	C558.651917,432.268463 568.259827,421.018372 578.577881,409.936310 
z"/>
<path fill="#636466" opacity="1.000000" stroke="none" 
	d="
M616.145691,331.228149 
	C617.620789,330.234863 619.300903,329.447968 620.539856,328.217010 
	C636.263123,312.595734 651.948303,296.935822 667.594971,281.237671 
	C750.973938,197.584137 834.338440,113.916214 917.710876,30.256210 
	C921.851501,26.101336 921.864258,26.114058 934.937012,27.136328 
	C934.937012,130.801895 934.937012,234.512878 934.937012,338.778748 
	C968.194946,338.778748 1000.913452,338.778748 1033.892822,338.778748 
	C1033.892822,362.407349 1033.892822,385.480743 1033.892822,408.934113 
	C1001.143005,408.934113 968.544556,408.934113 935.391235,408.934113 
	C935.391235,442.023285 935.391235,474.741608 935.391235,507.807831 
	C906.933411,507.807831 879.028442,507.807831 850.504578,507.807831 
	C850.504578,475.119659 850.504578,442.399689 850.504578,409.177734 
	C759.937988,409.177734 669.987793,409.177734 579.111206,409.124512 
	C567.440308,409.048035 556.695251,409.069580 545.951660,408.955414 
	C544.253601,408.937378 542.562073,408.306610 541.097412,407.715576 
	C563.013184,385.953339 584.744446,364.480103 606.339600,342.870819 
	C609.913330,339.294800 612.892029,335.124054 616.145691,331.228149 
M804.500000,338.842010 
	C819.624207,338.842010 834.748413,338.842010 849.887939,338.842010 
	C849.887939,291.582306 849.887939,244.839035 849.887939,196.834793 
	C802.725342,244.499710 756.458618,291.259247 709.377319,338.841949 
	C741.619507,338.841949 772.559753,338.841949 804.500000,338.842010 
z"/>
<path fill="#DB7E3C" opacity="1.000000" stroke="none" 
	d="
M616.095276,330.810883 
	C612.892029,335.124054 609.913330,339.294800 606.339600,342.870819 
	C584.744446,364.480103 563.013184,385.953339 540.828247,407.888123 
	C541.109619,408.869476 541.885498,409.919800 542.671387,409.927368 
	C554.492432,410.040985 566.314819,410.017365 578.136841,410.025970 
	C568.259827,421.018372 558.651917,432.268463 548.435913,442.936218 
	C536.379456,455.525726 521.789795,465.023285 506.964264,473.904510 
	C486.264648,486.304657 464.194458,495.588104 440.642914,501.464355 
	C416.083069,507.592224 391.160950,509.596436 366.134613,507.808990 
	C323.881622,504.791168 284.982574,491.194946 249.738678,467.510315 
	C223.013046,449.550110 200.872940,427.061554 183.328796,400.053314 
	C182.151382,398.240723 180.898590,396.477081 179.314880,394.123596 
	C172.902817,381.554321 166.222153,369.823425 160.948349,357.490936 
	C151.236588,334.780518 145.552704,310.816376 144.287415,286.220642 
	C143.455872,270.056000 144.619629,253.687775 146.135101,237.527496 
	C148.302338,214.416931 156.385056,192.840561 167.421341,172.658920 
	C178.782867,151.882462 193.240540,133.322861 211.506668,117.841743 
	C224.486008,106.841362 238.352280,97.417755 253.494675,89.665123 
	C292.878326,69.501389 334.678619,66.115883 377.541565,72.393082 
	C395.914917,75.083817 413.544861,81.417366 430.121796,90.090134 
	C446.033813,98.415039 460.721680,108.427116 474.246124,120.399734 
	C488.961823,133.426910 500.847137,148.570709 510.930115,165.206436 
	C515.726868,173.120514 520.092468,181.407898 523.610901,189.955307 
	C527.649780,199.766998 530.533630,210.054123 533.575684,220.000931 
	C528.777893,210.465302 524.805786,200.797440 519.790283,191.705170 
	C489.265381,136.368607 427.776886,104.421143 363.176300,113.035645 
	C333.527130,116.989357 306.778046,128.297974 284.310547,147.855087 
	C241.506714,185.114166 222.970078,232.583740 230.269485,288.920990 
	C235.278198,327.578583 252.566269,360.341217 282.614136,386.091248 
	C294.218018,396.035400 306.664886,404.111389 320.600555,410.267944 
	C340.739441,419.164917 361.803650,423.557190 383.689392,423.874512 
	C390.874908,423.978729 398.108429,422.825317 405.273743,421.891815 
	C428.530731,418.861877 449.892303,410.533447 469.480560,397.813721 
	C484.294373,388.194275 497.050903,376.184906 507.493866,361.911133 
	C519.212585,345.893677 529.588318,329.130707 534.576294,309.584412 
	C538.144409,295.601898 540.588501,281.491089 540.622498,266.996521 
	C569.029419,266.998047 596.977966,266.997040 624.926514,266.996033 
	C623.975830,278.034027 623.352905,289.113312 621.970703,300.096985 
	C620.867004,308.867615 618.855774,317.525085 617.203247,326.224426 
	C616.934998,327.636505 616.436768,329.004974 616.095276,330.810883 
z"/>
<path fill="#636466" opacity="1.000000" stroke="none" 
	d="
M533.919189,220.134735 
	C530.533630,210.054123 527.649780,199.766998 523.610901,189.955307 
	C520.092468,181.407898 515.726868,173.120514 510.930115,165.206436 
	C500.847137,148.570709 488.961823,133.426910 474.246124,120.399734 
	C460.721680,108.427116 446.033813,98.415039 430.121796,90.090134 
	C413.544861,81.417366 395.914917,75.083817 377.541565,72.393082 
	C334.678619,66.115883 292.878326,69.501389 253.494675,89.665123 
	C238.352280,97.417755 224.486008,106.841362 211.506668,117.841743 
	C193.240540,133.322861 178.782867,151.882462 167.421341,172.658920 
	C156.385056,192.840561 148.302338,214.416931 146.135101,237.527496 
	C144.619629,253.687775 143.455872,270.056000 144.287415,286.220642 
	C145.552704,310.816376 151.236588,334.780518 160.948349,357.490936 
	C166.222153,369.823425 172.902817,381.554321 179.108963,393.890320 
	C179.269028,432.007263 179.269028,469.790405 179.269028,507.865479 
	C150.813354,507.865479 122.905128,507.865479 94.400764,507.865479 
	C94.400764,375.895996 94.400764,244.028351 94.400764,111.567627 
	C66.266762,111.567627 38.720104,111.567627 10.008603,111.567627 
	C11.906399,109.501831 12.935075,108.296509 14.051747,107.179115 
	C39.728428,81.486046 65.439919,55.827656 91.055656,30.074015 
	C93.328247,27.789192 95.570007,26.749641 98.858025,26.766180 
	C125.345215,26.899418 151.833374,26.840811 178.907928,26.840811 
	C178.907928,64.680534 178.907928,102.340927 178.907928,141.109329 
	C185.131226,132.686066 190.089859,124.786041 196.221939,117.936584 
	C207.042526,105.850143 218.000092,93.770767 229.960129,82.848984 
	C245.235184,68.899933 263.017517,58.367977 281.737457,49.549549 
	C303.612030,39.245071 326.542145,32.075054 350.514191,29.235840 
	C365.592438,27.449991 380.959503,26.574558 396.107361,27.263058 
	C418.818451,28.295321 441.152222,32.484730 462.692993,40.249100 
	C484.004700,47.930920 503.880676,58.331478 522.657776,70.958504 
	C538.718689,81.759033 553.161011,94.384903 565.705811,109.088928 
	C584.990845,131.693314 600.239441,156.628952 610.243408,184.821533 
	C616.621582,202.796188 621.426270,220.983063 623.071045,239.975723 
	C623.824097,248.672180 624.417542,257.382477 625.005005,266.541260 
	C596.977966,266.997040 569.029419,266.998047 540.552368,266.532928 
	C538.989136,254.982178 537.954407,243.897552 536.964600,232.471024 
	C536.753296,231.019608 536.497192,229.910095 536.150574,228.672211 
	C536.060059,228.543839 536.035034,228.230682 536.041260,227.837418 
	C535.669739,226.289627 535.291931,225.135101 534.955078,223.991882 
	C534.996094,224.003174 534.971985,224.084732 534.979614,223.706268 
	C534.625610,222.219833 534.264099,221.111877 533.936279,220.032837 
	C533.970032,220.061783 533.919189,220.134735 533.919189,220.134735 
z"/>
<path fill="#DA9562" opacity="1.000000" stroke="none" 
	d="
M578.357361,409.981140 
	C566.314819,410.017365 554.492432,410.040985 542.671387,409.927368 
	C541.885498,409.919800 541.109619,408.869476 540.598267,408.131653 
	C542.562073,408.306610 544.253601,408.937378 545.951660,408.955414 
	C556.695251,409.069580 567.440308,409.048035 578.651855,409.162445 
	C579.053040,409.571930 578.872742,409.799500 578.357361,409.981140 
z"/>
<path fill="#FEFEFE" opacity="1.000000" stroke="none" 
	d="
M804.000000,338.841980 
	C772.559753,338.841949 741.619507,338.841949 709.377319,338.841949 
	C756.458618,291.259247 802.725342,244.499710 849.887939,196.834793 
	C849.887939,244.839035 849.887939,291.582306 849.887939,338.842010 
	C834.748413,338.842010 819.624207,338.842010 804.000000,338.841980 
z"/>
<path fill="#FFFFFF" opacity="1.000000" stroke="none" 
	d="
M536.035034,228.230682 
	C536.035034,228.230682 536.060059,228.543839 536.068604,229.032410 
	C536.357971,230.618317 536.638794,231.715622 536.919678,232.812927 
	C537.954407,243.897552 538.989136,254.982178 540.093994,266.530396 
	C540.588501,281.491089 538.144409,295.601898 534.576294,309.584412 
	C529.588318,329.130707 519.212585,345.893677 507.493866,361.911133 
	C497.050903,376.184906 484.294373,388.194275 469.480560,397.813721 
	C449.892303,410.533447 428.530731,418.861877 405.273743,421.891815 
	C398.108429,422.825317 390.874908,423.978729 383.689392,423.874512 
	C361.803650,423.557190 340.739441,419.164917 320.600555,410.267944 
	C306.664886,404.111389 294.218018,396.035400 282.614136,386.091248 
	C252.566269,360.341217 235.278198,327.578583 230.269485,288.920990 
	C222.970078,232.583740 241.506714,185.114166 284.310547,147.855087 
	C306.778046,128.297974 333.527130,116.989357 363.176300,113.035645 
	C427.776886,104.421143 489.265381,136.368607 519.790283,191.705170 
	C524.805786,200.797440 528.777893,210.465302 533.575684,220.000931 
	C533.919189,220.134735 533.970032,220.061783 533.845337,220.399628 
	C534.137756,221.853226 534.554871,222.968979 534.971985,224.084732 
	C534.971985,224.084732 534.996094,224.003174 534.933594,224.375702 
	C535.259094,225.909058 535.647034,227.069870 536.035034,228.230682 
z"/>
<path fill="#DB7E3C" opacity="1.000000" stroke="none" 
	d="
M534.979614,223.706268 
	C534.554871,222.968979 534.137756,221.853226 533.811584,220.370697 
	C534.264099,221.111877 534.625610,222.219833 534.979614,223.706268 
z"/>
<path fill="#DB7E3C" opacity="1.000000" stroke="none" 
	d="
M536.041260,227.837418 
	C535.647034,227.069870 535.259094,225.909058 534.892578,224.364410 
	C535.291931,225.135101 535.669739,226.289627 536.041260,227.837418 
z"/>
<path fill="#DB7E3C" opacity="1.000000" stroke="none" 
	d="
M536.964539,232.471024 
	C536.638794,231.715622 536.357971,230.618317 536.159180,229.160782 
	C536.497192,229.910095 536.753296,231.019608 536.964539,232.471024 
z"/>
</svg>