<svg width="77" height="71" viewBox="0 0 77 71" fill="none" xmlns="http://www.w3.org/2000/svg">
<g id="&#229;&#156;&#150;&#229;&#177;&#164; 1">
<g id="Group">
<g id="Group_2">
<path id="Vector" d="M5.2272 58.4609H0.295084C0.134895 58.4609 0 58.5925 0 58.7581V69.9407C0 70.1062 0.13068 70.2378 0.295084 70.2378H5.24406C9.13073 70.2378 11.6432 67.9241 11.6432 64.3409C11.6432 60.7577 9.12652 58.4609 5.2272 58.4609ZM5.2272 67.1302H3.541V61.5686H5.24406C6.9977 61.5686 8.05157 62.6045 8.05157 64.3409C8.05157 65.7292 7.08201 67.1302 5.2272 67.1302Z" fill="#0077B4"/>
<path id="Vector_2" d="M34.309 61.4961C32.9474 61.4961 31.8429 62.2518 31.3455 62.999C30.9872 62.0013 30.1609 61.4961 28.9089 61.4961C27.522 61.4961 26.4724 62.2008 26.1056 62.6763V62.0055C26.1056 61.84 25.975 61.7084 25.8106 61.7084H23.2433C23.0789 61.7084 22.9482 61.84 22.9482 62.0055V69.9403C22.9482 70.1059 23.0789 70.2375 23.2433 70.2375H25.8106C25.975 70.2375 26.1056 70.1059 26.1056 69.9403V64.9774C26.2911 64.7566 26.6747 64.3066 27.3829 64.3066C28.0068 64.3066 28.3483 64.6505 28.3483 65.2618V69.9445C28.3483 70.1101 28.479 70.2417 28.6434 70.2417H31.2106C31.375 70.2417 31.5057 70.1101 31.5057 69.9445V64.9816C31.6912 64.7651 32.0748 64.3108 32.7998 64.3108C33.4153 64.3108 33.7652 64.659 33.7652 65.2661V69.9488C33.7652 70.1144 33.8959 70.246 34.0603 70.246H36.6275C36.7919 70.246 36.9226 70.1144 36.9226 69.9488V64.0646C36.9226 62.4131 35.9952 61.5046 34.309 61.5046" fill="#0077B4"/>
<path id="Vector_3" d="M41.4717 61.708H38.9045C38.7401 61.708 38.6094 61.8396 38.6094 62.0052V69.9399C38.6094 70.1055 38.7401 70.2371 38.9045 70.2371H41.4717C41.6361 70.2371 41.7668 70.1055 41.7668 69.9399V62.0052C41.7668 61.8396 41.6319 61.708 41.4717 61.708Z" fill="#0077B4"/>
<path id="Vector_4" d="M40.2666 57.5264C39.2928 57.5264 38.4961 58.3288 38.4961 59.3095C38.4961 60.2902 39.2928 61.0925 40.2666 61.0925C41.2404 61.0925 42.0371 60.2944 42.0371 59.3095C42.0371 58.3245 41.2404 57.5264 40.2666 57.5264Z" fill="#0077B4"/>
<path id="Vector_5" d="M49.57 61.4961C47.9344 61.4961 47.0449 62.2348 46.6613 62.6763V62.0055C46.6613 61.84 46.5306 61.7084 46.3662 61.7084H43.799C43.6346 61.7084 43.5039 61.84 43.5039 62.0055V69.9403C43.5039 70.1059 43.6346 70.2375 43.799 70.2375H46.3662C46.5306 70.2375 46.6613 70.1059 46.6613 69.9403V64.9774C46.8679 64.7439 47.2473 64.3066 48.0103 64.3066C48.8281 64.3066 49.237 64.7184 49.237 65.525V69.9403C49.237 70.1059 49.3719 70.2375 49.532 70.2375H52.0993C52.2637 70.2375 52.3944 70.1059 52.3944 69.9403V64.1835C52.3944 62.5023 51.3405 61.5003 49.57 61.5003" fill="#0077B4"/>
<path id="Vector_6" d="M17.1315 61.458C14.6654 61.458 12.6631 63.4746 12.6631 65.9582C12.6631 68.4418 14.6654 70.4584 17.1315 70.4584C19.5976 70.4584 21.5999 68.446 21.5999 65.9582C21.5999 63.4704 19.5976 61.458 17.1315 61.458ZM17.1315 67.4356C16.2884 67.4356 15.6055 66.7478 15.6055 65.8988C15.6055 65.0497 16.2884 64.3619 17.1315 64.3619C17.9746 64.3619 18.6575 65.0497 18.6575 65.8988C18.6575 66.7478 17.9746 67.4356 17.1315 67.4356Z" fill="#0077B4"/>
<path id="Vector_7" d="M58.2038 61.4707C55.7377 61.4707 53.7354 63.4873 53.7354 65.9709C53.7354 68.4545 55.7377 70.4711 58.2038 70.4711C60.6698 70.4711 62.6722 68.4587 62.6722 65.9709C62.6722 63.4831 60.6698 61.4707 58.2038 61.4707ZM58.2038 67.4483C57.3607 67.4483 56.6778 66.7605 56.6778 65.9115C56.6778 65.0624 57.3607 64.3746 58.2038 64.3746C59.0469 64.3746 59.7298 65.0624 59.7298 65.9115C59.7298 66.7605 59.0469 67.4483 58.2038 67.4483Z" fill="#0077B4"/>
<path id="Vector_8" d="M65.5422 58.9698C65.5422 58.9698 65.5422 58.9571 65.5422 58.9528C65.5422 58.9528 65.5422 58.9443 65.538 58.9401C65.538 58.9401 65.538 58.9358 65.538 58.9316C65.3399 58.0485 64.383 57.4032 63.4387 57.5985C62.4818 57.7981 61.8579 58.6938 62.0434 59.5939C62.1951 60.3368 62.857 60.8251 63.6158 60.876C63.5778 61.1902 63.3038 61.4746 63.0762 61.6062C62.9286 61.6869 63.0172 61.8525 63.0172 61.8525L63.2111 62.1454C63.2659 62.243 63.3544 62.294 63.4556 62.2515C65.3989 61.4491 65.7404 59.7849 65.5422 58.9783" fill="#0077B4"/>
<path id="Vector_9" d="M68.2191 64.2468C68.2107 63.9284 68.6238 63.7883 69.1339 63.7883C70.1583 63.7883 70.74 64.0812 71.3892 64.5142C71.4566 64.5609 71.5409 64.5779 71.621 64.5567C71.7011 64.5397 71.7686 64.4845 71.8107 64.4123L72.6749 62.8925C72.755 62.7524 72.7044 62.5783 72.5695 62.4934C71.8571 62.0688 70.8159 61.5127 69.0032 61.5127C66.3938 61.5127 64.9943 62.7481 65.2262 64.527C65.6351 67.6559 70.466 66.586 70.3901 67.6516C70.3733 67.8979 69.9475 68.0804 69.2056 68.0804C68.2487 68.0804 67.1653 67.5964 66.4782 67.1719C66.4149 67.1294 66.3306 67.1167 66.2505 67.1379C66.1704 67.1592 66.1072 67.2059 66.0692 67.278L65.0702 68.9592C64.9943 69.0951 65.0322 69.2649 65.1587 69.3541C66.1198 70.0079 67.6711 70.4494 69.0201 70.4494C71.6337 70.4494 73.1428 69.3158 73.1428 67.4563C73.1428 64.026 68.2402 65.0916 68.2234 64.2425" fill="#0077B4"/>
<path id="Vector_10" d="M75.4069 61.0801C76.2668 61.0801 77.0003 61.7509 77.0003 62.6679C77.0003 63.5849 76.2626 64.2599 75.4069 64.2599C74.5511 64.2599 73.8008 63.5891 73.8008 62.6679C73.8008 61.7466 74.5385 61.0801 75.4069 61.0801ZM75.4069 61.3391C74.6734 61.3391 74.1085 61.9079 74.1085 62.6679C74.1085 63.4278 74.6734 64.0052 75.4069 64.0052C76.1404 64.0052 76.6968 63.4448 76.6968 62.6679C76.6968 61.891 76.1277 61.3391 75.4069 61.3391ZM75.0696 63.5891H74.7914V61.7551H75.4912C75.9254 61.7551 76.1362 61.9207 76.1362 62.2815C76.1362 62.6084 75.9338 62.7528 75.6598 62.7868L76.1783 63.5934H75.8706L75.3858 62.7952H75.0696V63.5934V63.5891ZM75.0696 62.5617H75.4027C75.7441 62.5617 75.8537 62.4641 75.8537 62.2603C75.8537 62.082 75.7694 61.9844 75.449 61.9844H75.0696V62.5617Z" fill="#0077B4"/>
</g>
<path id="Vector_11" d="M61.487 15.3049L47.2218 0.938246C46.619 0.331146 45.818 0 44.9665 0C44.115 0 43.314 0.331146 42.7112 0.938246L30.7477 12.9869L10.8379 33.0381C9.59438 34.2906 9.59438 36.3241 10.8379 37.5808L25.1031 51.9474C25.706 52.5503 26.5069 52.8857 27.3584 52.8857C28.21 52.8857 29.0109 52.5503 29.6095 51.9474L47.4536 33.9764L61.4828 19.8475C62.7263 18.5951 62.7263 16.5573 61.4828 15.3091" fill="white"/>
<path id="Vector_12" d="M60.4798 16.3273L46.2104 1.96067C45.5233 1.26441 44.4062 1.26441 43.7233 1.96067L28.2988 17.4905L45.0512 34.3662L60.4756 18.8321C61.1627 18.1401 61.1627 17.0151 60.4756 16.323M47.9303 20.4793C47.121 21.2945 46.0629 21.6935 45.009 21.6935C43.9551 21.6935 42.897 21.2902 42.0877 20.4793C41.2825 19.6642 40.8736 18.5986 40.8736 17.5372C40.8736 16.4759 41.2783 15.406 42.0877 14.5951C42.897 13.7843 43.9509 13.3767 45.0132 13.3767C46.0755 13.3767 47.1252 13.78 47.9345 14.5951C48.7397 15.406 49.1486 16.4759 49.1486 17.5372C49.1486 18.5986 48.7439 19.6642 47.9345 20.4793" fill="#E1002B"/>
<path id="Vector_13" d="M11.8493 34.0569C11.1622 34.7489 11.1622 35.8739 11.8493 36.5659L26.1145 50.9326C26.456 51.2807 26.907 51.4548 27.3581 51.4548C27.8091 51.4548 28.2602 51.2807 28.6017 50.9326L44.0177 35.4069L27.2653 18.5312L11.8493 34.0569ZM24.2007 38.192C23.3913 38.9986 22.3332 39.4062 21.2751 39.4062C20.2171 39.4062 19.1632 39.0028 18.3538 38.192C17.5444 37.3811 17.144 36.3155 17.144 35.2499C17.144 34.1842 17.5487 33.1229 18.3538 32.3035C19.1632 31.4926 20.2171 31.0893 21.2751 31.0893C22.3332 31.0893 23.3913 31.4969 24.2007 32.3035C25.0058 33.1186 25.4105 34.1842 25.4063 35.2499C25.4063 36.3155 25.0058 37.3811 24.2007 38.192ZM30.4818 32.4733C31.2911 31.6582 32.3492 31.2549 33.4031 31.2549C34.457 31.2549 35.5193 31.6582 36.3244 32.4733C37.1338 33.2885 37.5385 34.3498 37.5385 35.4154C37.5385 36.481 37.1338 37.5424 36.3244 38.3575C35.5193 39.1642 34.4612 39.5717 33.4031 39.576C32.3492 39.576 31.2911 39.1642 30.4818 38.3575C29.6766 37.5466 29.2719 36.481 29.2719 35.4154C29.2719 34.3498 29.6766 33.2885 30.4818 32.4733Z" fill="#0077B4"/>
<path id="Vector_14" d="M32.8939 50.1643H32.5861V50.5761H32.8939C32.9908 50.5761 33.1004 50.4912 33.1004 50.3723C33.1004 50.245 32.9908 50.1643 32.8939 50.1643ZM33.0794 51.179L32.7758 50.7205H32.5777V51.179H32.4175V50.0199H32.8897C33.0836 50.0199 33.2606 50.1601 33.2606 50.3723C33.2606 50.6313 33.033 50.7162 32.9655 50.7162L33.2733 51.179H33.0751H33.0794ZM32.8054 49.7355C32.3332 49.7355 31.9538 50.1091 31.9538 50.5931C31.9538 51.0771 32.3332 51.4507 32.8054 51.4507C33.2775 51.4507 33.6569 51.0643 33.6569 50.5931C33.6569 50.1218 33.2775 49.7355 32.8054 49.7355ZM32.8054 51.6077C32.2531 51.6077 31.7979 51.1535 31.7979 50.5973C31.7979 50.0412 32.2489 49.5869 32.8054 49.5869C33.3618 49.5869 33.8129 50.0369 33.8129 50.5973C33.8129 51.1577 33.3702 51.6077 32.8054 51.6077Z" fill="#0077B4"/>
</g>
</g>
</svg>
