<svg width="234" height="50" viewBox="0 0 234 50" fill="none" xmlns="http://www.w3.org/2000/svg">
<path d="M67.9238 7.2351H75.4807V22.725H79.8626V7.2351H87.4194V2.8418H67.9238V7.2351Z" fill="#231815"/>
<path d="M92.3353 18.0705H103.408V22.734H107.79V5.07361C107.79 4.76852 107.755 4.50701 107.641 4.20192C107.528 3.94041 107.379 3.71377 107.187 3.47842C106.994 3.28665 106.732 3.10359 106.469 3.02514C106.207 2.91182 105.901 2.87695 105.603 2.87695H97.8979C96.4985 2.87695 95.1778 3.13846 93.9708 3.60045C92.7638 4.0886 91.7055 4.77723 90.8309 5.64892C89.965 6.52061 89.2478 7.58407 88.7493 8.79571C88.2595 10.0074 87.9971 11.3323 87.9971 12.7706V22.6991H92.379V18.0356L92.344 18.0705H92.3353ZM96.1487 7.4969C96.5598 7.38358 96.9446 7.30513 97.242 7.27026C97.5481 7.27026 97.7668 7.23539 97.8455 7.23539H103.399V13.712H92.3265V12.8055C92.3265 11.8989 92.4402 11.1406 92.7026 10.5304C92.93 9.92019 93.2711 9.39718 93.6472 8.97877C94.0233 8.56036 94.4431 8.25527 94.8542 8.02863C95.309 7.80199 95.7638 7.61022 96.1749 7.4969H96.1399H96.1487Z" fill="#231815"/>
<path d="M115.225 2.8418H110.843V22.7337H115.225V2.8418Z" fill="#231815"/>
<path d="M136.837 15.263C137.178 14.7749 137.475 14.1647 137.668 13.5196C137.86 12.8746 137.974 12.1162 137.974 11.2881V9.73652C137.974 9.28324 137.939 8.78638 137.825 8.29823C137.712 7.76651 137.563 7.27836 137.335 6.7815C137.108 6.29335 136.811 5.79649 136.47 5.34321C136.128 4.88994 135.674 4.47153 135.184 4.0967C134.659 3.75674 134.091 3.45165 133.443 3.22501C132.805 2.99837 132.044 2.91992 131.213 2.91992H123.472C122.948 2.91992 122.379 2.99837 121.776 3.18143C121.172 3.3732 120.569 3.66957 120.079 4.08798C119.554 4.50639 119.099 5.07299 118.758 5.71804C118.417 6.39796 118.233 7.23478 118.233 8.1762V22.7595H122.615V8.18492C122.615 7.87982 122.694 7.61832 122.843 7.505C122.991 7.39168 123.219 7.27836 123.56 7.27836H131.265C131.642 7.27836 131.983 7.35681 132.245 7.47013C132.551 7.58345 132.77 7.73164 132.962 7.95828C133.155 8.18492 133.303 8.41155 133.452 8.71664C133.566 9.02174 133.679 9.39656 133.679 9.73652V11.2881C133.679 11.6629 133.601 12.0116 133.487 12.308C133.373 12.6131 133.225 12.8397 132.997 13.0315C132.77 13.2233 132.542 13.4063 132.245 13.5196C131.939 13.633 131.607 13.7114 131.222 13.7463H126.805V18.1396H131.222C131.677 18.1396 132.166 18.1047 132.656 17.9914C133.146 17.8781 133.679 17.7299 134.169 17.5033C134.659 17.2766 135.149 16.9715 135.604 16.6316C136.058 16.2567 136.47 15.8383 136.854 15.3066V15.2717L136.837 15.263Z" fill="#231815"/>
<path d="M141.787 21.5569C142.312 21.9753 142.88 22.2804 143.527 22.4635C144.131 22.6553 144.699 22.725 145.224 22.725H158.029V18.3317H145.224C144.883 18.3317 144.656 18.2532 144.507 18.105C144.358 17.9569 144.28 17.7302 144.28 17.4251V7.2351H157.994V2.8418H142.128C141.822 2.8418 141.524 2.92025 141.262 2.98998C141 3.1033 140.772 3.25149 140.545 3.47813C140.352 3.6699 140.204 3.93141 140.09 4.20163C139.976 4.46314 139.941 4.76823 139.941 5.07332V17.46C139.941 18.4101 140.134 19.2382 140.466 19.9182C140.807 20.5981 141.262 21.1298 141.787 21.5482V21.5569Z" fill="#231815"/>
<path d="M156.438 10.6084H148.47V15.0017H156.438V10.6084Z" fill="#231815"/>
<path d="M164.755 2.8418H160.373V22.7337H164.755V2.8418Z" fill="#231815"/>
<path d="M72.6819 30.1517C72.1571 30.2999 71.7023 30.5265 71.3262 30.8316C70.9501 31.0931 70.609 31.4418 70.3029 31.7818C70.0405 32.1217 69.8131 32.5053 69.6207 32.9149C69.472 33.2898 69.3145 33.7082 69.2446 34.0917C69.1658 34.4666 69.1309 34.8501 69.1309 35.1901V44.4735C69.1309 45.1186 69.2096 45.6852 69.3583 46.2169C69.507 46.7486 69.7344 47.2019 70.0405 47.5767C70.3029 47.9516 70.644 48.3002 70.9851 48.5966C71.3262 48.8581 71.7023 49.0848 72.1221 49.2765C72.4982 49.4683 72.918 49.5816 73.2941 49.6514C73.6702 49.7298 74.0463 49.7647 74.4311 49.7647H87.2358V45.3714H74.4311C74.125 45.3714 73.9064 45.2929 73.7489 45.1447C73.6002 44.9965 73.5215 44.7699 73.5215 44.4648V35.1813C73.5215 34.8414 73.6002 34.6147 73.7489 34.4578C73.8976 34.3096 74.125 34.2312 74.4311 34.2312H87.2358V29.8379H74.4311C73.7927 29.8379 73.2242 29.9163 72.6906 30.0994V30.1343L72.6819 30.1517Z" fill="#231815"/>
<path d="M107.633 32.0085C106.881 31.2502 106.006 30.6836 104.992 30.2652C103.968 29.8468 102.875 29.6201 101.668 29.6201H97.0237C95.8517 29.6201 94.7234 29.8468 93.7001 30.2652C92.6768 30.6836 91.7759 31.285 91.0587 32.0085C90.3065 32.7669 89.738 33.6386 89.3182 34.6585C88.8983 35.6783 88.6797 36.8203 88.6797 38.0319V41.632C88.6797 42.8436 88.9071 43.9768 89.3182 45.0054C89.738 46.0253 90.3415 46.897 91.0587 47.6553C91.8109 48.4137 92.6855 48.9803 93.7001 49.3987C94.7234 49.8171 95.8167 50.0089 97.0237 50.0089H101.668C102.84 50.0089 103.968 49.7822 104.992 49.3987C106.015 48.9803 106.881 48.4137 107.633 47.6553C108.385 46.897 108.954 46.0253 109.374 45.0054C109.785 43.9855 110.012 42.8436 110.012 41.632V38.0319C110.012 36.8203 109.785 35.7219 109.374 34.7021C108.954 33.6822 108.35 32.7669 107.633 32.0521V32.0173V32.0085ZM97.0499 34.0221H101.694C102.298 34.0221 102.831 34.1355 103.321 34.3272C103.811 34.519 104.231 34.7805 104.572 35.1205C104.913 35.4604 105.175 35.8788 105.368 36.367C105.56 36.8551 105.674 37.4304 105.674 38.0319V41.632C105.674 42.2422 105.56 42.8087 105.368 43.2969C105.175 43.785 104.913 44.2034 104.572 44.5434C104.231 44.8834 103.82 45.1536 103.321 45.3366C102.831 45.5284 102.263 45.6417 101.659 45.6417H97.0499C96.4465 45.6417 95.8779 45.5284 95.3881 45.3366C94.8983 45.1449 94.4785 44.8834 94.1374 44.5434C93.7963 44.2034 93.5339 43.785 93.3415 43.2969C93.1491 42.8087 93.0354 42.2334 93.0354 41.632V38.0319C93.0354 37.4217 93.1491 36.8551 93.3415 36.367C93.5339 35.8788 93.7963 35.4604 94.1374 35.1205C94.4785 34.7805 94.8896 34.5103 95.3881 34.3272C95.8779 34.1355 96.4465 34.0221 97.0499 34.0221Z" fill="#231815"/>
<path d="M129.849 32.279C129.096 31.5555 128.222 30.9541 127.207 30.5357C126.184 30.1173 125.056 29.8906 123.884 29.8906H114.63C114.324 29.8906 114.026 29.9691 113.764 30.0388C113.502 30.1521 113.274 30.3003 113.047 30.527C112.854 30.7187 112.706 30.9454 112.592 31.2505C112.478 31.512 112.443 31.8171 112.443 32.1221V47.5772C112.443 47.8823 112.478 48.1873 112.592 48.4489C112.706 48.7104 112.854 48.937 113.047 49.1288C113.239 49.3205 113.467 49.4687 113.764 49.582C114.026 49.6954 114.333 49.7302 114.63 49.7302H123.884C125.056 49.7302 126.184 49.5036 127.207 49.0852C128.231 48.6668 129.131 48.0653 129.849 47.3418C130.601 46.5834 131.169 45.7118 131.589 44.6919C132 43.672 132.228 42.5301 132.228 41.3184V38.2152C132.228 37.0036 132 35.9053 131.589 34.8418C131.169 33.8219 130.566 32.9067 129.849 32.1919V32.2703V32.279ZM123.875 45.3805H116.808V34.2839H123.875C124.478 34.2839 125.047 34.3972 125.537 34.589C126.026 34.7808 126.446 35.0423 126.787 35.3823C127.128 35.7222 127.391 36.1406 127.583 36.6288C127.776 37.1169 127.889 37.6922 127.889 38.2937V41.3969C127.889 42.0071 127.776 42.5737 127.583 43.0618C127.391 43.55 127.128 43.9684 126.787 44.3083C126.446 44.6483 126.035 44.9185 125.537 45.1016C125.047 45.2933 124.478 45.4067 123.875 45.4067V45.3718V45.3805Z" fill="#231815"/>
<path d="M135.892 30.0387C135.63 30.1521 135.402 30.3002 135.175 30.5269C134.982 30.7187 134.834 30.9802 134.72 31.2504C134.606 31.5119 134.571 31.817 134.571 32.1221V44.5088C134.571 45.4589 134.764 46.287 135.096 46.9669C135.437 47.6468 135.892 48.1786 136.417 48.597C136.942 49.0154 137.51 49.3205 138.157 49.5035C138.761 49.6953 139.329 49.765 139.854 49.765H152.659V45.3717H139.854C139.513 45.3717 139.286 45.2933 139.137 45.1451C138.988 44.9969 138.909 44.7703 138.909 44.4652V34.2751H152.624V29.8818H136.758C136.452 29.8818 136.154 29.9603 135.892 30.03V30.0387Z" fill="#231815"/>
<path d="M151.111 37.6133H143.143V42.0066H151.111V37.6133Z" fill="#231815"/>
<path d="M171.551 37.6133H163.583V42.0066H171.551V37.6133Z" fill="#231815"/>
<path d="M156.324 30.0388C156.061 30.1521 155.834 30.3003 155.606 30.527C155.414 30.7187 155.265 30.9802 155.152 31.2505C155.038 31.512 155.003 31.8171 155.003 32.1221V49.7738H159.385V34.2839H173.099V29.8906H157.19C156.883 29.8906 156.586 29.9691 156.324 30.0388Z" fill="#231815"/>
<path d="M191.388 37.6133H183.42V42.0066H191.388V37.6133Z" fill="#231815"/>
<path d="M176.161 30.0384C175.898 30.1518 175.671 30.3 175.479 30.4917C175.286 30.6835 175.137 30.9101 175.024 31.2152C174.91 31.4767 174.875 31.7818 174.875 32.0869V44.4736C174.875 45.4237 175.067 46.2518 175.4 46.9318C175.741 47.6117 176.196 48.1434 176.72 48.5618C177.245 48.9802 177.814 49.2853 178.417 49.4684C179.021 49.6601 179.589 49.7299 180.114 49.7299H192.919V45.3366H180.114C179.773 45.3366 179.546 45.2581 179.397 45.1099C179.248 44.9617 179.169 44.7351 179.169 44.43V34.24H192.884V29.8467H176.974C176.668 29.8467 176.371 29.9251 176.108 29.9949L176.143 30.0297L176.161 30.0384Z" fill="#231815"/>
<path d="M213.262 40.1938C212.956 39.7405 212.58 39.3569 212.204 39.017C211.828 38.7119 211.373 38.4504 210.953 38.2237C210.498 38.032 210.087 37.8489 209.633 37.7705C209.178 37.6571 208.767 37.6223 208.347 37.6223H200.493C199.968 37.6223 199.583 37.4741 199.321 37.2039C199.058 36.8988 198.901 36.4804 198.901 35.9574C198.901 35.4343 199.049 35.0072 199.321 34.7108C199.583 34.4058 199.959 34.2576 200.493 34.2576H212.615V29.8643H200.493C199.889 29.8643 199.242 29.9776 198.568 30.1694C197.886 30.396 197.213 30.7359 196.644 31.2328C196.041 31.721 195.551 32.366 195.175 33.1244C194.755 33.8827 194.571 34.8329 194.571 35.9661C194.571 37.0993 194.764 38.0145 195.175 38.8078C195.551 39.5661 196.084 40.2112 196.644 40.6993C197.248 41.1875 197.895 41.5362 198.568 41.7192C199.251 41.9458 199.889 42.0243 200.493 42.0243H208.347C208.609 42.0243 208.837 42.0592 209.029 42.1376C209.221 42.2161 209.37 42.3294 209.519 42.4776C209.667 42.6258 209.746 42.8175 209.825 43.0093C209.904 43.2359 209.939 43.4626 209.939 43.7328C209.939 44.2645 209.79 44.6829 209.528 44.9445C209.265 45.2495 208.845 45.3629 208.321 45.3629H194.641V49.7562H208.321C208.74 49.7562 209.151 49.7213 209.606 49.608C210.061 49.4947 210.516 49.3813 210.927 49.1547C211.347 48.9629 211.793 48.7014 212.178 48.3963C212.598 48.0564 212.974 47.6728 213.271 47.2196C213.577 46.7663 213.84 46.2346 214.023 45.668C214.216 45.0578 214.286 44.4214 214.286 43.6979C214.286 42.9744 214.207 42.3381 214.023 41.7279C213.831 41.1613 213.603 40.6296 213.271 40.1763V40.2112L213.262 40.1938Z" fill="#231815"/>
<path d="M214.504 29.8906V34.2839H222.061V49.7738H226.443V34.2839H234V29.8906H214.504Z" fill="#231815"/>
<path d="M58.0666 19.6568H34.8713V49.0937H26.7109V15.5686C26.7109 15.002 26.8246 14.4703 27.0171 13.9734C27.2095 13.4853 27.5069 13.0233 27.8829 12.6485C28.259 12.2736 28.6789 11.9685 29.2036 11.7768C29.7284 11.585 30.262 11.4717 30.8305 11.4717H58.0666V19.6568Z" fill="black"/>
<path d="M8.30904 8.33301H0V36.2096H8.30904V8.33301Z" fill="black"/>
<path d="M26.7465 0H8.23926V8.33333H26.7465V0Z" fill="black"/>
<path d="M51.1921 26.0986H41.9385V34.432H51.1921V26.0986Z" fill="black"/>
</svg>
