<svg width="211" height="69" viewBox="0 0 211 69" fill="none" xmlns="http://www.w3.org/2000/svg">
<path d="M34.4141 0C29.1665 0 24.1975 1.17609 19.7369 3.27655H49.0828C44.6307 1.17609 39.6617 0 34.4141 0ZM23.4062 6.5679H14.2087C12.833 7.55996 11.5417 8.66413 10.3369 9.8508H18.7748C20.1906 8.59856 21.7372 7.49439 23.4083 6.5679H23.4062ZM41.0226 16.425H63.7304C63.032 15.2891 62.264 14.1892 61.4411 13.14H41.0205V16.425H41.0226ZM15.6372 13.14H7.38711C6.55999 14.1892 5.79195 15.2891 5.08932 16.425H13.3985C14.061 15.2765 14.8143 14.1702 15.6372 13.14ZM41.0226 9.8508H58.4955C57.2844 8.66413 55.9888 7.56208 54.6173 6.5679H41.0226V9.8508ZM68.8303 34.4979C68.8303 33.9543 68.8134 33.4001 68.786 32.8564H56.913C56.4467 31.7184 55.9108 30.6227 55.3031 29.5693H68.4716C68.3134 28.4546 68.1002 27.3567 67.8407 26.2822H53.0517C52.1064 25.0955 51.0514 24.0019 49.9099 22.9993H66.8701C66.4755 21.8719 66.0156 20.7761 65.5155 19.7143H27.7718V36.1457H41.0247V52.5771H5.08932C5.79195 53.7151 6.55999 54.8108 7.38711 55.8536H27.7528V59.145H10.3348C11.5438 60.3338 12.8393 61.4337 14.213 62.4215H27.7549V65.715H19.739C24.1975 67.8303 29.1686 69.0021 34.4162 69.0021C39.6638 69.0021 44.6328 67.8303 49.0849 65.715H45.3819C47.0403 64.7864 48.5806 63.6865 49.9964 62.4215H54.6195C55.991 61.4358 57.2865 60.3338 58.4976 59.145H53.1108C53.9316 58.1106 54.6764 57.0107 55.3474 55.8536H61.4369C62.2661 54.8129 63.032 53.7151 63.7325 52.5771H56.9383C57.3646 51.5067 57.7296 50.4132 58.0144 49.2899H65.5176C66.0177 48.2133 66.4755 47.126 66.8722 45.9986H58.6369C58.7635 44.9325 58.8352 43.8516 58.8352 42.7474V42.7157H67.8449C68.1045 41.639 68.3176 40.5433 68.4758 39.4328H58.6285C58.4829 38.3096 58.2761 37.216 57.9997 36.1478H68.7902C68.8176 35.5978 68.8345 35.0479 68.8345 34.5L68.8303 34.4979ZM15.6372 45.9965H1.9623C2.36109 47.1239 2.8063 48.2133 3.31059 49.2878H18.7727C17.6375 48.2767 16.5867 47.1768 15.6372 45.9965ZM11.797 39.4307H0.35448C0.50851 40.5412 0.71529 41.6369 0.98115 42.7136H13.4006C12.7908 41.6559 12.2485 40.5602 11.797 39.4307ZM9.89168 29.5693C9.89168 28.4546 9.96342 27.3567 10.0942 26.2822H0.98115C0.71529 27.3589 0.50851 28.4567 0.35448 29.5693H9.89168ZM11.797 19.7143H3.31059C2.8063 20.7761 2.36109 21.8719 1.9623 22.9993H10.723C11.0058 21.8719 11.3708 20.7761 11.7991 19.7143H11.797ZM10.0942 32.8564H0.03798C0.01477 33.4001 0 33.9543 0 34.4979C0 35.0415 0.01477 35.5957 0.03798 36.1457H10.7209C10.4382 35.0732 10.2293 33.9733 10.0942 32.8564Z" fill="#215DA0"/>
<path d="M95.4228 55.9872C94.6885 56.4293 93.6293 56.8819 91.5974 56.8819C88.2826 56.8819 86.0186 54.2992 86.0186 51.2426C86.0186 48.1861 88.2826 45.5547 91.5974 45.5547C93.777 45.5547 94.7877 46.0962 95.2582 46.3796L94.7244 47.689C94.3636 47.5134 93.4521 47.0163 91.7388 47.0163C89.8018 47.0163 88.0273 48.7826 88.0273 51.2426C88.0273 53.7027 89.8334 55.4288 91.8443 55.4288C93.5365 55.4288 94.3024 55.0078 94.8257 54.7455L95.4249 55.9872H95.4228ZM101.489 56.6831V51.9174C101.489 51.2003 101.194 50.68 100.329 50.68C99.55 50.68 98.8326 51.1665 98.5224 51.3822V56.6831H96.7732V46.2527L98.5224 45.7768V50.2379C98.8474 49.9629 99.5669 49.322 101.103 49.322C102.515 49.322 103.236 50.2231 103.236 51.5261V56.6831H101.489ZM134.606 56.6831V51.9174C134.606 51.2003 134.316 50.68 133.445 50.68C132.66 50.68 131.953 51.1665 131.637 51.3822V56.6831H129.892V46.2527L131.637 45.7768V50.2379C131.96 49.9629 132.677 49.322 134.213 49.322C135.629 49.322 136.346 50.2231 136.346 51.5261V56.6831H134.606ZM118.006 56.6831V51.9174C118.006 51.2003 117.711 50.68 116.858 50.68C116.006 50.68 115.364 51.1665 115.031 51.3822V56.6831H113.288V49.9333L114.955 49.4849L115.004 50.2379C115.331 49.9735 116.107 49.322 117.555 49.322C119.002 49.322 119.749 50.2104 119.749 51.5261V56.6831H118.004H118.006ZM123.91 53.9481C123.471 53.9481 122.667 54.075 122.667 54.6651C122.667 55.3082 123.42 55.3632 123.895 55.3632H125.944C127.512 55.3632 128.655 56.2833 128.47 57.8634C128.273 59.4879 126.433 60.6006 124.724 60.6006C122.868 60.6006 120.815 60.1479 120.815 58.5488C120.815 57.4573 121.661 56.8544 122.116 56.6281C121.791 56.442 121.22 56.0316 121.22 55.0565C121.22 54.1913 121.87 53.451 122.49 53.2458C122.116 53.011 121.612 52.5393 121.612 51.6276C121.612 50.5488 122.505 49.3199 124.317 49.3199C125.094 49.3199 125.473 49.4214 125.737 49.4827H128.506V50.4092H126.959C127.104 50.5594 127.461 50.9952 127.461 51.6255C127.461 53.1527 126.077 53.9438 124.629 53.9438H123.912L123.91 53.9481ZM122.283 58.3563C122.315 59.1707 123.57 59.471 124.581 59.471C125.706 59.471 126.796 58.7857 126.893 58.0284C127.026 57.2035 126.436 56.8418 125.725 56.8418H123.385C123.017 57.066 122.262 57.6413 122.285 58.3563H122.283ZM123.207 51.6424C123.207 52.332 123.68 52.8756 124.52 52.8756C125.36 52.8756 125.819 52.332 125.819 51.6424C125.819 51.0332 125.425 50.3648 124.52 50.3648C123.682 50.3648 123.207 51.0332 123.207 51.6424ZM141.1 49.4849H142.714L144.28 54.204L145.909 49.4849H147.379L144.59 56.7973H143.641L142.353 53.1083L140.938 56.7973H139.992L137.416 49.4849H139.1L140.714 54.3521L141.805 51.5176L141.098 49.4827L141.1 49.4849ZM150.065 56.8418C148.7 56.8418 147.85 56.0422 147.85 54.8428C147.85 53.6435 148.825 52.5224 150.637 52.4251L152.152 52.3532V51.7503C152.152 51.1178 151.941 50.4748 150.836 50.4748C149.85 50.4748 149.165 50.8006 148.823 50.9465L148.418 50.0179C148.861 49.8085 149.867 49.3199 151.357 49.3199C153.001 49.3199 153.878 50.185 153.878 51.4372V55.543C153.897 55.9216 154.026 56.4589 154.14 56.681H152.321C152.216 56.4779 152.154 56.1945 152.173 56.038C151.798 56.3172 151.099 56.8375 150.065 56.8375V56.8418ZM152.154 53.3685L151.146 53.451C150.201 53.5356 149.47 53.8719 149.47 54.6651C149.47 55.3822 150.049 55.6318 150.671 55.6318C151.294 55.6318 151.834 55.2341 152.157 55.0078V53.3685H152.154ZM106.819 49.4849V54.2421C106.819 54.957 107.064 55.4774 107.901 55.4774C108.695 55.4774 109.33 55.0078 109.642 54.7751V49.4827H111.385V56.222L109.722 56.681L109.674 55.9216C109.349 56.1818 108.503 56.8396 107.152 56.8396C105.802 56.8396 105.07 55.9745 105.07 54.6292V49.4827H106.821L106.819 49.4849ZM156.381 45.7768H165.188V47.1792H161.734V56.6831H159.856V47.1792H156.381V45.7768ZM167.633 55.6424C168.756 55.6424 169.283 55.4161 169.608 55.268L170.003 56.2368C169.572 56.4293 168.887 56.8418 167.116 56.8418C164.907 56.8418 163.513 55.4499 163.513 53.14C163.513 50.8302 165.038 49.322 166.988 49.322C168.741 49.322 170.279 50.5023 170.279 53.2564H165.365C165.365 54.7307 166.12 55.6424 167.633 55.6424ZM166.933 50.5023C165.988 50.5023 165.513 51.249 165.403 52.1776H168.427C168.338 51.0988 167.8 50.5023 166.935 50.5023H166.933ZM171.727 46.2464L173.493 45.7768V56.6831H171.727V46.2464ZM179.129 55.6424C180.253 55.6424 180.777 55.4161 181.104 55.268L181.494 56.2368C181.068 56.4293 180.378 56.8418 178.61 56.8418C176.407 56.8418 175.001 55.4499 175.001 53.14C175.001 50.8302 176.535 49.322 178.483 49.322C180.232 49.322 181.762 50.5023 181.762 53.2564H176.86C176.86 54.7307 177.616 55.6424 179.129 55.6424ZM178.424 50.5023C177.479 50.5023 177.01 51.249 176.892 52.1776H179.911C179.819 51.0988 179.297 50.5023 178.424 50.5023ZM186.644 49.322C188.048 49.322 188.7 49.6012 189.086 49.7683L188.716 50.8534C188.343 50.7032 187.883 50.5129 186.874 50.5129C185.925 50.5129 184.703 51.359 184.703 53.0829C184.703 54.6969 185.925 55.6403 186.874 55.6403C187.883 55.6403 188.358 55.4478 188.748 55.3145L189.157 56.3764C188.78 56.5795 188.1 56.8396 186.625 56.8396C184.309 56.8396 182.825 55.3061 182.825 53.0829C182.825 50.8598 184.674 49.3199 186.644 49.3199V49.322ZM197.541 53.0829C197.541 55.3822 195.836 56.8396 193.626 56.8396C191.417 56.8396 189.731 55.3801 189.731 53.0829C189.731 50.7857 191.44 49.3199 193.626 49.3199C195.812 49.3199 197.541 50.773 197.541 53.0829ZM191.601 53.0829C191.601 54.5678 192.398 55.6741 193.626 55.6741C194.755 55.6741 195.635 54.5678 195.635 53.0829C195.635 51.598 194.757 50.4748 193.626 50.4748C192.306 50.4748 191.601 51.5705 191.601 53.0829ZM209.409 56.6831H207.662V51.9174C207.662 51.2003 207.386 50.6567 206.599 50.6567C205.964 50.6567 205.396 51.0988 205.092 51.3357V56.681H203.362V51.9153C203.362 51.1982 203.134 50.6546 202.313 50.6546C201.714 50.6546 201.111 51.1157 200.803 51.3484V56.681H199.053V49.9312L200.703 49.4827L200.765 50.2485C201.111 49.9375 201.927 49.3177 203.003 49.3177C203.976 49.3177 204.501 49.6625 204.856 50.2844C205.225 49.9375 206.033 49.3177 207.272 49.3177C208.715 49.3177 209.411 50.2485 209.411 51.4944V56.681L209.409 56.6831Z" fill="#272525"/>
<path d="M189.425 12.969C189.813 13.0557 190.058 13.2821 190.199 13.4703C190.383 13.7263 190.448 14.1218 190.375 14.5364C189.929 16.694 189.419 18.5766 188.838 20.0594V37.3623C188.838 37.7642 188.714 38.092 188.461 38.3416C188.231 38.5786 187.929 38.6991 187.564 38.7224C187.218 38.7224 186.918 38.6061 186.663 38.367C186.433 38.1174 186.309 37.7832 186.309 37.3623V24.9118C185.682 25.8256 185.277 25.9356 184.983 25.9779C184.726 26.016 184.355 25.9483 184.095 25.7177C183.846 25.5062 183.66 25.1572 183.639 24.8695C183.62 24.5861 183.762 24.1799 184.007 23.8478C186.066 20.8463 187.376 17.5697 187.897 14.1049C187.956 13.6861 188.18 13.3413 188.431 13.1721C188.634 13.0346 189.083 12.8844 189.425 12.9669V12.969ZM193.535 29.3031H207.605C208.183 29.3031 208.651 29.4491 209.008 29.8002C209.356 30.1556 209.521 30.4665 209.521 30.9446V36.3681C209.521 36.8715 209.301 37.3179 208.898 37.7176C208.531 38.0899 208.086 38.3205 207.603 38.3205H193.531C193.037 38.3205 192.672 38.1174 192.358 37.7367C192.01 37.339 191.887 36.8863 191.887 36.3681V30.9446C191.887 30.5046 192.071 30.0836 192.366 29.779C192.66 29.4893 193.08 29.3031 193.533 29.3031H193.535ZM195.185 31.7314C194.814 31.7314 194.685 31.8203 194.599 31.9007C194.512 31.9958 194.415 32.1756 194.415 32.4358V35.1074C194.415 35.4057 194.493 35.5728 194.595 35.6679C194.734 35.8054 194.928 35.8774 195.209 35.8774H206.185C206.493 35.8774 206.723 35.797 206.833 35.6828C206.944 35.5749 206.993 35.3803 206.993 35.1159V32.5204C206.993 32.2476 206.946 32.0678 206.845 31.9599C206.693 31.8076 206.501 31.7314 206.219 31.7314H195.187H195.185ZM193.411 25.2249C193.048 25.2249 192.736 25.356 192.512 25.5781C192.293 25.7939 192.193 26.1598 192.193 26.4263C192.193 26.7056 192.288 27.0757 192.512 27.3042C192.742 27.5347 193.056 27.6574 193.411 27.6574H208.016C208.411 27.6574 208.713 27.5009 208.898 27.3042C209.107 27.0863 209.21 26.7436 209.21 26.4263C209.21 26.1091 209.116 25.7621 208.898 25.5485C208.71 25.3518 208.423 25.2249 208.023 25.2249H193.411ZM193.411 21.3878C192.999 21.3878 192.752 21.4957 192.512 21.7347C192.305 21.9568 192.193 22.2973 192.193 22.5998C192.193 22.9023 192.301 23.2513 192.512 23.4629C192.742 23.6892 192.999 23.8203 193.411 23.8203H208.016C208.396 23.8203 208.679 23.6575 208.898 23.4417C209.107 23.2302 209.21 22.9044 209.21 22.5977C209.21 22.291 209.116 21.9779 208.898 21.7664C208.694 21.5507 208.394 21.3835 208.023 21.3835H193.411V21.3878ZM191.632 17.4915C191.197 17.4915 190.957 17.6141 190.731 17.8426C190.529 18.0541 190.408 18.4031 190.408 18.7098C190.408 19.0166 190.529 19.3614 190.731 19.5729C190.955 19.795 191.197 19.9177 191.632 19.9177H209.806C210.215 19.9177 210.489 19.7738 210.683 19.5729C210.896 19.3571 211 19.0039 211 18.7035C211 18.4031 210.888 18.0541 210.683 17.8426C210.481 17.6438 210.2 17.4915 209.814 17.4915H191.63H191.632ZM193.411 13.648C192.999 13.648 192.723 13.7813 192.512 13.9928C192.305 14.2064 192.193 14.4603 192.193 14.8664C192.193 15.2725 192.311 15.5285 192.512 15.7379C192.715 15.9304 193.006 16.0785 193.411 16.0785H208.016C208.428 16.0785 208.702 15.941 208.898 15.7379C209.118 15.52 209.21 15.2577 209.21 14.8601C209.21 14.4624 209.105 14.2064 208.892 13.9843C208.7 13.7897 208.445 13.648 208.023 13.648H193.411Z" fill="#272525"/>
<path d="M145.624 15.6148C145.624 15.8961 145.505 16.2304 145.315 16.425C145.094 16.6428 144.828 16.7803 144.478 16.7803H138.718V16.8692C138.718 17.2711 138.606 17.6074 138.357 17.8507C138.127 18.0939 137.81 18.2229 137.451 18.2229C137.093 18.2229 136.781 18.1003 136.538 17.8507C136.287 17.6074 136.19 17.2711 136.19 16.8692V16.7803H128.967V16.8692C128.967 17.2711 128.86 17.6074 128.604 17.857C128.379 18.0939 128.062 18.2356 127.705 18.2356C127.349 18.2356 127.032 18.1024 126.788 17.8507C126.543 17.6074 126.439 17.2753 126.439 16.8692V16.7803H120.698C120.325 16.7803 120.048 16.6513 119.844 16.4546C119.628 16.2452 119.521 15.8961 119.521 15.6148C119.521 15.3335 119.647 14.9845 119.844 14.7941C120.044 14.591 120.323 14.462 120.698 14.462H126.435V13.8866C126.435 13.4784 126.543 13.1526 126.788 12.8967C127.028 12.664 127.34 12.5244 127.705 12.5244C128.07 12.5244 128.372 12.6788 128.602 12.8967C128.857 13.1526 128.961 13.4847 128.961 13.8866V14.462H136.19V13.8866C136.19 13.4847 136.285 13.1526 136.538 12.8967C136.781 12.664 137.091 12.5308 137.451 12.5308C137.812 12.5308 138.125 12.6767 138.357 12.8967C138.606 13.1526 138.711 13.4953 138.711 13.8866V14.462H144.478C144.826 14.462 145.111 14.6037 145.309 14.7983C145.507 15.0014 145.624 15.3356 145.624 15.6148ZM127.395 25.9035V28.2514H131.326V25.9035H127.395ZM133.848 21.1251V23.5851H137.789V21.1251H133.848ZM137.789 26.2546V25.9056H133.848V28.2535H143.763C144.111 28.2535 144.377 28.3424 144.59 28.556C144.813 28.7739 144.912 29.18 144.912 29.4127C144.912 29.6454 144.807 30.005 144.596 30.2229C144.37 30.4407 144.115 30.5782 143.763 30.5782H133.848V32.4989H144.478C144.826 32.4989 145.104 32.6068 145.299 32.8098C145.505 33.0192 145.621 33.3682 145.621 33.6644C145.621 33.9605 145.491 34.2863 145.303 34.519C145.111 34.7495 144.826 34.8257 144.478 34.8257H133.848V37.3703C133.848 37.7659 133.736 38.1022 133.489 38.3561C133.259 38.5845 132.938 38.7241 132.58 38.7241C132.221 38.7241 131.909 38.593 131.672 38.3434C131.423 38.1022 131.324 37.7765 131.324 37.3703V34.8257H120.694C120.331 34.8257 120.074 34.722 119.85 34.4999C119.635 34.2884 119.531 33.8738 119.531 33.6644C119.531 33.4381 119.635 33.0467 119.85 32.831C120.057 32.6279 120.333 32.4989 120.702 32.4989H131.324V30.5782H121.407C121.053 30.5782 120.757 30.4703 120.54 30.2503C120.32 30.0452 120.251 29.6581 120.251 29.4254C120.251 29.1927 120.333 28.8162 120.561 28.5856C120.753 28.3974 121.05 28.2535 121.416 28.2535H124.865V25.9056H119.947C119.599 25.9056 119.32 25.7956 119.107 25.5883C118.892 25.3704 118.782 25.032 118.782 24.7401C118.782 24.4482 118.907 24.1478 119.107 23.9194C119.306 23.7015 119.599 23.5873 119.955 23.5873H124.865V23.3144C124.865 22.9167 124.967 22.5762 125.209 22.3371C125.456 22.0896 125.758 21.9648 126.121 21.9648C126.484 21.9648 126.802 22.1002 127.032 22.3371C127.275 22.5762 127.387 22.9167 127.387 23.3144L127.393 23.5873H131.324V21.1272H121.416C121.05 21.1272 120.768 20.9897 120.569 20.8015C120.354 20.5899 120.249 20.1711 120.249 19.9532C120.249 19.7481 120.369 19.3313 120.563 19.1367C120.764 18.9421 121.05 18.811 121.416 18.811H143.76C144.109 18.811 144.385 18.9041 144.585 19.1071C144.796 19.3165 144.91 19.6867 144.91 19.9532C144.91 20.2367 144.784 20.5413 144.594 20.7655C144.391 21.0045 144.113 21.1272 143.76 21.1272H140.313V23.5873H145.216C145.596 23.5873 145.826 23.6761 146.031 23.8855C146.271 24.1203 146.356 24.4418 146.356 24.7401C146.356 25.0383 146.278 25.307 146.043 25.5502C145.826 25.7766 145.602 25.9056 145.216 25.9056H140.313L140.308 26.2546C140.294 26.6142 140.182 26.9209 139.954 27.1599C139.724 27.3905 139.399 27.5386 139.042 27.5386C138.686 27.5386 138.374 27.4032 138.133 27.1536C137.901 26.923 137.808 26.6184 137.791 26.2567H137.787L137.789 26.2546Z" fill="#272525"/>
<path d="M98.104 12.8946C97.8719 13.1294 97.758 13.4932 97.758 13.912V15.8623H88.4972C87.8157 15.8623 87.2291 16.0929 86.748 16.554C86.2753 17.0405 86.0264 17.618 86.0264 18.2674V31.6168C86.0264 32.245 86.2753 32.8119 86.7712 33.2963C87.2713 33.7553 87.8557 34.0092 88.4972 34.0092H97.758V37.2286C97.758 37.7342 97.9162 38.1339 98.1272 38.337C98.3108 38.5168 98.6505 38.7199 99.1252 38.7199C99.6 38.7199 99.9102 38.5168 100.087 38.337C100.294 38.1339 100.49 37.7236 100.49 37.2286V34.0092H109.777C110.475 34.0092 111.152 33.6432 111.524 33.2688C111.891 32.8965 112.22 32.1837 112.22 31.547V18.3372C112.22 17.6709 111.984 17.0997 111.576 16.6217C111.118 16.0992 110.504 15.8644 109.768 15.8644H100.488V13.9141C100.488 13.4953 100.357 13.1315 100.125 12.8967C99.9017 12.6788 99.4692 12.5244 99.1231 12.5244C98.7771 12.5244 98.3488 12.664 98.1019 12.8967L98.104 12.8946ZM88.8939 31.1366C88.7419 30.9801 88.6618 30.8067 88.6618 30.5846V19.3546C88.6618 19.1177 88.7462 18.9527 88.9065 18.7602C89.088 18.5741 89.2842 18.5106 89.491 18.5106H97.758V31.3714H89.5079C89.2715 31.3714 89.0732 31.2974 88.896 31.1345L88.8939 31.1366ZM108.726 18.5127C108.958 18.5127 109.175 18.6016 109.348 18.7729C109.504 18.9337 109.587 19.1135 109.587 19.3567V30.5867C109.587 30.8024 109.458 31.0415 109.344 31.1451C109.236 31.2572 109.065 31.3757 108.795 31.3757H100.493V18.5148H108.728L108.726 18.5127Z" fill="#272525"/>
<path d="M160.722 20.1602C160.986 20.1602 161.193 20.2364 161.357 20.3971C161.513 20.5558 161.593 20.7779 161.593 21.0423C161.593 21.2876 161.513 21.4971 161.357 21.679C161.193 21.8503 160.986 21.9455 160.722 21.9455H156.249C155.966 21.9455 155.745 21.8503 155.588 21.679C155.428 21.5182 155.35 21.3067 155.35 21.0423C155.35 20.7927 155.428 20.5769 155.588 20.3971C155.747 20.2364 155.966 20.1602 156.249 20.1602H160.722ZM162.258 22.8783C162.52 22.8783 162.729 22.9587 162.889 23.1173C163.045 23.2781 163.134 23.4939 163.134 23.7604C163.134 24.0269 163.045 24.2173 162.889 24.3907C162.729 24.5727 162.52 24.6615 162.258 24.6615H157.785C157.502 24.6615 157.279 24.5727 157.12 24.3907C156.962 24.2406 156.886 24.0227 156.886 23.7604C156.886 23.4981 156.964 23.2971 157.12 23.1173C157.279 22.9587 157.502 22.8783 157.785 22.8783H162.258ZM172.789 20.1602C173.059 20.1602 173.266 20.2364 173.431 20.3971C173.587 20.5558 173.667 20.7779 173.667 21.0423C173.667 21.2876 173.587 21.4971 173.431 21.679C173.266 21.8503 173.059 21.9455 172.789 21.9455H168.32C168.042 21.9455 167.812 21.8503 167.662 21.679C167.499 21.5182 167.419 21.3067 167.419 21.0423C167.419 20.7927 167.499 20.5769 167.662 20.3971C167.814 20.2364 168.044 20.1602 168.32 20.1602H172.789ZM174.323 22.8783C174.591 22.8783 174.796 22.9587 174.958 23.1173C175.121 23.2781 175.199 23.4939 175.199 23.7604C175.199 24.0269 175.121 24.2173 174.958 24.3907C174.796 24.5727 174.591 24.6615 174.323 24.6615H169.852C169.569 24.6615 169.348 24.5727 169.189 24.3907C169.031 24.2406 168.945 24.0227 168.945 23.7604C168.945 23.4981 169.031 23.2971 169.189 23.1173C169.348 22.9587 169.569 22.8783 169.852 22.8783H174.323ZM156.386 28.268C156.386 28.0925 156.432 27.9423 156.544 27.8132C156.624 27.7159 156.789 27.6567 157.034 27.6567H164.009V29.1628H156.382C156.382 29.1628 156.386 28.2998 156.386 28.268ZM164.009 31.1702V32.653H157.034C156.806 32.653 156.641 32.5959 156.538 32.4816C156.435 32.3822 156.382 32.2257 156.382 32.0099V31.1702H164.009ZM173.498 27.6588C173.73 27.6588 173.903 27.7307 174.021 27.8682C174.114 27.9634 174.154 28.1284 174.154 28.3505V29.1649H166.531V27.6588H173.5H173.498ZM174.154 31.1702V32.0015C174.154 32.213 174.093 32.3822 173.99 32.4816C173.882 32.5895 173.722 32.6466 173.492 32.653H166.531V31.1702H174.154ZM176.526 36.2172H167.639C167.314 36.2172 166.953 36.1558 166.721 35.9316C166.499 35.6947 166.531 35.2399 166.531 34.6625H174.851C175.268 34.6625 175.667 34.4954 176.022 34.1506C176.372 33.7952 176.568 33.3912 176.581 32.9343V27.1469C176.568 26.7196 176.41 26.3727 176.127 26.1041C175.764 25.8059 175.338 25.6493 174.855 25.6493H155.42C155.004 25.6493 154.645 25.7974 154.363 26.083C154.071 26.3918 153.934 26.7493 153.96 27.1469V32.9301C153.934 33.3827 154.078 33.7889 154.373 34.1485C154.622 34.4552 154.97 34.6244 155.405 34.6625H164.009V35.572C164.009 36.5831 164.562 37.3446 165.037 37.736C165.565 38.1696 166.28 38.3198 166.841 38.3198H176.526C177.106 38.3198 177.57 37.8438 177.57 37.2621C177.57 36.6804 177.104 36.2172 176.526 36.2172ZM175.779 19.1639C175.925 19.1639 176.096 19.2464 176.188 19.3416C176.283 19.4368 176.336 19.6018 176.345 19.7731V23.5023C176.345 23.9106 176.522 24.2913 176.733 24.4944C176.944 24.7123 177.283 24.8138 177.583 24.8138C177.838 24.8138 178.256 24.6298 178.423 24.4521C178.615 24.2681 178.773 23.864 178.773 23.5023V19.0645C178.809 18.5357 178.577 18.028 178.206 17.6452C177.836 17.275 177.311 17.0444 176.802 17.0592H166.482V15.7583H175.311C175.623 15.7583 175.878 15.6018 176.051 15.4305C176.226 15.2549 176.338 14.9313 176.338 14.6901C176.338 14.449 176.224 14.1042 176.051 13.9202C175.87 13.7446 175.608 13.6494 175.311 13.6494H155.259C154.947 13.6494 154.692 13.7552 154.498 13.9477C154.289 14.1486 154.196 14.3961 154.196 14.6901C154.196 15.0011 154.32 15.2824 154.498 15.4643C154.664 15.6335 154.93 15.7562 155.259 15.7562H164.056V17.0571H153.73C153.232 17.0423 152.698 17.275 152.337 17.643C151.963 18.0259 151.738 18.5336 151.767 19.0624V23.5002C151.767 23.8619 151.921 24.2638 152.115 24.45C152.282 24.6276 152.7 24.8117 152.957 24.8117C153.257 24.8117 153.594 24.7101 153.81 24.4923C154.027 24.2892 154.198 23.9106 154.198 23.5002V19.771C154.206 19.5997 154.259 19.4368 154.354 19.3395C154.453 19.2443 154.609 19.1618 154.759 19.1618H164.058V23.7202C164.058 24.1411 164.204 24.4859 164.412 24.6996C164.619 24.9111 164.98 25.0253 165.267 25.0253C165.554 25.0253 165.946 24.8942 166.122 24.6848C166.32 24.4648 166.484 24.1411 166.484 23.7202V19.1618H175.781L175.779 19.1639Z" fill="#272525"/>
</svg>
