<svg width="268" height="70" viewBox="0 0 268 70" fill="none" xmlns="http://www.w3.org/2000/svg">
<g clip-path="url(#clip0_2443_5650)">
<path fill-rule="evenodd" clip-rule="evenodd" d="M34.8807 70C54.1448 70 69.7613 54.33 69.7613 35C69.7613 28.3978 67.9395 22.2224 64.7728 16.9527C64.7868 16.9824 64.8023 17.0118 64.8198 17.0414L53.0043 41.1997C52.6307 41.9713 51.8508 42.4508 50.9938 42.4508C50.0655 42.4508 49.2306 41.8721 48.901 41.0013L47.3904 36.9887L46.0391 40.9627C45.7315 41.8611 44.8966 42.4674 43.9518 42.4674C43.007 42.4674 42.1665 41.8666 41.8644 40.9682L39.1728 33.0532L35.8934 41.2548C35.5145 42.2083 34.5971 42.8367 33.5699 42.8367C32.5317 42.8367 31.6034 42.1973 31.2354 41.2272L30.0214 38.0414L22.2158 58.6226C21.7434 59.8682 19.9856 59.8682 19.5132 58.6226L13.0534 41.7013L11.3835 46.0776C11.2901 46.3257 11.0539 46.491 10.7848 46.491H8.99954C8.54913 46.491 8.24147 46.0391 8.40081 45.6202L10.8232 39.2044C11.1748 38.2784 12.0591 37.6611 13.0534 37.6611C14.0477 37.6611 14.932 38.2729 15.2836 39.2099L20.87 54.0918L28.0329 35.1973C28.3185 34.4477 29.0326 33.9516 29.8291 33.9516C30.6312 33.9516 31.3453 34.4477 31.6254 35.1918L33.526 40.1745L37.3986 30.3855C37.6842 29.6635 38.3818 29.1949 39.1454 29.1949C39.9308 29.1949 40.6395 29.691 40.9141 30.4296L44.0781 39.017L45.781 34.6516C46.0501 33.9571 46.7203 33.5051 47.4618 33.5051C48.1759 33.5051 48.8131 33.924 49.1042 34.5689L50.9718 38.7193L62.9138 14.1751C62.919 14.1803 62.9242 14.1854 62.9295 14.1905C56.5751 5.58114 46.3774 0 34.8807 0C15.6166 0 0 15.67 0 35C0 54.33 15.6166 70 34.8807 70Z" fill="#A72126"/>
<path d="M85.145 40.3997C84.7638 43.721 84.119 47.2334 83.3939 49.5996C82.7856 49.2542 81.488 48.7986 80.8066 48.6076C81.642 46.3517 82.1773 42.9936 82.4409 39.9001L85.145 40.3997ZM92.5753 30.0168C93.5648 32.3462 94.6711 35.403 95.126 37.1959L92.5753 38.2247C92.5023 37.725 92.3482 37.1592 92.1576 36.5052C84.1263 37.7617 82.9835 38.0704 82.1846 38.4892C82.067 37.8426 81.5763 36.3142 81.2316 35.5132C82.0305 35.2854 82.8659 34.3669 83.9723 32.9193C84.5075 32.3094 85.57 30.8545 86.7866 28.9881C83.2471 29.4069 82.4847 29.598 81.9502 29.8258C81.7596 29.2159 81.3419 27.7242 80.9607 26.9232C81.6055 26.7322 82.2576 25.968 82.9762 24.8584C83.7378 23.7121 86.171 19.4722 87.622 15.3867L90.5167 16.6065C88.992 20.0013 87.0502 23.5946 85.1085 26.4162L88.5378 26.1517C89.4907 24.4323 90.4795 22.6026 91.2784 20.8464L93.9459 22.5291C91.6595 26.8424 88.8087 31.2366 85.9147 34.749L91.3594 33.9848C91.0147 32.9561 90.6336 31.8465 90.2524 30.8912L92.5753 30.0168ZM88.8824 39.7163C89.3805 42.2735 89.7982 45.5214 89.9084 47.6964L87.3577 48.343C87.2846 46.168 86.9035 42.8466 86.4785 40.2895L88.8824 39.7163ZM92.8024 38.7244C93.675 41.0537 94.5907 43.993 95.0084 45.9402L92.6125 46.822C92.2678 44.838 91.3594 41.8179 90.5532 39.4885L92.8024 38.7244ZM115.036 46.6603C115.036 48.3798 114.691 49.2542 113.702 49.7906C112.676 50.327 111.034 50.4005 108.712 50.3638C108.595 49.5628 108.177 48.152 107.759 47.3069C109.247 47.3804 110.763 47.3804 111.225 47.3804C111.724 47.3437 111.87 47.1894 111.87 46.6529V20.1924H98.5041V50.4299H95.3823V17.0988H115.028V46.6603H115.036ZM108.448 40.7083C109.056 40.7083 110.126 40.6716 110.654 40.5173C110.69 41.2815 110.771 42.3102 110.881 43.0377C110.346 43.192 109.394 43.2287 108.484 43.2287H104.374C101.596 43.2287 100.944 42.1632 100.944 39.4518V36.3582H99.6908V33.5733H104.256C103.949 32.6989 103.457 31.5526 103.003 30.634L104.982 29.9874H99.3833V27.2392H106.081C106.616 25.5197 107.298 22.9626 107.605 21.2064L110.119 21.8972C109.584 23.6534 108.939 25.6741 108.404 27.2392H111.034V29.9874H105.517C106.088 30.9794 106.66 32.2433 106.96 33.0002L105.553 33.5733H110.69V36.3582H103.802V39.4885C103.802 40.3629 103.956 40.7083 104.637 40.7083H108.448ZM102.512 21.1256C103.348 22.7642 104.109 24.9466 104.337 26.3575L102.131 27.1216C101.941 25.7108 101.216 23.4549 100.417 21.8163L102.512 21.1256Z" fill="#2F2725"/>
<path d="M151.661 19.9353C150.481 23.9033 148.576 27.3055 146.216 30.1272C148.539 32.2287 151.28 33.9849 154.519 35.1313C153.837 35.7779 152.804 37.196 152.349 38.0705L151.588 37.7619V50.1729H148.202V48.953H139.709V50.2904H136.47V37.806C135.898 38.0705 135.363 38.3424 134.791 38.5702C134.564 38.1146 134.184 37.5414 133.803 37.005V37.0417H129.347V43.0746L134.066 41.965L134.411 45.0953C129.193 46.4327 123.675 47.77 119.564 48.7253L118.956 45.2864C119.528 45.1687 120.136 45.0586 120.781 44.941V32.0744H123.675V44.3311L126.188 43.758V28.8706H120.898V16.8858H133.465V26.6588C136.323 23.8739 138.719 19.7516 140.054 15.3574L143.483 16.1951C143.138 17.1871 142.757 18.1792 142.339 19.1344H148.81L149.418 18.9801L151.661 19.9353ZM123.976 25.8212H130.182V19.9426H123.976V25.8212ZM133.803 35.4766C136.66 34.2568 139.438 32.4198 141.834 30.0537C140.617 28.6061 139.665 27.1144 138.83 25.6668C137.913 27.0042 136.887 28.224 135.898 29.2527C135.363 28.6796 134.264 27.7611 133.458 27.1512V28.8706H129.347V33.9114H133.803V35.4766ZM149.257 36.542C147.279 35.3958 145.527 33.9849 144.003 32.4933C142.406 34.0584 140.617 35.4325 138.749 36.542H149.257ZM148.194 45.8962V39.5622H139.702V45.8962H148.194ZM140.918 22.1544L140.573 22.8452C141.445 24.4838 142.515 26.1298 143.886 27.7317C145.256 26.049 146.399 24.1825 147.271 22.1544H140.918Z" fill="#2F2725"/>
<path d="M163.459 32.3465C162.126 31.09 159.311 29.4072 156.988 28.4152L158.967 25.7405C161.216 26.6149 164.104 28.1433 165.518 29.3705L163.459 32.3465ZM166.691 37.7694C165.012 41.7815 162.843 46.3226 160.938 49.9085L157.78 47.8069C159.531 44.8676 162.045 39.9812 163.906 35.6311L166.691 37.7694ZM165.364 22.3824C164.067 21.0818 161.216 19.2888 158.967 18.2234L160.945 15.5928C163.188 16.5481 166.083 18.1499 167.453 19.4873L165.364 22.3824ZM192.163 46.1683V49.2986H165.357V46.1683H168.596V34.6024H189.649V46.1683H192.163ZM188.279 32.1187H169.93V17.0403H188.279V32.1187ZM171.798 46.1683H174.803V37.6151H171.798V46.1683ZM184.857 19.7885H173.168V29.4072H184.857V19.7885ZM182.453 28.7973C181.655 27.8054 180.204 26.4313 178.796 25.2114C177.881 26.7032 176.628 27.9964 175.103 28.8414C174.759 28.3417 174.041 27.5041 173.579 27.1587C176.202 25.667 177.727 22.9556 178.144 20.2515L180.621 20.516C180.431 21.4345 180.167 22.3898 179.786 23.2642C181.384 24.5208 183.215 26.1667 184.161 27.2322L182.453 28.7973ZM177.47 37.6151V46.1683H180.555V37.6151H177.47ZM183.215 37.6151V46.1683H186.3V37.6151H183.215Z" fill="#2F2725"/>
<path d="M201.835 29.099C201.835 35.2862 201.381 44.3317 198.215 50.3645C197.49 49.8281 195.892 49.0638 195.021 48.7626C198.069 43.0384 198.369 34.8306 198.369 29.099V18.9439H212.725C212.343 17.9519 211.926 16.8423 211.471 16.0047L215.011 15.167C215.656 16.3133 216.308 17.7609 216.763 18.9439H229.63V22.2285H201.835V29.099ZM226.919 38.1519C225.241 41.2822 222.691 43.6483 219.569 45.4045C222.691 46.3965 226.311 46.9697 230.15 47.315C229.425 48.0792 228.553 49.49 228.092 50.3718C223.409 49.8721 219.144 48.8434 215.487 47.315C211.64 48.7626 207.302 49.6444 202.73 50.1808C202.502 49.3064 201.857 47.969 201.286 47.1681C204.942 46.8594 208.518 46.3303 211.72 45.3751C209.552 44.0378 207.719 42.4359 206.239 40.5254L207.727 39.9522H203.117V37.1305H224.098L224.706 37.013L226.919 38.1519ZM208.342 35.0951V28.9888H202.707V26.123H208.342V23.1837H211.691V26.123H219.914V23.1837H223.38V26.123H229.205V28.9888H223.38V35.0951H208.342ZM209.83 39.9449C211.274 41.5467 213.26 42.8841 215.656 43.9936C218.052 42.9282 220.148 41.5908 221.672 39.9449H209.83ZM211.691 28.9888V32.3469H219.914V28.9888H211.691Z" fill="#2F2725"/>
<path d="M249.914 24.5574H234.188V21.7357H241.23C240.659 20.3249 239.516 18.1498 238.49 16.5847L241.267 15.1738C242.33 16.7757 243.553 18.8038 244.125 20.178L241.311 21.7431H249.914V24.5574ZM235.83 29.5982V26.8133H248.317V29.5982H235.83ZM248.2 34.6023H235.83V31.8541H248.207V34.6023H248.2ZM248.353 48.189H239.098V49.9084H236.05V37.0052H248.346V48.189H248.353ZM239.105 39.8709V45.3306H245.276V39.8709H239.105Z" fill="#2F2725"/>
<path d="M258.542 33.7744H257.343V25.5314H258.542V24.7942H257.343V22.5753H258.542V21.8379H257.343V20.0778C256.743 19.5631 256.353 18.8118 256.353 17.9632C256.353 16.5582 257.398 15.4105 258.751 15.2157C258.884 15.1878 259.023 15.167 259.169 15.167C259.302 15.167 259.434 15.1878 259.56 15.2157C260.906 15.4105 261.937 16.5582 261.937 17.9563C261.937 18.8118 261.547 19.5631 260.947 20.0708V51.8797C260.947 52.8675 260.145 53.6674 259.155 53.6744C258.158 53.6813 257.343 52.8744 257.343 51.8797V46.3296H258.542V45.5923H257.343V43.3734H258.542V42.6361H257.343V40.4172H258.542V39.6799H257.343V38.6852V37.468H258.542V36.7306H257.343V34.5117H258.542V33.7744Z" fill="#2F2725"/>
<path d="M268 28.5146H249.696V31.8517H268V28.5146Z" fill="#2F2725"/>
</g>
<defs>
<clipPath id="clip0_2443_5650">
<rect width="268" height="70" fill="white"/>
</clipPath>
</defs>
</svg>
