<svg width="263" height="285" viewBox="0 0 263 285" fill="none" xmlns="http://www.w3.org/2000/svg">
<path d="M170.872 188.559L190.287 196.985L178.384 208.346L170.872 188.559Z" fill="#D9D9D9"/>
<path d="M138.164 179.263L158.13 186.283L147.068 198.463L138.164 179.263Z" fill="#D9D9D9"/>
<path d="M29.0077 58.6133L50.1583 59.3804L43.2168 74.299L29.0077 58.6133Z" fill="#D8E022"/>
<path d="M175.497 216.554L194.774 225.29L182.69 236.458L175.497 216.554Z" fill="#D9D9D9"/>
<path opacity="0.4" d="M1 142.5H262M1 142.5V177.875M1 142.5V107.125M262 142.5V177.875M262 142.5V107.125M262 71.75H1M262 71.75V107.125M262 71.75V36.375M1 71.75V107.125M1 71.75V36.375M1 213.25H262M1 213.25V248.625M1 213.25V177.875M262 213.25V248.625M262 213.25V177.875M1 248.625V278C1 281.314 3.68629 284 7 284H33.625M1 248.625H262M262 248.625V278C262 281.314 259.314 284 256 284H229.375M262 177.875H1M1 107.125H262M262 36.375V7C262 3.68629 259.314 1 256 1H229.375M262 36.375H1M1 36.375V7C1 3.68629 3.68629 1 7 1H33.625M131.5 1V284M131.5 1H98.875M131.5 1H164.125M131.5 284H98.875M131.5 284H164.125M66.25 284V1M66.25 284H33.625M66.25 284H98.875M66.25 1H33.625M66.25 1H98.875M196.75 1V284M196.75 1H164.125M196.75 1H229.375M196.75 284H164.125M196.75 284H229.375M33.625 284V1M98.875 1V284M164.125 1V284M229.375 1V284" stroke="#A1A8AD"/>
</svg>
