<svg width="283" height="303" viewBox="0 0 283 303" fill="none" xmlns="http://www.w3.org/2000/svg">
<rect x="1.5" y="1.5" width="280" height="300" rx="8.5" fill="white" stroke="#43473E" stroke-width="3"/>
<path opacity="0.4" d="M11 151.5H272M11 151.5V186.875M11 151.5V116.125M272 151.5V186.875M272 151.5V116.125M272 80.75H11M272 80.75V116.125M272 80.75V45.375M11 80.75V116.125M11 80.75V45.375M11 222.25H272M11 222.25V257.625M11 222.25V186.875M272 222.25V257.625M272 222.25V186.875M11 257.625V287C11 290.314 13.6863 293 17 293H43.625M11 257.625H272M272 257.625V287C272 290.314 269.314 293 266 293H239.375M272 186.875H11M11 116.125H272M272 45.375V16C272 12.6863 269.314 10 266 10H239.375M272 45.375H11M11 45.375V16C11 12.6863 13.6863 10 17 10H43.625M141.5 10V293M141.5 10H108.875M141.5 10H174.125M141.5 293H108.875M141.5 293H174.125M76.25 293V10M76.25 293H43.625M76.25 293H108.875M76.25 10H43.625M76.25 10H108.875M206.75 10V293M206.75 10H174.125M206.75 10H239.375M206.75 293H174.125M206.75 293H239.375M43.625 293V10M108.875 10V293M174.125 10V293M239.375 10V293" stroke="#A1A8AD"/>
<path d="M229.351 265.529L245.879 278.748L231.415 286.592L229.351 265.529Z" fill="#D9D9D9"/>
<path d="M110.18 101.233L130.69 106.455L120.751 119.569L110.18 101.233Z" fill="#D8E022"/>
<path d="M201.306 258.244L218.513 270.566L204.486 279.168L201.306 258.244Z" fill="#D9D9D9"/>
<path d="M205.872 232.559L225.287 240.985L213.384 252.346L205.872 232.559Z" fill="#D9D9D9"/>
</svg>
