<!--<svg width="283" height="303" viewBox="0 0 283 303" fill="none" xmlns="http://www.w3.org/2000/svg">
<rect x="1.5" y="1.5" width="280" height="300" rx="8.5" fill="white" stroke="#43473E" stroke-width="3"/>
<path opacity="0.4" d="M11 151.5H272M11 151.5V186.875M11 151.5V116.125M272 151.5V186.875M272 151.5V116.125M272 80.75H11M272 80.75V116.125M272 80.75V45.375M11 80.75V116.125M11 80.75V45.375M11 222.25H272M11 222.25V257.625M11 222.25V186.875M272 222.25V257.625M272 222.25V186.875M11 257.625V287C11 290.314 13.6863 293 17 293H43.625M11 257.625H272M272 257.625V287C272 290.314 269.314 293 266 293H239.375M272 186.875H11M11 116.125H272M272 45.375V16C272 12.6863 269.314 10 266 10H239.375M272 45.375H11M11 45.375V16C11 12.6863 13.6863 10 17 10H43.625M141.5 10V293M141.5 10H108.875M141.5 10H174.125M141.5 293H108.875M141.5 293H174.125M76.25 293V10M76.25 293H43.625M76.25 293H108.875M76.25 10H43.625M76.25 10H108.875M206.75 10V293M206.75 10H174.125M206.75 10H239.375M206.75 293H174.125M206.75 293H239.375M43.625 293V10M108.875 10V293M174.125 10V293M239.375 10V293" stroke="#A1A8AD"/>
<path d="M229.351 265.529L245.879 278.748L231.415 286.592L229.351 265.529Z" fill="#D9D9D9"/>
<path d="M110.18 101.233L130.69 106.455L120.751 119.569L110.18 101.233Z" fill="#D8E022"/>
<path d="M201.306 258.244L218.513 270.566L204.486 279.168L201.306 258.244Z" fill="#D9D9D9"/>
<path d="M205.872 232.559L225.287 240.985L213.384 252.346L205.872 232.559Z" fill="#D9D9D9"/>
</svg> -->

<svg width="263" height="285" viewBox="0 0 263 285" fill="none" xmlns="http://www.w3.org/2000/svg">
<path opacity="0.4" d="M1 142.5H262M1 142.5V177.875M1 142.5V107.125M262 142.5V177.875M262 142.5V107.125M262 71.75H1M262 71.75V107.125M262 71.75V36.375M1 71.75V107.125M1 71.75V36.375M1 213.25H262M1 213.25V248.625M1 213.25V177.875M262 213.25V248.625M262 213.25V177.875M1 248.625V278C1 281.314 3.68629 284 7 284H33.625M1 248.625H262M262 248.625V278C262 281.314 259.314 284 256 284H229.375M262 177.875H1M1 107.125H262M262 36.375V7C262 3.68629 259.314 1 256 1H229.375M262 36.375H1M1 36.375V7C1 3.68629 3.68629 1 7 1H33.625M131.5 1V284M131.5 1H98.875M131.5 1H164.125M131.5 284H98.875M131.5 284H164.125M66.25 284V1M66.25 284H33.625M66.25 284H98.875M66.25 1H33.625M66.25 1H98.875M196.75 1V284M196.75 1H164.125M196.75 1H229.375M196.75 284H164.125M196.75 284H229.375M33.625 284V1M98.875 1V284M164.125 1V284M229.375 1V284" stroke="#A1A8AD"/>
<path d="M219.351 256.529L235.879 269.748L221.415 277.592L219.351 256.529Z" fill="#D9D9D9"/>
<path d="M100.18 92.2329L120.69 97.4551L110.751 110.569L100.18 92.2329Z" fill="#D8E022"/>
<path d="M191.306 249.244L208.513 261.566L194.486 270.168L191.306 249.244Z" fill="#D9D9D9"/>
<path d="M195.872 223.559L215.287 231.985L203.384 243.346L195.872 223.559Z" fill="#D9D9D9"/>
</svg>
