<svg width="60" height="144" viewBox="0 0 60 144" fill="none" xmlns="http://www.w3.org/2000/svg">
<rect width="18" height="18" fill="#D9D9D9"/>
<rect y="84" width="18" height="18" fill="#D9D9D9"/>
<rect y="21" width="18" height="18" fill="#D9D9D9"/>
<rect y="105" width="18" height="18" fill="#D9D9D9"/>
<rect x="21" width="18" height="18" fill="#D9D9D9"/>
<rect x="21" y="84" width="18" height="18" fill="#D9D9D9"/>
<rect x="21" y="21" width="18" height="18" fill="#D9D9D9"/>
<rect x="21" y="105" width="18" height="18" fill="#D9D9D9"/>
<rect x="42" width="18" height="18" fill="#D9D9D9"/>
<rect x="42" y="84" width="18" height="18" fill="#D9D9D9"/>
<rect x="42" y="21" width="18" height="18" fill="#D9D9D9"/>
<rect x="42" y="105" width="18" height="18" fill="#D9D9D9"/>
<rect y="42" width="18" height="18" fill="#D9D9D9"/>
<rect y="126" width="18" height="18" fill="#D9D9D9"/>
<rect y="63" width="18" height="18" fill="#D9D9D9"/>
<rect x="21" y="42" width="18" height="18" fill="#D9D9D9"/>
<rect x="21" y="126" width="18" height="18" fill="#D9D9D9"/>
<rect x="21" y="63" width="18" height="18" fill="#D9D9D9"/>
<rect x="42" y="42" width="18" height="18" fill="#D9D9D9"/>
<rect x="42" y="126" width="18" height="18" fill="#D9D9D9"/>
<rect x="42" y="63" width="18" height="18" fill="#D9D9D9"/>
</svg>
