<svg width="148" height="530" viewBox="0 0 148 530" fill="none" xmlns="http://www.w3.org/2000/svg">
<path d="M1.5 9.99999C1.5 5.30557 5.30558 1.5 10 1.5H138C142.694 1.5 146.5 5.30558 146.5 10V520C146.5 524.694 142.694 528.5 138 528.5H10C5.30558 528.5 1.5 524.694 1.5 520V9.99999Z" fill="#D9D9D9" stroke="#43473E" stroke-width="3"/>
<path opacity="0.3" d="M9.23127 265H139M9.23127 265L9.24573 280.875M9.23127 265L9.21682 249.125M139 265V280.875M139 265V249.125M9.34691 392H139M9.34691 392L9.36137 407.875M9.34691 392L9.33246 376.125M139 392V407.875M139 392V376.125M9.11564 138H139M9.11564 138L9.13009 153.875M9.11564 138L9.10118 122.125M139 138L139 153.875M139 138L139 122.125M9.17346 201.5H139M9.17346 201.5L9.18791 217.375M9.17346 201.5L9.159 185.625M139 201.5V217.375M139 201.5V185.625M9.05782 74.5H139M9.05782 74.5L9.07227 90.375M9.05782 74.5L9.04336 58.625M139 74.5V90.375M139 74.5V58.625M9.28909 328.5H139M9.28909 328.5L9.30355 344.375M9.28909 328.5L9.27464 312.625M139 328.5L139 344.375M139 328.5L139 312.625M9.40473 455.5H139M9.40473 455.5L9.43364 487.25M9.40473 455.5L9.39028 439.625M139 455.5V471.375M139 455.5V439.625M9.43364 487.25H139M9.43364 487.25L9.44809 503.125M139 487.25V503.125M139 487.25V471.375M9.37582 423.75H139M9.37582 423.75L9.39028 439.625M9.37582 423.75L9.36137 407.875M139 423.75V439.625M139 423.75V407.875M9.318 360.25H139M9.318 360.25L9.33246 376.125M9.318 360.25L9.30355 344.375M139 360.25V376.125M139 360.25V344.375M9.26018 296.75H139M9.26018 296.75L9.27464 312.625M9.26018 296.75L9.24573 280.875M139 296.75V312.625M139 296.75V280.875M9.20237 233.25H139M9.20237 233.25L9.21682 249.125M9.20237 233.25L9.18791 217.375M139 233.25V249.125M139 233.25V217.375M9.14455 169.75H139M9.14455 169.75L9.159 185.625M9.14455 169.75L9.13009 153.875M139 169.75V185.625M139 169.75V153.875M9.08673 106.25H139M9.08673 106.25L9.10118 122.125M9.08673 106.25L9.07227 90.375M139 106.25V122.125M139 106.25V90.375M9.02891 42.75H139M9.02891 42.75L9.04336 58.625M9.02891 42.75L9.01445 26.875M139 42.75V58.625M139 42.75V26.875M74.2312 519L74 11M74.2312 519H58.0391M74.2312 519H90.4234M74 11H57.75M74 11H90.25M41.8469 519L41.5 11M41.8469 519H25.6547M41.8469 519H58.0391M41.5 11H25.25M41.5 11H57.75M106.5 11L106.616 519M106.5 11H90.25M106.5 11H122.75M106.616 519H90.4234M106.616 519H122.808M9.44809 503.125L9.458 514.005C9.46051 516.764 11.6984 519 14.458 519H25.6547M9.44809 503.125H139M139 503.125L139 514C139 516.761 136.761 519 134 519H122.808M139 471.375H9M9.39028 439.625H139M139 407.875H9.36137M139 376.125H9.33246M139 344.375H9.30355M139 312.625H9.27464M139 280.875H9.24573M139 249.125H9.21682M139 217.375H9.18791M139 185.625H9.159M139 153.875H9.13009M139 122.125H9.10118M139 90.375H9.07227M139 58.625H9.04336M139 26.875V16C139 13.2386 136.761 11 134 11H122.75M139 26.875H9.01445M9.01445 26.875L9.00456 16.0046C9.00204 13.2414 11.2414 11 14.0046 11H25.25M25.25 11L25.6547 519M58.0391 519L57.75 11M90.25 11L90.4234 519M122.808 519L122.75 11" stroke="#FEFFF0"/>
<path d="M89.1726 183.48L76.72 166.367L92.742 162.619L89.1726 183.48Z" fill="white"/>
<path d="M70.1683 173.48L57.7188 156.364L73.7414 152.619L70.1683 173.48Z" fill="white"/>
<path d="M120.097 381.63L104.764 367.041L119.848 360.467L120.097 381.63Z" fill="#FEFFF0"/>
</svg>
