<svg width="132" height="510" viewBox="0 0 132 510" fill="none" xmlns="http://www.w3.org/2000/svg">
<path opacity="0.3" d="M1.23127 255H131M1.23127 255L1.24573 270.875M1.23127 255L1.21682 239.125M131 255V270.875M131 255V239.125M1.34691 382H131M1.34691 382L1.36137 397.875M1.34691 382L1.33246 366.125M131 382V397.875M131 382V366.125M1.11564 128H131M1.11564 128L1.13009 143.875M1.11564 128L1.10118 112.125M131 128L131 143.875M131 128L131 112.125M1.17346 191.5H131M1.17346 191.5L1.18791 207.375M1.17346 191.5L1.159 175.625M131 191.5V207.375M131 191.5V175.625M1.05782 64.5H131M1.05782 64.5L1.07227 80.375M1.05782 64.5L1.04336 48.625M131 64.5V80.375M131 64.5V48.625M1.28909 318.5H131M1.28909 318.5L1.30355 334.375M1.28909 318.5L1.27464 302.625M131 318.5L131 334.375M131 318.5L131 302.625M1.40473 445.5H131M1.40473 445.5L1.43364 477.25M1.40473 445.5L1.39028 429.625M131 445.5V461.375M131 445.5V429.625M1.43364 477.25H131M1.43364 477.25L1.44809 493.125M131 477.25V493.125M131 477.25V461.375M1.37582 413.75H131M1.37582 413.75L1.39028 429.625M1.37582 413.75L1.36137 397.875M131 413.75V429.625M131 413.75V397.875M1.318 350.25H131M1.318 350.25L1.33246 366.125M1.318 350.25L1.30355 334.375M131 350.25V366.125M131 350.25V334.375M1.26018 286.75H131M1.26018 286.75L1.27464 302.625M1.26018 286.75L1.24573 270.875M131 286.75V302.625M131 286.75V270.875M1.20237 223.25H131M1.20237 223.25L1.21682 239.125M1.20237 223.25L1.18791 207.375M131 223.25V239.125M131 223.25V207.375M1.14455 159.75H131M1.14455 159.75L1.159 175.625M1.14455 159.75L1.13009 143.875M131 159.75V175.625M131 159.75V143.875M1.08673 96.25H131M1.08673 96.25L1.10118 112.125M1.08673 96.25L1.07227 80.375M131 96.25V112.125M131 96.25V80.375M1.02891 32.75H131M1.02891 32.75L1.04336 48.625M1.02891 32.75L1.01445 16.875M131 32.75V48.625M131 32.75V16.875M66.2312 509L66 1M66.2312 509H50.0391M66.2312 509H82.4234M66 1H49.75M66 1H82.25M33.8469 509L33.5 1M33.8469 509H17.6547M33.8469 509H50.0391M33.5 1H17.25M33.5 1H49.75M98.5 1L98.6156 509M98.5 1H82.25M98.5 1H114.75M98.6156 509H82.4234M98.6156 509H114.808M1.44809 493.125L1.458 504.005C1.46051 506.764 3.69835 509 6.458 509H17.6547M1.44809 493.125H131M131 493.125L131 504C131 506.761 128.761 509 126 509H114.808M131 461.375H1M1.39028 429.625H131M131 397.875H1.36137M131 366.125H1.33246M131 334.375H1.30355M131 302.625H1.27464M131 270.875H1.24573M131 239.125H1.21682M131 207.375H1.18791M131 175.625H1.159M131 143.875H1.13009M131 112.125H1.10118M131 80.375H1.07227M131 48.625H1.04336M131 16.875V6C131 3.23858 128.761 1 126 1H114.75M131 16.875H1.01445M1.01445 16.875L1.00456 6.00455C1.00204 3.24135 3.24135 1 6.00456 1H17.25M17.25 1L17.6547 509M50.0391 509L49.75 1M82.25 1L82.4234 509M114.808 509L114.75 1" stroke="#A1A8AD"/>
<path d="M74.1726 150.48L61.72 133.367L77.742 129.619L74.1726 150.48Z" fill="#D9D9D9"/>
<path d="M55.1683 146.48L42.7188 129.364L58.7414 125.619L55.1683 146.48Z" fill="#D9D9D9"/>
<path d="M107.578 341.767L94.6072 325.043L110.507 320.806L107.578 341.767Z" fill="#D8E022"/>
</svg>
