<svg width="18" height="14" viewBox="0 0 18 14" fill="none" xmlns="http://www.w3.org/2000/svg">
<path d="M0.3125 13V11.0938H2.85938V3.60938H0.71875V2.15625C1.8125 1.94792 2.72917 1.61458 3.46875 1.15625H5.20312V11.0938H7.4375V13H0.3125ZM13.1406 13.2188C11.6406 13.2188 10.5417 12.474 9.84375 10.9844C9.36458 9.94271 9.125 8.625 9.125 7.03125C9.125 4.22917 9.81771 2.38021 11.2031 1.48438C11.7656 1.11979 12.4115 0.9375 13.1406 0.9375C14.6927 0.9375 15.8073 1.70833 16.4844 3.25C16.9219 4.26042 17.1406 5.52083 17.1406 7.03125C17.1406 9.70833 16.5104 11.5365 15.25 12.5156C14.6458 12.9844 13.9427 13.2188 13.1406 13.2188ZM13.1406 11.3906C14.3281 11.3698 14.9219 9.91667 14.9219 7.03125C14.8594 4.25 14.2656 2.82812 13.1406 2.76562C12.1198 2.76562 11.5365 3.78125 11.3906 5.8125C11.3594 6.1875 11.3438 6.59375 11.3438 7.03125C11.3542 9.92708 11.9531 11.3802 13.1406 11.3906Z" fill="#43473E"/>
</svg>
