<svg width="18" height="13" viewBox="0 0 18 13" fill="none" xmlns="http://www.w3.org/2000/svg">
<path d="M0.3125 12.4761V10.5698H2.85938V3.08545H0.71875V1.63232C1.8125 1.42399 2.72917 1.09066 3.46875 0.632324H5.20312V10.5698H7.4375V12.4761H0.3125ZM9.10938 12.4761V11.1167C11.6302 8.85628 13.2083 7.06462 13.8438 5.7417C14.1042 5.1792 14.2344 4.66357 14.2344 4.19482C14.2344 3.23649 13.8698 2.63232 13.1406 2.38232C12.9323 2.30941 12.7031 2.27295 12.4531 2.27295C11.7344 2.28337 11.0104 2.68962 10.2812 3.4917L9 2.21045C9.90625 1.25212 10.849 0.679199 11.8281 0.491699C12.1302 0.439616 12.4427 0.413574 12.7656 0.413574C14.1302 0.413574 15.151 0.882324 15.8281 1.81982C16.2656 2.44482 16.4844 3.18962 16.4844 4.0542C16.474 5.8667 15.1615 8.0542 12.5469 10.6167C13.3385 10.5334 13.9792 10.4917 14.4688 10.4917H17.0469V12.4761H9.10938Z" fill="#43473E"/>
</svg>
