<svg width="19" height="14" viewBox="0 0 19 14" fill="none" xmlns="http://www.w3.org/2000/svg">
<path d="M5.01562 11.4531C5.65104 11.4531 6.10938 11.1302 6.39062 10.4844C6.53646 10.1302 6.60938 9.72396 6.60938 9.26562C6.60938 8.04688 6.16146 7.36979 5.26562 7.23438C5.15104 7.21354 5.03646 7.20312 4.92188 7.20312C4.17188 7.21354 3.52604 7.63021 2.98438 8.45312C3.16146 10.2135 3.72396 11.2031 4.67188 11.4219C4.78646 11.4427 4.90104 11.4531 5.01562 11.4531ZM8.59375 2.28125L7.34375 3.6875C6.92708 3.20833 6.40104 2.92708 5.76562 2.84375C5.67188 2.83333 5.58854 2.82812 5.51562 2.82812C4.27604 2.82812 3.47917 3.61458 3.125 5.1875C3.02083 5.66667 2.95833 6.20833 2.9375 6.8125C3.44792 6.19792 4.08333 5.79688 4.84375 5.60938C5.03125 5.56771 5.20833 5.54688 5.375 5.54688C6.83333 5.54688 7.83333 6.11979 8.375 7.26562C8.63542 7.82812 8.76562 8.49479 8.76562 9.26562C8.76562 10.6302 8.29688 11.6875 7.35938 12.4375C6.69271 12.9583 5.92708 13.2188 5.0625 13.2188C3.72917 13.2188 2.67708 12.6615 1.90625 11.5469C1.16667 10.474 0.796875 9.03646 0.796875 7.23438C0.796875 4.69271 1.46875 2.88542 2.8125 1.8125C3.55208 1.22917 4.40625 0.9375 5.375 0.9375C6.64583 0.947917 7.71875 1.39583 8.59375 2.28125ZM14.1406 13.2188C12.6406 13.2188 11.5417 12.474 10.8438 10.9844C10.3646 9.94271 10.125 8.625 10.125 7.03125C10.125 4.22917 10.8177 2.38021 12.2031 1.48438C12.7656 1.11979 13.4115 0.9375 14.1406 0.9375C15.6927 0.9375 16.8073 1.70833 17.4844 3.25C17.9219 4.26042 18.1406 5.52083 18.1406 7.03125C18.1406 9.70833 17.5104 11.5365 16.25 12.5156C15.6458 12.9844 14.9427 13.2188 14.1406 13.2188ZM14.1406 11.3906C15.3281 11.3698 15.9219 9.91667 15.9219 7.03125C15.8594 4.25 15.2656 2.82812 14.1406 2.76562C13.1198 2.76562 12.5365 3.78125 12.3906 5.8125C12.3594 6.1875 12.3438 6.59375 12.3438 7.03125C12.3542 9.92708 12.9531 11.3802 14.1406 11.3906Z" fill="#43473E"/>
</svg>
