<svg width="19" height="14" viewBox="0 0 19 14" fill="none" xmlns="http://www.w3.org/2000/svg">
<path d="M4.70312 13.2188C3.38021 13.2188 2.33854 12.8333 1.57812 12.0625C1.02604 11.5 0.75 10.8333 0.75 10.0625C0.760417 8.72917 1.4375 7.69792 2.78125 6.96875V6.89062C1.73958 6.14062 1.21875 5.20312 1.21875 4.07812C1.21875 2.95312 1.68229 2.10417 2.60938 1.53125C3.22396 1.14583 3.94792 0.953125 4.78125 0.953125C6.09375 0.953125 7.05729 1.39062 7.67188 2.26562C8.03646 2.79688 8.21875 3.41146 8.21875 4.10938C8.21875 5.05729 7.80208 5.88542 6.96875 6.59375C6.875 6.67708 6.78646 6.75 6.70312 6.8125V6.89062C8.01562 7.61979 8.67708 8.67708 8.6875 10.0625C8.6875 11.0833 8.23958 11.8958 7.34375 12.5C6.625 12.9792 5.74479 13.2188 4.70312 13.2188ZM5.45312 6.23438C6.01562 5.63021 6.29688 4.96875 6.29688 4.25C6.29688 3.52083 6.02083 3.02083 5.46875 2.75C5.25 2.64583 5.00521 2.59375 4.73438 2.59375C4.14062 2.59375 3.71875 2.83854 3.46875 3.32812C3.35417 3.55729 3.29688 3.80729 3.29688 4.07812C3.29688 4.78646 3.70833 5.36458 4.53125 5.8125C4.78125 5.94792 5.08854 6.08854 5.45312 6.23438ZM4.76562 11.5625C5.53646 11.5625 6.05729 11.2812 6.32812 10.7188C6.44271 10.4896 6.5 10.2396 6.5 9.96875C6.5 9.29167 6.11979 8.73438 5.35938 8.29688C5.04688 8.10938 4.55208 7.88021 3.875 7.60938C3.19792 8.25521 2.83333 8.98438 2.78125 9.79688C2.78125 10.4948 3.09375 11.0052 3.71875 11.3281C4.04167 11.4844 4.39062 11.5625 4.76562 11.5625ZM14.1406 13.2188C12.6406 13.2188 11.5417 12.474 10.8438 10.9844C10.3646 9.94271 10.125 8.625 10.125 7.03125C10.125 4.22917 10.8177 2.38021 12.2031 1.48438C12.7656 1.11979 13.4115 0.9375 14.1406 0.9375C15.6927 0.9375 16.8073 1.70833 17.4844 3.25C17.9219 4.26042 18.1406 5.52083 18.1406 7.03125C18.1406 9.70833 17.5104 11.5365 16.25 12.5156C15.6458 12.9844 14.9427 13.2188 14.1406 13.2188ZM14.1406 11.3906C15.3281 11.3698 15.9219 9.91667 15.9219 7.03125C15.8594 4.25 15.2656 2.82812 14.1406 2.76562C13.1198 2.76562 12.5365 3.78125 12.3906 5.8125C12.3594 6.1875 12.3438 6.59375 12.3438 7.03125C12.3542 9.92708 12.9531 11.3802 14.1406 11.3906Z" fill="#43473E"/>
</svg>
