<svg width="488" height="293" viewBox="0 0 488 293" fill="none" xmlns="http://www.w3.org/2000/svg">
<path d="M39.0391 39.0669V253.934" stroke="#E0E0E0"/>
<path d="M175.68 39.0669V253.934" stroke="#E0E0E0"/>
<path d="M312.32 39.0669V253.934" stroke="#E0E0E0"/>
<path d="M448.961 39.0669V253.934" stroke="#E0E0E0"/>
<path d="M100.852 180.92H39.0391V253.933H100.852V180.92Z" fill="#D8E022"/>
<path d="M244.001 101.649H182.188V253.934H244.001V101.649Z" fill="#D8E022"/>
<path d="M387.147 197.609H325.334V253.933H387.147V197.609Z" fill="#D8E022"/>
<path d="M162.667 191.351H100.854V253.933H162.667V191.351Z" fill="#A1A8AD"/>
<path d="M305.813 39.0669H244V253.934H305.813V39.0669Z" fill="#A1A8AD"/>
<path d="M448.96 203.867H387.146V253.933H448.96V203.867Z" fill="#A1A8AD"/>
<path d="M39.0391 253.933H448.959" stroke="black" stroke-width="2"/>
<path d="M39.0391 39.0669V253.934" stroke="black" stroke-width="2"/>
<path d="M23.0976 248.977C23.0976 247.961 23.2011 247.145 23.4082 246.528C23.6191 245.907 23.9297 245.428 24.3398 245.092C24.7539 244.756 25.2734 244.588 25.8984 244.588C26.3593 244.588 26.7636 244.682 27.1113 244.87C27.459 245.053 27.7461 245.321 27.9726 245.672C28.1992 246.02 28.3769 246.446 28.5058 246.95C28.6347 247.45 28.6992 248.125 28.6992 248.977C28.6992 249.985 28.5957 250.799 28.3886 251.42C28.1816 252.038 27.8711 252.516 27.457 252.856C27.0468 253.192 26.5273 253.36 25.8984 253.36C25.0703 253.36 24.4199 253.063 23.9472 252.469C23.3808 251.754 23.0976 250.59 23.0976 248.977ZM24.1816 248.977C24.1816 250.387 24.3457 251.327 24.6738 251.795C25.0058 252.26 25.414 252.493 25.8984 252.493C26.3828 252.493 26.789 252.258 27.1172 251.79C27.4492 251.321 27.6152 250.383 27.6152 248.977C27.6152 247.563 27.4492 246.624 27.1172 246.159C26.789 245.694 26.3789 245.461 25.8867 245.461C25.4023 245.461 25.0156 245.667 24.7265 246.077C24.3633 246.6 24.1816 247.567 24.1816 248.977Z" fill="black"/>
<path d="M20.3906 231.727H19.3359V225.006C19.082 225.248 18.748 225.49 18.3339 225.732C17.9238 225.975 17.5546 226.156 17.2265 226.277V225.258C17.8163 224.98 18.332 224.645 18.7734 224.25C19.2148 223.855 19.5273 223.473 19.7109 223.102H20.3906V231.727ZM23.0976 227.49C23.0976 226.475 23.2011 225.658 23.4081 225.041C23.6191 224.42 23.9296 223.941 24.3398 223.605C24.7538 223.27 25.2734 223.102 25.8984 223.102C26.3593 223.102 26.7636 223.195 27.1113 223.383C27.4589 223.566 27.746 223.834 27.9726 224.186C28.1992 224.533 28.3769 224.959 28.5058 225.463C28.6347 225.963 28.6992 226.639 28.6992 227.49C28.6992 228.498 28.5956 229.312 28.3886 229.934C28.1816 230.551 27.871 231.029 27.457 231.369C27.0468 231.705 26.5273 231.873 25.8984 231.873C25.0703 231.873 24.4199 231.576 23.9472 230.982C23.3808 230.268 23.0976 229.104 23.0976 227.49ZM24.1816 227.49C24.1816 228.9 24.3456 229.84 24.6738 230.309C25.0058 230.773 25.414 231.006 25.8984 231.006C26.3828 231.006 26.789 230.771 27.1171 230.303C27.4492 229.834 27.6152 228.896 27.6152 227.49C27.6152 226.076 27.4492 225.137 27.1171 224.672C26.789 224.207 26.3788 223.975 25.8867 223.975C25.4023 223.975 25.0156 224.18 24.7265 224.59C24.3632 225.113 24.1816 226.08 24.1816 227.49Z" fill="black"/>
<path d="M21.9609 209.227V210.24H16.2831C16.2753 209.986 16.3163 209.742 16.4062 209.508C16.5507 209.121 16.7812 208.74 17.0976 208.365C17.4179 207.99 17.8788 207.557 18.4804 207.064C19.414 206.299 20.0449 205.693 20.373 205.248C20.7011 204.799 20.8652 204.375 20.8652 203.977C20.8652 203.559 20.7148 203.207 20.414 202.922C20.1171 202.633 19.7285 202.488 19.248 202.488C18.7402 202.488 18.3339 202.641 18.0292 202.945C17.7245 203.25 17.5703 203.672 17.5663 204.211L16.4824 204.1C16.5566 203.291 16.8359 202.676 17.3203 202.254C17.8046 201.828 18.455 201.615 19.2714 201.615C20.0956 201.615 20.748 201.844 21.2285 202.301C21.7089 202.758 21.9492 203.324 21.9492 204C21.9492 204.344 21.8788 204.682 21.7382 205.014C21.5976 205.346 21.3632 205.695 21.0351 206.062C20.7109 206.43 20.1699 206.934 19.412 207.574C18.7792 208.105 18.373 208.467 18.1933 208.658C18.0136 208.846 17.8652 209.035 17.748 209.227H21.9609ZM27.0703 210.24H26.0156V203.52C25.7617 203.762 25.4277 204.004 25.0136 204.246C24.6035 204.488 24.2343 204.67 23.9062 204.791V203.771C24.496 203.494 25.0117 203.158 25.4531 202.764C25.8945 202.369 26.207 201.986 26.3906 201.615H27.0703V210.24Z" fill="black"/>
<path d="M16.4238 186.486L17.4785 186.345C17.5995 186.943 17.8046 187.375 18.0937 187.64C18.3867 187.902 18.7421 188.033 19.1601 188.033C19.6562 188.033 20.0742 187.861 20.414 187.517C20.7578 187.173 20.9296 186.748 20.9296 186.24C20.9296 185.755 20.7714 185.357 20.455 185.044C20.1386 184.728 19.7363 184.57 19.248 184.57C19.0488 184.57 18.8007 184.609 18.5038 184.687L18.621 183.761C18.6913 183.769 18.748 183.773 18.791 183.773C19.2402 183.773 19.6445 183.656 20.0038 183.421C20.3632 183.187 20.5429 182.826 20.5429 182.337C20.5429 181.951 20.412 181.63 20.1503 181.376C19.8886 181.123 19.5507 180.996 19.1367 180.996C18.7265 180.996 18.3847 181.125 18.1113 181.382C17.8378 181.64 17.662 182.027 17.5839 182.542L16.5292 182.355C16.6581 181.648 16.9511 181.101 17.4081 180.714C17.8652 180.324 18.4335 180.128 19.1132 180.128C19.582 180.128 20.0136 180.23 20.4081 180.433C20.8027 180.632 21.1035 180.906 21.3105 181.253C21.5214 181.601 21.6269 181.97 21.6269 182.361C21.6269 182.732 21.5273 183.07 21.3281 183.375C21.1288 183.679 20.8339 183.921 20.4433 184.101C20.9511 184.218 21.3456 184.462 21.6269 184.833C21.9081 185.201 22.0488 185.662 22.0488 186.216C22.0488 186.966 21.7753 187.603 21.2285 188.126C20.6816 188.646 19.9902 188.906 19.1542 188.906C18.4003 188.906 17.7734 188.681 17.2734 188.232C16.7773 187.783 16.4941 187.201 16.4238 186.486ZM27.0703 188.753H26.0156V182.033C25.7617 182.275 25.4277 182.517 25.0136 182.759C24.6035 183.001 24.2343 183.183 23.9062 183.304V182.285C24.496 182.007 25.0117 181.671 25.4531 181.277C25.8945 180.882 26.207 180.5 26.3906 180.128H27.0703V188.753Z" fill="black"/>
<path d="M19.7988 167.267V165.21H16.0722V164.243L19.9921 158.677H20.8535V164.243H22.0136V165.21H20.8535V167.267H19.7988ZM19.7988 164.243V160.37L17.1093 164.243H19.7988ZM27.0703 167.267H26.0156V160.546C25.7617 160.788 25.4277 161.03 25.0136 161.272C24.6035 161.515 24.2343 161.696 23.9062 161.817V160.798C24.496 160.521 25.0117 160.185 25.4531 159.79C25.8945 159.396 26.207 159.013 26.3906 158.642H27.0703V167.267Z" fill="black"/>
<path d="M16.4179 143.53L17.5253 143.436C17.6074 143.975 17.7968 144.381 18.0937 144.655C18.3945 144.924 18.7558 145.059 19.1777 145.059C19.6855 145.059 20.1152 144.868 20.4667 144.485C20.8183 144.102 20.9941 143.594 20.9941 142.961C20.9941 142.36 20.8242 141.885 20.4843 141.538C20.1484 141.19 19.707 141.016 19.1601 141.016C18.8203 141.016 18.5136 141.094 18.2402 141.25C17.9667 141.403 17.7519 141.602 17.5956 141.848L16.6054 141.719L17.4374 137.307H21.7089V138.315H18.2812L17.8183 140.624C18.3339 140.264 18.8749 140.084 19.4413 140.084C20.1913 140.084 20.8242 140.344 21.3398 140.864C21.8554 141.383 22.1132 142.051 22.1132 142.868C22.1132 143.645 21.8867 144.317 21.4335 144.883C20.8828 145.579 20.1308 145.926 19.1777 145.926C18.3964 145.926 17.7578 145.708 17.2617 145.27C16.7695 144.833 16.4882 144.252 16.4179 143.53ZM28.6406 144.766V145.78H22.9628C22.955 145.526 22.996 145.282 23.0859 145.047C23.2304 144.661 23.4609 144.28 23.7773 143.905C24.0976 143.53 24.5585 143.096 25.1601 142.604C26.0937 141.838 26.7245 141.233 27.0527 140.788C27.3808 140.338 27.5449 139.915 27.5449 139.516C27.5449 139.098 27.3945 138.747 27.0937 138.461C26.7968 138.172 26.4081 138.028 25.9277 138.028C25.4199 138.028 25.0136 138.18 24.7089 138.485C24.4042 138.79 24.2499 139.211 24.246 139.75L23.162 139.639C23.2363 138.831 23.5156 138.215 23.9999 137.793C24.4843 137.368 25.1347 137.155 25.9511 137.155C26.7753 137.155 27.4277 137.383 27.9081 137.84C28.3886 138.297 28.6288 138.864 28.6288 139.54C28.6288 139.883 28.5585 140.221 28.4179 140.553C28.2773 140.885 28.0429 141.235 27.7148 141.602C27.3906 141.969 26.8495 142.473 26.0917 143.114C25.4589 143.645 25.0527 144.006 24.873 144.198C24.6933 144.385 24.5449 144.575 24.4277 144.766H28.6406Z" fill="black"/>
<path d="M21.8906 117.807L20.8417 117.889C20.748 117.475 20.6152 117.174 20.4433 116.987C20.1581 116.686 19.8066 116.536 19.3886 116.536C19.0527 116.536 18.7578 116.629 18.5038 116.817C18.1718 117.059 17.9101 117.413 17.7187 117.877C17.5273 118.342 17.4277 119.004 17.4199 119.864C17.6738 119.477 17.9843 119.19 18.3515 119.002C18.7187 118.815 19.1035 118.721 19.5058 118.721C20.2089 118.721 20.8066 118.981 21.2988 119.5C21.7949 120.016 22.0429 120.684 22.0429 121.504C22.0429 122.043 21.9257 122.545 21.6913 123.01C21.4609 123.471 21.1425 123.825 20.7363 124.071C20.33 124.317 19.8691 124.44 19.3535 124.44C18.4745 124.44 17.7578 124.118 17.2031 123.473C16.6484 122.825 16.371 121.758 16.371 120.274C16.371 118.614 16.6777 117.407 17.291 116.653C17.8261 115.997 18.5468 115.668 19.4531 115.668C20.1288 115.668 20.6816 115.858 21.1113 116.237C21.5449 116.616 21.8046 117.139 21.8906 117.807ZM17.5839 121.51C17.5839 121.874 17.6601 122.221 17.8124 122.553C17.9687 122.885 18.1855 123.139 18.4628 123.315C18.7402 123.487 19.0312 123.573 19.3359 123.573C19.7812 123.573 20.164 123.393 20.4843 123.034C20.8046 122.674 20.9648 122.186 20.9648 121.569C20.9648 120.975 20.8066 120.508 20.4902 120.168C20.1738 119.825 19.7753 119.653 19.2949 119.653C18.8183 119.653 18.414 119.825 18.082 120.168C17.7499 120.508 17.5839 120.956 17.5839 121.51ZM28.6406 123.28V124.293H22.9628C22.955 124.04 22.996 123.795 23.0859 123.561C23.2304 123.174 23.4609 122.793 23.7773 122.418C24.0976 122.043 24.5585 121.61 25.1601 121.118C26.0937 120.352 26.7245 119.747 27.0527 119.301C27.3808 118.852 27.5449 118.428 27.5449 118.03C27.5449 117.612 27.3945 117.26 27.0937 116.975C26.7968 116.686 26.4081 116.542 25.9277 116.542C25.4199 116.542 25.0136 116.694 24.7089 116.999C24.4042 117.303 24.2499 117.725 24.246 118.264L23.162 118.153C23.2363 117.344 23.5156 116.729 23.9999 116.307C24.4843 115.881 25.1347 115.668 25.9511 115.668C26.7753 115.668 27.4277 115.897 27.9081 116.354C28.3886 116.811 28.6288 117.377 28.6288 118.053C28.6288 118.397 28.5585 118.735 28.4179 119.067C28.2773 119.399 28.0429 119.749 27.7148 120.116C27.3906 120.483 26.8495 120.987 26.0917 121.627C25.4589 122.159 25.0527 122.52 24.873 122.711C24.6933 122.899 24.5449 123.088 24.4277 123.28H28.6406Z" fill="black"/>
<path d="M16.4882 95.3418V94.3281H22.0488V95.1484C21.5019 95.7305 20.9589 96.5039 20.4199 97.4688C19.8847 98.4336 19.4706 99.4258 19.1777 100.445C18.9667 101.164 18.832 101.951 18.7734 102.807H17.6894C17.7011 102.131 17.8339 101.314 18.0878 100.357C18.3417 99.4004 18.705 98.4785 19.1777 97.5918C19.6542 96.7012 20.1601 95.9512 20.6953 95.3418H16.4882ZM28.6406 101.793V102.807H22.9628C22.955 102.553 22.996 102.309 23.0859 102.074C23.2304 101.688 23.4609 101.307 23.7773 100.932C24.0976 100.557 24.5585 100.123 25.1601 99.6309C26.0937 98.8652 26.7245 98.2598 27.0527 97.8145C27.3808 97.3652 27.5449 96.9414 27.5449 96.543C27.5449 96.125 27.3945 95.7734 27.0937 95.4883C26.7968 95.1992 26.4081 95.0547 25.9277 95.0547C25.4199 95.0547 25.0136 95.207 24.7089 95.5117C24.4042 95.8164 24.2499 96.2383 24.246 96.7773L23.162 96.666C23.2363 95.8574 23.5156 95.2422 23.9999 94.8203C24.4843 94.3945 25.1347 94.1816 25.9511 94.1816C26.7753 94.1816 27.4277 94.4102 27.9081 94.8672C28.3886 95.3242 28.6288 95.8906 28.6288 96.5664C28.6288 96.9102 28.5585 97.248 28.4179 97.5801C28.2773 97.9121 28.0429 98.2617 27.7148 98.6289C27.3906 98.9961 26.8495 99.5 26.0917 100.141C25.4589 100.672 25.0527 101.033 24.873 101.225C24.6933 101.412 24.5449 101.602 24.4277 101.793H28.6406Z" fill="black"/>
<path d="M18.041 76.6616C17.6035 76.5015 17.2792 76.2729 17.0683 75.9761C16.8574 75.6792 16.7519 75.3237 16.7519 74.9097C16.7519 74.2847 16.9765 73.7593 17.4257 73.3335C17.8749 72.9077 18.4726 72.6948 19.2187 72.6948C19.9687 72.6948 20.5722 72.9136 21.0292 73.3511C21.4863 73.7847 21.7148 74.314 21.7148 74.939C21.7148 75.3374 21.6093 75.6851 21.3984 75.9819C21.1913 76.2749 20.8749 76.5015 20.4492 76.6616C20.9765 76.8335 21.3769 77.1108 21.6503 77.4937C21.9277 77.8765 22.0663 78.3335 22.0663 78.8647C22.0663 79.5991 21.8066 80.2163 21.287 80.7163C20.7675 81.2163 20.0839 81.4663 19.2363 81.4663C18.3886 81.4663 17.705 81.2163 17.1855 80.7163C16.666 80.2124 16.4062 79.5854 16.4062 78.8354C16.4062 78.2769 16.5468 77.8101 16.8281 77.4351C17.1132 77.0562 17.5175 76.7983 18.041 76.6616ZM17.83 74.8745C17.83 75.2808 17.9609 75.6128 18.2226 75.8706C18.4843 76.1284 18.8242 76.2573 19.2421 76.2573C19.6484 76.2573 19.9804 76.1304 20.2382 75.8765C20.4999 75.6187 20.6308 75.3042 20.6308 74.9331C20.6308 74.5464 20.496 74.2222 20.2265 73.9604C19.9609 73.6948 19.6288 73.562 19.2304 73.562C18.8281 73.562 18.4941 73.6909 18.2285 73.9487C17.9628 74.2065 17.83 74.5151 17.83 74.8745ZM17.4902 78.8413C17.4902 79.1421 17.5605 79.4331 17.7011 79.7144C17.8456 79.9956 18.0585 80.2144 18.3398 80.3706C18.621 80.5229 18.9238 80.5991 19.248 80.5991C19.7519 80.5991 20.1679 80.437 20.496 80.1128C20.8242 79.7886 20.9882 79.3765 20.9882 78.8765C20.9882 78.3687 20.8183 77.9487 20.4785 77.6167C20.1425 77.2847 19.7206 77.1187 19.2128 77.1187C18.7167 77.1187 18.3046 77.2827 17.9765 77.6108C17.6523 77.939 17.4902 78.3491 17.4902 78.8413ZM28.6406 80.3062V81.3198H22.9628C22.955 81.0659 22.996 80.8218 23.0859 80.5874C23.2304 80.2007 23.4609 79.8198 23.7773 79.4448C24.0976 79.0698 24.5585 78.6362 25.1601 78.144C26.0937 77.3784 26.7245 76.7729 27.0527 76.3276C27.3808 75.8784 27.5449 75.4546 27.5449 75.0562C27.5449 74.6382 27.3945 74.2866 27.0937 74.0015C26.7968 73.7124 26.4081 73.5679 25.9277 73.5679C25.4199 73.5679 25.0136 73.7202 24.7089 74.0249C24.4042 74.3296 24.2499 74.7515 24.246 75.2905L23.162 75.1792C23.2363 74.3706 23.5156 73.7554 23.9999 73.3335C24.4843 72.9077 25.1347 72.6948 25.9511 72.6948C26.7753 72.6948 27.4277 72.9233 27.9081 73.3804C28.3886 73.8374 28.6288 74.4038 28.6288 75.0796C28.6288 75.4233 28.5585 75.7612 28.4179 76.0933C28.2773 76.4253 28.0429 76.7749 27.7148 77.1421C27.3906 77.5093 26.8495 78.0132 26.0917 78.6538C25.4589 79.1851 25.0527 79.5464 24.873 79.7378C24.6933 79.9253 24.5449 80.1147 24.4277 80.3062H28.6406Z" fill="black"/>
<path d="M16.5761 57.8472L17.5898 57.7534C17.6757 58.23 17.8398 58.5757 18.082 58.7905C18.3242 59.0054 18.6347 59.1128 19.0136 59.1128C19.3378 59.1128 19.621 59.0386 19.8632 58.8901C20.1093 58.7417 20.3105 58.5444 20.4667 58.2983C20.623 58.0483 20.7538 57.7124 20.8593 57.2905C20.9648 56.8687 21.0175 56.439 21.0175 56.0015C21.0175 55.9546 21.0156 55.8843 21.0117 55.7905C20.8007 56.1265 20.5117 56.3999 20.1445 56.6108C19.7812 56.8179 19.3867 56.9214 18.9609 56.9214C18.2499 56.9214 17.6484 56.6636 17.1562 56.1479C16.664 55.6323 16.4179 54.9526 16.4179 54.1089C16.4179 53.2378 16.6738 52.5366 17.1855 52.0054C17.7011 51.4741 18.3456 51.2085 19.1191 51.2085C19.6777 51.2085 20.1874 51.3589 20.6484 51.6597C21.1132 51.9604 21.4648 52.3901 21.7031 52.9487C21.9453 53.5034 22.0663 54.3081 22.0663 55.3628C22.0663 56.4604 21.9472 57.3354 21.7089 57.9878C21.4706 58.6362 21.1152 59.1304 20.6425 59.4702C20.1738 59.8101 19.623 59.98 18.9902 59.98C18.3183 59.98 17.7695 59.7944 17.3437 59.4233C16.9179 59.0483 16.662 58.5229 16.5761 57.8472ZM20.8945 54.0562C20.8945 53.4507 20.7324 52.9702 20.4081 52.6147C20.0878 52.2593 19.7011 52.0815 19.248 52.0815C18.7792 52.0815 18.371 52.2729 18.0234 52.6558C17.6757 53.0386 17.5019 53.5347 17.5019 54.144C17.5019 54.6909 17.666 55.1362 17.9941 55.48C18.3261 55.8198 18.7343 55.9897 19.2187 55.9897C19.707 55.9897 20.1074 55.8198 20.4199 55.48C20.7363 55.1362 20.8945 54.6616 20.8945 54.0562ZM23.1035 57.5659L24.1581 57.4253C24.2792 58.0229 24.4843 58.4546 24.7734 58.7202C25.0663 58.9819 25.4218 59.1128 25.8398 59.1128C26.3359 59.1128 26.7538 58.9409 27.0937 58.5972C27.4374 58.2534 27.6093 57.8276 27.6093 57.3198C27.6093 56.8354 27.4511 56.437 27.1347 56.1245C26.8183 55.8081 26.416 55.6499 25.9277 55.6499C25.7285 55.6499 25.4804 55.689 25.1835 55.7671L25.3007 54.8413C25.371 54.8491 25.4277 54.853 25.4706 54.853C25.9199 54.853 26.3242 54.7358 26.6835 54.5015C27.0429 54.2671 27.2226 53.9058 27.2226 53.4175C27.2226 53.0308 27.0917 52.7104 26.83 52.4565C26.5683 52.2026 26.2304 52.0757 25.8163 52.0757C25.4062 52.0757 25.0644 52.2046 24.791 52.4624C24.5175 52.7202 24.3417 53.1069 24.2636 53.6226L23.2089 53.4351C23.3378 52.728 23.6308 52.1812 24.0878 51.7944C24.5449 51.4038 25.1132 51.2085 25.7929 51.2085C26.2617 51.2085 26.6933 51.3101 27.0878 51.5132C27.4824 51.7124 27.7831 51.9858 27.9902 52.3335C28.2011 52.6812 28.3066 53.0503 28.3066 53.4409C28.3066 53.812 28.207 54.1499 28.0078 54.4546C27.8085 54.7593 27.5136 55.0015 27.123 55.1812C27.6308 55.2983 28.0253 55.5425 28.3066 55.9136C28.5878 56.2808 28.7285 56.7417 28.7285 57.2964C28.7285 58.0464 28.455 58.6831 27.9081 59.2065C27.3613 59.7261 26.6699 59.9858 25.8339 59.9858C25.08 59.9858 24.4531 59.7612 23.9531 59.312C23.457 58.8628 23.1738 58.2808 23.1035 57.5659Z" fill="black"/>
<path d="M13.7108 38.3467H12.6562V31.626C12.4023 31.8682 12.0683 32.1104 11.6542 32.3525C11.244 32.5947 10.8749 32.7764 10.5468 32.8975V31.8779C11.1366 31.6006 11.6523 31.2646 12.0937 30.8701C12.5351 30.4756 12.8476 30.0928 13.0312 29.7217H13.7108V38.3467ZM16.4179 34.1104C16.4179 33.0947 16.5214 32.2783 16.7284 31.6611C16.9394 31.04 17.2499 30.5615 17.6601 30.2256C18.0741 29.8896 18.5937 29.7217 19.2187 29.7217C19.6796 29.7217 20.0839 29.8154 20.4315 30.0029C20.7792 30.1865 21.0663 30.4541 21.2929 30.8057C21.5194 31.1533 21.6972 31.5791 21.8261 32.083C21.955 32.583 22.0194 33.2588 22.0194 34.1104C22.0194 35.1182 21.9159 35.9326 21.7089 36.5537C21.5019 37.1709 21.1913 37.6494 20.7773 37.9893C20.3671 38.3252 19.8476 38.4932 19.2187 38.4932C18.3905 38.4932 17.7401 38.1963 17.2675 37.6025C16.7011 36.8877 16.4179 35.7236 16.4179 34.1104ZM17.5019 34.1104C17.5019 35.5205 17.6659 36.46 17.994 36.9287C18.3261 37.3936 18.7343 37.626 19.2187 37.626C19.703 37.626 20.1093 37.3916 20.4374 36.9229C20.7694 36.4541 20.9355 35.5166 20.9355 34.1104C20.9355 32.6963 20.7694 31.7568 20.4374 31.292C20.1093 30.8271 19.6991 30.5947 19.2069 30.5947C18.7226 30.5947 18.3358 30.7998 18.0468 31.21C17.6835 31.7334 17.5019 32.7002 17.5019 34.1104ZM23.1034 36.0791L24.1581 35.9385C24.2792 36.5361 24.4843 36.9678 24.7733 37.2334C25.0663 37.4951 25.4218 37.626 25.8398 37.626C26.3358 37.626 26.7538 37.4541 27.0937 37.1104C27.4374 36.7666 27.6093 36.3408 27.6093 35.833C27.6093 35.3486 27.4511 34.9502 27.1347 34.6377C26.8183 34.3213 26.4159 34.1631 25.9276 34.1631C25.7284 34.1631 25.4804 34.2021 25.1835 34.2803L25.3007 33.3545C25.371 33.3623 25.4276 33.3662 25.4706 33.3662C25.9198 33.3662 26.3241 33.249 26.6835 33.0146C27.0429 32.7803 27.2226 32.4189 27.2226 31.9307C27.2226 31.5439 27.0917 31.2236 26.83 30.9697C26.5683 30.7158 26.2304 30.5889 25.8163 30.5889C25.4062 30.5889 25.0644 30.7178 24.7909 30.9756C24.5175 31.2334 24.3417 31.6201 24.2636 32.1357L23.2089 31.9482C23.3378 31.2412 23.6308 30.6943 24.0878 30.3076C24.5448 29.917 25.1132 29.7217 25.7929 29.7217C26.2616 29.7217 26.6933 29.8232 27.0878 30.0264C27.4823 30.2256 27.7831 30.499 27.9901 30.8467C28.2011 31.1943 28.3065 31.5635 28.3065 31.9541C28.3065 32.3252 28.2069 32.6631 28.0077 32.9678C27.8085 33.2725 27.5136 33.5146 27.123 33.6943C27.6308 33.8115 28.0253 34.0557 28.3065 34.4268C28.5878 34.7939 28.7284 35.2549 28.7284 35.8096C28.7284 36.5596 28.455 37.1963 27.9081 37.7197C27.3612 38.2393 26.6698 38.499 25.8339 38.499C25.08 38.499 24.453 38.2744 23.953 37.8252C23.4569 37.376 23.1737 36.7939 23.1034 36.0791Z" fill="black"/>
</svg>
